G04 #@! TF.GenerationSoftware,KiCad,Pcbnew,7.0.1-0*
G04 #@! TF.CreationDate,2023-04-02T19:02:11+10:00*
G04 #@! TF.ProjectId,RP2040_minimal,52503230-3430-45f6-9d69-6e696d616c2e,REV1*
G04 #@! TF.SameCoordinates,Original*
G04 #@! TF.FileFunction,Soldermask,Top*
G04 #@! TF.FilePolarity,Negative*
%FSLAX46Y46*%
G04 Gerber Fmt 4.6, Leading zero omitted, Abs format (unit mm)*
G04 Created by KiCad (PCBNEW 7.0.1-0) date 2023-04-02 19:02:11*
%MOMM*%
%LPD*%
G01*
G04 APERTURE LIST*
G04 Aperture macros list*
%AMRoundRect*
0 Rectangle with rounded corners*
0 $1 Rounding radius*
0 $2 $3 $4 $5 $6 $7 $8 $9 X,Y pos of 4 corners*
0 Add a 4 corners polygon primitive as box body*
4,1,4,$2,$3,$4,$5,$6,$7,$8,$9,$2,$3,0*
0 Add four circle primitives for the rounded corners*
1,1,$1+$1,$2,$3*
1,1,$1+$1,$4,$5*
1,1,$1+$1,$6,$7*
1,1,$1+$1,$8,$9*
0 Add four rect primitives between the rounded corners*
20,1,$1+$1,$2,$3,$4,$5,0*
20,1,$1+$1,$4,$5,$6,$7,0*
20,1,$1+$1,$6,$7,$8,$9,0*
20,1,$1+$1,$8,$9,$2,$3,0*%
G04 Aperture macros list end*
%ADD10RoundRect,0.301000X-0.250000X-0.475000X0.250000X-0.475000X0.250000X0.475000X-0.250000X0.475000X0*%
%ADD11RoundRect,0.051000X-0.200000X0.875000X-0.200000X-0.875000X0.200000X-0.875000X0.200000X0.875000X0*%
%ADD12RoundRect,0.051000X0.912500X0.350000X-0.912500X0.350000X-0.912500X-0.350000X0.912500X-0.350000X0*%
%ADD13RoundRect,0.051000X1.000000X0.730000X-1.000000X0.730000X-1.000000X-0.730000X1.000000X-0.730000X0*%
%ADD14RoundRect,0.435800X0.265200X1.240200X-0.265200X1.240200X-0.265200X-1.240200X0.265200X-1.240200X0*%
%ADD15O,1.402000X1.902000*%
%ADD16O,1.152000X1.552000*%
%ADD17RoundRect,0.051000X-0.712500X1.250000X-0.712500X-1.250000X0.712500X-1.250000X0.712500X1.250000X0*%
%ADD18RoundRect,0.051000X0.850000X0.850000X-0.850000X0.850000X-0.850000X-0.850000X0.850000X-0.850000X0*%
%ADD19O,1.802000X1.802000*%
%ADD20RoundRect,0.051000X-0.850000X-0.850000X0.850000X-0.850000X0.850000X0.850000X-0.850000X0.850000X0*%
%ADD21RoundRect,0.191000X0.170000X-0.140000X0.170000X0.140000X-0.170000X0.140000X-0.170000X-0.140000X0*%
%ADD22RoundRect,0.191000X0.140000X0.170000X-0.140000X0.170000X-0.140000X-0.170000X0.140000X-0.170000X0*%
%ADD23RoundRect,0.191000X-0.170000X0.140000X-0.170000X-0.140000X0.170000X-0.140000X0.170000X0.140000X0*%
%ADD24RoundRect,0.051000X-0.750000X1.000000X-0.750000X-1.000000X0.750000X-1.000000X0.750000X1.000000X0*%
%ADD25RoundRect,0.051000X-1.900000X1.000000X-1.900000X-1.000000X1.900000X-1.000000X1.900000X1.000000X0*%
%ADD26RoundRect,0.201000X-0.650000X-0.150000X0.650000X-0.150000X0.650000X0.150000X-0.650000X0.150000X0*%
%ADD27RoundRect,0.191000X-0.140000X-0.170000X0.140000X-0.170000X0.140000X0.170000X-0.140000X0.170000X0*%
%ADD28RoundRect,0.101000X-0.387500X-0.050000X0.387500X-0.050000X0.387500X0.050000X-0.387500X0.050000X0*%
%ADD29RoundRect,0.101000X-0.050000X-0.387500X0.050000X-0.387500X0.050000X0.387500X-0.050000X0.387500X0*%
%ADD30RoundRect,0.195000X-1.456000X-1.456000X1.456000X-1.456000X1.456000X1.456000X-1.456000X1.456000X0*%
%ADD31C,2.802000*%
%ADD32RoundRect,0.051000X-2.800000X-1.050000X2.800000X-1.050000X2.800000X1.050000X-2.800000X1.050000X0*%
G04 APERTURE END LIST*
D10*
X108075000Y-89000000D03*
X109975000Y-89000000D03*
D11*
X101300000Y-74525000D03*
X100650000Y-74525000D03*
X100000000Y-74525000D03*
X99350000Y-74525000D03*
X98700000Y-74525000D03*
D12*
X102987500Y-73400000D03*
D13*
X102900000Y-74730000D03*
D14*
X102725000Y-72125000D03*
D15*
X102725000Y-71700000D03*
D16*
X102425000Y-74730000D03*
D17*
X100962500Y-71450000D03*
X99037500Y-71450000D03*
D16*
X97575000Y-74730000D03*
D14*
X97275000Y-72125000D03*
D15*
X97275000Y-71700000D03*
D13*
X97100000Y-74730000D03*
D12*
X97012500Y-73400000D03*
D18*
X91110000Y-76540000D03*
D19*
X91110000Y-74000000D03*
D20*
X75870000Y-74000000D03*
D19*
X78410000Y-74000000D03*
X75870000Y-76540000D03*
X78410000Y-76540000D03*
X75870000Y-79080000D03*
X78410000Y-79080000D03*
X75870000Y-81620000D03*
X78410000Y-81620000D03*
X75870000Y-84160000D03*
X78410000Y-84160000D03*
X75870000Y-86700000D03*
X78410000Y-86700000D03*
X75870000Y-89240000D03*
X78410000Y-89240000D03*
X75870000Y-91780000D03*
X78410000Y-91780000D03*
X75870000Y-94320000D03*
X78410000Y-94320000D03*
X75870000Y-96860000D03*
X78410000Y-96860000D03*
X75870000Y-99400000D03*
X78410000Y-99400000D03*
X75870000Y-101940000D03*
X78410000Y-101940000D03*
X75870000Y-104480000D03*
X78410000Y-104480000D03*
X75870000Y-107020000D03*
X78410000Y-107020000D03*
X75870000Y-109560000D03*
X78410000Y-109560000D03*
X75870000Y-112100000D03*
X78410000Y-112100000D03*
X75870000Y-114640000D03*
X78410000Y-114640000D03*
X75870000Y-117180000D03*
X78410000Y-117180000D03*
D21*
X104000000Y-93995000D03*
X104000000Y-93035000D03*
X103000000Y-93995000D03*
X103000000Y-93035000D03*
D22*
X93995000Y-101200000D03*
X93035000Y-101200000D03*
X96665000Y-82830000D03*
X95705000Y-82830000D03*
D23*
X89500000Y-81835000D03*
X89500000Y-82795000D03*
D20*
X121590000Y-74000000D03*
D19*
X124130000Y-74000000D03*
X121590000Y-76540000D03*
X124130000Y-76540000D03*
X121590000Y-79080000D03*
X124130000Y-79080000D03*
X121590000Y-81620000D03*
X124130000Y-81620000D03*
X121590000Y-84160000D03*
X124130000Y-84160000D03*
X121590000Y-86700000D03*
X124130000Y-86700000D03*
X121590000Y-89240000D03*
X124130000Y-89240000D03*
X121590000Y-91780000D03*
X124130000Y-91780000D03*
X121590000Y-94320000D03*
X124130000Y-94320000D03*
X121590000Y-96860000D03*
X124130000Y-96860000D03*
X121590000Y-99400000D03*
X124130000Y-99400000D03*
X121590000Y-101940000D03*
X124130000Y-101940000D03*
X121590000Y-104480000D03*
X124130000Y-104480000D03*
X121590000Y-107020000D03*
X124130000Y-107020000D03*
X121590000Y-109560000D03*
X124130000Y-109560000D03*
X121590000Y-112100000D03*
X124130000Y-112100000D03*
X121590000Y-114640000D03*
X124130000Y-114640000D03*
X121590000Y-117180000D03*
X124130000Y-117180000D03*
D24*
X110300000Y-79700000D03*
X108000000Y-79700000D03*
D25*
X108000000Y-86000000D03*
D24*
X105700000Y-79700000D03*
D26*
X89450000Y-85370000D03*
X89450000Y-86640000D03*
X89450000Y-87910000D03*
X89450000Y-89180000D03*
X96650000Y-89180000D03*
X96650000Y-87910000D03*
X96650000Y-86640000D03*
X96650000Y-85370000D03*
D27*
X99005000Y-109000000D03*
X99965000Y-109000000D03*
D21*
X91000000Y-82795000D03*
X91000000Y-81835000D03*
X100000000Y-92995000D03*
X100000000Y-92035000D03*
D27*
X106005000Y-101200000D03*
X106965000Y-101200000D03*
D23*
X100381000Y-106005000D03*
X100381000Y-106965000D03*
X101000000Y-93035000D03*
X101000000Y-93995000D03*
X101500000Y-106005000D03*
X101500000Y-106965000D03*
D10*
X106987500Y-76500000D03*
X108887500Y-76500000D03*
D22*
X93995000Y-97000000D03*
X93035000Y-97000000D03*
D27*
X106005000Y-94600000D03*
X106965000Y-94600000D03*
D28*
X96562500Y-97400000D03*
X96562500Y-97800000D03*
X96562500Y-98200000D03*
X96562500Y-98600000D03*
X96562500Y-99000000D03*
X96562500Y-99400000D03*
X96562500Y-99800000D03*
X96562500Y-100200000D03*
X96562500Y-100600000D03*
X96562500Y-101000000D03*
X96562500Y-101400000D03*
X96562500Y-101800000D03*
X96562500Y-102200000D03*
X96562500Y-102600000D03*
D29*
X97400000Y-103437500D03*
X97800000Y-103437500D03*
X98200000Y-103437500D03*
X98600000Y-103437500D03*
X99000000Y-103437500D03*
X99400000Y-103437500D03*
X99800000Y-103437500D03*
X100200000Y-103437500D03*
X100600000Y-103437500D03*
X101000000Y-103437500D03*
X101400000Y-103437500D03*
X101800000Y-103437500D03*
X102200000Y-103437500D03*
X102600000Y-103437500D03*
D28*
X103437500Y-102600000D03*
X103437500Y-102200000D03*
X103437500Y-101800000D03*
X103437500Y-101400000D03*
X103437500Y-101000000D03*
X103437500Y-100600000D03*
X103437500Y-100200000D03*
X103437500Y-99800000D03*
X103437500Y-99400000D03*
X103437500Y-99000000D03*
X103437500Y-98600000D03*
X103437500Y-98200000D03*
X103437500Y-97800000D03*
X103437500Y-97400000D03*
D29*
X102600000Y-96562500D03*
X102200000Y-96562500D03*
X101800000Y-96562500D03*
X101400000Y-96562500D03*
X101000000Y-96562500D03*
X100600000Y-96562500D03*
X100200000Y-96562500D03*
X99800000Y-96562500D03*
X99400000Y-96562500D03*
X99000000Y-96562500D03*
X98600000Y-96562500D03*
X98200000Y-96562500D03*
X97800000Y-96562500D03*
X97400000Y-96562500D03*
D30*
X100000000Y-100000000D03*
D22*
X96995000Y-109000000D03*
X96035000Y-109000000D03*
D31*
X113970000Y-74000000D03*
D23*
X102000000Y-93035000D03*
X102000000Y-93995000D03*
D31*
X113970000Y-117180000D03*
D21*
X99000000Y-92995000D03*
X99000000Y-92035000D03*
D27*
X106005000Y-96000000D03*
X106965000Y-96000000D03*
D23*
X98700000Y-106635000D03*
X98700000Y-107595000D03*
D31*
X86030000Y-74000000D03*
X86030000Y-117180000D03*
D32*
X93341000Y-113116000D03*
X102341000Y-113116000D03*
D10*
X84165000Y-78000000D03*
X86065000Y-78000000D03*
M02*
