%TF.GenerationSoftware,KiCad,Pcbnew,7.0.1-0*%
%TF.CreationDate,2023-04-02T19:04:10+10:00*%
%TF.ProjectId,RP2040_minimal,52503230-3430-45f6-9d69-6e696d616c2e,REV1*%
%TF.SameCoordinates,Original*%
%TF.FileFunction,Drillmap*%
%TF.FilePolarity,Positive*%
%FSLAX45Y45*%
G04 Gerber Fmt 4.5, Leading zero omitted, Abs format (unit mm)*
G04 Created by KiCad (PCBNEW 7.0.1-0) date 2023-04-02 19:04:10*
%MOMM*%
%LPD*%
G01*
G04 APERTURE LIST*
%ADD10C,0.600000*%
%ADD11C,0.200000*%
%ADD12C,0.270000*%
G04 APERTURE END LIST*
D10*
X12300000Y-12100000D02*
X7700000Y-12100000D01*
X12600000Y-7300000D02*
X12600000Y-11800000D01*
X7700000Y-7000000D02*
X12300000Y-7000000D01*
X7400000Y-11800000D02*
X7400000Y-7300000D01*
X7700000Y-7000000D02*
G75*
G03*
X7400000Y-7300000I0J-300000D01*
G01*
X12300000Y-12100000D02*
G75*
G03*
X12600000Y-11800000I0J300000D01*
G01*
X12600000Y-7300000D02*
G75*
G03*
X12300000Y-7000000I-300000J0D01*
G01*
X7400000Y-11800000D02*
G75*
G03*
X7700000Y-12100000I300000J0D01*
G01*
D11*
D12*
X8468000Y-7265000D02*
X8738000Y-7535000D01*
X8738000Y-7265000D02*
X8468000Y-7535000D01*
X8468000Y-11583000D02*
X8738000Y-11853000D01*
X8738000Y-11583000D02*
X8468000Y-11853000D01*
X11262000Y-7265000D02*
X11532000Y-7535000D01*
X11532000Y-7265000D02*
X11262000Y-7535000D01*
X11262000Y-11583000D02*
X11532000Y-11853000D01*
X11532000Y-11583000D02*
X11262000Y-11853000D01*
D11*
X7617619Y-12442524D02*
X7617619Y-12242524D01*
X7617619Y-12242524D02*
X7665238Y-12242524D01*
X7665238Y-12242524D02*
X7693809Y-12252048D01*
X7693809Y-12252048D02*
X7712857Y-12271095D01*
X7712857Y-12271095D02*
X7722381Y-12290143D01*
X7722381Y-12290143D02*
X7731905Y-12328238D01*
X7731905Y-12328238D02*
X7731905Y-12356809D01*
X7731905Y-12356809D02*
X7722381Y-12394905D01*
X7722381Y-12394905D02*
X7712857Y-12413952D01*
X7712857Y-12413952D02*
X7693809Y-12433000D01*
X7693809Y-12433000D02*
X7665238Y-12442524D01*
X7665238Y-12442524D02*
X7617619Y-12442524D01*
X7817619Y-12442524D02*
X7817619Y-12309190D01*
X7817619Y-12347286D02*
X7827143Y-12328238D01*
X7827143Y-12328238D02*
X7836667Y-12318714D01*
X7836667Y-12318714D02*
X7855714Y-12309190D01*
X7855714Y-12309190D02*
X7874762Y-12309190D01*
X7941428Y-12442524D02*
X7941428Y-12309190D01*
X7941428Y-12242524D02*
X7931905Y-12252048D01*
X7931905Y-12252048D02*
X7941428Y-12261571D01*
X7941428Y-12261571D02*
X7950952Y-12252048D01*
X7950952Y-12252048D02*
X7941428Y-12242524D01*
X7941428Y-12242524D02*
X7941428Y-12261571D01*
X8065238Y-12442524D02*
X8046190Y-12433000D01*
X8046190Y-12433000D02*
X8036667Y-12413952D01*
X8036667Y-12413952D02*
X8036667Y-12242524D01*
X8170000Y-12442524D02*
X8150952Y-12433000D01*
X8150952Y-12433000D02*
X8141428Y-12413952D01*
X8141428Y-12413952D02*
X8141428Y-12242524D01*
X8398571Y-12442524D02*
X8398571Y-12242524D01*
X8398571Y-12242524D02*
X8465238Y-12385381D01*
X8465238Y-12385381D02*
X8531905Y-12242524D01*
X8531905Y-12242524D02*
X8531905Y-12442524D01*
X8712857Y-12442524D02*
X8712857Y-12337762D01*
X8712857Y-12337762D02*
X8703333Y-12318714D01*
X8703333Y-12318714D02*
X8684286Y-12309190D01*
X8684286Y-12309190D02*
X8646190Y-12309190D01*
X8646190Y-12309190D02*
X8627143Y-12318714D01*
X8712857Y-12433000D02*
X8693810Y-12442524D01*
X8693810Y-12442524D02*
X8646190Y-12442524D01*
X8646190Y-12442524D02*
X8627143Y-12433000D01*
X8627143Y-12433000D02*
X8617619Y-12413952D01*
X8617619Y-12413952D02*
X8617619Y-12394905D01*
X8617619Y-12394905D02*
X8627143Y-12375857D01*
X8627143Y-12375857D02*
X8646190Y-12366333D01*
X8646190Y-12366333D02*
X8693810Y-12366333D01*
X8693810Y-12366333D02*
X8712857Y-12356809D01*
X8808095Y-12309190D02*
X8808095Y-12509190D01*
X8808095Y-12318714D02*
X8827143Y-12309190D01*
X8827143Y-12309190D02*
X8865238Y-12309190D01*
X8865238Y-12309190D02*
X8884286Y-12318714D01*
X8884286Y-12318714D02*
X8893810Y-12328238D01*
X8893810Y-12328238D02*
X8903333Y-12347286D01*
X8903333Y-12347286D02*
X8903333Y-12404428D01*
X8903333Y-12404428D02*
X8893810Y-12423476D01*
X8893810Y-12423476D02*
X8884286Y-12433000D01*
X8884286Y-12433000D02*
X8865238Y-12442524D01*
X8865238Y-12442524D02*
X8827143Y-12442524D01*
X8827143Y-12442524D02*
X8808095Y-12433000D01*
X8989048Y-12423476D02*
X8998571Y-12433000D01*
X8998571Y-12433000D02*
X8989048Y-12442524D01*
X8989048Y-12442524D02*
X8979524Y-12433000D01*
X8979524Y-12433000D02*
X8989048Y-12423476D01*
X8989048Y-12423476D02*
X8989048Y-12442524D01*
X8989048Y-12318714D02*
X8998571Y-12328238D01*
X8998571Y-12328238D02*
X8989048Y-12337762D01*
X8989048Y-12337762D02*
X8979524Y-12328238D01*
X8979524Y-12328238D02*
X8989048Y-12318714D01*
X8989048Y-12318714D02*
X8989048Y-12337762D01*
X7170000Y-12670000D02*
X7370000Y-12870000D01*
X7370000Y-12670000D02*
X7170000Y-12870000D01*
X7608095Y-12681571D02*
X7617619Y-12672048D01*
X7617619Y-12672048D02*
X7636667Y-12662524D01*
X7636667Y-12662524D02*
X7684286Y-12662524D01*
X7684286Y-12662524D02*
X7703333Y-12672048D01*
X7703333Y-12672048D02*
X7712857Y-12681571D01*
X7712857Y-12681571D02*
X7722381Y-12700619D01*
X7722381Y-12700619D02*
X7722381Y-12719667D01*
X7722381Y-12719667D02*
X7712857Y-12748238D01*
X7712857Y-12748238D02*
X7598571Y-12862524D01*
X7598571Y-12862524D02*
X7722381Y-12862524D01*
X7808095Y-12843476D02*
X7817619Y-12853000D01*
X7817619Y-12853000D02*
X7808095Y-12862524D01*
X7808095Y-12862524D02*
X7798571Y-12853000D01*
X7798571Y-12853000D02*
X7808095Y-12843476D01*
X7808095Y-12843476D02*
X7808095Y-12862524D01*
X7884286Y-12662524D02*
X8017619Y-12662524D01*
X8017619Y-12662524D02*
X7931905Y-12862524D01*
X8131905Y-12662524D02*
X8150952Y-12662524D01*
X8150952Y-12662524D02*
X8170000Y-12672048D01*
X8170000Y-12672048D02*
X8179524Y-12681571D01*
X8179524Y-12681571D02*
X8189048Y-12700619D01*
X8189048Y-12700619D02*
X8198571Y-12738714D01*
X8198571Y-12738714D02*
X8198571Y-12786333D01*
X8198571Y-12786333D02*
X8189048Y-12824428D01*
X8189048Y-12824428D02*
X8179524Y-12843476D01*
X8179524Y-12843476D02*
X8170000Y-12853000D01*
X8170000Y-12853000D02*
X8150952Y-12862524D01*
X8150952Y-12862524D02*
X8131905Y-12862524D01*
X8131905Y-12862524D02*
X8112857Y-12853000D01*
X8112857Y-12853000D02*
X8103333Y-12843476D01*
X8103333Y-12843476D02*
X8093809Y-12824428D01*
X8093809Y-12824428D02*
X8084286Y-12786333D01*
X8084286Y-12786333D02*
X8084286Y-12738714D01*
X8084286Y-12738714D02*
X8093809Y-12700619D01*
X8093809Y-12700619D02*
X8103333Y-12681571D01*
X8103333Y-12681571D02*
X8112857Y-12672048D01*
X8112857Y-12672048D02*
X8131905Y-12662524D01*
X8322381Y-12662524D02*
X8341429Y-12662524D01*
X8341429Y-12662524D02*
X8360476Y-12672048D01*
X8360476Y-12672048D02*
X8370000Y-12681571D01*
X8370000Y-12681571D02*
X8379524Y-12700619D01*
X8379524Y-12700619D02*
X8389048Y-12738714D01*
X8389048Y-12738714D02*
X8389048Y-12786333D01*
X8389048Y-12786333D02*
X8379524Y-12824428D01*
X8379524Y-12824428D02*
X8370000Y-12843476D01*
X8370000Y-12843476D02*
X8360476Y-12853000D01*
X8360476Y-12853000D02*
X8341429Y-12862524D01*
X8341429Y-12862524D02*
X8322381Y-12862524D01*
X8322381Y-12862524D02*
X8303333Y-12853000D01*
X8303333Y-12853000D02*
X8293809Y-12843476D01*
X8293809Y-12843476D02*
X8284286Y-12824428D01*
X8284286Y-12824428D02*
X8274762Y-12786333D01*
X8274762Y-12786333D02*
X8274762Y-12738714D01*
X8274762Y-12738714D02*
X8284286Y-12700619D01*
X8284286Y-12700619D02*
X8293809Y-12681571D01*
X8293809Y-12681571D02*
X8303333Y-12672048D01*
X8303333Y-12672048D02*
X8322381Y-12662524D01*
X8474762Y-12862524D02*
X8474762Y-12729190D01*
X8474762Y-12748238D02*
X8484286Y-12738714D01*
X8484286Y-12738714D02*
X8503333Y-12729190D01*
X8503333Y-12729190D02*
X8531905Y-12729190D01*
X8531905Y-12729190D02*
X8550952Y-12738714D01*
X8550952Y-12738714D02*
X8560476Y-12757762D01*
X8560476Y-12757762D02*
X8560476Y-12862524D01*
X8560476Y-12757762D02*
X8570000Y-12738714D01*
X8570000Y-12738714D02*
X8589048Y-12729190D01*
X8589048Y-12729190D02*
X8617619Y-12729190D01*
X8617619Y-12729190D02*
X8636667Y-12738714D01*
X8636667Y-12738714D02*
X8646191Y-12757762D01*
X8646191Y-12757762D02*
X8646191Y-12862524D01*
X8741429Y-12862524D02*
X8741429Y-12729190D01*
X8741429Y-12748238D02*
X8750952Y-12738714D01*
X8750952Y-12738714D02*
X8770000Y-12729190D01*
X8770000Y-12729190D02*
X8798572Y-12729190D01*
X8798572Y-12729190D02*
X8817619Y-12738714D01*
X8817619Y-12738714D02*
X8827143Y-12757762D01*
X8827143Y-12757762D02*
X8827143Y-12862524D01*
X8827143Y-12757762D02*
X8836667Y-12738714D01*
X8836667Y-12738714D02*
X8855714Y-12729190D01*
X8855714Y-12729190D02*
X8884286Y-12729190D01*
X8884286Y-12729190D02*
X8903333Y-12738714D01*
X8903333Y-12738714D02*
X8912857Y-12757762D01*
X8912857Y-12757762D02*
X8912857Y-12862524D01*
X9303333Y-12653000D02*
X9131905Y-12910143D01*
X9560476Y-12662524D02*
X9579524Y-12662524D01*
X9579524Y-12662524D02*
X9598572Y-12672048D01*
X9598572Y-12672048D02*
X9608095Y-12681571D01*
X9608095Y-12681571D02*
X9617619Y-12700619D01*
X9617619Y-12700619D02*
X9627143Y-12738714D01*
X9627143Y-12738714D02*
X9627143Y-12786333D01*
X9627143Y-12786333D02*
X9617619Y-12824428D01*
X9617619Y-12824428D02*
X9608095Y-12843476D01*
X9608095Y-12843476D02*
X9598572Y-12853000D01*
X9598572Y-12853000D02*
X9579524Y-12862524D01*
X9579524Y-12862524D02*
X9560476Y-12862524D01*
X9560476Y-12862524D02*
X9541429Y-12853000D01*
X9541429Y-12853000D02*
X9531905Y-12843476D01*
X9531905Y-12843476D02*
X9522381Y-12824428D01*
X9522381Y-12824428D02*
X9512857Y-12786333D01*
X9512857Y-12786333D02*
X9512857Y-12738714D01*
X9512857Y-12738714D02*
X9522381Y-12700619D01*
X9522381Y-12700619D02*
X9531905Y-12681571D01*
X9531905Y-12681571D02*
X9541429Y-12672048D01*
X9541429Y-12672048D02*
X9560476Y-12662524D01*
X9712857Y-12843476D02*
X9722381Y-12853000D01*
X9722381Y-12853000D02*
X9712857Y-12862524D01*
X9712857Y-12862524D02*
X9703334Y-12853000D01*
X9703334Y-12853000D02*
X9712857Y-12843476D01*
X9712857Y-12843476D02*
X9712857Y-12862524D01*
X9912857Y-12862524D02*
X9798572Y-12862524D01*
X9855714Y-12862524D02*
X9855714Y-12662524D01*
X9855714Y-12662524D02*
X9836667Y-12691095D01*
X9836667Y-12691095D02*
X9817619Y-12710143D01*
X9817619Y-12710143D02*
X9798572Y-12719667D01*
X10036667Y-12662524D02*
X10055715Y-12662524D01*
X10055715Y-12662524D02*
X10074762Y-12672048D01*
X10074762Y-12672048D02*
X10084286Y-12681571D01*
X10084286Y-12681571D02*
X10093810Y-12700619D01*
X10093810Y-12700619D02*
X10103334Y-12738714D01*
X10103334Y-12738714D02*
X10103334Y-12786333D01*
X10103334Y-12786333D02*
X10093810Y-12824428D01*
X10093810Y-12824428D02*
X10084286Y-12843476D01*
X10084286Y-12843476D02*
X10074762Y-12853000D01*
X10074762Y-12853000D02*
X10055715Y-12862524D01*
X10055715Y-12862524D02*
X10036667Y-12862524D01*
X10036667Y-12862524D02*
X10017619Y-12853000D01*
X10017619Y-12853000D02*
X10008095Y-12843476D01*
X10008095Y-12843476D02*
X9998572Y-12824428D01*
X9998572Y-12824428D02*
X9989048Y-12786333D01*
X9989048Y-12786333D02*
X9989048Y-12738714D01*
X9989048Y-12738714D02*
X9998572Y-12700619D01*
X9998572Y-12700619D02*
X10008095Y-12681571D01*
X10008095Y-12681571D02*
X10017619Y-12672048D01*
X10017619Y-12672048D02*
X10036667Y-12662524D01*
X10274762Y-12662524D02*
X10236667Y-12662524D01*
X10236667Y-12662524D02*
X10217619Y-12672048D01*
X10217619Y-12672048D02*
X10208095Y-12681571D01*
X10208095Y-12681571D02*
X10189048Y-12710143D01*
X10189048Y-12710143D02*
X10179524Y-12748238D01*
X10179524Y-12748238D02*
X10179524Y-12824428D01*
X10179524Y-12824428D02*
X10189048Y-12843476D01*
X10189048Y-12843476D02*
X10198572Y-12853000D01*
X10198572Y-12853000D02*
X10217619Y-12862524D01*
X10217619Y-12862524D02*
X10255715Y-12862524D01*
X10255715Y-12862524D02*
X10274762Y-12853000D01*
X10274762Y-12853000D02*
X10284286Y-12843476D01*
X10284286Y-12843476D02*
X10293810Y-12824428D01*
X10293810Y-12824428D02*
X10293810Y-12776809D01*
X10293810Y-12776809D02*
X10284286Y-12757762D01*
X10284286Y-12757762D02*
X10274762Y-12748238D01*
X10274762Y-12748238D02*
X10255715Y-12738714D01*
X10255715Y-12738714D02*
X10217619Y-12738714D01*
X10217619Y-12738714D02*
X10198572Y-12748238D01*
X10198572Y-12748238D02*
X10189048Y-12757762D01*
X10189048Y-12757762D02*
X10179524Y-12776809D01*
X10360476Y-12662524D02*
X10484286Y-12662524D01*
X10484286Y-12662524D02*
X10417619Y-12738714D01*
X10417619Y-12738714D02*
X10446191Y-12738714D01*
X10446191Y-12738714D02*
X10465238Y-12748238D01*
X10465238Y-12748238D02*
X10474762Y-12757762D01*
X10474762Y-12757762D02*
X10484286Y-12776809D01*
X10484286Y-12776809D02*
X10484286Y-12824428D01*
X10484286Y-12824428D02*
X10474762Y-12843476D01*
X10474762Y-12843476D02*
X10465238Y-12853000D01*
X10465238Y-12853000D02*
X10446191Y-12862524D01*
X10446191Y-12862524D02*
X10389048Y-12862524D01*
X10389048Y-12862524D02*
X10370000Y-12853000D01*
X10370000Y-12853000D02*
X10360476Y-12843476D01*
X10560476Y-12662524D02*
X10560476Y-12700619D01*
X10636667Y-12662524D02*
X10636667Y-12700619D01*
X10931905Y-12938714D02*
X10922381Y-12929190D01*
X10922381Y-12929190D02*
X10903334Y-12900619D01*
X10903334Y-12900619D02*
X10893810Y-12881571D01*
X10893810Y-12881571D02*
X10884286Y-12853000D01*
X10884286Y-12853000D02*
X10874762Y-12805381D01*
X10874762Y-12805381D02*
X10874762Y-12767286D01*
X10874762Y-12767286D02*
X10884286Y-12719667D01*
X10884286Y-12719667D02*
X10893810Y-12691095D01*
X10893810Y-12691095D02*
X10903334Y-12672048D01*
X10903334Y-12672048D02*
X10922381Y-12643476D01*
X10922381Y-12643476D02*
X10931905Y-12633952D01*
X11093810Y-12729190D02*
X11093810Y-12862524D01*
X11046191Y-12653000D02*
X10998572Y-12795857D01*
X10998572Y-12795857D02*
X11122381Y-12795857D01*
X11350953Y-12862524D02*
X11350953Y-12662524D01*
X11436667Y-12862524D02*
X11436667Y-12757762D01*
X11436667Y-12757762D02*
X11427143Y-12738714D01*
X11427143Y-12738714D02*
X11408096Y-12729190D01*
X11408096Y-12729190D02*
X11379524Y-12729190D01*
X11379524Y-12729190D02*
X11360476Y-12738714D01*
X11360476Y-12738714D02*
X11350953Y-12748238D01*
X11560476Y-12862524D02*
X11541429Y-12853000D01*
X11541429Y-12853000D02*
X11531905Y-12843476D01*
X11531905Y-12843476D02*
X11522381Y-12824428D01*
X11522381Y-12824428D02*
X11522381Y-12767286D01*
X11522381Y-12767286D02*
X11531905Y-12748238D01*
X11531905Y-12748238D02*
X11541429Y-12738714D01*
X11541429Y-12738714D02*
X11560476Y-12729190D01*
X11560476Y-12729190D02*
X11589048Y-12729190D01*
X11589048Y-12729190D02*
X11608096Y-12738714D01*
X11608096Y-12738714D02*
X11617619Y-12748238D01*
X11617619Y-12748238D02*
X11627143Y-12767286D01*
X11627143Y-12767286D02*
X11627143Y-12824428D01*
X11627143Y-12824428D02*
X11617619Y-12843476D01*
X11617619Y-12843476D02*
X11608096Y-12853000D01*
X11608096Y-12853000D02*
X11589048Y-12862524D01*
X11589048Y-12862524D02*
X11560476Y-12862524D01*
X11741429Y-12862524D02*
X11722381Y-12853000D01*
X11722381Y-12853000D02*
X11712857Y-12833952D01*
X11712857Y-12833952D02*
X11712857Y-12662524D01*
X11893810Y-12853000D02*
X11874762Y-12862524D01*
X11874762Y-12862524D02*
X11836667Y-12862524D01*
X11836667Y-12862524D02*
X11817619Y-12853000D01*
X11817619Y-12853000D02*
X11808096Y-12833952D01*
X11808096Y-12833952D02*
X11808096Y-12757762D01*
X11808096Y-12757762D02*
X11817619Y-12738714D01*
X11817619Y-12738714D02*
X11836667Y-12729190D01*
X11836667Y-12729190D02*
X11874762Y-12729190D01*
X11874762Y-12729190D02*
X11893810Y-12738714D01*
X11893810Y-12738714D02*
X11903334Y-12757762D01*
X11903334Y-12757762D02*
X11903334Y-12776809D01*
X11903334Y-12776809D02*
X11808096Y-12795857D01*
X11979524Y-12853000D02*
X11998572Y-12862524D01*
X11998572Y-12862524D02*
X12036667Y-12862524D01*
X12036667Y-12862524D02*
X12055715Y-12853000D01*
X12055715Y-12853000D02*
X12065238Y-12833952D01*
X12065238Y-12833952D02*
X12065238Y-12824428D01*
X12065238Y-12824428D02*
X12055715Y-12805381D01*
X12055715Y-12805381D02*
X12036667Y-12795857D01*
X12036667Y-12795857D02*
X12008096Y-12795857D01*
X12008096Y-12795857D02*
X11989048Y-12786333D01*
X11989048Y-12786333D02*
X11979524Y-12767286D01*
X11979524Y-12767286D02*
X11979524Y-12757762D01*
X11979524Y-12757762D02*
X11989048Y-12738714D01*
X11989048Y-12738714D02*
X12008096Y-12729190D01*
X12008096Y-12729190D02*
X12036667Y-12729190D01*
X12036667Y-12729190D02*
X12055715Y-12738714D01*
X12131905Y-12938714D02*
X12141429Y-12929190D01*
X12141429Y-12929190D02*
X12160477Y-12900619D01*
X12160477Y-12900619D02*
X12170000Y-12881571D01*
X12170000Y-12881571D02*
X12179524Y-12853000D01*
X12179524Y-12853000D02*
X12189048Y-12805381D01*
X12189048Y-12805381D02*
X12189048Y-12767286D01*
X12189048Y-12767286D02*
X12179524Y-12719667D01*
X12179524Y-12719667D02*
X12170000Y-12691095D01*
X12170000Y-12691095D02*
X12160477Y-12672048D01*
X12160477Y-12672048D02*
X12141429Y-12643476D01*
X12141429Y-12643476D02*
X12131905Y-12633952D01*
X12493810Y-12938714D02*
X12484286Y-12929190D01*
X12484286Y-12929190D02*
X12465238Y-12900619D01*
X12465238Y-12900619D02*
X12455715Y-12881571D01*
X12455715Y-12881571D02*
X12446191Y-12853000D01*
X12446191Y-12853000D02*
X12436667Y-12805381D01*
X12436667Y-12805381D02*
X12436667Y-12767286D01*
X12436667Y-12767286D02*
X12446191Y-12719667D01*
X12446191Y-12719667D02*
X12455715Y-12691095D01*
X12455715Y-12691095D02*
X12465238Y-12672048D01*
X12465238Y-12672048D02*
X12484286Y-12643476D01*
X12484286Y-12643476D02*
X12493810Y-12633952D01*
X12570000Y-12729190D02*
X12570000Y-12862524D01*
X12570000Y-12748238D02*
X12579524Y-12738714D01*
X12579524Y-12738714D02*
X12598572Y-12729190D01*
X12598572Y-12729190D02*
X12627143Y-12729190D01*
X12627143Y-12729190D02*
X12646191Y-12738714D01*
X12646191Y-12738714D02*
X12655715Y-12757762D01*
X12655715Y-12757762D02*
X12655715Y-12862524D01*
X12779524Y-12862524D02*
X12760477Y-12853000D01*
X12760477Y-12853000D02*
X12750953Y-12843476D01*
X12750953Y-12843476D02*
X12741429Y-12824428D01*
X12741429Y-12824428D02*
X12741429Y-12767286D01*
X12741429Y-12767286D02*
X12750953Y-12748238D01*
X12750953Y-12748238D02*
X12760477Y-12738714D01*
X12760477Y-12738714D02*
X12779524Y-12729190D01*
X12779524Y-12729190D02*
X12808096Y-12729190D01*
X12808096Y-12729190D02*
X12827143Y-12738714D01*
X12827143Y-12738714D02*
X12836667Y-12748238D01*
X12836667Y-12748238D02*
X12846191Y-12767286D01*
X12846191Y-12767286D02*
X12846191Y-12824428D01*
X12846191Y-12824428D02*
X12836667Y-12843476D01*
X12836667Y-12843476D02*
X12827143Y-12853000D01*
X12827143Y-12853000D02*
X12808096Y-12862524D01*
X12808096Y-12862524D02*
X12779524Y-12862524D01*
X12903334Y-12729190D02*
X12979524Y-12729190D01*
X12931905Y-12662524D02*
X12931905Y-12833952D01*
X12931905Y-12833952D02*
X12941429Y-12853000D01*
X12941429Y-12853000D02*
X12960477Y-12862524D01*
X12960477Y-12862524D02*
X12979524Y-12862524D01*
X13198572Y-12729190D02*
X13198572Y-12929190D01*
X13198572Y-12738714D02*
X13217619Y-12729190D01*
X13217619Y-12729190D02*
X13255715Y-12729190D01*
X13255715Y-12729190D02*
X13274762Y-12738714D01*
X13274762Y-12738714D02*
X13284286Y-12748238D01*
X13284286Y-12748238D02*
X13293810Y-12767286D01*
X13293810Y-12767286D02*
X13293810Y-12824428D01*
X13293810Y-12824428D02*
X13284286Y-12843476D01*
X13284286Y-12843476D02*
X13274762Y-12853000D01*
X13274762Y-12853000D02*
X13255715Y-12862524D01*
X13255715Y-12862524D02*
X13217619Y-12862524D01*
X13217619Y-12862524D02*
X13198572Y-12853000D01*
X13408096Y-12862524D02*
X13389048Y-12853000D01*
X13389048Y-12853000D02*
X13379524Y-12833952D01*
X13379524Y-12833952D02*
X13379524Y-12662524D01*
X13570000Y-12862524D02*
X13570000Y-12757762D01*
X13570000Y-12757762D02*
X13560477Y-12738714D01*
X13560477Y-12738714D02*
X13541429Y-12729190D01*
X13541429Y-12729190D02*
X13503334Y-12729190D01*
X13503334Y-12729190D02*
X13484286Y-12738714D01*
X13570000Y-12853000D02*
X13550953Y-12862524D01*
X13550953Y-12862524D02*
X13503334Y-12862524D01*
X13503334Y-12862524D02*
X13484286Y-12853000D01*
X13484286Y-12853000D02*
X13474762Y-12833952D01*
X13474762Y-12833952D02*
X13474762Y-12814905D01*
X13474762Y-12814905D02*
X13484286Y-12795857D01*
X13484286Y-12795857D02*
X13503334Y-12786333D01*
X13503334Y-12786333D02*
X13550953Y-12786333D01*
X13550953Y-12786333D02*
X13570000Y-12776809D01*
X13636667Y-12729190D02*
X13712858Y-12729190D01*
X13665239Y-12662524D02*
X13665239Y-12833952D01*
X13665239Y-12833952D02*
X13674762Y-12853000D01*
X13674762Y-12853000D02*
X13693810Y-12862524D01*
X13693810Y-12862524D02*
X13712858Y-12862524D01*
X13855715Y-12853000D02*
X13836667Y-12862524D01*
X13836667Y-12862524D02*
X13798572Y-12862524D01*
X13798572Y-12862524D02*
X13779524Y-12853000D01*
X13779524Y-12853000D02*
X13770000Y-12833952D01*
X13770000Y-12833952D02*
X13770000Y-12757762D01*
X13770000Y-12757762D02*
X13779524Y-12738714D01*
X13779524Y-12738714D02*
X13798572Y-12729190D01*
X13798572Y-12729190D02*
X13836667Y-12729190D01*
X13836667Y-12729190D02*
X13855715Y-12738714D01*
X13855715Y-12738714D02*
X13865239Y-12757762D01*
X13865239Y-12757762D02*
X13865239Y-12776809D01*
X13865239Y-12776809D02*
X13770000Y-12795857D01*
X14036667Y-12862524D02*
X14036667Y-12662524D01*
X14036667Y-12853000D02*
X14017620Y-12862524D01*
X14017620Y-12862524D02*
X13979524Y-12862524D01*
X13979524Y-12862524D02*
X13960477Y-12853000D01*
X13960477Y-12853000D02*
X13950953Y-12843476D01*
X13950953Y-12843476D02*
X13941429Y-12824428D01*
X13941429Y-12824428D02*
X13941429Y-12767286D01*
X13941429Y-12767286D02*
X13950953Y-12748238D01*
X13950953Y-12748238D02*
X13960477Y-12738714D01*
X13960477Y-12738714D02*
X13979524Y-12729190D01*
X13979524Y-12729190D02*
X14017620Y-12729190D01*
X14017620Y-12729190D02*
X14036667Y-12738714D01*
X14112858Y-12938714D02*
X14122381Y-12929190D01*
X14122381Y-12929190D02*
X14141429Y-12900619D01*
X14141429Y-12900619D02*
X14150953Y-12881571D01*
X14150953Y-12881571D02*
X14160477Y-12853000D01*
X14160477Y-12853000D02*
X14170000Y-12805381D01*
X14170000Y-12805381D02*
X14170000Y-12767286D01*
X14170000Y-12767286D02*
X14160477Y-12719667D01*
X14160477Y-12719667D02*
X14150953Y-12691095D01*
X14150953Y-12691095D02*
X14141429Y-12672048D01*
X14141429Y-12672048D02*
X14122381Y-12643476D01*
X14122381Y-12643476D02*
X14112858Y-12633952D01*
M02*
