%TF.GenerationSoftware,KiCad,Pcbnew,7.0.1-0*%
%TF.CreationDate,2023-04-02T19:04:10+10:00*%
%TF.ProjectId,RP2040_minimal,52503230-3430-45f6-9d69-6e696d616c2e,REV1*%
%TF.SameCoordinates,Original*%
%TF.FileFunction,Drillmap*%
%TF.FilePolarity,Positive*%
%FSLAX45Y45*%
G04 Gerber Fmt 4.5, Leading zero omitted, Abs format (unit mm)*
G04 Created by KiCad (PCBNEW 7.0.1-0) date 2023-04-02 19:04:10*
%MOMM*%
%LPD*%
G01*
G04 APERTURE LIST*
%ADD10C,0.600000*%
%ADD11C,0.200000*%
%ADD12C,0.035000*%
%ADD13C,0.065000*%
%ADD14C,0.070000*%
%ADD15C,0.100000*%
G04 APERTURE END LIST*
D10*
X12300000Y-12100000D02*
X7700000Y-12100000D01*
X12600000Y-7300000D02*
X12600000Y-11800000D01*
X7700000Y-7000000D02*
X12300000Y-7000000D01*
X7400000Y-11800000D02*
X7400000Y-7300000D01*
X7700000Y-7000000D02*
G75*
G03*
X7400000Y-7300000I0J-300000D01*
G01*
X12300000Y-12100000D02*
G75*
G03*
X12600000Y-11800000I0J300000D01*
G01*
X12600000Y-7300000D02*
G75*
G03*
X12300000Y-7000000I-300000J0D01*
G01*
X7400000Y-11800000D02*
G75*
G03*
X7700000Y-12100000I300000J0D01*
G01*
D11*
D12*
X8601500Y-7922500D02*
X8636500Y-7957500D01*
X8636500Y-7922500D02*
X8601500Y-7957500D01*
X8991500Y-11122500D02*
X9026500Y-11157500D01*
X9026500Y-11122500D02*
X8991500Y-11157500D01*
X8991500Y-11452500D02*
X9026500Y-11487500D01*
X9026500Y-11452500D02*
X8991500Y-11487500D01*
X9062500Y-8902500D02*
X9097500Y-8937500D01*
X9097500Y-8902500D02*
X9062500Y-8937500D01*
X9182500Y-9682500D02*
X9217500Y-9717500D01*
X9217500Y-9682500D02*
X9182500Y-9717500D01*
X9182500Y-10102500D02*
X9217500Y-10137500D01*
X9217500Y-10102500D02*
X9182500Y-10137500D01*
X9452500Y-8262500D02*
X9487500Y-8297500D01*
X9487500Y-8262500D02*
X9452500Y-8297500D01*
X9499900Y-10882500D02*
X9534900Y-10917500D01*
X9534900Y-10882500D02*
X9499900Y-10917500D01*
X9522500Y-7312500D02*
X9557500Y-7347500D01*
X9557500Y-7312500D02*
X9522500Y-7347500D01*
X9662500Y-11122500D02*
X9697500Y-11157500D01*
X9697500Y-11122500D02*
X9662500Y-11157500D01*
X9690400Y-10665450D02*
X9725400Y-10700450D01*
X9725400Y-10665450D02*
X9690400Y-10700450D01*
X9771500Y-11272500D02*
X9806500Y-11307500D01*
X9806500Y-11272500D02*
X9771500Y-11307500D01*
X9852500Y-7582500D02*
X9887500Y-7617500D01*
X9887500Y-7582500D02*
X9852500Y-7617500D01*
X9861500Y-11122500D02*
X9896500Y-11157500D01*
X9896500Y-11122500D02*
X9861500Y-11157500D01*
X9882500Y-9102501D02*
X9917500Y-9137501D01*
X9917500Y-9102501D02*
X9882500Y-9137501D01*
X9938050Y-10678150D02*
X9973050Y-10713150D01*
X9973050Y-10678150D02*
X9938050Y-10713150D01*
X9962500Y-9502499D02*
X9997500Y-9537499D01*
X9997500Y-9502499D02*
X9962500Y-9537499D01*
X9982500Y-9102500D02*
X10017500Y-9137500D01*
X10017500Y-9102500D02*
X9982500Y-9137500D01*
X10020599Y-10760699D02*
X10055599Y-10795699D01*
X10055599Y-10760699D02*
X10020599Y-10795699D01*
X10042497Y-10192500D02*
X10077497Y-10227500D01*
X10077497Y-10192500D02*
X10042497Y-10227500D01*
X10052500Y-9772500D02*
X10087500Y-9807500D01*
X10087500Y-9772500D02*
X10052500Y-9807500D01*
X10058700Y-10881350D02*
X10093700Y-10916350D01*
X10093700Y-10881350D02*
X10058700Y-10916350D01*
X10062500Y-10502500D02*
X10097500Y-10537500D01*
X10097500Y-10502500D02*
X10062500Y-10537500D01*
X10132500Y-10760700D02*
X10167500Y-10795700D01*
X10167500Y-10760700D02*
X10132500Y-10795700D01*
X10282500Y-9202500D02*
X10317500Y-9237500D01*
X10317500Y-9202500D02*
X10282500Y-9237500D01*
X10382500Y-9202500D02*
X10417500Y-9237500D01*
X10417500Y-9202500D02*
X10382500Y-9237500D01*
X10442500Y-7312500D02*
X10477500Y-7347500D01*
X10477500Y-7312500D02*
X10442500Y-7347500D01*
X10531500Y-11122500D02*
X10566500Y-11157500D01*
X10566500Y-11122500D02*
X10531500Y-11157500D01*
X10531500Y-11492500D02*
X10566500Y-11527500D01*
X10566500Y-11492500D02*
X10531500Y-11527500D01*
X10782500Y-9442500D02*
X10817500Y-9477500D01*
X10817500Y-9442500D02*
X10782500Y-9477500D01*
X10782500Y-9542500D02*
X10817500Y-9577500D01*
X10817500Y-9542500D02*
X10782500Y-9577500D01*
X10782500Y-10113000D02*
X10817500Y-10148000D01*
X10817500Y-10113000D02*
X10782500Y-10148000D01*
X10982500Y-7782500D02*
X11017500Y-7817500D01*
X11017500Y-7782500D02*
X10982500Y-7817500D01*
X11132500Y-8882500D02*
X11167500Y-8917500D01*
X11167500Y-8882500D02*
X11132500Y-8917500D01*
X9890000Y-9872500D02*
G75*
G03*
X9890000Y-9872500I-17500J0D01*
G01*
X9890000Y-10000000D02*
G75*
G03*
X9890000Y-10000000I-17500J0D01*
G01*
X9890000Y-10127500D02*
G75*
G03*
X9890000Y-10127500I-17500J0D01*
G01*
X10017500Y-9872500D02*
G75*
G03*
X10017500Y-9872500I-17500J0D01*
G01*
X10017500Y-10000000D02*
G75*
G03*
X10017500Y-10000000I-17500J0D01*
G01*
X10017500Y-10127500D02*
G75*
G03*
X10017500Y-10127500I-17500J0D01*
G01*
X10145000Y-9872500D02*
G75*
G03*
X10145000Y-9872500I-17500J0D01*
G01*
X10145000Y-10000000D02*
G75*
G03*
X10145000Y-10000000I-17500J0D01*
G01*
X10145000Y-10127500D02*
G75*
G03*
X10145000Y-10127500I-17500J0D01*
G01*
D13*
X9757500Y-7440500D02*
X9757500Y-7505500D01*
X9725000Y-7473000D02*
X9790000Y-7473000D01*
D11*
X9725000Y-7453000D02*
X9725000Y-7493000D01*
X9725000Y-7493000D02*
G75*
G03*
X9790000Y-7493000I32500J0D01*
G01*
X9790000Y-7493000D02*
X9790000Y-7453000D01*
X9790000Y-7453000D02*
G75*
G03*
X9725000Y-7453000I-32500J0D01*
G01*
D13*
X10242500Y-7440500D02*
X10242500Y-7505500D01*
X10210000Y-7473000D02*
X10275000Y-7473000D01*
D11*
X10210000Y-7453000D02*
X10210000Y-7493000D01*
X10210000Y-7493000D02*
G75*
G03*
X10275000Y-7493000I32500J0D01*
G01*
X10275000Y-7493000D02*
X10275000Y-7453000D01*
X10275000Y-7453000D02*
G75*
G03*
X10210000Y-7453000I-32500J0D01*
G01*
D14*
X9752249Y-7194749D02*
X9752249Y-7145251D01*
X9702751Y-7145251D01*
X9702751Y-7194749D01*
X9752249Y-7194749D01*
D11*
X9692500Y-7145000D02*
X9692500Y-7195000D01*
X9692500Y-7195000D02*
G75*
G03*
X9762500Y-7195000I35000J0D01*
G01*
X9762500Y-7195000D02*
X9762500Y-7145000D01*
X9762500Y-7145000D02*
G75*
G03*
X9692500Y-7145000I-35000J0D01*
G01*
D14*
X10297249Y-7194749D02*
X10297249Y-7145251D01*
X10247751Y-7145251D01*
X10247751Y-7194749D01*
X10297249Y-7194749D01*
D11*
X10237500Y-7145000D02*
X10237500Y-7195000D01*
X10237500Y-7195000D02*
G75*
G03*
X10307500Y-7195000I35000J0D01*
G01*
X10307500Y-7195000D02*
X10307500Y-7145000D01*
X10307500Y-7145000D02*
G75*
G03*
X10237500Y-7145000I-35000J0D01*
G01*
D15*
X7587000Y-7450000D02*
X7637000Y-7400000D01*
X7587000Y-7350000D01*
X7537000Y-7400000D01*
X7587000Y-7450000D01*
X7587000Y-7704000D02*
X7637000Y-7654000D01*
X7587000Y-7604000D01*
X7537000Y-7654000D01*
X7587000Y-7704000D01*
X7587000Y-7958000D02*
X7637000Y-7908000D01*
X7587000Y-7858000D01*
X7537000Y-7908000D01*
X7587000Y-7958000D01*
X7587000Y-8212000D02*
X7637000Y-8162000D01*
X7587000Y-8112000D01*
X7537000Y-8162000D01*
X7587000Y-8212000D01*
X7587000Y-8466000D02*
X7637000Y-8416000D01*
X7587000Y-8366000D01*
X7537000Y-8416000D01*
X7587000Y-8466000D01*
X7587000Y-8720000D02*
X7637000Y-8670000D01*
X7587000Y-8620000D01*
X7537000Y-8670000D01*
X7587000Y-8720000D01*
X7587000Y-8974000D02*
X7637000Y-8924000D01*
X7587000Y-8874000D01*
X7537000Y-8924000D01*
X7587000Y-8974000D01*
X7587000Y-9228000D02*
X7637000Y-9178000D01*
X7587000Y-9128000D01*
X7537000Y-9178000D01*
X7587000Y-9228000D01*
X7587000Y-9482000D02*
X7637000Y-9432000D01*
X7587000Y-9382000D01*
X7537000Y-9432000D01*
X7587000Y-9482000D01*
X7587000Y-9736000D02*
X7637000Y-9686000D01*
X7587000Y-9636000D01*
X7537000Y-9686000D01*
X7587000Y-9736000D01*
X7587000Y-9990000D02*
X7637000Y-9940000D01*
X7587000Y-9890000D01*
X7537000Y-9940000D01*
X7587000Y-9990000D01*
X7587000Y-10244000D02*
X7637000Y-10194000D01*
X7587000Y-10144000D01*
X7537000Y-10194000D01*
X7587000Y-10244000D01*
X7587000Y-10498000D02*
X7637000Y-10448000D01*
X7587000Y-10398000D01*
X7537000Y-10448000D01*
X7587000Y-10498000D01*
X7587000Y-10752000D02*
X7637000Y-10702000D01*
X7587000Y-10652000D01*
X7537000Y-10702000D01*
X7587000Y-10752000D01*
X7587000Y-11006000D02*
X7637000Y-10956000D01*
X7587000Y-10906000D01*
X7537000Y-10956000D01*
X7587000Y-11006000D01*
X7587000Y-11260000D02*
X7637000Y-11210000D01*
X7587000Y-11160000D01*
X7537000Y-11210000D01*
X7587000Y-11260000D01*
X7587000Y-11514000D02*
X7637000Y-11464000D01*
X7587000Y-11414000D01*
X7537000Y-11464000D01*
X7587000Y-11514000D01*
X7587000Y-11768000D02*
X7637000Y-11718000D01*
X7587000Y-11668000D01*
X7537000Y-11718000D01*
X7587000Y-11768000D01*
X7841000Y-7450000D02*
X7891000Y-7400000D01*
X7841000Y-7350000D01*
X7791000Y-7400000D01*
X7841000Y-7450000D01*
X7841000Y-7704000D02*
X7891000Y-7654000D01*
X7841000Y-7604000D01*
X7791000Y-7654000D01*
X7841000Y-7704000D01*
X7841000Y-7958000D02*
X7891000Y-7908000D01*
X7841000Y-7858000D01*
X7791000Y-7908000D01*
X7841000Y-7958000D01*
X7841000Y-8212000D02*
X7891000Y-8162000D01*
X7841000Y-8112000D01*
X7791000Y-8162000D01*
X7841000Y-8212000D01*
X7841000Y-8466000D02*
X7891000Y-8416000D01*
X7841000Y-8366000D01*
X7791000Y-8416000D01*
X7841000Y-8466000D01*
X7841000Y-8720000D02*
X7891000Y-8670000D01*
X7841000Y-8620000D01*
X7791000Y-8670000D01*
X7841000Y-8720000D01*
X7841000Y-8974000D02*
X7891000Y-8924000D01*
X7841000Y-8874000D01*
X7791000Y-8924000D01*
X7841000Y-8974000D01*
X7841000Y-9228000D02*
X7891000Y-9178000D01*
X7841000Y-9128000D01*
X7791000Y-9178000D01*
X7841000Y-9228000D01*
X7841000Y-9482000D02*
X7891000Y-9432000D01*
X7841000Y-9382000D01*
X7791000Y-9432000D01*
X7841000Y-9482000D01*
X7841000Y-9736000D02*
X7891000Y-9686000D01*
X7841000Y-9636000D01*
X7791000Y-9686000D01*
X7841000Y-9736000D01*
X7841000Y-9990000D02*
X7891000Y-9940000D01*
X7841000Y-9890000D01*
X7791000Y-9940000D01*
X7841000Y-9990000D01*
X7841000Y-10244000D02*
X7891000Y-10194000D01*
X7841000Y-10144000D01*
X7791000Y-10194000D01*
X7841000Y-10244000D01*
X7841000Y-10498000D02*
X7891000Y-10448000D01*
X7841000Y-10398000D01*
X7791000Y-10448000D01*
X7841000Y-10498000D01*
X7841000Y-10752000D02*
X7891000Y-10702000D01*
X7841000Y-10652000D01*
X7791000Y-10702000D01*
X7841000Y-10752000D01*
X7841000Y-11006000D02*
X7891000Y-10956000D01*
X7841000Y-10906000D01*
X7791000Y-10956000D01*
X7841000Y-11006000D01*
X7841000Y-11260000D02*
X7891000Y-11210000D01*
X7841000Y-11160000D01*
X7791000Y-11210000D01*
X7841000Y-11260000D01*
X7841000Y-11514000D02*
X7891000Y-11464000D01*
X7841000Y-11414000D01*
X7791000Y-11464000D01*
X7841000Y-11514000D01*
X7841000Y-11768000D02*
X7891000Y-11718000D01*
X7841000Y-11668000D01*
X7791000Y-11718000D01*
X7841000Y-11768000D01*
X9111000Y-7450000D02*
X9161000Y-7400000D01*
X9111000Y-7350000D01*
X9061000Y-7400000D01*
X9111000Y-7450000D01*
X9111000Y-7704000D02*
X9161000Y-7654000D01*
X9111000Y-7604000D01*
X9061000Y-7654000D01*
X9111000Y-7704000D01*
X12159000Y-7450000D02*
X12209000Y-7400000D01*
X12159000Y-7350000D01*
X12109000Y-7400000D01*
X12159000Y-7450000D01*
X12159000Y-7704000D02*
X12209000Y-7654000D01*
X12159000Y-7604000D01*
X12109000Y-7654000D01*
X12159000Y-7704000D01*
X12159000Y-7958000D02*
X12209000Y-7908000D01*
X12159000Y-7858000D01*
X12109000Y-7908000D01*
X12159000Y-7958000D01*
X12159000Y-8212000D02*
X12209000Y-8162000D01*
X12159000Y-8112000D01*
X12109000Y-8162000D01*
X12159000Y-8212000D01*
X12159000Y-8466000D02*
X12209000Y-8416000D01*
X12159000Y-8366000D01*
X12109000Y-8416000D01*
X12159000Y-8466000D01*
X12159000Y-8720000D02*
X12209000Y-8670000D01*
X12159000Y-8620000D01*
X12109000Y-8670000D01*
X12159000Y-8720000D01*
X12159000Y-8974000D02*
X12209000Y-8924000D01*
X12159000Y-8874000D01*
X12109000Y-8924000D01*
X12159000Y-8974000D01*
X12159000Y-9228000D02*
X12209000Y-9178000D01*
X12159000Y-9128000D01*
X12109000Y-9178000D01*
X12159000Y-9228000D01*
X12159000Y-9482000D02*
X12209000Y-9432000D01*
X12159000Y-9382000D01*
X12109000Y-9432000D01*
X12159000Y-9482000D01*
X12159000Y-9736000D02*
X12209000Y-9686000D01*
X12159000Y-9636000D01*
X12109000Y-9686000D01*
X12159000Y-9736000D01*
X12159000Y-9990000D02*
X12209000Y-9940000D01*
X12159000Y-9890000D01*
X12109000Y-9940000D01*
X12159000Y-9990000D01*
X12159000Y-10244000D02*
X12209000Y-10194000D01*
X12159000Y-10144000D01*
X12109000Y-10194000D01*
X12159000Y-10244000D01*
X12159000Y-10498000D02*
X12209000Y-10448000D01*
X12159000Y-10398000D01*
X12109000Y-10448000D01*
X12159000Y-10498000D01*
X12159000Y-10752000D02*
X12209000Y-10702000D01*
X12159000Y-10652000D01*
X12109000Y-10702000D01*
X12159000Y-10752000D01*
X12159000Y-11006000D02*
X12209000Y-10956000D01*
X12159000Y-10906000D01*
X12109000Y-10956000D01*
X12159000Y-11006000D01*
X12159000Y-11260000D02*
X12209000Y-11210000D01*
X12159000Y-11160000D01*
X12109000Y-11210000D01*
X12159000Y-11260000D01*
X12159000Y-11514000D02*
X12209000Y-11464000D01*
X12159000Y-11414000D01*
X12109000Y-11464000D01*
X12159000Y-11514000D01*
X12159000Y-11768000D02*
X12209000Y-11718000D01*
X12159000Y-11668000D01*
X12109000Y-11718000D01*
X12159000Y-11768000D01*
X12413000Y-7450000D02*
X12463000Y-7400000D01*
X12413000Y-7350000D01*
X12363000Y-7400000D01*
X12413000Y-7450000D01*
X12413000Y-7704000D02*
X12463000Y-7654000D01*
X12413000Y-7604000D01*
X12363000Y-7654000D01*
X12413000Y-7704000D01*
X12413000Y-7958000D02*
X12463000Y-7908000D01*
X12413000Y-7858000D01*
X12363000Y-7908000D01*
X12413000Y-7958000D01*
X12413000Y-8212000D02*
X12463000Y-8162000D01*
X12413000Y-8112000D01*
X12363000Y-8162000D01*
X12413000Y-8212000D01*
X12413000Y-8466000D02*
X12463000Y-8416000D01*
X12413000Y-8366000D01*
X12363000Y-8416000D01*
X12413000Y-8466000D01*
X12413000Y-8720000D02*
X12463000Y-8670000D01*
X12413000Y-8620000D01*
X12363000Y-8670000D01*
X12413000Y-8720000D01*
X12413000Y-8974000D02*
X12463000Y-8924000D01*
X12413000Y-8874000D01*
X12363000Y-8924000D01*
X12413000Y-8974000D01*
X12413000Y-9228000D02*
X12463000Y-9178000D01*
X12413000Y-9128000D01*
X12363000Y-9178000D01*
X12413000Y-9228000D01*
X12413000Y-9482000D02*
X12463000Y-9432000D01*
X12413000Y-9382000D01*
X12363000Y-9432000D01*
X12413000Y-9482000D01*
X12413000Y-9736000D02*
X12463000Y-9686000D01*
X12413000Y-9636000D01*
X12363000Y-9686000D01*
X12413000Y-9736000D01*
X12413000Y-9990000D02*
X12463000Y-9940000D01*
X12413000Y-9890000D01*
X12363000Y-9940000D01*
X12413000Y-9990000D01*
X12413000Y-10244000D02*
X12463000Y-10194000D01*
X12413000Y-10144000D01*
X12363000Y-10194000D01*
X12413000Y-10244000D01*
X12413000Y-10498000D02*
X12463000Y-10448000D01*
X12413000Y-10398000D01*
X12363000Y-10448000D01*
X12413000Y-10498000D01*
X12413000Y-10752000D02*
X12463000Y-10702000D01*
X12413000Y-10652000D01*
X12363000Y-10702000D01*
X12413000Y-10752000D01*
X12413000Y-11006000D02*
X12463000Y-10956000D01*
X12413000Y-10906000D01*
X12363000Y-10956000D01*
X12413000Y-11006000D01*
X12413000Y-11260000D02*
X12463000Y-11210000D01*
X12413000Y-11160000D01*
X12363000Y-11210000D01*
X12413000Y-11260000D01*
X12413000Y-11514000D02*
X12463000Y-11464000D01*
X12413000Y-11414000D01*
X12363000Y-11464000D01*
X12413000Y-11514000D01*
X12413000Y-11768000D02*
X12463000Y-11718000D01*
X12413000Y-11668000D01*
X12363000Y-11718000D01*
X12413000Y-11768000D01*
D11*
X7617619Y-12442524D02*
X7617619Y-12242524D01*
X7617619Y-12242524D02*
X7665238Y-12242524D01*
X7665238Y-12242524D02*
X7693809Y-12252048D01*
X7693809Y-12252048D02*
X7712857Y-12271095D01*
X7712857Y-12271095D02*
X7722381Y-12290143D01*
X7722381Y-12290143D02*
X7731905Y-12328238D01*
X7731905Y-12328238D02*
X7731905Y-12356809D01*
X7731905Y-12356809D02*
X7722381Y-12394905D01*
X7722381Y-12394905D02*
X7712857Y-12413952D01*
X7712857Y-12413952D02*
X7693809Y-12433000D01*
X7693809Y-12433000D02*
X7665238Y-12442524D01*
X7665238Y-12442524D02*
X7617619Y-12442524D01*
X7817619Y-12442524D02*
X7817619Y-12309190D01*
X7817619Y-12347286D02*
X7827143Y-12328238D01*
X7827143Y-12328238D02*
X7836667Y-12318714D01*
X7836667Y-12318714D02*
X7855714Y-12309190D01*
X7855714Y-12309190D02*
X7874762Y-12309190D01*
X7941428Y-12442524D02*
X7941428Y-12309190D01*
X7941428Y-12242524D02*
X7931905Y-12252048D01*
X7931905Y-12252048D02*
X7941428Y-12261571D01*
X7941428Y-12261571D02*
X7950952Y-12252048D01*
X7950952Y-12252048D02*
X7941428Y-12242524D01*
X7941428Y-12242524D02*
X7941428Y-12261571D01*
X8065238Y-12442524D02*
X8046190Y-12433000D01*
X8046190Y-12433000D02*
X8036667Y-12413952D01*
X8036667Y-12413952D02*
X8036667Y-12242524D01*
X8170000Y-12442524D02*
X8150952Y-12433000D01*
X8150952Y-12433000D02*
X8141428Y-12413952D01*
X8141428Y-12413952D02*
X8141428Y-12242524D01*
X8398571Y-12442524D02*
X8398571Y-12242524D01*
X8398571Y-12242524D02*
X8465238Y-12385381D01*
X8465238Y-12385381D02*
X8531905Y-12242524D01*
X8531905Y-12242524D02*
X8531905Y-12442524D01*
X8712857Y-12442524D02*
X8712857Y-12337762D01*
X8712857Y-12337762D02*
X8703333Y-12318714D01*
X8703333Y-12318714D02*
X8684286Y-12309190D01*
X8684286Y-12309190D02*
X8646190Y-12309190D01*
X8646190Y-12309190D02*
X8627143Y-12318714D01*
X8712857Y-12433000D02*
X8693810Y-12442524D01*
X8693810Y-12442524D02*
X8646190Y-12442524D01*
X8646190Y-12442524D02*
X8627143Y-12433000D01*
X8627143Y-12433000D02*
X8617619Y-12413952D01*
X8617619Y-12413952D02*
X8617619Y-12394905D01*
X8617619Y-12394905D02*
X8627143Y-12375857D01*
X8627143Y-12375857D02*
X8646190Y-12366333D01*
X8646190Y-12366333D02*
X8693810Y-12366333D01*
X8693810Y-12366333D02*
X8712857Y-12356809D01*
X8808095Y-12309190D02*
X8808095Y-12509190D01*
X8808095Y-12318714D02*
X8827143Y-12309190D01*
X8827143Y-12309190D02*
X8865238Y-12309190D01*
X8865238Y-12309190D02*
X8884286Y-12318714D01*
X8884286Y-12318714D02*
X8893810Y-12328238D01*
X8893810Y-12328238D02*
X8903333Y-12347286D01*
X8903333Y-12347286D02*
X8903333Y-12404428D01*
X8903333Y-12404428D02*
X8893810Y-12423476D01*
X8893810Y-12423476D02*
X8884286Y-12433000D01*
X8884286Y-12433000D02*
X8865238Y-12442524D01*
X8865238Y-12442524D02*
X8827143Y-12442524D01*
X8827143Y-12442524D02*
X8808095Y-12433000D01*
X8989048Y-12423476D02*
X8998571Y-12433000D01*
X8998571Y-12433000D02*
X8989048Y-12442524D01*
X8989048Y-12442524D02*
X8979524Y-12433000D01*
X8979524Y-12433000D02*
X8989048Y-12423476D01*
X8989048Y-12423476D02*
X8989048Y-12442524D01*
X8989048Y-12318714D02*
X8998571Y-12328238D01*
X8998571Y-12328238D02*
X8989048Y-12337762D01*
X8989048Y-12337762D02*
X8979524Y-12328238D01*
X8979524Y-12328238D02*
X8989048Y-12318714D01*
X8989048Y-12318714D02*
X8989048Y-12337762D01*
D12*
X7335000Y-12752500D02*
X7370000Y-12787500D01*
X7370000Y-12752500D02*
X7335000Y-12787500D01*
D11*
X7655714Y-12662524D02*
X7674762Y-12662524D01*
X7674762Y-12662524D02*
X7693809Y-12672048D01*
X7693809Y-12672048D02*
X7703333Y-12681571D01*
X7703333Y-12681571D02*
X7712857Y-12700619D01*
X7712857Y-12700619D02*
X7722381Y-12738714D01*
X7722381Y-12738714D02*
X7722381Y-12786333D01*
X7722381Y-12786333D02*
X7712857Y-12824428D01*
X7712857Y-12824428D02*
X7703333Y-12843476D01*
X7703333Y-12843476D02*
X7693809Y-12853000D01*
X7693809Y-12853000D02*
X7674762Y-12862524D01*
X7674762Y-12862524D02*
X7655714Y-12862524D01*
X7655714Y-12862524D02*
X7636667Y-12853000D01*
X7636667Y-12853000D02*
X7627143Y-12843476D01*
X7627143Y-12843476D02*
X7617619Y-12824428D01*
X7617619Y-12824428D02*
X7608095Y-12786333D01*
X7608095Y-12786333D02*
X7608095Y-12738714D01*
X7608095Y-12738714D02*
X7617619Y-12700619D01*
X7617619Y-12700619D02*
X7627143Y-12681571D01*
X7627143Y-12681571D02*
X7636667Y-12672048D01*
X7636667Y-12672048D02*
X7655714Y-12662524D01*
X7808095Y-12843476D02*
X7817619Y-12853000D01*
X7817619Y-12853000D02*
X7808095Y-12862524D01*
X7808095Y-12862524D02*
X7798571Y-12853000D01*
X7798571Y-12853000D02*
X7808095Y-12843476D01*
X7808095Y-12843476D02*
X7808095Y-12862524D01*
X7884286Y-12662524D02*
X8008095Y-12662524D01*
X8008095Y-12662524D02*
X7941428Y-12738714D01*
X7941428Y-12738714D02*
X7970000Y-12738714D01*
X7970000Y-12738714D02*
X7989048Y-12748238D01*
X7989048Y-12748238D02*
X7998571Y-12757762D01*
X7998571Y-12757762D02*
X8008095Y-12776809D01*
X8008095Y-12776809D02*
X8008095Y-12824428D01*
X8008095Y-12824428D02*
X7998571Y-12843476D01*
X7998571Y-12843476D02*
X7989048Y-12853000D01*
X7989048Y-12853000D02*
X7970000Y-12862524D01*
X7970000Y-12862524D02*
X7912857Y-12862524D01*
X7912857Y-12862524D02*
X7893809Y-12853000D01*
X7893809Y-12853000D02*
X7884286Y-12843476D01*
X8189048Y-12662524D02*
X8093809Y-12662524D01*
X8093809Y-12662524D02*
X8084286Y-12757762D01*
X8084286Y-12757762D02*
X8093809Y-12748238D01*
X8093809Y-12748238D02*
X8112857Y-12738714D01*
X8112857Y-12738714D02*
X8160476Y-12738714D01*
X8160476Y-12738714D02*
X8179524Y-12748238D01*
X8179524Y-12748238D02*
X8189048Y-12757762D01*
X8189048Y-12757762D02*
X8198571Y-12776809D01*
X8198571Y-12776809D02*
X8198571Y-12824428D01*
X8198571Y-12824428D02*
X8189048Y-12843476D01*
X8189048Y-12843476D02*
X8179524Y-12853000D01*
X8179524Y-12853000D02*
X8160476Y-12862524D01*
X8160476Y-12862524D02*
X8112857Y-12862524D01*
X8112857Y-12862524D02*
X8093809Y-12853000D01*
X8093809Y-12853000D02*
X8084286Y-12843476D01*
X8322381Y-12662524D02*
X8341429Y-12662524D01*
X8341429Y-12662524D02*
X8360476Y-12672048D01*
X8360476Y-12672048D02*
X8370000Y-12681571D01*
X8370000Y-12681571D02*
X8379524Y-12700619D01*
X8379524Y-12700619D02*
X8389048Y-12738714D01*
X8389048Y-12738714D02*
X8389048Y-12786333D01*
X8389048Y-12786333D02*
X8379524Y-12824428D01*
X8379524Y-12824428D02*
X8370000Y-12843476D01*
X8370000Y-12843476D02*
X8360476Y-12853000D01*
X8360476Y-12853000D02*
X8341429Y-12862524D01*
X8341429Y-12862524D02*
X8322381Y-12862524D01*
X8322381Y-12862524D02*
X8303333Y-12853000D01*
X8303333Y-12853000D02*
X8293809Y-12843476D01*
X8293809Y-12843476D02*
X8284286Y-12824428D01*
X8284286Y-12824428D02*
X8274762Y-12786333D01*
X8274762Y-12786333D02*
X8274762Y-12738714D01*
X8274762Y-12738714D02*
X8284286Y-12700619D01*
X8284286Y-12700619D02*
X8293809Y-12681571D01*
X8293809Y-12681571D02*
X8303333Y-12672048D01*
X8303333Y-12672048D02*
X8322381Y-12662524D01*
X8474762Y-12862524D02*
X8474762Y-12729190D01*
X8474762Y-12748238D02*
X8484286Y-12738714D01*
X8484286Y-12738714D02*
X8503333Y-12729190D01*
X8503333Y-12729190D02*
X8531905Y-12729190D01*
X8531905Y-12729190D02*
X8550952Y-12738714D01*
X8550952Y-12738714D02*
X8560476Y-12757762D01*
X8560476Y-12757762D02*
X8560476Y-12862524D01*
X8560476Y-12757762D02*
X8570000Y-12738714D01*
X8570000Y-12738714D02*
X8589048Y-12729190D01*
X8589048Y-12729190D02*
X8617619Y-12729190D01*
X8617619Y-12729190D02*
X8636667Y-12738714D01*
X8636667Y-12738714D02*
X8646191Y-12757762D01*
X8646191Y-12757762D02*
X8646191Y-12862524D01*
X8741429Y-12862524D02*
X8741429Y-12729190D01*
X8741429Y-12748238D02*
X8750952Y-12738714D01*
X8750952Y-12738714D02*
X8770000Y-12729190D01*
X8770000Y-12729190D02*
X8798572Y-12729190D01*
X8798572Y-12729190D02*
X8817619Y-12738714D01*
X8817619Y-12738714D02*
X8827143Y-12757762D01*
X8827143Y-12757762D02*
X8827143Y-12862524D01*
X8827143Y-12757762D02*
X8836667Y-12738714D01*
X8836667Y-12738714D02*
X8855714Y-12729190D01*
X8855714Y-12729190D02*
X8884286Y-12729190D01*
X8884286Y-12729190D02*
X8903333Y-12738714D01*
X8903333Y-12738714D02*
X8912857Y-12757762D01*
X8912857Y-12757762D02*
X8912857Y-12862524D01*
X9303333Y-12653000D02*
X9131905Y-12910143D01*
X9560476Y-12662524D02*
X9579524Y-12662524D01*
X9579524Y-12662524D02*
X9598572Y-12672048D01*
X9598572Y-12672048D02*
X9608095Y-12681571D01*
X9608095Y-12681571D02*
X9617619Y-12700619D01*
X9617619Y-12700619D02*
X9627143Y-12738714D01*
X9627143Y-12738714D02*
X9627143Y-12786333D01*
X9627143Y-12786333D02*
X9617619Y-12824428D01*
X9617619Y-12824428D02*
X9608095Y-12843476D01*
X9608095Y-12843476D02*
X9598572Y-12853000D01*
X9598572Y-12853000D02*
X9579524Y-12862524D01*
X9579524Y-12862524D02*
X9560476Y-12862524D01*
X9560476Y-12862524D02*
X9541429Y-12853000D01*
X9541429Y-12853000D02*
X9531905Y-12843476D01*
X9531905Y-12843476D02*
X9522381Y-12824428D01*
X9522381Y-12824428D02*
X9512857Y-12786333D01*
X9512857Y-12786333D02*
X9512857Y-12738714D01*
X9512857Y-12738714D02*
X9522381Y-12700619D01*
X9522381Y-12700619D02*
X9531905Y-12681571D01*
X9531905Y-12681571D02*
X9541429Y-12672048D01*
X9541429Y-12672048D02*
X9560476Y-12662524D01*
X9712857Y-12843476D02*
X9722381Y-12853000D01*
X9722381Y-12853000D02*
X9712857Y-12862524D01*
X9712857Y-12862524D02*
X9703334Y-12853000D01*
X9703334Y-12853000D02*
X9712857Y-12843476D01*
X9712857Y-12843476D02*
X9712857Y-12862524D01*
X9846191Y-12662524D02*
X9865238Y-12662524D01*
X9865238Y-12662524D02*
X9884286Y-12672048D01*
X9884286Y-12672048D02*
X9893810Y-12681571D01*
X9893810Y-12681571D02*
X9903334Y-12700619D01*
X9903334Y-12700619D02*
X9912857Y-12738714D01*
X9912857Y-12738714D02*
X9912857Y-12786333D01*
X9912857Y-12786333D02*
X9903334Y-12824428D01*
X9903334Y-12824428D02*
X9893810Y-12843476D01*
X9893810Y-12843476D02*
X9884286Y-12853000D01*
X9884286Y-12853000D02*
X9865238Y-12862524D01*
X9865238Y-12862524D02*
X9846191Y-12862524D01*
X9846191Y-12862524D02*
X9827143Y-12853000D01*
X9827143Y-12853000D02*
X9817619Y-12843476D01*
X9817619Y-12843476D02*
X9808095Y-12824428D01*
X9808095Y-12824428D02*
X9798572Y-12786333D01*
X9798572Y-12786333D02*
X9798572Y-12738714D01*
X9798572Y-12738714D02*
X9808095Y-12700619D01*
X9808095Y-12700619D02*
X9817619Y-12681571D01*
X9817619Y-12681571D02*
X9827143Y-12672048D01*
X9827143Y-12672048D02*
X9846191Y-12662524D01*
X10103334Y-12862524D02*
X9989048Y-12862524D01*
X10046191Y-12862524D02*
X10046191Y-12662524D01*
X10046191Y-12662524D02*
X10027143Y-12691095D01*
X10027143Y-12691095D02*
X10008095Y-12710143D01*
X10008095Y-12710143D02*
X9989048Y-12719667D01*
X10170000Y-12662524D02*
X10293810Y-12662524D01*
X10293810Y-12662524D02*
X10227143Y-12738714D01*
X10227143Y-12738714D02*
X10255715Y-12738714D01*
X10255715Y-12738714D02*
X10274762Y-12748238D01*
X10274762Y-12748238D02*
X10284286Y-12757762D01*
X10284286Y-12757762D02*
X10293810Y-12776809D01*
X10293810Y-12776809D02*
X10293810Y-12824428D01*
X10293810Y-12824428D02*
X10284286Y-12843476D01*
X10284286Y-12843476D02*
X10274762Y-12853000D01*
X10274762Y-12853000D02*
X10255715Y-12862524D01*
X10255715Y-12862524D02*
X10198572Y-12862524D01*
X10198572Y-12862524D02*
X10179524Y-12853000D01*
X10179524Y-12853000D02*
X10170000Y-12843476D01*
X10408095Y-12748238D02*
X10389048Y-12738714D01*
X10389048Y-12738714D02*
X10379524Y-12729190D01*
X10379524Y-12729190D02*
X10370000Y-12710143D01*
X10370000Y-12710143D02*
X10370000Y-12700619D01*
X10370000Y-12700619D02*
X10379524Y-12681571D01*
X10379524Y-12681571D02*
X10389048Y-12672048D01*
X10389048Y-12672048D02*
X10408095Y-12662524D01*
X10408095Y-12662524D02*
X10446191Y-12662524D01*
X10446191Y-12662524D02*
X10465238Y-12672048D01*
X10465238Y-12672048D02*
X10474762Y-12681571D01*
X10474762Y-12681571D02*
X10484286Y-12700619D01*
X10484286Y-12700619D02*
X10484286Y-12710143D01*
X10484286Y-12710143D02*
X10474762Y-12729190D01*
X10474762Y-12729190D02*
X10465238Y-12738714D01*
X10465238Y-12738714D02*
X10446191Y-12748238D01*
X10446191Y-12748238D02*
X10408095Y-12748238D01*
X10408095Y-12748238D02*
X10389048Y-12757762D01*
X10389048Y-12757762D02*
X10379524Y-12767286D01*
X10379524Y-12767286D02*
X10370000Y-12786333D01*
X10370000Y-12786333D02*
X10370000Y-12824428D01*
X10370000Y-12824428D02*
X10379524Y-12843476D01*
X10379524Y-12843476D02*
X10389048Y-12853000D01*
X10389048Y-12853000D02*
X10408095Y-12862524D01*
X10408095Y-12862524D02*
X10446191Y-12862524D01*
X10446191Y-12862524D02*
X10465238Y-12853000D01*
X10465238Y-12853000D02*
X10474762Y-12843476D01*
X10474762Y-12843476D02*
X10484286Y-12824428D01*
X10484286Y-12824428D02*
X10484286Y-12786333D01*
X10484286Y-12786333D02*
X10474762Y-12767286D01*
X10474762Y-12767286D02*
X10465238Y-12757762D01*
X10465238Y-12757762D02*
X10446191Y-12748238D01*
X10560476Y-12662524D02*
X10560476Y-12700619D01*
X10636667Y-12662524D02*
X10636667Y-12700619D01*
X10931905Y-12938714D02*
X10922381Y-12929190D01*
X10922381Y-12929190D02*
X10903334Y-12900619D01*
X10903334Y-12900619D02*
X10893810Y-12881571D01*
X10893810Y-12881571D02*
X10884286Y-12853000D01*
X10884286Y-12853000D02*
X10874762Y-12805381D01*
X10874762Y-12805381D02*
X10874762Y-12767286D01*
X10874762Y-12767286D02*
X10884286Y-12719667D01*
X10884286Y-12719667D02*
X10893810Y-12691095D01*
X10893810Y-12691095D02*
X10903334Y-12672048D01*
X10903334Y-12672048D02*
X10922381Y-12643476D01*
X10922381Y-12643476D02*
X10931905Y-12633952D01*
X10989048Y-12662524D02*
X11112857Y-12662524D01*
X11112857Y-12662524D02*
X11046191Y-12738714D01*
X11046191Y-12738714D02*
X11074762Y-12738714D01*
X11074762Y-12738714D02*
X11093810Y-12748238D01*
X11093810Y-12748238D02*
X11103334Y-12757762D01*
X11103334Y-12757762D02*
X11112857Y-12776809D01*
X11112857Y-12776809D02*
X11112857Y-12824428D01*
X11112857Y-12824428D02*
X11103334Y-12843476D01*
X11103334Y-12843476D02*
X11093810Y-12853000D01*
X11093810Y-12853000D02*
X11074762Y-12862524D01*
X11074762Y-12862524D02*
X11017619Y-12862524D01*
X11017619Y-12862524D02*
X10998572Y-12853000D01*
X10998572Y-12853000D02*
X10989048Y-12843476D01*
X11284286Y-12729190D02*
X11284286Y-12862524D01*
X11236667Y-12653000D02*
X11189048Y-12795857D01*
X11189048Y-12795857D02*
X11312857Y-12795857D01*
X11541429Y-12862524D02*
X11541429Y-12662524D01*
X11627143Y-12862524D02*
X11627143Y-12757762D01*
X11627143Y-12757762D02*
X11617619Y-12738714D01*
X11617619Y-12738714D02*
X11598572Y-12729190D01*
X11598572Y-12729190D02*
X11570000Y-12729190D01*
X11570000Y-12729190D02*
X11550953Y-12738714D01*
X11550953Y-12738714D02*
X11541429Y-12748238D01*
X11750953Y-12862524D02*
X11731905Y-12853000D01*
X11731905Y-12853000D02*
X11722381Y-12843476D01*
X11722381Y-12843476D02*
X11712857Y-12824428D01*
X11712857Y-12824428D02*
X11712857Y-12767286D01*
X11712857Y-12767286D02*
X11722381Y-12748238D01*
X11722381Y-12748238D02*
X11731905Y-12738714D01*
X11731905Y-12738714D02*
X11750953Y-12729190D01*
X11750953Y-12729190D02*
X11779524Y-12729190D01*
X11779524Y-12729190D02*
X11798572Y-12738714D01*
X11798572Y-12738714D02*
X11808096Y-12748238D01*
X11808096Y-12748238D02*
X11817619Y-12767286D01*
X11817619Y-12767286D02*
X11817619Y-12824428D01*
X11817619Y-12824428D02*
X11808096Y-12843476D01*
X11808096Y-12843476D02*
X11798572Y-12853000D01*
X11798572Y-12853000D02*
X11779524Y-12862524D01*
X11779524Y-12862524D02*
X11750953Y-12862524D01*
X11931905Y-12862524D02*
X11912857Y-12853000D01*
X11912857Y-12853000D02*
X11903334Y-12833952D01*
X11903334Y-12833952D02*
X11903334Y-12662524D01*
X12084286Y-12853000D02*
X12065238Y-12862524D01*
X12065238Y-12862524D02*
X12027143Y-12862524D01*
X12027143Y-12862524D02*
X12008096Y-12853000D01*
X12008096Y-12853000D02*
X11998572Y-12833952D01*
X11998572Y-12833952D02*
X11998572Y-12757762D01*
X11998572Y-12757762D02*
X12008096Y-12738714D01*
X12008096Y-12738714D02*
X12027143Y-12729190D01*
X12027143Y-12729190D02*
X12065238Y-12729190D01*
X12065238Y-12729190D02*
X12084286Y-12738714D01*
X12084286Y-12738714D02*
X12093810Y-12757762D01*
X12093810Y-12757762D02*
X12093810Y-12776809D01*
X12093810Y-12776809D02*
X11998572Y-12795857D01*
X12170000Y-12853000D02*
X12189048Y-12862524D01*
X12189048Y-12862524D02*
X12227143Y-12862524D01*
X12227143Y-12862524D02*
X12246191Y-12853000D01*
X12246191Y-12853000D02*
X12255715Y-12833952D01*
X12255715Y-12833952D02*
X12255715Y-12824428D01*
X12255715Y-12824428D02*
X12246191Y-12805381D01*
X12246191Y-12805381D02*
X12227143Y-12795857D01*
X12227143Y-12795857D02*
X12198572Y-12795857D01*
X12198572Y-12795857D02*
X12179524Y-12786333D01*
X12179524Y-12786333D02*
X12170000Y-12767286D01*
X12170000Y-12767286D02*
X12170000Y-12757762D01*
X12170000Y-12757762D02*
X12179524Y-12738714D01*
X12179524Y-12738714D02*
X12198572Y-12729190D01*
X12198572Y-12729190D02*
X12227143Y-12729190D01*
X12227143Y-12729190D02*
X12246191Y-12738714D01*
X12322381Y-12938714D02*
X12331905Y-12929190D01*
X12331905Y-12929190D02*
X12350953Y-12900619D01*
X12350953Y-12900619D02*
X12360477Y-12881571D01*
X12360477Y-12881571D02*
X12370000Y-12853000D01*
X12370000Y-12853000D02*
X12379524Y-12805381D01*
X12379524Y-12805381D02*
X12379524Y-12767286D01*
X12379524Y-12767286D02*
X12370000Y-12719667D01*
X12370000Y-12719667D02*
X12360477Y-12691095D01*
X12360477Y-12691095D02*
X12350953Y-12672048D01*
X12350953Y-12672048D02*
X12331905Y-12643476D01*
X12331905Y-12643476D02*
X12322381Y-12633952D01*
D12*
X7370000Y-13034000D02*
G75*
G03*
X7370000Y-13034000I-17500J0D01*
G01*
D11*
X7655714Y-12926524D02*
X7674762Y-12926524D01*
X7674762Y-12926524D02*
X7693809Y-12936048D01*
X7693809Y-12936048D02*
X7703333Y-12945571D01*
X7703333Y-12945571D02*
X7712857Y-12964619D01*
X7712857Y-12964619D02*
X7722381Y-13002714D01*
X7722381Y-13002714D02*
X7722381Y-13050333D01*
X7722381Y-13050333D02*
X7712857Y-13088428D01*
X7712857Y-13088428D02*
X7703333Y-13107476D01*
X7703333Y-13107476D02*
X7693809Y-13117000D01*
X7693809Y-13117000D02*
X7674762Y-13126524D01*
X7674762Y-13126524D02*
X7655714Y-13126524D01*
X7655714Y-13126524D02*
X7636667Y-13117000D01*
X7636667Y-13117000D02*
X7627143Y-13107476D01*
X7627143Y-13107476D02*
X7617619Y-13088428D01*
X7617619Y-13088428D02*
X7608095Y-13050333D01*
X7608095Y-13050333D02*
X7608095Y-13002714D01*
X7608095Y-13002714D02*
X7617619Y-12964619D01*
X7617619Y-12964619D02*
X7627143Y-12945571D01*
X7627143Y-12945571D02*
X7636667Y-12936048D01*
X7636667Y-12936048D02*
X7655714Y-12926524D01*
X7808095Y-13107476D02*
X7817619Y-13117000D01*
X7817619Y-13117000D02*
X7808095Y-13126524D01*
X7808095Y-13126524D02*
X7798571Y-13117000D01*
X7798571Y-13117000D02*
X7808095Y-13107476D01*
X7808095Y-13107476D02*
X7808095Y-13126524D01*
X7884286Y-12926524D02*
X8008095Y-12926524D01*
X8008095Y-12926524D02*
X7941428Y-13002714D01*
X7941428Y-13002714D02*
X7970000Y-13002714D01*
X7970000Y-13002714D02*
X7989048Y-13012238D01*
X7989048Y-13012238D02*
X7998571Y-13021762D01*
X7998571Y-13021762D02*
X8008095Y-13040809D01*
X8008095Y-13040809D02*
X8008095Y-13088428D01*
X8008095Y-13088428D02*
X7998571Y-13107476D01*
X7998571Y-13107476D02*
X7989048Y-13117000D01*
X7989048Y-13117000D02*
X7970000Y-13126524D01*
X7970000Y-13126524D02*
X7912857Y-13126524D01*
X7912857Y-13126524D02*
X7893809Y-13117000D01*
X7893809Y-13117000D02*
X7884286Y-13107476D01*
X8189048Y-12926524D02*
X8093809Y-12926524D01*
X8093809Y-12926524D02*
X8084286Y-13021762D01*
X8084286Y-13021762D02*
X8093809Y-13012238D01*
X8093809Y-13012238D02*
X8112857Y-13002714D01*
X8112857Y-13002714D02*
X8160476Y-13002714D01*
X8160476Y-13002714D02*
X8179524Y-13012238D01*
X8179524Y-13012238D02*
X8189048Y-13021762D01*
X8189048Y-13021762D02*
X8198571Y-13040809D01*
X8198571Y-13040809D02*
X8198571Y-13088428D01*
X8198571Y-13088428D02*
X8189048Y-13107476D01*
X8189048Y-13107476D02*
X8179524Y-13117000D01*
X8179524Y-13117000D02*
X8160476Y-13126524D01*
X8160476Y-13126524D02*
X8112857Y-13126524D01*
X8112857Y-13126524D02*
X8093809Y-13117000D01*
X8093809Y-13117000D02*
X8084286Y-13107476D01*
X8322381Y-12926524D02*
X8341429Y-12926524D01*
X8341429Y-12926524D02*
X8360476Y-12936048D01*
X8360476Y-12936048D02*
X8370000Y-12945571D01*
X8370000Y-12945571D02*
X8379524Y-12964619D01*
X8379524Y-12964619D02*
X8389048Y-13002714D01*
X8389048Y-13002714D02*
X8389048Y-13050333D01*
X8389048Y-13050333D02*
X8379524Y-13088428D01*
X8379524Y-13088428D02*
X8370000Y-13107476D01*
X8370000Y-13107476D02*
X8360476Y-13117000D01*
X8360476Y-13117000D02*
X8341429Y-13126524D01*
X8341429Y-13126524D02*
X8322381Y-13126524D01*
X8322381Y-13126524D02*
X8303333Y-13117000D01*
X8303333Y-13117000D02*
X8293809Y-13107476D01*
X8293809Y-13107476D02*
X8284286Y-13088428D01*
X8284286Y-13088428D02*
X8274762Y-13050333D01*
X8274762Y-13050333D02*
X8274762Y-13002714D01*
X8274762Y-13002714D02*
X8284286Y-12964619D01*
X8284286Y-12964619D02*
X8293809Y-12945571D01*
X8293809Y-12945571D02*
X8303333Y-12936048D01*
X8303333Y-12936048D02*
X8322381Y-12926524D01*
X8474762Y-13126524D02*
X8474762Y-12993190D01*
X8474762Y-13012238D02*
X8484286Y-13002714D01*
X8484286Y-13002714D02*
X8503333Y-12993190D01*
X8503333Y-12993190D02*
X8531905Y-12993190D01*
X8531905Y-12993190D02*
X8550952Y-13002714D01*
X8550952Y-13002714D02*
X8560476Y-13021762D01*
X8560476Y-13021762D02*
X8560476Y-13126524D01*
X8560476Y-13021762D02*
X8570000Y-13002714D01*
X8570000Y-13002714D02*
X8589048Y-12993190D01*
X8589048Y-12993190D02*
X8617619Y-12993190D01*
X8617619Y-12993190D02*
X8636667Y-13002714D01*
X8636667Y-13002714D02*
X8646191Y-13021762D01*
X8646191Y-13021762D02*
X8646191Y-13126524D01*
X8741429Y-13126524D02*
X8741429Y-12993190D01*
X8741429Y-13012238D02*
X8750952Y-13002714D01*
X8750952Y-13002714D02*
X8770000Y-12993190D01*
X8770000Y-12993190D02*
X8798572Y-12993190D01*
X8798572Y-12993190D02*
X8817619Y-13002714D01*
X8817619Y-13002714D02*
X8827143Y-13021762D01*
X8827143Y-13021762D02*
X8827143Y-13126524D01*
X8827143Y-13021762D02*
X8836667Y-13002714D01*
X8836667Y-13002714D02*
X8855714Y-12993190D01*
X8855714Y-12993190D02*
X8884286Y-12993190D01*
X8884286Y-12993190D02*
X8903333Y-13002714D01*
X8903333Y-13002714D02*
X8912857Y-13021762D01*
X8912857Y-13021762D02*
X8912857Y-13126524D01*
X9303333Y-12917000D02*
X9131905Y-13174143D01*
X9560476Y-12926524D02*
X9579524Y-12926524D01*
X9579524Y-12926524D02*
X9598572Y-12936048D01*
X9598572Y-12936048D02*
X9608095Y-12945571D01*
X9608095Y-12945571D02*
X9617619Y-12964619D01*
X9617619Y-12964619D02*
X9627143Y-13002714D01*
X9627143Y-13002714D02*
X9627143Y-13050333D01*
X9627143Y-13050333D02*
X9617619Y-13088428D01*
X9617619Y-13088428D02*
X9608095Y-13107476D01*
X9608095Y-13107476D02*
X9598572Y-13117000D01*
X9598572Y-13117000D02*
X9579524Y-13126524D01*
X9579524Y-13126524D02*
X9560476Y-13126524D01*
X9560476Y-13126524D02*
X9541429Y-13117000D01*
X9541429Y-13117000D02*
X9531905Y-13107476D01*
X9531905Y-13107476D02*
X9522381Y-13088428D01*
X9522381Y-13088428D02*
X9512857Y-13050333D01*
X9512857Y-13050333D02*
X9512857Y-13002714D01*
X9512857Y-13002714D02*
X9522381Y-12964619D01*
X9522381Y-12964619D02*
X9531905Y-12945571D01*
X9531905Y-12945571D02*
X9541429Y-12936048D01*
X9541429Y-12936048D02*
X9560476Y-12926524D01*
X9712857Y-13107476D02*
X9722381Y-13117000D01*
X9722381Y-13117000D02*
X9712857Y-13126524D01*
X9712857Y-13126524D02*
X9703334Y-13117000D01*
X9703334Y-13117000D02*
X9712857Y-13107476D01*
X9712857Y-13107476D02*
X9712857Y-13126524D01*
X9846191Y-12926524D02*
X9865238Y-12926524D01*
X9865238Y-12926524D02*
X9884286Y-12936048D01*
X9884286Y-12936048D02*
X9893810Y-12945571D01*
X9893810Y-12945571D02*
X9903334Y-12964619D01*
X9903334Y-12964619D02*
X9912857Y-13002714D01*
X9912857Y-13002714D02*
X9912857Y-13050333D01*
X9912857Y-13050333D02*
X9903334Y-13088428D01*
X9903334Y-13088428D02*
X9893810Y-13107476D01*
X9893810Y-13107476D02*
X9884286Y-13117000D01*
X9884286Y-13117000D02*
X9865238Y-13126524D01*
X9865238Y-13126524D02*
X9846191Y-13126524D01*
X9846191Y-13126524D02*
X9827143Y-13117000D01*
X9827143Y-13117000D02*
X9817619Y-13107476D01*
X9817619Y-13107476D02*
X9808095Y-13088428D01*
X9808095Y-13088428D02*
X9798572Y-13050333D01*
X9798572Y-13050333D02*
X9798572Y-13002714D01*
X9798572Y-13002714D02*
X9808095Y-12964619D01*
X9808095Y-12964619D02*
X9817619Y-12945571D01*
X9817619Y-12945571D02*
X9827143Y-12936048D01*
X9827143Y-12936048D02*
X9846191Y-12926524D01*
X10103334Y-13126524D02*
X9989048Y-13126524D01*
X10046191Y-13126524D02*
X10046191Y-12926524D01*
X10046191Y-12926524D02*
X10027143Y-12955095D01*
X10027143Y-12955095D02*
X10008095Y-12974143D01*
X10008095Y-12974143D02*
X9989048Y-12983667D01*
X10170000Y-12926524D02*
X10293810Y-12926524D01*
X10293810Y-12926524D02*
X10227143Y-13002714D01*
X10227143Y-13002714D02*
X10255715Y-13002714D01*
X10255715Y-13002714D02*
X10274762Y-13012238D01*
X10274762Y-13012238D02*
X10284286Y-13021762D01*
X10284286Y-13021762D02*
X10293810Y-13040809D01*
X10293810Y-13040809D02*
X10293810Y-13088428D01*
X10293810Y-13088428D02*
X10284286Y-13107476D01*
X10284286Y-13107476D02*
X10274762Y-13117000D01*
X10274762Y-13117000D02*
X10255715Y-13126524D01*
X10255715Y-13126524D02*
X10198572Y-13126524D01*
X10198572Y-13126524D02*
X10179524Y-13117000D01*
X10179524Y-13117000D02*
X10170000Y-13107476D01*
X10408095Y-13012238D02*
X10389048Y-13002714D01*
X10389048Y-13002714D02*
X10379524Y-12993190D01*
X10379524Y-12993190D02*
X10370000Y-12974143D01*
X10370000Y-12974143D02*
X10370000Y-12964619D01*
X10370000Y-12964619D02*
X10379524Y-12945571D01*
X10379524Y-12945571D02*
X10389048Y-12936048D01*
X10389048Y-12936048D02*
X10408095Y-12926524D01*
X10408095Y-12926524D02*
X10446191Y-12926524D01*
X10446191Y-12926524D02*
X10465238Y-12936048D01*
X10465238Y-12936048D02*
X10474762Y-12945571D01*
X10474762Y-12945571D02*
X10484286Y-12964619D01*
X10484286Y-12964619D02*
X10484286Y-12974143D01*
X10484286Y-12974143D02*
X10474762Y-12993190D01*
X10474762Y-12993190D02*
X10465238Y-13002714D01*
X10465238Y-13002714D02*
X10446191Y-13012238D01*
X10446191Y-13012238D02*
X10408095Y-13012238D01*
X10408095Y-13012238D02*
X10389048Y-13021762D01*
X10389048Y-13021762D02*
X10379524Y-13031286D01*
X10379524Y-13031286D02*
X10370000Y-13050333D01*
X10370000Y-13050333D02*
X10370000Y-13088428D01*
X10370000Y-13088428D02*
X10379524Y-13107476D01*
X10379524Y-13107476D02*
X10389048Y-13117000D01*
X10389048Y-13117000D02*
X10408095Y-13126524D01*
X10408095Y-13126524D02*
X10446191Y-13126524D01*
X10446191Y-13126524D02*
X10465238Y-13117000D01*
X10465238Y-13117000D02*
X10474762Y-13107476D01*
X10474762Y-13107476D02*
X10484286Y-13088428D01*
X10484286Y-13088428D02*
X10484286Y-13050333D01*
X10484286Y-13050333D02*
X10474762Y-13031286D01*
X10474762Y-13031286D02*
X10465238Y-13021762D01*
X10465238Y-13021762D02*
X10446191Y-13012238D01*
X10560476Y-12926524D02*
X10560476Y-12964619D01*
X10636667Y-12926524D02*
X10636667Y-12964619D01*
X10931905Y-13202714D02*
X10922381Y-13193190D01*
X10922381Y-13193190D02*
X10903334Y-13164619D01*
X10903334Y-13164619D02*
X10893810Y-13145571D01*
X10893810Y-13145571D02*
X10884286Y-13117000D01*
X10884286Y-13117000D02*
X10874762Y-13069381D01*
X10874762Y-13069381D02*
X10874762Y-13031286D01*
X10874762Y-13031286D02*
X10884286Y-12983667D01*
X10884286Y-12983667D02*
X10893810Y-12955095D01*
X10893810Y-12955095D02*
X10903334Y-12936048D01*
X10903334Y-12936048D02*
X10922381Y-12907476D01*
X10922381Y-12907476D02*
X10931905Y-12897952D01*
X11017619Y-13126524D02*
X11055715Y-13126524D01*
X11055715Y-13126524D02*
X11074762Y-13117000D01*
X11074762Y-13117000D02*
X11084286Y-13107476D01*
X11084286Y-13107476D02*
X11103334Y-13078905D01*
X11103334Y-13078905D02*
X11112857Y-13040809D01*
X11112857Y-13040809D02*
X11112857Y-12964619D01*
X11112857Y-12964619D02*
X11103334Y-12945571D01*
X11103334Y-12945571D02*
X11093810Y-12936048D01*
X11093810Y-12936048D02*
X11074762Y-12926524D01*
X11074762Y-12926524D02*
X11036667Y-12926524D01*
X11036667Y-12926524D02*
X11017619Y-12936048D01*
X11017619Y-12936048D02*
X11008096Y-12945571D01*
X11008096Y-12945571D02*
X10998572Y-12964619D01*
X10998572Y-12964619D02*
X10998572Y-13012238D01*
X10998572Y-13012238D02*
X11008096Y-13031286D01*
X11008096Y-13031286D02*
X11017619Y-13040809D01*
X11017619Y-13040809D02*
X11036667Y-13050333D01*
X11036667Y-13050333D02*
X11074762Y-13050333D01*
X11074762Y-13050333D02*
X11093810Y-13040809D01*
X11093810Y-13040809D02*
X11103334Y-13031286D01*
X11103334Y-13031286D02*
X11112857Y-13012238D01*
X11350953Y-13126524D02*
X11350953Y-12926524D01*
X11436667Y-13126524D02*
X11436667Y-13021762D01*
X11436667Y-13021762D02*
X11427143Y-13002714D01*
X11427143Y-13002714D02*
X11408096Y-12993190D01*
X11408096Y-12993190D02*
X11379524Y-12993190D01*
X11379524Y-12993190D02*
X11360476Y-13002714D01*
X11360476Y-13002714D02*
X11350953Y-13012238D01*
X11560476Y-13126524D02*
X11541429Y-13117000D01*
X11541429Y-13117000D02*
X11531905Y-13107476D01*
X11531905Y-13107476D02*
X11522381Y-13088428D01*
X11522381Y-13088428D02*
X11522381Y-13031286D01*
X11522381Y-13031286D02*
X11531905Y-13012238D01*
X11531905Y-13012238D02*
X11541429Y-13002714D01*
X11541429Y-13002714D02*
X11560476Y-12993190D01*
X11560476Y-12993190D02*
X11589048Y-12993190D01*
X11589048Y-12993190D02*
X11608096Y-13002714D01*
X11608096Y-13002714D02*
X11617619Y-13012238D01*
X11617619Y-13012238D02*
X11627143Y-13031286D01*
X11627143Y-13031286D02*
X11627143Y-13088428D01*
X11627143Y-13088428D02*
X11617619Y-13107476D01*
X11617619Y-13107476D02*
X11608096Y-13117000D01*
X11608096Y-13117000D02*
X11589048Y-13126524D01*
X11589048Y-13126524D02*
X11560476Y-13126524D01*
X11741429Y-13126524D02*
X11722381Y-13117000D01*
X11722381Y-13117000D02*
X11712857Y-13097952D01*
X11712857Y-13097952D02*
X11712857Y-12926524D01*
X11893810Y-13117000D02*
X11874762Y-13126524D01*
X11874762Y-13126524D02*
X11836667Y-13126524D01*
X11836667Y-13126524D02*
X11817619Y-13117000D01*
X11817619Y-13117000D02*
X11808096Y-13097952D01*
X11808096Y-13097952D02*
X11808096Y-13021762D01*
X11808096Y-13021762D02*
X11817619Y-13002714D01*
X11817619Y-13002714D02*
X11836667Y-12993190D01*
X11836667Y-12993190D02*
X11874762Y-12993190D01*
X11874762Y-12993190D02*
X11893810Y-13002714D01*
X11893810Y-13002714D02*
X11903334Y-13021762D01*
X11903334Y-13021762D02*
X11903334Y-13040809D01*
X11903334Y-13040809D02*
X11808096Y-13059857D01*
X11979524Y-13117000D02*
X11998572Y-13126524D01*
X11998572Y-13126524D02*
X12036667Y-13126524D01*
X12036667Y-13126524D02*
X12055715Y-13117000D01*
X12055715Y-13117000D02*
X12065238Y-13097952D01*
X12065238Y-13097952D02*
X12065238Y-13088428D01*
X12065238Y-13088428D02*
X12055715Y-13069381D01*
X12055715Y-13069381D02*
X12036667Y-13059857D01*
X12036667Y-13059857D02*
X12008096Y-13059857D01*
X12008096Y-13059857D02*
X11989048Y-13050333D01*
X11989048Y-13050333D02*
X11979524Y-13031286D01*
X11979524Y-13031286D02*
X11979524Y-13021762D01*
X11979524Y-13021762D02*
X11989048Y-13002714D01*
X11989048Y-13002714D02*
X12008096Y-12993190D01*
X12008096Y-12993190D02*
X12036667Y-12993190D01*
X12036667Y-12993190D02*
X12055715Y-13002714D01*
X12131905Y-13202714D02*
X12141429Y-13193190D01*
X12141429Y-13193190D02*
X12160477Y-13164619D01*
X12160477Y-13164619D02*
X12170000Y-13145571D01*
X12170000Y-13145571D02*
X12179524Y-13117000D01*
X12179524Y-13117000D02*
X12189048Y-13069381D01*
X12189048Y-13069381D02*
X12189048Y-13031286D01*
X12189048Y-13031286D02*
X12179524Y-12983667D01*
X12179524Y-12983667D02*
X12170000Y-12955095D01*
X12170000Y-12955095D02*
X12160477Y-12936048D01*
X12160477Y-12936048D02*
X12141429Y-12907476D01*
X12141429Y-12907476D02*
X12131905Y-12897952D01*
D13*
X7337500Y-13265500D02*
X7337500Y-13330500D01*
X7305000Y-13298000D02*
X7370000Y-13298000D01*
D11*
X7655714Y-13190524D02*
X7674762Y-13190524D01*
X7674762Y-13190524D02*
X7693809Y-13200048D01*
X7693809Y-13200048D02*
X7703333Y-13209571D01*
X7703333Y-13209571D02*
X7712857Y-13228619D01*
X7712857Y-13228619D02*
X7722381Y-13266714D01*
X7722381Y-13266714D02*
X7722381Y-13314333D01*
X7722381Y-13314333D02*
X7712857Y-13352428D01*
X7712857Y-13352428D02*
X7703333Y-13371476D01*
X7703333Y-13371476D02*
X7693809Y-13381000D01*
X7693809Y-13381000D02*
X7674762Y-13390524D01*
X7674762Y-13390524D02*
X7655714Y-13390524D01*
X7655714Y-13390524D02*
X7636667Y-13381000D01*
X7636667Y-13381000D02*
X7627143Y-13371476D01*
X7627143Y-13371476D02*
X7617619Y-13352428D01*
X7617619Y-13352428D02*
X7608095Y-13314333D01*
X7608095Y-13314333D02*
X7608095Y-13266714D01*
X7608095Y-13266714D02*
X7617619Y-13228619D01*
X7617619Y-13228619D02*
X7627143Y-13209571D01*
X7627143Y-13209571D02*
X7636667Y-13200048D01*
X7636667Y-13200048D02*
X7655714Y-13190524D01*
X7808095Y-13371476D02*
X7817619Y-13381000D01*
X7817619Y-13381000D02*
X7808095Y-13390524D01*
X7808095Y-13390524D02*
X7798571Y-13381000D01*
X7798571Y-13381000D02*
X7808095Y-13371476D01*
X7808095Y-13371476D02*
X7808095Y-13390524D01*
X7989048Y-13190524D02*
X7950952Y-13190524D01*
X7950952Y-13190524D02*
X7931905Y-13200048D01*
X7931905Y-13200048D02*
X7922381Y-13209571D01*
X7922381Y-13209571D02*
X7903333Y-13238143D01*
X7903333Y-13238143D02*
X7893809Y-13276238D01*
X7893809Y-13276238D02*
X7893809Y-13352428D01*
X7893809Y-13352428D02*
X7903333Y-13371476D01*
X7903333Y-13371476D02*
X7912857Y-13381000D01*
X7912857Y-13381000D02*
X7931905Y-13390524D01*
X7931905Y-13390524D02*
X7970000Y-13390524D01*
X7970000Y-13390524D02*
X7989048Y-13381000D01*
X7989048Y-13381000D02*
X7998571Y-13371476D01*
X7998571Y-13371476D02*
X8008095Y-13352428D01*
X8008095Y-13352428D02*
X8008095Y-13304809D01*
X8008095Y-13304809D02*
X7998571Y-13285762D01*
X7998571Y-13285762D02*
X7989048Y-13276238D01*
X7989048Y-13276238D02*
X7970000Y-13266714D01*
X7970000Y-13266714D02*
X7931905Y-13266714D01*
X7931905Y-13266714D02*
X7912857Y-13276238D01*
X7912857Y-13276238D02*
X7903333Y-13285762D01*
X7903333Y-13285762D02*
X7893809Y-13304809D01*
X8189048Y-13190524D02*
X8093809Y-13190524D01*
X8093809Y-13190524D02*
X8084286Y-13285762D01*
X8084286Y-13285762D02*
X8093809Y-13276238D01*
X8093809Y-13276238D02*
X8112857Y-13266714D01*
X8112857Y-13266714D02*
X8160476Y-13266714D01*
X8160476Y-13266714D02*
X8179524Y-13276238D01*
X8179524Y-13276238D02*
X8189048Y-13285762D01*
X8189048Y-13285762D02*
X8198571Y-13304809D01*
X8198571Y-13304809D02*
X8198571Y-13352428D01*
X8198571Y-13352428D02*
X8189048Y-13371476D01*
X8189048Y-13371476D02*
X8179524Y-13381000D01*
X8179524Y-13381000D02*
X8160476Y-13390524D01*
X8160476Y-13390524D02*
X8112857Y-13390524D01*
X8112857Y-13390524D02*
X8093809Y-13381000D01*
X8093809Y-13381000D02*
X8084286Y-13371476D01*
X8322381Y-13190524D02*
X8341429Y-13190524D01*
X8341429Y-13190524D02*
X8360476Y-13200048D01*
X8360476Y-13200048D02*
X8370000Y-13209571D01*
X8370000Y-13209571D02*
X8379524Y-13228619D01*
X8379524Y-13228619D02*
X8389048Y-13266714D01*
X8389048Y-13266714D02*
X8389048Y-13314333D01*
X8389048Y-13314333D02*
X8379524Y-13352428D01*
X8379524Y-13352428D02*
X8370000Y-13371476D01*
X8370000Y-13371476D02*
X8360476Y-13381000D01*
X8360476Y-13381000D02*
X8341429Y-13390524D01*
X8341429Y-13390524D02*
X8322381Y-13390524D01*
X8322381Y-13390524D02*
X8303333Y-13381000D01*
X8303333Y-13381000D02*
X8293809Y-13371476D01*
X8293809Y-13371476D02*
X8284286Y-13352428D01*
X8284286Y-13352428D02*
X8274762Y-13314333D01*
X8274762Y-13314333D02*
X8274762Y-13266714D01*
X8274762Y-13266714D02*
X8284286Y-13228619D01*
X8284286Y-13228619D02*
X8293809Y-13209571D01*
X8293809Y-13209571D02*
X8303333Y-13200048D01*
X8303333Y-13200048D02*
X8322381Y-13190524D01*
X8474762Y-13390524D02*
X8474762Y-13257190D01*
X8474762Y-13276238D02*
X8484286Y-13266714D01*
X8484286Y-13266714D02*
X8503333Y-13257190D01*
X8503333Y-13257190D02*
X8531905Y-13257190D01*
X8531905Y-13257190D02*
X8550952Y-13266714D01*
X8550952Y-13266714D02*
X8560476Y-13285762D01*
X8560476Y-13285762D02*
X8560476Y-13390524D01*
X8560476Y-13285762D02*
X8570000Y-13266714D01*
X8570000Y-13266714D02*
X8589048Y-13257190D01*
X8589048Y-13257190D02*
X8617619Y-13257190D01*
X8617619Y-13257190D02*
X8636667Y-13266714D01*
X8636667Y-13266714D02*
X8646191Y-13285762D01*
X8646191Y-13285762D02*
X8646191Y-13390524D01*
X8741429Y-13390524D02*
X8741429Y-13257190D01*
X8741429Y-13276238D02*
X8750952Y-13266714D01*
X8750952Y-13266714D02*
X8770000Y-13257190D01*
X8770000Y-13257190D02*
X8798572Y-13257190D01*
X8798572Y-13257190D02*
X8817619Y-13266714D01*
X8817619Y-13266714D02*
X8827143Y-13285762D01*
X8827143Y-13285762D02*
X8827143Y-13390524D01*
X8827143Y-13285762D02*
X8836667Y-13266714D01*
X8836667Y-13266714D02*
X8855714Y-13257190D01*
X8855714Y-13257190D02*
X8884286Y-13257190D01*
X8884286Y-13257190D02*
X8903333Y-13266714D01*
X8903333Y-13266714D02*
X8912857Y-13285762D01*
X8912857Y-13285762D02*
X8912857Y-13390524D01*
X9303333Y-13181000D02*
X9131905Y-13438143D01*
X9560476Y-13190524D02*
X9579524Y-13190524D01*
X9579524Y-13190524D02*
X9598572Y-13200048D01*
X9598572Y-13200048D02*
X9608095Y-13209571D01*
X9608095Y-13209571D02*
X9617619Y-13228619D01*
X9617619Y-13228619D02*
X9627143Y-13266714D01*
X9627143Y-13266714D02*
X9627143Y-13314333D01*
X9627143Y-13314333D02*
X9617619Y-13352428D01*
X9617619Y-13352428D02*
X9608095Y-13371476D01*
X9608095Y-13371476D02*
X9598572Y-13381000D01*
X9598572Y-13381000D02*
X9579524Y-13390524D01*
X9579524Y-13390524D02*
X9560476Y-13390524D01*
X9560476Y-13390524D02*
X9541429Y-13381000D01*
X9541429Y-13381000D02*
X9531905Y-13371476D01*
X9531905Y-13371476D02*
X9522381Y-13352428D01*
X9522381Y-13352428D02*
X9512857Y-13314333D01*
X9512857Y-13314333D02*
X9512857Y-13266714D01*
X9512857Y-13266714D02*
X9522381Y-13228619D01*
X9522381Y-13228619D02*
X9531905Y-13209571D01*
X9531905Y-13209571D02*
X9541429Y-13200048D01*
X9541429Y-13200048D02*
X9560476Y-13190524D01*
X9712857Y-13371476D02*
X9722381Y-13381000D01*
X9722381Y-13381000D02*
X9712857Y-13390524D01*
X9712857Y-13390524D02*
X9703334Y-13381000D01*
X9703334Y-13381000D02*
X9712857Y-13371476D01*
X9712857Y-13371476D02*
X9712857Y-13390524D01*
X9846191Y-13190524D02*
X9865238Y-13190524D01*
X9865238Y-13190524D02*
X9884286Y-13200048D01*
X9884286Y-13200048D02*
X9893810Y-13209571D01*
X9893810Y-13209571D02*
X9903334Y-13228619D01*
X9903334Y-13228619D02*
X9912857Y-13266714D01*
X9912857Y-13266714D02*
X9912857Y-13314333D01*
X9912857Y-13314333D02*
X9903334Y-13352428D01*
X9903334Y-13352428D02*
X9893810Y-13371476D01*
X9893810Y-13371476D02*
X9884286Y-13381000D01*
X9884286Y-13381000D02*
X9865238Y-13390524D01*
X9865238Y-13390524D02*
X9846191Y-13390524D01*
X9846191Y-13390524D02*
X9827143Y-13381000D01*
X9827143Y-13381000D02*
X9817619Y-13371476D01*
X9817619Y-13371476D02*
X9808095Y-13352428D01*
X9808095Y-13352428D02*
X9798572Y-13314333D01*
X9798572Y-13314333D02*
X9798572Y-13266714D01*
X9798572Y-13266714D02*
X9808095Y-13228619D01*
X9808095Y-13228619D02*
X9817619Y-13209571D01*
X9817619Y-13209571D02*
X9827143Y-13200048D01*
X9827143Y-13200048D02*
X9846191Y-13190524D01*
X9989048Y-13209571D02*
X9998572Y-13200048D01*
X9998572Y-13200048D02*
X10017619Y-13190524D01*
X10017619Y-13190524D02*
X10065238Y-13190524D01*
X10065238Y-13190524D02*
X10084286Y-13200048D01*
X10084286Y-13200048D02*
X10093810Y-13209571D01*
X10093810Y-13209571D02*
X10103334Y-13228619D01*
X10103334Y-13228619D02*
X10103334Y-13247667D01*
X10103334Y-13247667D02*
X10093810Y-13276238D01*
X10093810Y-13276238D02*
X9979524Y-13390524D01*
X9979524Y-13390524D02*
X10103334Y-13390524D01*
X10284286Y-13190524D02*
X10189048Y-13190524D01*
X10189048Y-13190524D02*
X10179524Y-13285762D01*
X10179524Y-13285762D02*
X10189048Y-13276238D01*
X10189048Y-13276238D02*
X10208095Y-13266714D01*
X10208095Y-13266714D02*
X10255715Y-13266714D01*
X10255715Y-13266714D02*
X10274762Y-13276238D01*
X10274762Y-13276238D02*
X10284286Y-13285762D01*
X10284286Y-13285762D02*
X10293810Y-13304809D01*
X10293810Y-13304809D02*
X10293810Y-13352428D01*
X10293810Y-13352428D02*
X10284286Y-13371476D01*
X10284286Y-13371476D02*
X10274762Y-13381000D01*
X10274762Y-13381000D02*
X10255715Y-13390524D01*
X10255715Y-13390524D02*
X10208095Y-13390524D01*
X10208095Y-13390524D02*
X10189048Y-13381000D01*
X10189048Y-13381000D02*
X10179524Y-13371476D01*
X10465238Y-13190524D02*
X10427143Y-13190524D01*
X10427143Y-13190524D02*
X10408095Y-13200048D01*
X10408095Y-13200048D02*
X10398572Y-13209571D01*
X10398572Y-13209571D02*
X10379524Y-13238143D01*
X10379524Y-13238143D02*
X10370000Y-13276238D01*
X10370000Y-13276238D02*
X10370000Y-13352428D01*
X10370000Y-13352428D02*
X10379524Y-13371476D01*
X10379524Y-13371476D02*
X10389048Y-13381000D01*
X10389048Y-13381000D02*
X10408095Y-13390524D01*
X10408095Y-13390524D02*
X10446191Y-13390524D01*
X10446191Y-13390524D02*
X10465238Y-13381000D01*
X10465238Y-13381000D02*
X10474762Y-13371476D01*
X10474762Y-13371476D02*
X10484286Y-13352428D01*
X10484286Y-13352428D02*
X10484286Y-13304809D01*
X10484286Y-13304809D02*
X10474762Y-13285762D01*
X10474762Y-13285762D02*
X10465238Y-13276238D01*
X10465238Y-13276238D02*
X10446191Y-13266714D01*
X10446191Y-13266714D02*
X10408095Y-13266714D01*
X10408095Y-13266714D02*
X10389048Y-13276238D01*
X10389048Y-13276238D02*
X10379524Y-13285762D01*
X10379524Y-13285762D02*
X10370000Y-13304809D01*
X10560476Y-13190524D02*
X10560476Y-13228619D01*
X10636667Y-13190524D02*
X10636667Y-13228619D01*
X10931905Y-13466714D02*
X10922381Y-13457190D01*
X10922381Y-13457190D02*
X10903334Y-13428619D01*
X10903334Y-13428619D02*
X10893810Y-13409571D01*
X10893810Y-13409571D02*
X10884286Y-13381000D01*
X10884286Y-13381000D02*
X10874762Y-13333381D01*
X10874762Y-13333381D02*
X10874762Y-13295286D01*
X10874762Y-13295286D02*
X10884286Y-13247667D01*
X10884286Y-13247667D02*
X10893810Y-13219095D01*
X10893810Y-13219095D02*
X10903334Y-13200048D01*
X10903334Y-13200048D02*
X10922381Y-13171476D01*
X10922381Y-13171476D02*
X10931905Y-13161952D01*
X11046191Y-13190524D02*
X11065238Y-13190524D01*
X11065238Y-13190524D02*
X11084286Y-13200048D01*
X11084286Y-13200048D02*
X11093810Y-13209571D01*
X11093810Y-13209571D02*
X11103334Y-13228619D01*
X11103334Y-13228619D02*
X11112857Y-13266714D01*
X11112857Y-13266714D02*
X11112857Y-13314333D01*
X11112857Y-13314333D02*
X11103334Y-13352428D01*
X11103334Y-13352428D02*
X11093810Y-13371476D01*
X11093810Y-13371476D02*
X11084286Y-13381000D01*
X11084286Y-13381000D02*
X11065238Y-13390524D01*
X11065238Y-13390524D02*
X11046191Y-13390524D01*
X11046191Y-13390524D02*
X11027143Y-13381000D01*
X11027143Y-13381000D02*
X11017619Y-13371476D01*
X11017619Y-13371476D02*
X11008096Y-13352428D01*
X11008096Y-13352428D02*
X10998572Y-13314333D01*
X10998572Y-13314333D02*
X10998572Y-13266714D01*
X10998572Y-13266714D02*
X11008096Y-13228619D01*
X11008096Y-13228619D02*
X11017619Y-13209571D01*
X11017619Y-13209571D02*
X11027143Y-13200048D01*
X11027143Y-13200048D02*
X11046191Y-13190524D01*
X11350953Y-13390524D02*
X11350953Y-13190524D01*
X11436667Y-13390524D02*
X11436667Y-13285762D01*
X11436667Y-13285762D02*
X11427143Y-13266714D01*
X11427143Y-13266714D02*
X11408096Y-13257190D01*
X11408096Y-13257190D02*
X11379524Y-13257190D01*
X11379524Y-13257190D02*
X11360476Y-13266714D01*
X11360476Y-13266714D02*
X11350953Y-13276238D01*
X11560476Y-13390524D02*
X11541429Y-13381000D01*
X11541429Y-13381000D02*
X11531905Y-13371476D01*
X11531905Y-13371476D02*
X11522381Y-13352428D01*
X11522381Y-13352428D02*
X11522381Y-13295286D01*
X11522381Y-13295286D02*
X11531905Y-13276238D01*
X11531905Y-13276238D02*
X11541429Y-13266714D01*
X11541429Y-13266714D02*
X11560476Y-13257190D01*
X11560476Y-13257190D02*
X11589048Y-13257190D01*
X11589048Y-13257190D02*
X11608096Y-13266714D01*
X11608096Y-13266714D02*
X11617619Y-13276238D01*
X11617619Y-13276238D02*
X11627143Y-13295286D01*
X11627143Y-13295286D02*
X11627143Y-13352428D01*
X11627143Y-13352428D02*
X11617619Y-13371476D01*
X11617619Y-13371476D02*
X11608096Y-13381000D01*
X11608096Y-13381000D02*
X11589048Y-13390524D01*
X11589048Y-13390524D02*
X11560476Y-13390524D01*
X11741429Y-13390524D02*
X11722381Y-13381000D01*
X11722381Y-13381000D02*
X11712857Y-13361952D01*
X11712857Y-13361952D02*
X11712857Y-13190524D01*
X11893810Y-13381000D02*
X11874762Y-13390524D01*
X11874762Y-13390524D02*
X11836667Y-13390524D01*
X11836667Y-13390524D02*
X11817619Y-13381000D01*
X11817619Y-13381000D02*
X11808096Y-13361952D01*
X11808096Y-13361952D02*
X11808096Y-13285762D01*
X11808096Y-13285762D02*
X11817619Y-13266714D01*
X11817619Y-13266714D02*
X11836667Y-13257190D01*
X11836667Y-13257190D02*
X11874762Y-13257190D01*
X11874762Y-13257190D02*
X11893810Y-13266714D01*
X11893810Y-13266714D02*
X11903334Y-13285762D01*
X11903334Y-13285762D02*
X11903334Y-13304809D01*
X11903334Y-13304809D02*
X11808096Y-13323857D01*
X11979524Y-13381000D02*
X11998572Y-13390524D01*
X11998572Y-13390524D02*
X12036667Y-13390524D01*
X12036667Y-13390524D02*
X12055715Y-13381000D01*
X12055715Y-13381000D02*
X12065238Y-13361952D01*
X12065238Y-13361952D02*
X12065238Y-13352428D01*
X12065238Y-13352428D02*
X12055715Y-13333381D01*
X12055715Y-13333381D02*
X12036667Y-13323857D01*
X12036667Y-13323857D02*
X12008096Y-13323857D01*
X12008096Y-13323857D02*
X11989048Y-13314333D01*
X11989048Y-13314333D02*
X11979524Y-13295286D01*
X11979524Y-13295286D02*
X11979524Y-13285762D01*
X11979524Y-13285762D02*
X11989048Y-13266714D01*
X11989048Y-13266714D02*
X12008096Y-13257190D01*
X12008096Y-13257190D02*
X12036667Y-13257190D01*
X12036667Y-13257190D02*
X12055715Y-13266714D01*
X12303334Y-13314333D02*
X12455715Y-13314333D01*
X12379524Y-13390524D02*
X12379524Y-13238143D01*
X12693810Y-13209571D02*
X12703334Y-13200048D01*
X12703334Y-13200048D02*
X12722381Y-13190524D01*
X12722381Y-13190524D02*
X12770000Y-13190524D01*
X12770000Y-13190524D02*
X12789048Y-13200048D01*
X12789048Y-13200048D02*
X12798572Y-13209571D01*
X12798572Y-13209571D02*
X12808096Y-13228619D01*
X12808096Y-13228619D02*
X12808096Y-13247667D01*
X12808096Y-13247667D02*
X12798572Y-13276238D01*
X12798572Y-13276238D02*
X12684286Y-13390524D01*
X12684286Y-13390524D02*
X12808096Y-13390524D01*
X13036667Y-13381000D02*
X13055715Y-13390524D01*
X13055715Y-13390524D02*
X13093810Y-13390524D01*
X13093810Y-13390524D02*
X13112858Y-13381000D01*
X13112858Y-13381000D02*
X13122381Y-13361952D01*
X13122381Y-13361952D02*
X13122381Y-13352428D01*
X13122381Y-13352428D02*
X13112858Y-13333381D01*
X13112858Y-13333381D02*
X13093810Y-13323857D01*
X13093810Y-13323857D02*
X13065239Y-13323857D01*
X13065239Y-13323857D02*
X13046191Y-13314333D01*
X13046191Y-13314333D02*
X13036667Y-13295286D01*
X13036667Y-13295286D02*
X13036667Y-13285762D01*
X13036667Y-13285762D02*
X13046191Y-13266714D01*
X13046191Y-13266714D02*
X13065239Y-13257190D01*
X13065239Y-13257190D02*
X13093810Y-13257190D01*
X13093810Y-13257190D02*
X13112858Y-13266714D01*
X13236667Y-13390524D02*
X13217620Y-13381000D01*
X13217620Y-13381000D02*
X13208096Y-13361952D01*
X13208096Y-13361952D02*
X13208096Y-13190524D01*
X13341429Y-13390524D02*
X13322381Y-13381000D01*
X13322381Y-13381000D02*
X13312858Y-13371476D01*
X13312858Y-13371476D02*
X13303334Y-13352428D01*
X13303334Y-13352428D02*
X13303334Y-13295286D01*
X13303334Y-13295286D02*
X13312858Y-13276238D01*
X13312858Y-13276238D02*
X13322381Y-13266714D01*
X13322381Y-13266714D02*
X13341429Y-13257190D01*
X13341429Y-13257190D02*
X13370001Y-13257190D01*
X13370001Y-13257190D02*
X13389048Y-13266714D01*
X13389048Y-13266714D02*
X13398572Y-13276238D01*
X13398572Y-13276238D02*
X13408096Y-13295286D01*
X13408096Y-13295286D02*
X13408096Y-13352428D01*
X13408096Y-13352428D02*
X13398572Y-13371476D01*
X13398572Y-13371476D02*
X13389048Y-13381000D01*
X13389048Y-13381000D02*
X13370001Y-13390524D01*
X13370001Y-13390524D02*
X13341429Y-13390524D01*
X13465239Y-13257190D02*
X13541429Y-13257190D01*
X13493810Y-13190524D02*
X13493810Y-13361952D01*
X13493810Y-13361952D02*
X13503334Y-13381000D01*
X13503334Y-13381000D02*
X13522381Y-13390524D01*
X13522381Y-13390524D02*
X13541429Y-13390524D01*
X13598572Y-13381000D02*
X13617620Y-13390524D01*
X13617620Y-13390524D02*
X13655715Y-13390524D01*
X13655715Y-13390524D02*
X13674762Y-13381000D01*
X13674762Y-13381000D02*
X13684286Y-13361952D01*
X13684286Y-13361952D02*
X13684286Y-13352428D01*
X13684286Y-13352428D02*
X13674762Y-13333381D01*
X13674762Y-13333381D02*
X13655715Y-13323857D01*
X13655715Y-13323857D02*
X13627143Y-13323857D01*
X13627143Y-13323857D02*
X13608096Y-13314333D01*
X13608096Y-13314333D02*
X13598572Y-13295286D01*
X13598572Y-13295286D02*
X13598572Y-13285762D01*
X13598572Y-13285762D02*
X13608096Y-13266714D01*
X13608096Y-13266714D02*
X13627143Y-13257190D01*
X13627143Y-13257190D02*
X13655715Y-13257190D01*
X13655715Y-13257190D02*
X13674762Y-13266714D01*
X13750953Y-13466714D02*
X13760477Y-13457190D01*
X13760477Y-13457190D02*
X13779524Y-13428619D01*
X13779524Y-13428619D02*
X13789048Y-13409571D01*
X13789048Y-13409571D02*
X13798572Y-13381000D01*
X13798572Y-13381000D02*
X13808096Y-13333381D01*
X13808096Y-13333381D02*
X13808096Y-13295286D01*
X13808096Y-13295286D02*
X13798572Y-13247667D01*
X13798572Y-13247667D02*
X13789048Y-13219095D01*
X13789048Y-13219095D02*
X13779524Y-13200048D01*
X13779524Y-13200048D02*
X13760477Y-13171476D01*
X13760477Y-13171476D02*
X13750953Y-13161952D01*
D14*
X7359749Y-13586749D02*
X7359749Y-13537251D01*
X7310251Y-13537251D01*
X7310251Y-13586749D01*
X7359749Y-13586749D01*
D11*
X7655714Y-13454524D02*
X7674762Y-13454524D01*
X7674762Y-13454524D02*
X7693809Y-13464048D01*
X7693809Y-13464048D02*
X7703333Y-13473571D01*
X7703333Y-13473571D02*
X7712857Y-13492619D01*
X7712857Y-13492619D02*
X7722381Y-13530714D01*
X7722381Y-13530714D02*
X7722381Y-13578333D01*
X7722381Y-13578333D02*
X7712857Y-13616428D01*
X7712857Y-13616428D02*
X7703333Y-13635476D01*
X7703333Y-13635476D02*
X7693809Y-13645000D01*
X7693809Y-13645000D02*
X7674762Y-13654524D01*
X7674762Y-13654524D02*
X7655714Y-13654524D01*
X7655714Y-13654524D02*
X7636667Y-13645000D01*
X7636667Y-13645000D02*
X7627143Y-13635476D01*
X7627143Y-13635476D02*
X7617619Y-13616428D01*
X7617619Y-13616428D02*
X7608095Y-13578333D01*
X7608095Y-13578333D02*
X7608095Y-13530714D01*
X7608095Y-13530714D02*
X7617619Y-13492619D01*
X7617619Y-13492619D02*
X7627143Y-13473571D01*
X7627143Y-13473571D02*
X7636667Y-13464048D01*
X7636667Y-13464048D02*
X7655714Y-13454524D01*
X7808095Y-13635476D02*
X7817619Y-13645000D01*
X7817619Y-13645000D02*
X7808095Y-13654524D01*
X7808095Y-13654524D02*
X7798571Y-13645000D01*
X7798571Y-13645000D02*
X7808095Y-13635476D01*
X7808095Y-13635476D02*
X7808095Y-13654524D01*
X7884286Y-13454524D02*
X8017619Y-13454524D01*
X8017619Y-13454524D02*
X7931905Y-13654524D01*
X8131905Y-13454524D02*
X8150952Y-13454524D01*
X8150952Y-13454524D02*
X8170000Y-13464048D01*
X8170000Y-13464048D02*
X8179524Y-13473571D01*
X8179524Y-13473571D02*
X8189048Y-13492619D01*
X8189048Y-13492619D02*
X8198571Y-13530714D01*
X8198571Y-13530714D02*
X8198571Y-13578333D01*
X8198571Y-13578333D02*
X8189048Y-13616428D01*
X8189048Y-13616428D02*
X8179524Y-13635476D01*
X8179524Y-13635476D02*
X8170000Y-13645000D01*
X8170000Y-13645000D02*
X8150952Y-13654524D01*
X8150952Y-13654524D02*
X8131905Y-13654524D01*
X8131905Y-13654524D02*
X8112857Y-13645000D01*
X8112857Y-13645000D02*
X8103333Y-13635476D01*
X8103333Y-13635476D02*
X8093809Y-13616428D01*
X8093809Y-13616428D02*
X8084286Y-13578333D01*
X8084286Y-13578333D02*
X8084286Y-13530714D01*
X8084286Y-13530714D02*
X8093809Y-13492619D01*
X8093809Y-13492619D02*
X8103333Y-13473571D01*
X8103333Y-13473571D02*
X8112857Y-13464048D01*
X8112857Y-13464048D02*
X8131905Y-13454524D01*
X8322381Y-13454524D02*
X8341429Y-13454524D01*
X8341429Y-13454524D02*
X8360476Y-13464048D01*
X8360476Y-13464048D02*
X8370000Y-13473571D01*
X8370000Y-13473571D02*
X8379524Y-13492619D01*
X8379524Y-13492619D02*
X8389048Y-13530714D01*
X8389048Y-13530714D02*
X8389048Y-13578333D01*
X8389048Y-13578333D02*
X8379524Y-13616428D01*
X8379524Y-13616428D02*
X8370000Y-13635476D01*
X8370000Y-13635476D02*
X8360476Y-13645000D01*
X8360476Y-13645000D02*
X8341429Y-13654524D01*
X8341429Y-13654524D02*
X8322381Y-13654524D01*
X8322381Y-13654524D02*
X8303333Y-13645000D01*
X8303333Y-13645000D02*
X8293809Y-13635476D01*
X8293809Y-13635476D02*
X8284286Y-13616428D01*
X8284286Y-13616428D02*
X8274762Y-13578333D01*
X8274762Y-13578333D02*
X8274762Y-13530714D01*
X8274762Y-13530714D02*
X8284286Y-13492619D01*
X8284286Y-13492619D02*
X8293809Y-13473571D01*
X8293809Y-13473571D02*
X8303333Y-13464048D01*
X8303333Y-13464048D02*
X8322381Y-13454524D01*
X8474762Y-13654524D02*
X8474762Y-13521190D01*
X8474762Y-13540238D02*
X8484286Y-13530714D01*
X8484286Y-13530714D02*
X8503333Y-13521190D01*
X8503333Y-13521190D02*
X8531905Y-13521190D01*
X8531905Y-13521190D02*
X8550952Y-13530714D01*
X8550952Y-13530714D02*
X8560476Y-13549762D01*
X8560476Y-13549762D02*
X8560476Y-13654524D01*
X8560476Y-13549762D02*
X8570000Y-13530714D01*
X8570000Y-13530714D02*
X8589048Y-13521190D01*
X8589048Y-13521190D02*
X8617619Y-13521190D01*
X8617619Y-13521190D02*
X8636667Y-13530714D01*
X8636667Y-13530714D02*
X8646191Y-13549762D01*
X8646191Y-13549762D02*
X8646191Y-13654524D01*
X8741429Y-13654524D02*
X8741429Y-13521190D01*
X8741429Y-13540238D02*
X8750952Y-13530714D01*
X8750952Y-13530714D02*
X8770000Y-13521190D01*
X8770000Y-13521190D02*
X8798572Y-13521190D01*
X8798572Y-13521190D02*
X8817619Y-13530714D01*
X8817619Y-13530714D02*
X8827143Y-13549762D01*
X8827143Y-13549762D02*
X8827143Y-13654524D01*
X8827143Y-13549762D02*
X8836667Y-13530714D01*
X8836667Y-13530714D02*
X8855714Y-13521190D01*
X8855714Y-13521190D02*
X8884286Y-13521190D01*
X8884286Y-13521190D02*
X8903333Y-13530714D01*
X8903333Y-13530714D02*
X8912857Y-13549762D01*
X8912857Y-13549762D02*
X8912857Y-13654524D01*
X9303333Y-13445000D02*
X9131905Y-13702143D01*
X9560476Y-13454524D02*
X9579524Y-13454524D01*
X9579524Y-13454524D02*
X9598572Y-13464048D01*
X9598572Y-13464048D02*
X9608095Y-13473571D01*
X9608095Y-13473571D02*
X9617619Y-13492619D01*
X9617619Y-13492619D02*
X9627143Y-13530714D01*
X9627143Y-13530714D02*
X9627143Y-13578333D01*
X9627143Y-13578333D02*
X9617619Y-13616428D01*
X9617619Y-13616428D02*
X9608095Y-13635476D01*
X9608095Y-13635476D02*
X9598572Y-13645000D01*
X9598572Y-13645000D02*
X9579524Y-13654524D01*
X9579524Y-13654524D02*
X9560476Y-13654524D01*
X9560476Y-13654524D02*
X9541429Y-13645000D01*
X9541429Y-13645000D02*
X9531905Y-13635476D01*
X9531905Y-13635476D02*
X9522381Y-13616428D01*
X9522381Y-13616428D02*
X9512857Y-13578333D01*
X9512857Y-13578333D02*
X9512857Y-13530714D01*
X9512857Y-13530714D02*
X9522381Y-13492619D01*
X9522381Y-13492619D02*
X9531905Y-13473571D01*
X9531905Y-13473571D02*
X9541429Y-13464048D01*
X9541429Y-13464048D02*
X9560476Y-13454524D01*
X9712857Y-13635476D02*
X9722381Y-13645000D01*
X9722381Y-13645000D02*
X9712857Y-13654524D01*
X9712857Y-13654524D02*
X9703334Y-13645000D01*
X9703334Y-13645000D02*
X9712857Y-13635476D01*
X9712857Y-13635476D02*
X9712857Y-13654524D01*
X9846191Y-13454524D02*
X9865238Y-13454524D01*
X9865238Y-13454524D02*
X9884286Y-13464048D01*
X9884286Y-13464048D02*
X9893810Y-13473571D01*
X9893810Y-13473571D02*
X9903334Y-13492619D01*
X9903334Y-13492619D02*
X9912857Y-13530714D01*
X9912857Y-13530714D02*
X9912857Y-13578333D01*
X9912857Y-13578333D02*
X9903334Y-13616428D01*
X9903334Y-13616428D02*
X9893810Y-13635476D01*
X9893810Y-13635476D02*
X9884286Y-13645000D01*
X9884286Y-13645000D02*
X9865238Y-13654524D01*
X9865238Y-13654524D02*
X9846191Y-13654524D01*
X9846191Y-13654524D02*
X9827143Y-13645000D01*
X9827143Y-13645000D02*
X9817619Y-13635476D01*
X9817619Y-13635476D02*
X9808095Y-13616428D01*
X9808095Y-13616428D02*
X9798572Y-13578333D01*
X9798572Y-13578333D02*
X9798572Y-13530714D01*
X9798572Y-13530714D02*
X9808095Y-13492619D01*
X9808095Y-13492619D02*
X9817619Y-13473571D01*
X9817619Y-13473571D02*
X9827143Y-13464048D01*
X9827143Y-13464048D02*
X9846191Y-13454524D01*
X9989048Y-13473571D02*
X9998572Y-13464048D01*
X9998572Y-13464048D02*
X10017619Y-13454524D01*
X10017619Y-13454524D02*
X10065238Y-13454524D01*
X10065238Y-13454524D02*
X10084286Y-13464048D01*
X10084286Y-13464048D02*
X10093810Y-13473571D01*
X10093810Y-13473571D02*
X10103334Y-13492619D01*
X10103334Y-13492619D02*
X10103334Y-13511667D01*
X10103334Y-13511667D02*
X10093810Y-13540238D01*
X10093810Y-13540238D02*
X9979524Y-13654524D01*
X9979524Y-13654524D02*
X10103334Y-13654524D01*
X10170000Y-13454524D02*
X10303334Y-13454524D01*
X10303334Y-13454524D02*
X10217619Y-13654524D01*
X10465238Y-13454524D02*
X10427143Y-13454524D01*
X10427143Y-13454524D02*
X10408095Y-13464048D01*
X10408095Y-13464048D02*
X10398572Y-13473571D01*
X10398572Y-13473571D02*
X10379524Y-13502143D01*
X10379524Y-13502143D02*
X10370000Y-13540238D01*
X10370000Y-13540238D02*
X10370000Y-13616428D01*
X10370000Y-13616428D02*
X10379524Y-13635476D01*
X10379524Y-13635476D02*
X10389048Y-13645000D01*
X10389048Y-13645000D02*
X10408095Y-13654524D01*
X10408095Y-13654524D02*
X10446191Y-13654524D01*
X10446191Y-13654524D02*
X10465238Y-13645000D01*
X10465238Y-13645000D02*
X10474762Y-13635476D01*
X10474762Y-13635476D02*
X10484286Y-13616428D01*
X10484286Y-13616428D02*
X10484286Y-13568809D01*
X10484286Y-13568809D02*
X10474762Y-13549762D01*
X10474762Y-13549762D02*
X10465238Y-13540238D01*
X10465238Y-13540238D02*
X10446191Y-13530714D01*
X10446191Y-13530714D02*
X10408095Y-13530714D01*
X10408095Y-13530714D02*
X10389048Y-13540238D01*
X10389048Y-13540238D02*
X10379524Y-13549762D01*
X10379524Y-13549762D02*
X10370000Y-13568809D01*
X10560476Y-13454524D02*
X10560476Y-13492619D01*
X10636667Y-13454524D02*
X10636667Y-13492619D01*
X10931905Y-13730714D02*
X10922381Y-13721190D01*
X10922381Y-13721190D02*
X10903334Y-13692619D01*
X10903334Y-13692619D02*
X10893810Y-13673571D01*
X10893810Y-13673571D02*
X10884286Y-13645000D01*
X10884286Y-13645000D02*
X10874762Y-13597381D01*
X10874762Y-13597381D02*
X10874762Y-13559286D01*
X10874762Y-13559286D02*
X10884286Y-13511667D01*
X10884286Y-13511667D02*
X10893810Y-13483095D01*
X10893810Y-13483095D02*
X10903334Y-13464048D01*
X10903334Y-13464048D02*
X10922381Y-13435476D01*
X10922381Y-13435476D02*
X10931905Y-13425952D01*
X11046191Y-13454524D02*
X11065238Y-13454524D01*
X11065238Y-13454524D02*
X11084286Y-13464048D01*
X11084286Y-13464048D02*
X11093810Y-13473571D01*
X11093810Y-13473571D02*
X11103334Y-13492619D01*
X11103334Y-13492619D02*
X11112857Y-13530714D01*
X11112857Y-13530714D02*
X11112857Y-13578333D01*
X11112857Y-13578333D02*
X11103334Y-13616428D01*
X11103334Y-13616428D02*
X11093810Y-13635476D01*
X11093810Y-13635476D02*
X11084286Y-13645000D01*
X11084286Y-13645000D02*
X11065238Y-13654524D01*
X11065238Y-13654524D02*
X11046191Y-13654524D01*
X11046191Y-13654524D02*
X11027143Y-13645000D01*
X11027143Y-13645000D02*
X11017619Y-13635476D01*
X11017619Y-13635476D02*
X11008096Y-13616428D01*
X11008096Y-13616428D02*
X10998572Y-13578333D01*
X10998572Y-13578333D02*
X10998572Y-13530714D01*
X10998572Y-13530714D02*
X11008096Y-13492619D01*
X11008096Y-13492619D02*
X11017619Y-13473571D01*
X11017619Y-13473571D02*
X11027143Y-13464048D01*
X11027143Y-13464048D02*
X11046191Y-13454524D01*
X11350953Y-13654524D02*
X11350953Y-13454524D01*
X11436667Y-13654524D02*
X11436667Y-13549762D01*
X11436667Y-13549762D02*
X11427143Y-13530714D01*
X11427143Y-13530714D02*
X11408096Y-13521190D01*
X11408096Y-13521190D02*
X11379524Y-13521190D01*
X11379524Y-13521190D02*
X11360476Y-13530714D01*
X11360476Y-13530714D02*
X11350953Y-13540238D01*
X11560476Y-13654524D02*
X11541429Y-13645000D01*
X11541429Y-13645000D02*
X11531905Y-13635476D01*
X11531905Y-13635476D02*
X11522381Y-13616428D01*
X11522381Y-13616428D02*
X11522381Y-13559286D01*
X11522381Y-13559286D02*
X11531905Y-13540238D01*
X11531905Y-13540238D02*
X11541429Y-13530714D01*
X11541429Y-13530714D02*
X11560476Y-13521190D01*
X11560476Y-13521190D02*
X11589048Y-13521190D01*
X11589048Y-13521190D02*
X11608096Y-13530714D01*
X11608096Y-13530714D02*
X11617619Y-13540238D01*
X11617619Y-13540238D02*
X11627143Y-13559286D01*
X11627143Y-13559286D02*
X11627143Y-13616428D01*
X11627143Y-13616428D02*
X11617619Y-13635476D01*
X11617619Y-13635476D02*
X11608096Y-13645000D01*
X11608096Y-13645000D02*
X11589048Y-13654524D01*
X11589048Y-13654524D02*
X11560476Y-13654524D01*
X11741429Y-13654524D02*
X11722381Y-13645000D01*
X11722381Y-13645000D02*
X11712857Y-13625952D01*
X11712857Y-13625952D02*
X11712857Y-13454524D01*
X11893810Y-13645000D02*
X11874762Y-13654524D01*
X11874762Y-13654524D02*
X11836667Y-13654524D01*
X11836667Y-13654524D02*
X11817619Y-13645000D01*
X11817619Y-13645000D02*
X11808096Y-13625952D01*
X11808096Y-13625952D02*
X11808096Y-13549762D01*
X11808096Y-13549762D02*
X11817619Y-13530714D01*
X11817619Y-13530714D02*
X11836667Y-13521190D01*
X11836667Y-13521190D02*
X11874762Y-13521190D01*
X11874762Y-13521190D02*
X11893810Y-13530714D01*
X11893810Y-13530714D02*
X11903334Y-13549762D01*
X11903334Y-13549762D02*
X11903334Y-13568809D01*
X11903334Y-13568809D02*
X11808096Y-13587857D01*
X11979524Y-13645000D02*
X11998572Y-13654524D01*
X11998572Y-13654524D02*
X12036667Y-13654524D01*
X12036667Y-13654524D02*
X12055715Y-13645000D01*
X12055715Y-13645000D02*
X12065238Y-13625952D01*
X12065238Y-13625952D02*
X12065238Y-13616428D01*
X12065238Y-13616428D02*
X12055715Y-13597381D01*
X12055715Y-13597381D02*
X12036667Y-13587857D01*
X12036667Y-13587857D02*
X12008096Y-13587857D01*
X12008096Y-13587857D02*
X11989048Y-13578333D01*
X11989048Y-13578333D02*
X11979524Y-13559286D01*
X11979524Y-13559286D02*
X11979524Y-13549762D01*
X11979524Y-13549762D02*
X11989048Y-13530714D01*
X11989048Y-13530714D02*
X12008096Y-13521190D01*
X12008096Y-13521190D02*
X12036667Y-13521190D01*
X12036667Y-13521190D02*
X12055715Y-13530714D01*
X12303334Y-13578333D02*
X12455715Y-13578333D01*
X12379524Y-13654524D02*
X12379524Y-13502143D01*
X12693810Y-13473571D02*
X12703334Y-13464048D01*
X12703334Y-13464048D02*
X12722381Y-13454524D01*
X12722381Y-13454524D02*
X12770000Y-13454524D01*
X12770000Y-13454524D02*
X12789048Y-13464048D01*
X12789048Y-13464048D02*
X12798572Y-13473571D01*
X12798572Y-13473571D02*
X12808096Y-13492619D01*
X12808096Y-13492619D02*
X12808096Y-13511667D01*
X12808096Y-13511667D02*
X12798572Y-13540238D01*
X12798572Y-13540238D02*
X12684286Y-13654524D01*
X12684286Y-13654524D02*
X12808096Y-13654524D01*
X13036667Y-13645000D02*
X13055715Y-13654524D01*
X13055715Y-13654524D02*
X13093810Y-13654524D01*
X13093810Y-13654524D02*
X13112858Y-13645000D01*
X13112858Y-13645000D02*
X13122381Y-13625952D01*
X13122381Y-13625952D02*
X13122381Y-13616428D01*
X13122381Y-13616428D02*
X13112858Y-13597381D01*
X13112858Y-13597381D02*
X13093810Y-13587857D01*
X13093810Y-13587857D02*
X13065239Y-13587857D01*
X13065239Y-13587857D02*
X13046191Y-13578333D01*
X13046191Y-13578333D02*
X13036667Y-13559286D01*
X13036667Y-13559286D02*
X13036667Y-13549762D01*
X13036667Y-13549762D02*
X13046191Y-13530714D01*
X13046191Y-13530714D02*
X13065239Y-13521190D01*
X13065239Y-13521190D02*
X13093810Y-13521190D01*
X13093810Y-13521190D02*
X13112858Y-13530714D01*
X13236667Y-13654524D02*
X13217620Y-13645000D01*
X13217620Y-13645000D02*
X13208096Y-13625952D01*
X13208096Y-13625952D02*
X13208096Y-13454524D01*
X13341429Y-13654524D02*
X13322381Y-13645000D01*
X13322381Y-13645000D02*
X13312858Y-13635476D01*
X13312858Y-13635476D02*
X13303334Y-13616428D01*
X13303334Y-13616428D02*
X13303334Y-13559286D01*
X13303334Y-13559286D02*
X13312858Y-13540238D01*
X13312858Y-13540238D02*
X13322381Y-13530714D01*
X13322381Y-13530714D02*
X13341429Y-13521190D01*
X13341429Y-13521190D02*
X13370001Y-13521190D01*
X13370001Y-13521190D02*
X13389048Y-13530714D01*
X13389048Y-13530714D02*
X13398572Y-13540238D01*
X13398572Y-13540238D02*
X13408096Y-13559286D01*
X13408096Y-13559286D02*
X13408096Y-13616428D01*
X13408096Y-13616428D02*
X13398572Y-13635476D01*
X13398572Y-13635476D02*
X13389048Y-13645000D01*
X13389048Y-13645000D02*
X13370001Y-13654524D01*
X13370001Y-13654524D02*
X13341429Y-13654524D01*
X13465239Y-13521190D02*
X13541429Y-13521190D01*
X13493810Y-13454524D02*
X13493810Y-13625952D01*
X13493810Y-13625952D02*
X13503334Y-13645000D01*
X13503334Y-13645000D02*
X13522381Y-13654524D01*
X13522381Y-13654524D02*
X13541429Y-13654524D01*
X13598572Y-13645000D02*
X13617620Y-13654524D01*
X13617620Y-13654524D02*
X13655715Y-13654524D01*
X13655715Y-13654524D02*
X13674762Y-13645000D01*
X13674762Y-13645000D02*
X13684286Y-13625952D01*
X13684286Y-13625952D02*
X13684286Y-13616428D01*
X13684286Y-13616428D02*
X13674762Y-13597381D01*
X13674762Y-13597381D02*
X13655715Y-13587857D01*
X13655715Y-13587857D02*
X13627143Y-13587857D01*
X13627143Y-13587857D02*
X13608096Y-13578333D01*
X13608096Y-13578333D02*
X13598572Y-13559286D01*
X13598572Y-13559286D02*
X13598572Y-13549762D01*
X13598572Y-13549762D02*
X13608096Y-13530714D01*
X13608096Y-13530714D02*
X13627143Y-13521190D01*
X13627143Y-13521190D02*
X13655715Y-13521190D01*
X13655715Y-13521190D02*
X13674762Y-13530714D01*
X13750953Y-13730714D02*
X13760477Y-13721190D01*
X13760477Y-13721190D02*
X13779524Y-13692619D01*
X13779524Y-13692619D02*
X13789048Y-13673571D01*
X13789048Y-13673571D02*
X13798572Y-13645000D01*
X13798572Y-13645000D02*
X13808096Y-13597381D01*
X13808096Y-13597381D02*
X13808096Y-13559286D01*
X13808096Y-13559286D02*
X13798572Y-13511667D01*
X13798572Y-13511667D02*
X13789048Y-13483095D01*
X13789048Y-13483095D02*
X13779524Y-13464048D01*
X13779524Y-13464048D02*
X13760477Y-13435476D01*
X13760477Y-13435476D02*
X13750953Y-13425952D01*
D15*
X7320000Y-13876000D02*
X7370000Y-13826000D01*
X7320000Y-13776000D01*
X7270000Y-13826000D01*
X7320000Y-13876000D01*
D11*
X7722381Y-13918524D02*
X7608095Y-13918524D01*
X7665238Y-13918524D02*
X7665238Y-13718524D01*
X7665238Y-13718524D02*
X7646190Y-13747095D01*
X7646190Y-13747095D02*
X7627143Y-13766143D01*
X7627143Y-13766143D02*
X7608095Y-13775667D01*
X7808095Y-13899476D02*
X7817619Y-13909000D01*
X7817619Y-13909000D02*
X7808095Y-13918524D01*
X7808095Y-13918524D02*
X7798571Y-13909000D01*
X7798571Y-13909000D02*
X7808095Y-13899476D01*
X7808095Y-13899476D02*
X7808095Y-13918524D01*
X7941428Y-13718524D02*
X7960476Y-13718524D01*
X7960476Y-13718524D02*
X7979524Y-13728048D01*
X7979524Y-13728048D02*
X7989048Y-13737571D01*
X7989048Y-13737571D02*
X7998571Y-13756619D01*
X7998571Y-13756619D02*
X8008095Y-13794714D01*
X8008095Y-13794714D02*
X8008095Y-13842333D01*
X8008095Y-13842333D02*
X7998571Y-13880428D01*
X7998571Y-13880428D02*
X7989048Y-13899476D01*
X7989048Y-13899476D02*
X7979524Y-13909000D01*
X7979524Y-13909000D02*
X7960476Y-13918524D01*
X7960476Y-13918524D02*
X7941428Y-13918524D01*
X7941428Y-13918524D02*
X7922381Y-13909000D01*
X7922381Y-13909000D02*
X7912857Y-13899476D01*
X7912857Y-13899476D02*
X7903333Y-13880428D01*
X7903333Y-13880428D02*
X7893809Y-13842333D01*
X7893809Y-13842333D02*
X7893809Y-13794714D01*
X7893809Y-13794714D02*
X7903333Y-13756619D01*
X7903333Y-13756619D02*
X7912857Y-13737571D01*
X7912857Y-13737571D02*
X7922381Y-13728048D01*
X7922381Y-13728048D02*
X7941428Y-13718524D01*
X8131905Y-13718524D02*
X8150952Y-13718524D01*
X8150952Y-13718524D02*
X8170000Y-13728048D01*
X8170000Y-13728048D02*
X8179524Y-13737571D01*
X8179524Y-13737571D02*
X8189048Y-13756619D01*
X8189048Y-13756619D02*
X8198571Y-13794714D01*
X8198571Y-13794714D02*
X8198571Y-13842333D01*
X8198571Y-13842333D02*
X8189048Y-13880428D01*
X8189048Y-13880428D02*
X8179524Y-13899476D01*
X8179524Y-13899476D02*
X8170000Y-13909000D01*
X8170000Y-13909000D02*
X8150952Y-13918524D01*
X8150952Y-13918524D02*
X8131905Y-13918524D01*
X8131905Y-13918524D02*
X8112857Y-13909000D01*
X8112857Y-13909000D02*
X8103333Y-13899476D01*
X8103333Y-13899476D02*
X8093809Y-13880428D01*
X8093809Y-13880428D02*
X8084286Y-13842333D01*
X8084286Y-13842333D02*
X8084286Y-13794714D01*
X8084286Y-13794714D02*
X8093809Y-13756619D01*
X8093809Y-13756619D02*
X8103333Y-13737571D01*
X8103333Y-13737571D02*
X8112857Y-13728048D01*
X8112857Y-13728048D02*
X8131905Y-13718524D01*
X8322381Y-13718524D02*
X8341429Y-13718524D01*
X8341429Y-13718524D02*
X8360476Y-13728048D01*
X8360476Y-13728048D02*
X8370000Y-13737571D01*
X8370000Y-13737571D02*
X8379524Y-13756619D01*
X8379524Y-13756619D02*
X8389048Y-13794714D01*
X8389048Y-13794714D02*
X8389048Y-13842333D01*
X8389048Y-13842333D02*
X8379524Y-13880428D01*
X8379524Y-13880428D02*
X8370000Y-13899476D01*
X8370000Y-13899476D02*
X8360476Y-13909000D01*
X8360476Y-13909000D02*
X8341429Y-13918524D01*
X8341429Y-13918524D02*
X8322381Y-13918524D01*
X8322381Y-13918524D02*
X8303333Y-13909000D01*
X8303333Y-13909000D02*
X8293809Y-13899476D01*
X8293809Y-13899476D02*
X8284286Y-13880428D01*
X8284286Y-13880428D02*
X8274762Y-13842333D01*
X8274762Y-13842333D02*
X8274762Y-13794714D01*
X8274762Y-13794714D02*
X8284286Y-13756619D01*
X8284286Y-13756619D02*
X8293809Y-13737571D01*
X8293809Y-13737571D02*
X8303333Y-13728048D01*
X8303333Y-13728048D02*
X8322381Y-13718524D01*
X8474762Y-13918524D02*
X8474762Y-13785190D01*
X8474762Y-13804238D02*
X8484286Y-13794714D01*
X8484286Y-13794714D02*
X8503333Y-13785190D01*
X8503333Y-13785190D02*
X8531905Y-13785190D01*
X8531905Y-13785190D02*
X8550952Y-13794714D01*
X8550952Y-13794714D02*
X8560476Y-13813762D01*
X8560476Y-13813762D02*
X8560476Y-13918524D01*
X8560476Y-13813762D02*
X8570000Y-13794714D01*
X8570000Y-13794714D02*
X8589048Y-13785190D01*
X8589048Y-13785190D02*
X8617619Y-13785190D01*
X8617619Y-13785190D02*
X8636667Y-13794714D01*
X8636667Y-13794714D02*
X8646191Y-13813762D01*
X8646191Y-13813762D02*
X8646191Y-13918524D01*
X8741429Y-13918524D02*
X8741429Y-13785190D01*
X8741429Y-13804238D02*
X8750952Y-13794714D01*
X8750952Y-13794714D02*
X8770000Y-13785190D01*
X8770000Y-13785190D02*
X8798572Y-13785190D01*
X8798572Y-13785190D02*
X8817619Y-13794714D01*
X8817619Y-13794714D02*
X8827143Y-13813762D01*
X8827143Y-13813762D02*
X8827143Y-13918524D01*
X8827143Y-13813762D02*
X8836667Y-13794714D01*
X8836667Y-13794714D02*
X8855714Y-13785190D01*
X8855714Y-13785190D02*
X8884286Y-13785190D01*
X8884286Y-13785190D02*
X8903333Y-13794714D01*
X8903333Y-13794714D02*
X8912857Y-13813762D01*
X8912857Y-13813762D02*
X8912857Y-13918524D01*
X9303333Y-13709000D02*
X9131905Y-13966143D01*
X9560476Y-13718524D02*
X9579524Y-13718524D01*
X9579524Y-13718524D02*
X9598572Y-13728048D01*
X9598572Y-13728048D02*
X9608095Y-13737571D01*
X9608095Y-13737571D02*
X9617619Y-13756619D01*
X9617619Y-13756619D02*
X9627143Y-13794714D01*
X9627143Y-13794714D02*
X9627143Y-13842333D01*
X9627143Y-13842333D02*
X9617619Y-13880428D01*
X9617619Y-13880428D02*
X9608095Y-13899476D01*
X9608095Y-13899476D02*
X9598572Y-13909000D01*
X9598572Y-13909000D02*
X9579524Y-13918524D01*
X9579524Y-13918524D02*
X9560476Y-13918524D01*
X9560476Y-13918524D02*
X9541429Y-13909000D01*
X9541429Y-13909000D02*
X9531905Y-13899476D01*
X9531905Y-13899476D02*
X9522381Y-13880428D01*
X9522381Y-13880428D02*
X9512857Y-13842333D01*
X9512857Y-13842333D02*
X9512857Y-13794714D01*
X9512857Y-13794714D02*
X9522381Y-13756619D01*
X9522381Y-13756619D02*
X9531905Y-13737571D01*
X9531905Y-13737571D02*
X9541429Y-13728048D01*
X9541429Y-13728048D02*
X9560476Y-13718524D01*
X9712857Y-13899476D02*
X9722381Y-13909000D01*
X9722381Y-13909000D02*
X9712857Y-13918524D01*
X9712857Y-13918524D02*
X9703334Y-13909000D01*
X9703334Y-13909000D02*
X9712857Y-13899476D01*
X9712857Y-13899476D02*
X9712857Y-13918524D01*
X9846191Y-13718524D02*
X9865238Y-13718524D01*
X9865238Y-13718524D02*
X9884286Y-13728048D01*
X9884286Y-13728048D02*
X9893810Y-13737571D01*
X9893810Y-13737571D02*
X9903334Y-13756619D01*
X9903334Y-13756619D02*
X9912857Y-13794714D01*
X9912857Y-13794714D02*
X9912857Y-13842333D01*
X9912857Y-13842333D02*
X9903334Y-13880428D01*
X9903334Y-13880428D02*
X9893810Y-13899476D01*
X9893810Y-13899476D02*
X9884286Y-13909000D01*
X9884286Y-13909000D02*
X9865238Y-13918524D01*
X9865238Y-13918524D02*
X9846191Y-13918524D01*
X9846191Y-13918524D02*
X9827143Y-13909000D01*
X9827143Y-13909000D02*
X9817619Y-13899476D01*
X9817619Y-13899476D02*
X9808095Y-13880428D01*
X9808095Y-13880428D02*
X9798572Y-13842333D01*
X9798572Y-13842333D02*
X9798572Y-13794714D01*
X9798572Y-13794714D02*
X9808095Y-13756619D01*
X9808095Y-13756619D02*
X9817619Y-13737571D01*
X9817619Y-13737571D02*
X9827143Y-13728048D01*
X9827143Y-13728048D02*
X9846191Y-13718524D01*
X9979524Y-13718524D02*
X10103334Y-13718524D01*
X10103334Y-13718524D02*
X10036667Y-13794714D01*
X10036667Y-13794714D02*
X10065238Y-13794714D01*
X10065238Y-13794714D02*
X10084286Y-13804238D01*
X10084286Y-13804238D02*
X10093810Y-13813762D01*
X10093810Y-13813762D02*
X10103334Y-13832809D01*
X10103334Y-13832809D02*
X10103334Y-13880428D01*
X10103334Y-13880428D02*
X10093810Y-13899476D01*
X10093810Y-13899476D02*
X10084286Y-13909000D01*
X10084286Y-13909000D02*
X10065238Y-13918524D01*
X10065238Y-13918524D02*
X10008095Y-13918524D01*
X10008095Y-13918524D02*
X9989048Y-13909000D01*
X9989048Y-13909000D02*
X9979524Y-13899476D01*
X10198572Y-13918524D02*
X10236667Y-13918524D01*
X10236667Y-13918524D02*
X10255715Y-13909000D01*
X10255715Y-13909000D02*
X10265238Y-13899476D01*
X10265238Y-13899476D02*
X10284286Y-13870905D01*
X10284286Y-13870905D02*
X10293810Y-13832809D01*
X10293810Y-13832809D02*
X10293810Y-13756619D01*
X10293810Y-13756619D02*
X10284286Y-13737571D01*
X10284286Y-13737571D02*
X10274762Y-13728048D01*
X10274762Y-13728048D02*
X10255715Y-13718524D01*
X10255715Y-13718524D02*
X10217619Y-13718524D01*
X10217619Y-13718524D02*
X10198572Y-13728048D01*
X10198572Y-13728048D02*
X10189048Y-13737571D01*
X10189048Y-13737571D02*
X10179524Y-13756619D01*
X10179524Y-13756619D02*
X10179524Y-13804238D01*
X10179524Y-13804238D02*
X10189048Y-13823286D01*
X10189048Y-13823286D02*
X10198572Y-13832809D01*
X10198572Y-13832809D02*
X10217619Y-13842333D01*
X10217619Y-13842333D02*
X10255715Y-13842333D01*
X10255715Y-13842333D02*
X10274762Y-13832809D01*
X10274762Y-13832809D02*
X10284286Y-13823286D01*
X10284286Y-13823286D02*
X10293810Y-13804238D01*
X10465238Y-13785190D02*
X10465238Y-13918524D01*
X10417619Y-13709000D02*
X10370000Y-13851857D01*
X10370000Y-13851857D02*
X10493810Y-13851857D01*
X10560476Y-13718524D02*
X10560476Y-13756619D01*
X10636667Y-13718524D02*
X10636667Y-13756619D01*
X10931905Y-13994714D02*
X10922381Y-13985190D01*
X10922381Y-13985190D02*
X10903334Y-13956619D01*
X10903334Y-13956619D02*
X10893810Y-13937571D01*
X10893810Y-13937571D02*
X10884286Y-13909000D01*
X10884286Y-13909000D02*
X10874762Y-13861381D01*
X10874762Y-13861381D02*
X10874762Y-13823286D01*
X10874762Y-13823286D02*
X10884286Y-13775667D01*
X10884286Y-13775667D02*
X10893810Y-13747095D01*
X10893810Y-13747095D02*
X10903334Y-13728048D01*
X10903334Y-13728048D02*
X10922381Y-13699476D01*
X10922381Y-13699476D02*
X10931905Y-13689952D01*
X10989048Y-13718524D02*
X11122381Y-13718524D01*
X11122381Y-13718524D02*
X11036667Y-13918524D01*
X11284286Y-13785190D02*
X11284286Y-13918524D01*
X11236667Y-13709000D02*
X11189048Y-13851857D01*
X11189048Y-13851857D02*
X11312857Y-13851857D01*
X11541429Y-13918524D02*
X11541429Y-13718524D01*
X11627143Y-13918524D02*
X11627143Y-13813762D01*
X11627143Y-13813762D02*
X11617619Y-13794714D01*
X11617619Y-13794714D02*
X11598572Y-13785190D01*
X11598572Y-13785190D02*
X11570000Y-13785190D01*
X11570000Y-13785190D02*
X11550953Y-13794714D01*
X11550953Y-13794714D02*
X11541429Y-13804238D01*
X11750953Y-13918524D02*
X11731905Y-13909000D01*
X11731905Y-13909000D02*
X11722381Y-13899476D01*
X11722381Y-13899476D02*
X11712857Y-13880428D01*
X11712857Y-13880428D02*
X11712857Y-13823286D01*
X11712857Y-13823286D02*
X11722381Y-13804238D01*
X11722381Y-13804238D02*
X11731905Y-13794714D01*
X11731905Y-13794714D02*
X11750953Y-13785190D01*
X11750953Y-13785190D02*
X11779524Y-13785190D01*
X11779524Y-13785190D02*
X11798572Y-13794714D01*
X11798572Y-13794714D02*
X11808096Y-13804238D01*
X11808096Y-13804238D02*
X11817619Y-13823286D01*
X11817619Y-13823286D02*
X11817619Y-13880428D01*
X11817619Y-13880428D02*
X11808096Y-13899476D01*
X11808096Y-13899476D02*
X11798572Y-13909000D01*
X11798572Y-13909000D02*
X11779524Y-13918524D01*
X11779524Y-13918524D02*
X11750953Y-13918524D01*
X11931905Y-13918524D02*
X11912857Y-13909000D01*
X11912857Y-13909000D02*
X11903334Y-13889952D01*
X11903334Y-13889952D02*
X11903334Y-13718524D01*
X12084286Y-13909000D02*
X12065238Y-13918524D01*
X12065238Y-13918524D02*
X12027143Y-13918524D01*
X12027143Y-13918524D02*
X12008096Y-13909000D01*
X12008096Y-13909000D02*
X11998572Y-13889952D01*
X11998572Y-13889952D02*
X11998572Y-13813762D01*
X11998572Y-13813762D02*
X12008096Y-13794714D01*
X12008096Y-13794714D02*
X12027143Y-13785190D01*
X12027143Y-13785190D02*
X12065238Y-13785190D01*
X12065238Y-13785190D02*
X12084286Y-13794714D01*
X12084286Y-13794714D02*
X12093810Y-13813762D01*
X12093810Y-13813762D02*
X12093810Y-13832809D01*
X12093810Y-13832809D02*
X11998572Y-13851857D01*
X12170000Y-13909000D02*
X12189048Y-13918524D01*
X12189048Y-13918524D02*
X12227143Y-13918524D01*
X12227143Y-13918524D02*
X12246191Y-13909000D01*
X12246191Y-13909000D02*
X12255715Y-13889952D01*
X12255715Y-13889952D02*
X12255715Y-13880428D01*
X12255715Y-13880428D02*
X12246191Y-13861381D01*
X12246191Y-13861381D02*
X12227143Y-13851857D01*
X12227143Y-13851857D02*
X12198572Y-13851857D01*
X12198572Y-13851857D02*
X12179524Y-13842333D01*
X12179524Y-13842333D02*
X12170000Y-13823286D01*
X12170000Y-13823286D02*
X12170000Y-13813762D01*
X12170000Y-13813762D02*
X12179524Y-13794714D01*
X12179524Y-13794714D02*
X12198572Y-13785190D01*
X12198572Y-13785190D02*
X12227143Y-13785190D01*
X12227143Y-13785190D02*
X12246191Y-13794714D01*
X12322381Y-13994714D02*
X12331905Y-13985190D01*
X12331905Y-13985190D02*
X12350953Y-13956619D01*
X12350953Y-13956619D02*
X12360477Y-13937571D01*
X12360477Y-13937571D02*
X12370000Y-13909000D01*
X12370000Y-13909000D02*
X12379524Y-13861381D01*
X12379524Y-13861381D02*
X12379524Y-13823286D01*
X12379524Y-13823286D02*
X12370000Y-13775667D01*
X12370000Y-13775667D02*
X12360477Y-13747095D01*
X12360477Y-13747095D02*
X12350953Y-13728048D01*
X12350953Y-13728048D02*
X12331905Y-13699476D01*
X12331905Y-13699476D02*
X12322381Y-13689952D01*
M02*
