G04 #@! TF.GenerationSoftware,KiCad,Pcbnew,7.0.1-0*
G04 #@! TF.CreationDate,2023-04-02T19:02:11+10:00*
G04 #@! TF.ProjectId,RP2040_minimal,52503230-3430-45f6-9d69-6e696d616c2e,REV1*
G04 #@! TF.SameCoordinates,Original*
G04 #@! TF.FileFunction,Soldermask,Bot*
G04 #@! TF.FilePolarity,Negative*
%FSLAX46Y46*%
G04 Gerber Fmt 4.6, Leading zero omitted, Abs format (unit mm)*
G04 Created by KiCad (PCBNEW 7.0.1-0) date 2023-04-02 19:02:11*
%MOMM*%
%LPD*%
G01*
G04 APERTURE LIST*
G04 Aperture macros list*
%AMRoundRect*
0 Rectangle with rounded corners*
0 $1 Rounding radius*
0 $2 $3 $4 $5 $6 $7 $8 $9 X,Y pos of 4 corners*
0 Add a 4 corners polygon primitive as box body*
4,1,4,$2,$3,$4,$5,$6,$7,$8,$9,$2,$3,0*
0 Add four circle primitives for the rounded corners*
1,1,$1+$1,$2,$3*
1,1,$1+$1,$4,$5*
1,1,$1+$1,$6,$7*
1,1,$1+$1,$8,$9*
0 Add four rect primitives between the rounded corners*
20,1,$1+$1,$2,$3,$4,$5,0*
20,1,$1+$1,$4,$5,$6,$7,0*
20,1,$1+$1,$6,$7,$8,$9,0*
20,1,$1+$1,$8,$9,$2,$3,0*%
G04 Aperture macros list end*
%ADD10O,1.402000X1.902000*%
%ADD11O,1.152000X1.552000*%
%ADD12RoundRect,0.051000X0.850000X0.850000X-0.850000X0.850000X-0.850000X-0.850000X0.850000X-0.850000X0*%
%ADD13O,1.802000X1.802000*%
%ADD14RoundRect,0.051000X-0.850000X-0.850000X0.850000X-0.850000X0.850000X0.850000X-0.850000X0.850000X0*%
%ADD15C,2.802000*%
G04 APERTURE END LIST*
D10*
X102725000Y-71700000D03*
D11*
X102425000Y-74730000D03*
X97575000Y-74730000D03*
D10*
X97275000Y-71700000D03*
D12*
X91110000Y-76540000D03*
D13*
X91110000Y-74000000D03*
D14*
X75870000Y-74000000D03*
D13*
X78410000Y-74000000D03*
X75870000Y-76540000D03*
X78410000Y-76540000D03*
X75870000Y-79080000D03*
X78410000Y-79080000D03*
X75870000Y-81620000D03*
X78410000Y-81620000D03*
X75870000Y-84160000D03*
X78410000Y-84160000D03*
X75870000Y-86700000D03*
X78410000Y-86700000D03*
X75870000Y-89240000D03*
X78410000Y-89240000D03*
X75870000Y-91780000D03*
X78410000Y-91780000D03*
X75870000Y-94320000D03*
X78410000Y-94320000D03*
X75870000Y-96860000D03*
X78410000Y-96860000D03*
X75870000Y-99400000D03*
X78410000Y-99400000D03*
X75870000Y-101940000D03*
X78410000Y-101940000D03*
X75870000Y-104480000D03*
X78410000Y-104480000D03*
X75870000Y-107020000D03*
X78410000Y-107020000D03*
X75870000Y-109560000D03*
X78410000Y-109560000D03*
X75870000Y-112100000D03*
X78410000Y-112100000D03*
X75870000Y-114640000D03*
X78410000Y-114640000D03*
X75870000Y-117180000D03*
X78410000Y-117180000D03*
D14*
X121590000Y-74000000D03*
D13*
X124130000Y-74000000D03*
X121590000Y-76540000D03*
X124130000Y-76540000D03*
X121590000Y-79080000D03*
X124130000Y-79080000D03*
X121590000Y-81620000D03*
X124130000Y-81620000D03*
X121590000Y-84160000D03*
X124130000Y-84160000D03*
X121590000Y-86700000D03*
X124130000Y-86700000D03*
X121590000Y-89240000D03*
X124130000Y-89240000D03*
X121590000Y-91780000D03*
X124130000Y-91780000D03*
X121590000Y-94320000D03*
X124130000Y-94320000D03*
X121590000Y-96860000D03*
X124130000Y-96860000D03*
X121590000Y-99400000D03*
X124130000Y-99400000D03*
X121590000Y-101940000D03*
X124130000Y-101940000D03*
X121590000Y-104480000D03*
X124130000Y-104480000D03*
X121590000Y-107020000D03*
X124130000Y-107020000D03*
X121590000Y-109560000D03*
X124130000Y-109560000D03*
X121590000Y-112100000D03*
X124130000Y-112100000D03*
X121590000Y-114640000D03*
X124130000Y-114640000D03*
X121590000Y-117180000D03*
X124130000Y-117180000D03*
D15*
X113970000Y-74000000D03*
X113970000Y-117180000D03*
X86030000Y-74000000D03*
X86030000Y-117180000D03*
M02*
