G04 #@! TF.GenerationSoftware,KiCad,Pcbnew,7.0.1-0*
G04 #@! TF.CreationDate,2023-04-02T19:02:11+10:00*
G04 #@! TF.ProjectId,RP2040_minimal,52503230-3430-45f6-9d69-6e696d616c2e,REV1*
G04 #@! TF.SameCoordinates,Original*
G04 #@! TF.FileFunction,Legend,Top*
G04 #@! TF.FilePolarity,Positive*
%FSLAX46Y46*%
G04 Gerber Fmt 4.6, Leading zero omitted, Abs format (unit mm)*
G04 Created by KiCad (PCBNEW 7.0.1-0) date 2023-04-02 19:02:11*
%MOMM*%
%LPD*%
G01*
G04 APERTURE LIST*
G04 Aperture macros list*
%AMRoundRect*
0 Rectangle with rounded corners*
0 $1 Rounding radius*
0 $2 $3 $4 $5 $6 $7 $8 $9 X,Y pos of 4 corners*
0 Add a 4 corners polygon primitive as box body*
4,1,4,$2,$3,$4,$5,$6,$7,$8,$9,$2,$3,0*
0 Add four circle primitives for the rounded corners*
1,1,$1+$1,$2,$3*
1,1,$1+$1,$4,$5*
1,1,$1+$1,$6,$7*
1,1,$1+$1,$8,$9*
0 Add four rect primitives between the rounded corners*
20,1,$1+$1,$2,$3,$4,$5,0*
20,1,$1+$1,$4,$5,$6,$7,0*
20,1,$1+$1,$6,$7,$8,$9,0*
20,1,$1+$1,$8,$9,$2,$3,0*%
G04 Aperture macros list end*
%ADD10C,0.100000*%
%ADD11C,0.150000*%
%ADD12C,0.120000*%
%ADD13RoundRect,0.301000X-0.250000X-0.475000X0.250000X-0.475000X0.250000X0.475000X-0.250000X0.475000X0*%
%ADD14RoundRect,0.051000X-0.200000X0.875000X-0.200000X-0.875000X0.200000X-0.875000X0.200000X0.875000X0*%
%ADD15RoundRect,0.051000X0.912500X0.350000X-0.912500X0.350000X-0.912500X-0.350000X0.912500X-0.350000X0*%
%ADD16RoundRect,0.051000X1.000000X0.730000X-1.000000X0.730000X-1.000000X-0.730000X1.000000X-0.730000X0*%
%ADD17RoundRect,0.435800X0.265200X1.240200X-0.265200X1.240200X-0.265200X-1.240200X0.265200X-1.240200X0*%
%ADD18O,1.402000X1.902000*%
%ADD19O,1.152000X1.552000*%
%ADD20RoundRect,0.051000X-0.712500X1.250000X-0.712500X-1.250000X0.712500X-1.250000X0.712500X1.250000X0*%
%ADD21RoundRect,0.051000X0.850000X0.850000X-0.850000X0.850000X-0.850000X-0.850000X0.850000X-0.850000X0*%
%ADD22O,1.802000X1.802000*%
%ADD23RoundRect,0.051000X-0.850000X-0.850000X0.850000X-0.850000X0.850000X0.850000X-0.850000X0.850000X0*%
%ADD24RoundRect,0.191000X0.170000X-0.140000X0.170000X0.140000X-0.170000X0.140000X-0.170000X-0.140000X0*%
%ADD25RoundRect,0.191000X0.140000X0.170000X-0.140000X0.170000X-0.140000X-0.170000X0.140000X-0.170000X0*%
%ADD26RoundRect,0.191000X-0.170000X0.140000X-0.170000X-0.140000X0.170000X-0.140000X0.170000X0.140000X0*%
%ADD27RoundRect,0.051000X-0.750000X1.000000X-0.750000X-1.000000X0.750000X-1.000000X0.750000X1.000000X0*%
%ADD28RoundRect,0.051000X-1.900000X1.000000X-1.900000X-1.000000X1.900000X-1.000000X1.900000X1.000000X0*%
%ADD29RoundRect,0.201000X-0.650000X-0.150000X0.650000X-0.150000X0.650000X0.150000X-0.650000X0.150000X0*%
%ADD30RoundRect,0.191000X-0.140000X-0.170000X0.140000X-0.170000X0.140000X0.170000X-0.140000X0.170000X0*%
%ADD31RoundRect,0.101000X-0.387500X-0.050000X0.387500X-0.050000X0.387500X0.050000X-0.387500X0.050000X0*%
%ADD32RoundRect,0.101000X-0.050000X-0.387500X0.050000X-0.387500X0.050000X0.387500X-0.050000X0.387500X0*%
%ADD33RoundRect,0.195000X-1.456000X-1.456000X1.456000X-1.456000X1.456000X1.456000X-1.456000X1.456000X0*%
%ADD34C,2.802000*%
%ADD35RoundRect,0.051000X-2.800000X-1.050000X2.800000X-1.050000X2.800000X1.050000X-2.800000X1.050000X0*%
G04 APERTURE END LIST*
D10*
X80942143Y-78639214D02*
X80856429Y-78596357D01*
X80856429Y-78596357D02*
X80727857Y-78596357D01*
X80727857Y-78596357D02*
X80599286Y-78639214D01*
X80599286Y-78639214D02*
X80513571Y-78724928D01*
X80513571Y-78724928D02*
X80470714Y-78810642D01*
X80470714Y-78810642D02*
X80427857Y-78982071D01*
X80427857Y-78982071D02*
X80427857Y-79110642D01*
X80427857Y-79110642D02*
X80470714Y-79282071D01*
X80470714Y-79282071D02*
X80513571Y-79367785D01*
X80513571Y-79367785D02*
X80599286Y-79453500D01*
X80599286Y-79453500D02*
X80727857Y-79496357D01*
X80727857Y-79496357D02*
X80813571Y-79496357D01*
X80813571Y-79496357D02*
X80942143Y-79453500D01*
X80942143Y-79453500D02*
X80985000Y-79410642D01*
X80985000Y-79410642D02*
X80985000Y-79110642D01*
X80985000Y-79110642D02*
X80813571Y-79110642D01*
X81370714Y-79496357D02*
X81370714Y-78596357D01*
X81370714Y-78596357D02*
X81713571Y-78596357D01*
X81713571Y-78596357D02*
X81799286Y-78639214D01*
X81799286Y-78639214D02*
X81842143Y-78682071D01*
X81842143Y-78682071D02*
X81885000Y-78767785D01*
X81885000Y-78767785D02*
X81885000Y-78896357D01*
X81885000Y-78896357D02*
X81842143Y-78982071D01*
X81842143Y-78982071D02*
X81799286Y-79024928D01*
X81799286Y-79024928D02*
X81713571Y-79067785D01*
X81713571Y-79067785D02*
X81370714Y-79067785D01*
X82742143Y-79496357D02*
X82227857Y-79496357D01*
X82485000Y-79496357D02*
X82485000Y-78596357D01*
X82485000Y-78596357D02*
X82399286Y-78724928D01*
X82399286Y-78724928D02*
X82313571Y-78810642D01*
X82313571Y-78810642D02*
X82227857Y-78853500D01*
X80942143Y-81179214D02*
X80856429Y-81136357D01*
X80856429Y-81136357D02*
X80727857Y-81136357D01*
X80727857Y-81136357D02*
X80599286Y-81179214D01*
X80599286Y-81179214D02*
X80513571Y-81264928D01*
X80513571Y-81264928D02*
X80470714Y-81350642D01*
X80470714Y-81350642D02*
X80427857Y-81522071D01*
X80427857Y-81522071D02*
X80427857Y-81650642D01*
X80427857Y-81650642D02*
X80470714Y-81822071D01*
X80470714Y-81822071D02*
X80513571Y-81907785D01*
X80513571Y-81907785D02*
X80599286Y-81993500D01*
X80599286Y-81993500D02*
X80727857Y-82036357D01*
X80727857Y-82036357D02*
X80813571Y-82036357D01*
X80813571Y-82036357D02*
X80942143Y-81993500D01*
X80942143Y-81993500D02*
X80985000Y-81950642D01*
X80985000Y-81950642D02*
X80985000Y-81650642D01*
X80985000Y-81650642D02*
X80813571Y-81650642D01*
X81370714Y-82036357D02*
X81370714Y-81136357D01*
X81370714Y-81136357D02*
X81713571Y-81136357D01*
X81713571Y-81136357D02*
X81799286Y-81179214D01*
X81799286Y-81179214D02*
X81842143Y-81222071D01*
X81842143Y-81222071D02*
X81885000Y-81307785D01*
X81885000Y-81307785D02*
X81885000Y-81436357D01*
X81885000Y-81436357D02*
X81842143Y-81522071D01*
X81842143Y-81522071D02*
X81799286Y-81564928D01*
X81799286Y-81564928D02*
X81713571Y-81607785D01*
X81713571Y-81607785D02*
X81370714Y-81607785D01*
X82227857Y-81222071D02*
X82270714Y-81179214D01*
X82270714Y-81179214D02*
X82356429Y-81136357D01*
X82356429Y-81136357D02*
X82570714Y-81136357D01*
X82570714Y-81136357D02*
X82656429Y-81179214D01*
X82656429Y-81179214D02*
X82699286Y-81222071D01*
X82699286Y-81222071D02*
X82742143Y-81307785D01*
X82742143Y-81307785D02*
X82742143Y-81393500D01*
X82742143Y-81393500D02*
X82699286Y-81522071D01*
X82699286Y-81522071D02*
X82185000Y-82036357D01*
X82185000Y-82036357D02*
X82742143Y-82036357D01*
X80942143Y-83719214D02*
X80856429Y-83676357D01*
X80856429Y-83676357D02*
X80727857Y-83676357D01*
X80727857Y-83676357D02*
X80599286Y-83719214D01*
X80599286Y-83719214D02*
X80513571Y-83804928D01*
X80513571Y-83804928D02*
X80470714Y-83890642D01*
X80470714Y-83890642D02*
X80427857Y-84062071D01*
X80427857Y-84062071D02*
X80427857Y-84190642D01*
X80427857Y-84190642D02*
X80470714Y-84362071D01*
X80470714Y-84362071D02*
X80513571Y-84447785D01*
X80513571Y-84447785D02*
X80599286Y-84533500D01*
X80599286Y-84533500D02*
X80727857Y-84576357D01*
X80727857Y-84576357D02*
X80813571Y-84576357D01*
X80813571Y-84576357D02*
X80942143Y-84533500D01*
X80942143Y-84533500D02*
X80985000Y-84490642D01*
X80985000Y-84490642D02*
X80985000Y-84190642D01*
X80985000Y-84190642D02*
X80813571Y-84190642D01*
X81370714Y-84576357D02*
X81370714Y-83676357D01*
X81370714Y-83676357D02*
X81713571Y-83676357D01*
X81713571Y-83676357D02*
X81799286Y-83719214D01*
X81799286Y-83719214D02*
X81842143Y-83762071D01*
X81842143Y-83762071D02*
X81885000Y-83847785D01*
X81885000Y-83847785D02*
X81885000Y-83976357D01*
X81885000Y-83976357D02*
X81842143Y-84062071D01*
X81842143Y-84062071D02*
X81799286Y-84104928D01*
X81799286Y-84104928D02*
X81713571Y-84147785D01*
X81713571Y-84147785D02*
X81370714Y-84147785D01*
X82185000Y-83676357D02*
X82742143Y-83676357D01*
X82742143Y-83676357D02*
X82442143Y-84019214D01*
X82442143Y-84019214D02*
X82570714Y-84019214D01*
X82570714Y-84019214D02*
X82656429Y-84062071D01*
X82656429Y-84062071D02*
X82699286Y-84104928D01*
X82699286Y-84104928D02*
X82742143Y-84190642D01*
X82742143Y-84190642D02*
X82742143Y-84404928D01*
X82742143Y-84404928D02*
X82699286Y-84490642D01*
X82699286Y-84490642D02*
X82656429Y-84533500D01*
X82656429Y-84533500D02*
X82570714Y-84576357D01*
X82570714Y-84576357D02*
X82313571Y-84576357D01*
X82313571Y-84576357D02*
X82227857Y-84533500D01*
X82227857Y-84533500D02*
X82185000Y-84490642D01*
X80942143Y-86259214D02*
X80856429Y-86216357D01*
X80856429Y-86216357D02*
X80727857Y-86216357D01*
X80727857Y-86216357D02*
X80599286Y-86259214D01*
X80599286Y-86259214D02*
X80513571Y-86344928D01*
X80513571Y-86344928D02*
X80470714Y-86430642D01*
X80470714Y-86430642D02*
X80427857Y-86602071D01*
X80427857Y-86602071D02*
X80427857Y-86730642D01*
X80427857Y-86730642D02*
X80470714Y-86902071D01*
X80470714Y-86902071D02*
X80513571Y-86987785D01*
X80513571Y-86987785D02*
X80599286Y-87073500D01*
X80599286Y-87073500D02*
X80727857Y-87116357D01*
X80727857Y-87116357D02*
X80813571Y-87116357D01*
X80813571Y-87116357D02*
X80942143Y-87073500D01*
X80942143Y-87073500D02*
X80985000Y-87030642D01*
X80985000Y-87030642D02*
X80985000Y-86730642D01*
X80985000Y-86730642D02*
X80813571Y-86730642D01*
X81370714Y-87116357D02*
X81370714Y-86216357D01*
X81370714Y-86216357D02*
X81713571Y-86216357D01*
X81713571Y-86216357D02*
X81799286Y-86259214D01*
X81799286Y-86259214D02*
X81842143Y-86302071D01*
X81842143Y-86302071D02*
X81885000Y-86387785D01*
X81885000Y-86387785D02*
X81885000Y-86516357D01*
X81885000Y-86516357D02*
X81842143Y-86602071D01*
X81842143Y-86602071D02*
X81799286Y-86644928D01*
X81799286Y-86644928D02*
X81713571Y-86687785D01*
X81713571Y-86687785D02*
X81370714Y-86687785D01*
X82656429Y-86516357D02*
X82656429Y-87116357D01*
X82442143Y-86173500D02*
X82227857Y-86816357D01*
X82227857Y-86816357D02*
X82785000Y-86816357D01*
X80942143Y-88799214D02*
X80856429Y-88756357D01*
X80856429Y-88756357D02*
X80727857Y-88756357D01*
X80727857Y-88756357D02*
X80599286Y-88799214D01*
X80599286Y-88799214D02*
X80513571Y-88884928D01*
X80513571Y-88884928D02*
X80470714Y-88970642D01*
X80470714Y-88970642D02*
X80427857Y-89142071D01*
X80427857Y-89142071D02*
X80427857Y-89270642D01*
X80427857Y-89270642D02*
X80470714Y-89442071D01*
X80470714Y-89442071D02*
X80513571Y-89527785D01*
X80513571Y-89527785D02*
X80599286Y-89613500D01*
X80599286Y-89613500D02*
X80727857Y-89656357D01*
X80727857Y-89656357D02*
X80813571Y-89656357D01*
X80813571Y-89656357D02*
X80942143Y-89613500D01*
X80942143Y-89613500D02*
X80985000Y-89570642D01*
X80985000Y-89570642D02*
X80985000Y-89270642D01*
X80985000Y-89270642D02*
X80813571Y-89270642D01*
X81370714Y-89656357D02*
X81370714Y-88756357D01*
X81370714Y-88756357D02*
X81713571Y-88756357D01*
X81713571Y-88756357D02*
X81799286Y-88799214D01*
X81799286Y-88799214D02*
X81842143Y-88842071D01*
X81842143Y-88842071D02*
X81885000Y-88927785D01*
X81885000Y-88927785D02*
X81885000Y-89056357D01*
X81885000Y-89056357D02*
X81842143Y-89142071D01*
X81842143Y-89142071D02*
X81799286Y-89184928D01*
X81799286Y-89184928D02*
X81713571Y-89227785D01*
X81713571Y-89227785D02*
X81370714Y-89227785D01*
X82699286Y-88756357D02*
X82270714Y-88756357D01*
X82270714Y-88756357D02*
X82227857Y-89184928D01*
X82227857Y-89184928D02*
X82270714Y-89142071D01*
X82270714Y-89142071D02*
X82356429Y-89099214D01*
X82356429Y-89099214D02*
X82570714Y-89099214D01*
X82570714Y-89099214D02*
X82656429Y-89142071D01*
X82656429Y-89142071D02*
X82699286Y-89184928D01*
X82699286Y-89184928D02*
X82742143Y-89270642D01*
X82742143Y-89270642D02*
X82742143Y-89484928D01*
X82742143Y-89484928D02*
X82699286Y-89570642D01*
X82699286Y-89570642D02*
X82656429Y-89613500D01*
X82656429Y-89613500D02*
X82570714Y-89656357D01*
X82570714Y-89656357D02*
X82356429Y-89656357D01*
X82356429Y-89656357D02*
X82270714Y-89613500D01*
X82270714Y-89613500D02*
X82227857Y-89570642D01*
X80942143Y-91339214D02*
X80856429Y-91296357D01*
X80856429Y-91296357D02*
X80727857Y-91296357D01*
X80727857Y-91296357D02*
X80599286Y-91339214D01*
X80599286Y-91339214D02*
X80513571Y-91424928D01*
X80513571Y-91424928D02*
X80470714Y-91510642D01*
X80470714Y-91510642D02*
X80427857Y-91682071D01*
X80427857Y-91682071D02*
X80427857Y-91810642D01*
X80427857Y-91810642D02*
X80470714Y-91982071D01*
X80470714Y-91982071D02*
X80513571Y-92067785D01*
X80513571Y-92067785D02*
X80599286Y-92153500D01*
X80599286Y-92153500D02*
X80727857Y-92196357D01*
X80727857Y-92196357D02*
X80813571Y-92196357D01*
X80813571Y-92196357D02*
X80942143Y-92153500D01*
X80942143Y-92153500D02*
X80985000Y-92110642D01*
X80985000Y-92110642D02*
X80985000Y-91810642D01*
X80985000Y-91810642D02*
X80813571Y-91810642D01*
X81370714Y-92196357D02*
X81370714Y-91296357D01*
X81370714Y-91296357D02*
X81713571Y-91296357D01*
X81713571Y-91296357D02*
X81799286Y-91339214D01*
X81799286Y-91339214D02*
X81842143Y-91382071D01*
X81842143Y-91382071D02*
X81885000Y-91467785D01*
X81885000Y-91467785D02*
X81885000Y-91596357D01*
X81885000Y-91596357D02*
X81842143Y-91682071D01*
X81842143Y-91682071D02*
X81799286Y-91724928D01*
X81799286Y-91724928D02*
X81713571Y-91767785D01*
X81713571Y-91767785D02*
X81370714Y-91767785D01*
X82656429Y-91296357D02*
X82485000Y-91296357D01*
X82485000Y-91296357D02*
X82399286Y-91339214D01*
X82399286Y-91339214D02*
X82356429Y-91382071D01*
X82356429Y-91382071D02*
X82270714Y-91510642D01*
X82270714Y-91510642D02*
X82227857Y-91682071D01*
X82227857Y-91682071D02*
X82227857Y-92024928D01*
X82227857Y-92024928D02*
X82270714Y-92110642D01*
X82270714Y-92110642D02*
X82313571Y-92153500D01*
X82313571Y-92153500D02*
X82399286Y-92196357D01*
X82399286Y-92196357D02*
X82570714Y-92196357D01*
X82570714Y-92196357D02*
X82656429Y-92153500D01*
X82656429Y-92153500D02*
X82699286Y-92110642D01*
X82699286Y-92110642D02*
X82742143Y-92024928D01*
X82742143Y-92024928D02*
X82742143Y-91810642D01*
X82742143Y-91810642D02*
X82699286Y-91724928D01*
X82699286Y-91724928D02*
X82656429Y-91682071D01*
X82656429Y-91682071D02*
X82570714Y-91639214D01*
X82570714Y-91639214D02*
X82399286Y-91639214D01*
X82399286Y-91639214D02*
X82313571Y-91682071D01*
X82313571Y-91682071D02*
X82270714Y-91724928D01*
X82270714Y-91724928D02*
X82227857Y-91810642D01*
X80942143Y-93879214D02*
X80856429Y-93836357D01*
X80856429Y-93836357D02*
X80727857Y-93836357D01*
X80727857Y-93836357D02*
X80599286Y-93879214D01*
X80599286Y-93879214D02*
X80513571Y-93964928D01*
X80513571Y-93964928D02*
X80470714Y-94050642D01*
X80470714Y-94050642D02*
X80427857Y-94222071D01*
X80427857Y-94222071D02*
X80427857Y-94350642D01*
X80427857Y-94350642D02*
X80470714Y-94522071D01*
X80470714Y-94522071D02*
X80513571Y-94607785D01*
X80513571Y-94607785D02*
X80599286Y-94693500D01*
X80599286Y-94693500D02*
X80727857Y-94736357D01*
X80727857Y-94736357D02*
X80813571Y-94736357D01*
X80813571Y-94736357D02*
X80942143Y-94693500D01*
X80942143Y-94693500D02*
X80985000Y-94650642D01*
X80985000Y-94650642D02*
X80985000Y-94350642D01*
X80985000Y-94350642D02*
X80813571Y-94350642D01*
X81370714Y-94736357D02*
X81370714Y-93836357D01*
X81370714Y-93836357D02*
X81713571Y-93836357D01*
X81713571Y-93836357D02*
X81799286Y-93879214D01*
X81799286Y-93879214D02*
X81842143Y-93922071D01*
X81842143Y-93922071D02*
X81885000Y-94007785D01*
X81885000Y-94007785D02*
X81885000Y-94136357D01*
X81885000Y-94136357D02*
X81842143Y-94222071D01*
X81842143Y-94222071D02*
X81799286Y-94264928D01*
X81799286Y-94264928D02*
X81713571Y-94307785D01*
X81713571Y-94307785D02*
X81370714Y-94307785D01*
X82185000Y-93836357D02*
X82785000Y-93836357D01*
X82785000Y-93836357D02*
X82399286Y-94736357D01*
X80942143Y-96419214D02*
X80856429Y-96376357D01*
X80856429Y-96376357D02*
X80727857Y-96376357D01*
X80727857Y-96376357D02*
X80599286Y-96419214D01*
X80599286Y-96419214D02*
X80513571Y-96504928D01*
X80513571Y-96504928D02*
X80470714Y-96590642D01*
X80470714Y-96590642D02*
X80427857Y-96762071D01*
X80427857Y-96762071D02*
X80427857Y-96890642D01*
X80427857Y-96890642D02*
X80470714Y-97062071D01*
X80470714Y-97062071D02*
X80513571Y-97147785D01*
X80513571Y-97147785D02*
X80599286Y-97233500D01*
X80599286Y-97233500D02*
X80727857Y-97276357D01*
X80727857Y-97276357D02*
X80813571Y-97276357D01*
X80813571Y-97276357D02*
X80942143Y-97233500D01*
X80942143Y-97233500D02*
X80985000Y-97190642D01*
X80985000Y-97190642D02*
X80985000Y-96890642D01*
X80985000Y-96890642D02*
X80813571Y-96890642D01*
X81370714Y-97276357D02*
X81370714Y-96376357D01*
X81370714Y-96376357D02*
X81713571Y-96376357D01*
X81713571Y-96376357D02*
X81799286Y-96419214D01*
X81799286Y-96419214D02*
X81842143Y-96462071D01*
X81842143Y-96462071D02*
X81885000Y-96547785D01*
X81885000Y-96547785D02*
X81885000Y-96676357D01*
X81885000Y-96676357D02*
X81842143Y-96762071D01*
X81842143Y-96762071D02*
X81799286Y-96804928D01*
X81799286Y-96804928D02*
X81713571Y-96847785D01*
X81713571Y-96847785D02*
X81370714Y-96847785D01*
X82399286Y-96762071D02*
X82313571Y-96719214D01*
X82313571Y-96719214D02*
X82270714Y-96676357D01*
X82270714Y-96676357D02*
X82227857Y-96590642D01*
X82227857Y-96590642D02*
X82227857Y-96547785D01*
X82227857Y-96547785D02*
X82270714Y-96462071D01*
X82270714Y-96462071D02*
X82313571Y-96419214D01*
X82313571Y-96419214D02*
X82399286Y-96376357D01*
X82399286Y-96376357D02*
X82570714Y-96376357D01*
X82570714Y-96376357D02*
X82656429Y-96419214D01*
X82656429Y-96419214D02*
X82699286Y-96462071D01*
X82699286Y-96462071D02*
X82742143Y-96547785D01*
X82742143Y-96547785D02*
X82742143Y-96590642D01*
X82742143Y-96590642D02*
X82699286Y-96676357D01*
X82699286Y-96676357D02*
X82656429Y-96719214D01*
X82656429Y-96719214D02*
X82570714Y-96762071D01*
X82570714Y-96762071D02*
X82399286Y-96762071D01*
X82399286Y-96762071D02*
X82313571Y-96804928D01*
X82313571Y-96804928D02*
X82270714Y-96847785D01*
X82270714Y-96847785D02*
X82227857Y-96933500D01*
X82227857Y-96933500D02*
X82227857Y-97104928D01*
X82227857Y-97104928D02*
X82270714Y-97190642D01*
X82270714Y-97190642D02*
X82313571Y-97233500D01*
X82313571Y-97233500D02*
X82399286Y-97276357D01*
X82399286Y-97276357D02*
X82570714Y-97276357D01*
X82570714Y-97276357D02*
X82656429Y-97233500D01*
X82656429Y-97233500D02*
X82699286Y-97190642D01*
X82699286Y-97190642D02*
X82742143Y-97104928D01*
X82742143Y-97104928D02*
X82742143Y-96933500D01*
X82742143Y-96933500D02*
X82699286Y-96847785D01*
X82699286Y-96847785D02*
X82656429Y-96804928D01*
X82656429Y-96804928D02*
X82570714Y-96762071D01*
X80942143Y-98959214D02*
X80856429Y-98916357D01*
X80856429Y-98916357D02*
X80727857Y-98916357D01*
X80727857Y-98916357D02*
X80599286Y-98959214D01*
X80599286Y-98959214D02*
X80513571Y-99044928D01*
X80513571Y-99044928D02*
X80470714Y-99130642D01*
X80470714Y-99130642D02*
X80427857Y-99302071D01*
X80427857Y-99302071D02*
X80427857Y-99430642D01*
X80427857Y-99430642D02*
X80470714Y-99602071D01*
X80470714Y-99602071D02*
X80513571Y-99687785D01*
X80513571Y-99687785D02*
X80599286Y-99773500D01*
X80599286Y-99773500D02*
X80727857Y-99816357D01*
X80727857Y-99816357D02*
X80813571Y-99816357D01*
X80813571Y-99816357D02*
X80942143Y-99773500D01*
X80942143Y-99773500D02*
X80985000Y-99730642D01*
X80985000Y-99730642D02*
X80985000Y-99430642D01*
X80985000Y-99430642D02*
X80813571Y-99430642D01*
X81370714Y-99816357D02*
X81370714Y-98916357D01*
X81370714Y-98916357D02*
X81713571Y-98916357D01*
X81713571Y-98916357D02*
X81799286Y-98959214D01*
X81799286Y-98959214D02*
X81842143Y-99002071D01*
X81842143Y-99002071D02*
X81885000Y-99087785D01*
X81885000Y-99087785D02*
X81885000Y-99216357D01*
X81885000Y-99216357D02*
X81842143Y-99302071D01*
X81842143Y-99302071D02*
X81799286Y-99344928D01*
X81799286Y-99344928D02*
X81713571Y-99387785D01*
X81713571Y-99387785D02*
X81370714Y-99387785D01*
X82313571Y-99816357D02*
X82485000Y-99816357D01*
X82485000Y-99816357D02*
X82570714Y-99773500D01*
X82570714Y-99773500D02*
X82613571Y-99730642D01*
X82613571Y-99730642D02*
X82699286Y-99602071D01*
X82699286Y-99602071D02*
X82742143Y-99430642D01*
X82742143Y-99430642D02*
X82742143Y-99087785D01*
X82742143Y-99087785D02*
X82699286Y-99002071D01*
X82699286Y-99002071D02*
X82656429Y-98959214D01*
X82656429Y-98959214D02*
X82570714Y-98916357D01*
X82570714Y-98916357D02*
X82399286Y-98916357D01*
X82399286Y-98916357D02*
X82313571Y-98959214D01*
X82313571Y-98959214D02*
X82270714Y-99002071D01*
X82270714Y-99002071D02*
X82227857Y-99087785D01*
X82227857Y-99087785D02*
X82227857Y-99302071D01*
X82227857Y-99302071D02*
X82270714Y-99387785D01*
X82270714Y-99387785D02*
X82313571Y-99430642D01*
X82313571Y-99430642D02*
X82399286Y-99473500D01*
X82399286Y-99473500D02*
X82570714Y-99473500D01*
X82570714Y-99473500D02*
X82656429Y-99430642D01*
X82656429Y-99430642D02*
X82699286Y-99387785D01*
X82699286Y-99387785D02*
X82742143Y-99302071D01*
X80513571Y-104039214D02*
X80427857Y-103996357D01*
X80427857Y-103996357D02*
X80299285Y-103996357D01*
X80299285Y-103996357D02*
X80170714Y-104039214D01*
X80170714Y-104039214D02*
X80084999Y-104124928D01*
X80084999Y-104124928D02*
X80042142Y-104210642D01*
X80042142Y-104210642D02*
X79999285Y-104382071D01*
X79999285Y-104382071D02*
X79999285Y-104510642D01*
X79999285Y-104510642D02*
X80042142Y-104682071D01*
X80042142Y-104682071D02*
X80084999Y-104767785D01*
X80084999Y-104767785D02*
X80170714Y-104853500D01*
X80170714Y-104853500D02*
X80299285Y-104896357D01*
X80299285Y-104896357D02*
X80384999Y-104896357D01*
X80384999Y-104896357D02*
X80513571Y-104853500D01*
X80513571Y-104853500D02*
X80556428Y-104810642D01*
X80556428Y-104810642D02*
X80556428Y-104510642D01*
X80556428Y-104510642D02*
X80384999Y-104510642D01*
X80942142Y-104896357D02*
X80942142Y-103996357D01*
X80942142Y-103996357D02*
X81284999Y-103996357D01*
X81284999Y-103996357D02*
X81370714Y-104039214D01*
X81370714Y-104039214D02*
X81413571Y-104082071D01*
X81413571Y-104082071D02*
X81456428Y-104167785D01*
X81456428Y-104167785D02*
X81456428Y-104296357D01*
X81456428Y-104296357D02*
X81413571Y-104382071D01*
X81413571Y-104382071D02*
X81370714Y-104424928D01*
X81370714Y-104424928D02*
X81284999Y-104467785D01*
X81284999Y-104467785D02*
X80942142Y-104467785D01*
X82313571Y-104896357D02*
X81799285Y-104896357D01*
X82056428Y-104896357D02*
X82056428Y-103996357D01*
X82056428Y-103996357D02*
X81970714Y-104124928D01*
X81970714Y-104124928D02*
X81884999Y-104210642D01*
X81884999Y-104210642D02*
X81799285Y-104253500D01*
X83170714Y-104896357D02*
X82656428Y-104896357D01*
X82913571Y-104896357D02*
X82913571Y-103996357D01*
X82913571Y-103996357D02*
X82827857Y-104124928D01*
X82827857Y-104124928D02*
X82742142Y-104210642D01*
X82742142Y-104210642D02*
X82656428Y-104253500D01*
X80513571Y-101499214D02*
X80427857Y-101456357D01*
X80427857Y-101456357D02*
X80299285Y-101456357D01*
X80299285Y-101456357D02*
X80170714Y-101499214D01*
X80170714Y-101499214D02*
X80084999Y-101584928D01*
X80084999Y-101584928D02*
X80042142Y-101670642D01*
X80042142Y-101670642D02*
X79999285Y-101842071D01*
X79999285Y-101842071D02*
X79999285Y-101970642D01*
X79999285Y-101970642D02*
X80042142Y-102142071D01*
X80042142Y-102142071D02*
X80084999Y-102227785D01*
X80084999Y-102227785D02*
X80170714Y-102313500D01*
X80170714Y-102313500D02*
X80299285Y-102356357D01*
X80299285Y-102356357D02*
X80384999Y-102356357D01*
X80384999Y-102356357D02*
X80513571Y-102313500D01*
X80513571Y-102313500D02*
X80556428Y-102270642D01*
X80556428Y-102270642D02*
X80556428Y-101970642D01*
X80556428Y-101970642D02*
X80384999Y-101970642D01*
X80942142Y-102356357D02*
X80942142Y-101456357D01*
X80942142Y-101456357D02*
X81284999Y-101456357D01*
X81284999Y-101456357D02*
X81370714Y-101499214D01*
X81370714Y-101499214D02*
X81413571Y-101542071D01*
X81413571Y-101542071D02*
X81456428Y-101627785D01*
X81456428Y-101627785D02*
X81456428Y-101756357D01*
X81456428Y-101756357D02*
X81413571Y-101842071D01*
X81413571Y-101842071D02*
X81370714Y-101884928D01*
X81370714Y-101884928D02*
X81284999Y-101927785D01*
X81284999Y-101927785D02*
X80942142Y-101927785D01*
X82313571Y-102356357D02*
X81799285Y-102356357D01*
X82056428Y-102356357D02*
X82056428Y-101456357D01*
X82056428Y-101456357D02*
X81970714Y-101584928D01*
X81970714Y-101584928D02*
X81884999Y-101670642D01*
X81884999Y-101670642D02*
X81799285Y-101713500D01*
X82870714Y-101456357D02*
X82956428Y-101456357D01*
X82956428Y-101456357D02*
X83042142Y-101499214D01*
X83042142Y-101499214D02*
X83085000Y-101542071D01*
X83085000Y-101542071D02*
X83127857Y-101627785D01*
X83127857Y-101627785D02*
X83170714Y-101799214D01*
X83170714Y-101799214D02*
X83170714Y-102013500D01*
X83170714Y-102013500D02*
X83127857Y-102184928D01*
X83127857Y-102184928D02*
X83085000Y-102270642D01*
X83085000Y-102270642D02*
X83042142Y-102313500D01*
X83042142Y-102313500D02*
X82956428Y-102356357D01*
X82956428Y-102356357D02*
X82870714Y-102356357D01*
X82870714Y-102356357D02*
X82785000Y-102313500D01*
X82785000Y-102313500D02*
X82742142Y-102270642D01*
X82742142Y-102270642D02*
X82699285Y-102184928D01*
X82699285Y-102184928D02*
X82656428Y-102013500D01*
X82656428Y-102013500D02*
X82656428Y-101799214D01*
X82656428Y-101799214D02*
X82699285Y-101627785D01*
X82699285Y-101627785D02*
X82742142Y-101542071D01*
X82742142Y-101542071D02*
X82785000Y-101499214D01*
X82785000Y-101499214D02*
X82870714Y-101456357D01*
X80513571Y-106579214D02*
X80427857Y-106536357D01*
X80427857Y-106536357D02*
X80299285Y-106536357D01*
X80299285Y-106536357D02*
X80170714Y-106579214D01*
X80170714Y-106579214D02*
X80084999Y-106664928D01*
X80084999Y-106664928D02*
X80042142Y-106750642D01*
X80042142Y-106750642D02*
X79999285Y-106922071D01*
X79999285Y-106922071D02*
X79999285Y-107050642D01*
X79999285Y-107050642D02*
X80042142Y-107222071D01*
X80042142Y-107222071D02*
X80084999Y-107307785D01*
X80084999Y-107307785D02*
X80170714Y-107393500D01*
X80170714Y-107393500D02*
X80299285Y-107436357D01*
X80299285Y-107436357D02*
X80384999Y-107436357D01*
X80384999Y-107436357D02*
X80513571Y-107393500D01*
X80513571Y-107393500D02*
X80556428Y-107350642D01*
X80556428Y-107350642D02*
X80556428Y-107050642D01*
X80556428Y-107050642D02*
X80384999Y-107050642D01*
X80942142Y-107436357D02*
X80942142Y-106536357D01*
X80942142Y-106536357D02*
X81284999Y-106536357D01*
X81284999Y-106536357D02*
X81370714Y-106579214D01*
X81370714Y-106579214D02*
X81413571Y-106622071D01*
X81413571Y-106622071D02*
X81456428Y-106707785D01*
X81456428Y-106707785D02*
X81456428Y-106836357D01*
X81456428Y-106836357D02*
X81413571Y-106922071D01*
X81413571Y-106922071D02*
X81370714Y-106964928D01*
X81370714Y-106964928D02*
X81284999Y-107007785D01*
X81284999Y-107007785D02*
X80942142Y-107007785D01*
X82313571Y-107436357D02*
X81799285Y-107436357D01*
X82056428Y-107436357D02*
X82056428Y-106536357D01*
X82056428Y-106536357D02*
X81970714Y-106664928D01*
X81970714Y-106664928D02*
X81884999Y-106750642D01*
X81884999Y-106750642D02*
X81799285Y-106793500D01*
X82656428Y-106622071D02*
X82699285Y-106579214D01*
X82699285Y-106579214D02*
X82785000Y-106536357D01*
X82785000Y-106536357D02*
X82999285Y-106536357D01*
X82999285Y-106536357D02*
X83085000Y-106579214D01*
X83085000Y-106579214D02*
X83127857Y-106622071D01*
X83127857Y-106622071D02*
X83170714Y-106707785D01*
X83170714Y-106707785D02*
X83170714Y-106793500D01*
X83170714Y-106793500D02*
X83127857Y-106922071D01*
X83127857Y-106922071D02*
X82613571Y-107436357D01*
X82613571Y-107436357D02*
X83170714Y-107436357D01*
X80513571Y-109119214D02*
X80427857Y-109076357D01*
X80427857Y-109076357D02*
X80299285Y-109076357D01*
X80299285Y-109076357D02*
X80170714Y-109119214D01*
X80170714Y-109119214D02*
X80084999Y-109204928D01*
X80084999Y-109204928D02*
X80042142Y-109290642D01*
X80042142Y-109290642D02*
X79999285Y-109462071D01*
X79999285Y-109462071D02*
X79999285Y-109590642D01*
X79999285Y-109590642D02*
X80042142Y-109762071D01*
X80042142Y-109762071D02*
X80084999Y-109847785D01*
X80084999Y-109847785D02*
X80170714Y-109933500D01*
X80170714Y-109933500D02*
X80299285Y-109976357D01*
X80299285Y-109976357D02*
X80384999Y-109976357D01*
X80384999Y-109976357D02*
X80513571Y-109933500D01*
X80513571Y-109933500D02*
X80556428Y-109890642D01*
X80556428Y-109890642D02*
X80556428Y-109590642D01*
X80556428Y-109590642D02*
X80384999Y-109590642D01*
X80942142Y-109976357D02*
X80942142Y-109076357D01*
X80942142Y-109076357D02*
X81284999Y-109076357D01*
X81284999Y-109076357D02*
X81370714Y-109119214D01*
X81370714Y-109119214D02*
X81413571Y-109162071D01*
X81413571Y-109162071D02*
X81456428Y-109247785D01*
X81456428Y-109247785D02*
X81456428Y-109376357D01*
X81456428Y-109376357D02*
X81413571Y-109462071D01*
X81413571Y-109462071D02*
X81370714Y-109504928D01*
X81370714Y-109504928D02*
X81284999Y-109547785D01*
X81284999Y-109547785D02*
X80942142Y-109547785D01*
X82313571Y-109976357D02*
X81799285Y-109976357D01*
X82056428Y-109976357D02*
X82056428Y-109076357D01*
X82056428Y-109076357D02*
X81970714Y-109204928D01*
X81970714Y-109204928D02*
X81884999Y-109290642D01*
X81884999Y-109290642D02*
X81799285Y-109333500D01*
X82613571Y-109076357D02*
X83170714Y-109076357D01*
X83170714Y-109076357D02*
X82870714Y-109419214D01*
X82870714Y-109419214D02*
X82999285Y-109419214D01*
X82999285Y-109419214D02*
X83085000Y-109462071D01*
X83085000Y-109462071D02*
X83127857Y-109504928D01*
X83127857Y-109504928D02*
X83170714Y-109590642D01*
X83170714Y-109590642D02*
X83170714Y-109804928D01*
X83170714Y-109804928D02*
X83127857Y-109890642D01*
X83127857Y-109890642D02*
X83085000Y-109933500D01*
X83085000Y-109933500D02*
X82999285Y-109976357D01*
X82999285Y-109976357D02*
X82742142Y-109976357D01*
X82742142Y-109976357D02*
X82656428Y-109933500D01*
X82656428Y-109933500D02*
X82613571Y-109890642D01*
X80513571Y-114199214D02*
X80427857Y-114156357D01*
X80427857Y-114156357D02*
X80299285Y-114156357D01*
X80299285Y-114156357D02*
X80170714Y-114199214D01*
X80170714Y-114199214D02*
X80084999Y-114284928D01*
X80084999Y-114284928D02*
X80042142Y-114370642D01*
X80042142Y-114370642D02*
X79999285Y-114542071D01*
X79999285Y-114542071D02*
X79999285Y-114670642D01*
X79999285Y-114670642D02*
X80042142Y-114842071D01*
X80042142Y-114842071D02*
X80084999Y-114927785D01*
X80084999Y-114927785D02*
X80170714Y-115013500D01*
X80170714Y-115013500D02*
X80299285Y-115056357D01*
X80299285Y-115056357D02*
X80384999Y-115056357D01*
X80384999Y-115056357D02*
X80513571Y-115013500D01*
X80513571Y-115013500D02*
X80556428Y-114970642D01*
X80556428Y-114970642D02*
X80556428Y-114670642D01*
X80556428Y-114670642D02*
X80384999Y-114670642D01*
X80942142Y-115056357D02*
X80942142Y-114156357D01*
X80942142Y-114156357D02*
X81284999Y-114156357D01*
X81284999Y-114156357D02*
X81370714Y-114199214D01*
X81370714Y-114199214D02*
X81413571Y-114242071D01*
X81413571Y-114242071D02*
X81456428Y-114327785D01*
X81456428Y-114327785D02*
X81456428Y-114456357D01*
X81456428Y-114456357D02*
X81413571Y-114542071D01*
X81413571Y-114542071D02*
X81370714Y-114584928D01*
X81370714Y-114584928D02*
X81284999Y-114627785D01*
X81284999Y-114627785D02*
X80942142Y-114627785D01*
X82313571Y-115056357D02*
X81799285Y-115056357D01*
X82056428Y-115056357D02*
X82056428Y-114156357D01*
X82056428Y-114156357D02*
X81970714Y-114284928D01*
X81970714Y-114284928D02*
X81884999Y-114370642D01*
X81884999Y-114370642D02*
X81799285Y-114413500D01*
X83127857Y-114156357D02*
X82699285Y-114156357D01*
X82699285Y-114156357D02*
X82656428Y-114584928D01*
X82656428Y-114584928D02*
X82699285Y-114542071D01*
X82699285Y-114542071D02*
X82785000Y-114499214D01*
X82785000Y-114499214D02*
X82999285Y-114499214D01*
X82999285Y-114499214D02*
X83085000Y-114542071D01*
X83085000Y-114542071D02*
X83127857Y-114584928D01*
X83127857Y-114584928D02*
X83170714Y-114670642D01*
X83170714Y-114670642D02*
X83170714Y-114884928D01*
X83170714Y-114884928D02*
X83127857Y-114970642D01*
X83127857Y-114970642D02*
X83085000Y-115013500D01*
X83085000Y-115013500D02*
X82999285Y-115056357D01*
X82999285Y-115056357D02*
X82785000Y-115056357D01*
X82785000Y-115056357D02*
X82699285Y-115013500D01*
X82699285Y-115013500D02*
X82656428Y-114970642D01*
X80513571Y-111659214D02*
X80427857Y-111616357D01*
X80427857Y-111616357D02*
X80299285Y-111616357D01*
X80299285Y-111616357D02*
X80170714Y-111659214D01*
X80170714Y-111659214D02*
X80084999Y-111744928D01*
X80084999Y-111744928D02*
X80042142Y-111830642D01*
X80042142Y-111830642D02*
X79999285Y-112002071D01*
X79999285Y-112002071D02*
X79999285Y-112130642D01*
X79999285Y-112130642D02*
X80042142Y-112302071D01*
X80042142Y-112302071D02*
X80084999Y-112387785D01*
X80084999Y-112387785D02*
X80170714Y-112473500D01*
X80170714Y-112473500D02*
X80299285Y-112516357D01*
X80299285Y-112516357D02*
X80384999Y-112516357D01*
X80384999Y-112516357D02*
X80513571Y-112473500D01*
X80513571Y-112473500D02*
X80556428Y-112430642D01*
X80556428Y-112430642D02*
X80556428Y-112130642D01*
X80556428Y-112130642D02*
X80384999Y-112130642D01*
X80942142Y-112516357D02*
X80942142Y-111616357D01*
X80942142Y-111616357D02*
X81284999Y-111616357D01*
X81284999Y-111616357D02*
X81370714Y-111659214D01*
X81370714Y-111659214D02*
X81413571Y-111702071D01*
X81413571Y-111702071D02*
X81456428Y-111787785D01*
X81456428Y-111787785D02*
X81456428Y-111916357D01*
X81456428Y-111916357D02*
X81413571Y-112002071D01*
X81413571Y-112002071D02*
X81370714Y-112044928D01*
X81370714Y-112044928D02*
X81284999Y-112087785D01*
X81284999Y-112087785D02*
X80942142Y-112087785D01*
X82313571Y-112516357D02*
X81799285Y-112516357D01*
X82056428Y-112516357D02*
X82056428Y-111616357D01*
X82056428Y-111616357D02*
X81970714Y-111744928D01*
X81970714Y-111744928D02*
X81884999Y-111830642D01*
X81884999Y-111830642D02*
X81799285Y-111873500D01*
X83085000Y-111916357D02*
X83085000Y-112516357D01*
X82870714Y-111573500D02*
X82656428Y-112216357D01*
X82656428Y-112216357D02*
X83213571Y-112216357D01*
X117343571Y-76099214D02*
X117257857Y-76056357D01*
X117257857Y-76056357D02*
X117129285Y-76056357D01*
X117129285Y-76056357D02*
X117000714Y-76099214D01*
X117000714Y-76099214D02*
X116914999Y-76184928D01*
X116914999Y-76184928D02*
X116872142Y-76270642D01*
X116872142Y-76270642D02*
X116829285Y-76442071D01*
X116829285Y-76442071D02*
X116829285Y-76570642D01*
X116829285Y-76570642D02*
X116872142Y-76742071D01*
X116872142Y-76742071D02*
X116914999Y-76827785D01*
X116914999Y-76827785D02*
X117000714Y-76913500D01*
X117000714Y-76913500D02*
X117129285Y-76956357D01*
X117129285Y-76956357D02*
X117214999Y-76956357D01*
X117214999Y-76956357D02*
X117343571Y-76913500D01*
X117343571Y-76913500D02*
X117386428Y-76870642D01*
X117386428Y-76870642D02*
X117386428Y-76570642D01*
X117386428Y-76570642D02*
X117214999Y-76570642D01*
X117772142Y-76956357D02*
X117772142Y-76056357D01*
X117772142Y-76056357D02*
X118114999Y-76056357D01*
X118114999Y-76056357D02*
X118200714Y-76099214D01*
X118200714Y-76099214D02*
X118243571Y-76142071D01*
X118243571Y-76142071D02*
X118286428Y-76227785D01*
X118286428Y-76227785D02*
X118286428Y-76356357D01*
X118286428Y-76356357D02*
X118243571Y-76442071D01*
X118243571Y-76442071D02*
X118200714Y-76484928D01*
X118200714Y-76484928D02*
X118114999Y-76527785D01*
X118114999Y-76527785D02*
X117772142Y-76527785D01*
X118629285Y-76142071D02*
X118672142Y-76099214D01*
X118672142Y-76099214D02*
X118757857Y-76056357D01*
X118757857Y-76056357D02*
X118972142Y-76056357D01*
X118972142Y-76056357D02*
X119057857Y-76099214D01*
X119057857Y-76099214D02*
X119100714Y-76142071D01*
X119100714Y-76142071D02*
X119143571Y-76227785D01*
X119143571Y-76227785D02*
X119143571Y-76313500D01*
X119143571Y-76313500D02*
X119100714Y-76442071D01*
X119100714Y-76442071D02*
X118586428Y-76956357D01*
X118586428Y-76956357D02*
X119143571Y-76956357D01*
X119657857Y-76442071D02*
X119572142Y-76399214D01*
X119572142Y-76399214D02*
X119529285Y-76356357D01*
X119529285Y-76356357D02*
X119486428Y-76270642D01*
X119486428Y-76270642D02*
X119486428Y-76227785D01*
X119486428Y-76227785D02*
X119529285Y-76142071D01*
X119529285Y-76142071D02*
X119572142Y-76099214D01*
X119572142Y-76099214D02*
X119657857Y-76056357D01*
X119657857Y-76056357D02*
X119829285Y-76056357D01*
X119829285Y-76056357D02*
X119915000Y-76099214D01*
X119915000Y-76099214D02*
X119957857Y-76142071D01*
X119957857Y-76142071D02*
X120000714Y-76227785D01*
X120000714Y-76227785D02*
X120000714Y-76270642D01*
X120000714Y-76270642D02*
X119957857Y-76356357D01*
X119957857Y-76356357D02*
X119915000Y-76399214D01*
X119915000Y-76399214D02*
X119829285Y-76442071D01*
X119829285Y-76442071D02*
X119657857Y-76442071D01*
X119657857Y-76442071D02*
X119572142Y-76484928D01*
X119572142Y-76484928D02*
X119529285Y-76527785D01*
X119529285Y-76527785D02*
X119486428Y-76613500D01*
X119486428Y-76613500D02*
X119486428Y-76784928D01*
X119486428Y-76784928D02*
X119529285Y-76870642D01*
X119529285Y-76870642D02*
X119572142Y-76913500D01*
X119572142Y-76913500D02*
X119657857Y-76956357D01*
X119657857Y-76956357D02*
X119829285Y-76956357D01*
X119829285Y-76956357D02*
X119915000Y-76913500D01*
X119915000Y-76913500D02*
X119957857Y-76870642D01*
X119957857Y-76870642D02*
X120000714Y-76784928D01*
X120000714Y-76784928D02*
X120000714Y-76613500D01*
X120000714Y-76613500D02*
X119957857Y-76527785D01*
X119957857Y-76527785D02*
X119915000Y-76484928D01*
X119915000Y-76484928D02*
X119829285Y-76442071D01*
X117343571Y-78639214D02*
X117257857Y-78596357D01*
X117257857Y-78596357D02*
X117129285Y-78596357D01*
X117129285Y-78596357D02*
X117000714Y-78639214D01*
X117000714Y-78639214D02*
X116914999Y-78724928D01*
X116914999Y-78724928D02*
X116872142Y-78810642D01*
X116872142Y-78810642D02*
X116829285Y-78982071D01*
X116829285Y-78982071D02*
X116829285Y-79110642D01*
X116829285Y-79110642D02*
X116872142Y-79282071D01*
X116872142Y-79282071D02*
X116914999Y-79367785D01*
X116914999Y-79367785D02*
X117000714Y-79453500D01*
X117000714Y-79453500D02*
X117129285Y-79496357D01*
X117129285Y-79496357D02*
X117214999Y-79496357D01*
X117214999Y-79496357D02*
X117343571Y-79453500D01*
X117343571Y-79453500D02*
X117386428Y-79410642D01*
X117386428Y-79410642D02*
X117386428Y-79110642D01*
X117386428Y-79110642D02*
X117214999Y-79110642D01*
X117772142Y-79496357D02*
X117772142Y-78596357D01*
X117772142Y-78596357D02*
X118114999Y-78596357D01*
X118114999Y-78596357D02*
X118200714Y-78639214D01*
X118200714Y-78639214D02*
X118243571Y-78682071D01*
X118243571Y-78682071D02*
X118286428Y-78767785D01*
X118286428Y-78767785D02*
X118286428Y-78896357D01*
X118286428Y-78896357D02*
X118243571Y-78982071D01*
X118243571Y-78982071D02*
X118200714Y-79024928D01*
X118200714Y-79024928D02*
X118114999Y-79067785D01*
X118114999Y-79067785D02*
X117772142Y-79067785D01*
X118629285Y-78682071D02*
X118672142Y-78639214D01*
X118672142Y-78639214D02*
X118757857Y-78596357D01*
X118757857Y-78596357D02*
X118972142Y-78596357D01*
X118972142Y-78596357D02*
X119057857Y-78639214D01*
X119057857Y-78639214D02*
X119100714Y-78682071D01*
X119100714Y-78682071D02*
X119143571Y-78767785D01*
X119143571Y-78767785D02*
X119143571Y-78853500D01*
X119143571Y-78853500D02*
X119100714Y-78982071D01*
X119100714Y-78982071D02*
X118586428Y-79496357D01*
X118586428Y-79496357D02*
X119143571Y-79496357D01*
X119443571Y-78596357D02*
X120043571Y-78596357D01*
X120043571Y-78596357D02*
X119657857Y-79496357D01*
X117343571Y-81179214D02*
X117257857Y-81136357D01*
X117257857Y-81136357D02*
X117129285Y-81136357D01*
X117129285Y-81136357D02*
X117000714Y-81179214D01*
X117000714Y-81179214D02*
X116914999Y-81264928D01*
X116914999Y-81264928D02*
X116872142Y-81350642D01*
X116872142Y-81350642D02*
X116829285Y-81522071D01*
X116829285Y-81522071D02*
X116829285Y-81650642D01*
X116829285Y-81650642D02*
X116872142Y-81822071D01*
X116872142Y-81822071D02*
X116914999Y-81907785D01*
X116914999Y-81907785D02*
X117000714Y-81993500D01*
X117000714Y-81993500D02*
X117129285Y-82036357D01*
X117129285Y-82036357D02*
X117214999Y-82036357D01*
X117214999Y-82036357D02*
X117343571Y-81993500D01*
X117343571Y-81993500D02*
X117386428Y-81950642D01*
X117386428Y-81950642D02*
X117386428Y-81650642D01*
X117386428Y-81650642D02*
X117214999Y-81650642D01*
X117772142Y-82036357D02*
X117772142Y-81136357D01*
X117772142Y-81136357D02*
X118114999Y-81136357D01*
X118114999Y-81136357D02*
X118200714Y-81179214D01*
X118200714Y-81179214D02*
X118243571Y-81222071D01*
X118243571Y-81222071D02*
X118286428Y-81307785D01*
X118286428Y-81307785D02*
X118286428Y-81436357D01*
X118286428Y-81436357D02*
X118243571Y-81522071D01*
X118243571Y-81522071D02*
X118200714Y-81564928D01*
X118200714Y-81564928D02*
X118114999Y-81607785D01*
X118114999Y-81607785D02*
X117772142Y-81607785D01*
X118629285Y-81222071D02*
X118672142Y-81179214D01*
X118672142Y-81179214D02*
X118757857Y-81136357D01*
X118757857Y-81136357D02*
X118972142Y-81136357D01*
X118972142Y-81136357D02*
X119057857Y-81179214D01*
X119057857Y-81179214D02*
X119100714Y-81222071D01*
X119100714Y-81222071D02*
X119143571Y-81307785D01*
X119143571Y-81307785D02*
X119143571Y-81393500D01*
X119143571Y-81393500D02*
X119100714Y-81522071D01*
X119100714Y-81522071D02*
X118586428Y-82036357D01*
X118586428Y-82036357D02*
X119143571Y-82036357D01*
X119915000Y-81136357D02*
X119743571Y-81136357D01*
X119743571Y-81136357D02*
X119657857Y-81179214D01*
X119657857Y-81179214D02*
X119615000Y-81222071D01*
X119615000Y-81222071D02*
X119529285Y-81350642D01*
X119529285Y-81350642D02*
X119486428Y-81522071D01*
X119486428Y-81522071D02*
X119486428Y-81864928D01*
X119486428Y-81864928D02*
X119529285Y-81950642D01*
X119529285Y-81950642D02*
X119572142Y-81993500D01*
X119572142Y-81993500D02*
X119657857Y-82036357D01*
X119657857Y-82036357D02*
X119829285Y-82036357D01*
X119829285Y-82036357D02*
X119915000Y-81993500D01*
X119915000Y-81993500D02*
X119957857Y-81950642D01*
X119957857Y-81950642D02*
X120000714Y-81864928D01*
X120000714Y-81864928D02*
X120000714Y-81650642D01*
X120000714Y-81650642D02*
X119957857Y-81564928D01*
X119957857Y-81564928D02*
X119915000Y-81522071D01*
X119915000Y-81522071D02*
X119829285Y-81479214D01*
X119829285Y-81479214D02*
X119657857Y-81479214D01*
X119657857Y-81479214D02*
X119572142Y-81522071D01*
X119572142Y-81522071D02*
X119529285Y-81564928D01*
X119529285Y-81564928D02*
X119486428Y-81650642D01*
X117343571Y-83719214D02*
X117257857Y-83676357D01*
X117257857Y-83676357D02*
X117129285Y-83676357D01*
X117129285Y-83676357D02*
X117000714Y-83719214D01*
X117000714Y-83719214D02*
X116914999Y-83804928D01*
X116914999Y-83804928D02*
X116872142Y-83890642D01*
X116872142Y-83890642D02*
X116829285Y-84062071D01*
X116829285Y-84062071D02*
X116829285Y-84190642D01*
X116829285Y-84190642D02*
X116872142Y-84362071D01*
X116872142Y-84362071D02*
X116914999Y-84447785D01*
X116914999Y-84447785D02*
X117000714Y-84533500D01*
X117000714Y-84533500D02*
X117129285Y-84576357D01*
X117129285Y-84576357D02*
X117214999Y-84576357D01*
X117214999Y-84576357D02*
X117343571Y-84533500D01*
X117343571Y-84533500D02*
X117386428Y-84490642D01*
X117386428Y-84490642D02*
X117386428Y-84190642D01*
X117386428Y-84190642D02*
X117214999Y-84190642D01*
X117772142Y-84576357D02*
X117772142Y-83676357D01*
X117772142Y-83676357D02*
X118114999Y-83676357D01*
X118114999Y-83676357D02*
X118200714Y-83719214D01*
X118200714Y-83719214D02*
X118243571Y-83762071D01*
X118243571Y-83762071D02*
X118286428Y-83847785D01*
X118286428Y-83847785D02*
X118286428Y-83976357D01*
X118286428Y-83976357D02*
X118243571Y-84062071D01*
X118243571Y-84062071D02*
X118200714Y-84104928D01*
X118200714Y-84104928D02*
X118114999Y-84147785D01*
X118114999Y-84147785D02*
X117772142Y-84147785D01*
X118629285Y-83762071D02*
X118672142Y-83719214D01*
X118672142Y-83719214D02*
X118757857Y-83676357D01*
X118757857Y-83676357D02*
X118972142Y-83676357D01*
X118972142Y-83676357D02*
X119057857Y-83719214D01*
X119057857Y-83719214D02*
X119100714Y-83762071D01*
X119100714Y-83762071D02*
X119143571Y-83847785D01*
X119143571Y-83847785D02*
X119143571Y-83933500D01*
X119143571Y-83933500D02*
X119100714Y-84062071D01*
X119100714Y-84062071D02*
X118586428Y-84576357D01*
X118586428Y-84576357D02*
X119143571Y-84576357D01*
X119957857Y-83676357D02*
X119529285Y-83676357D01*
X119529285Y-83676357D02*
X119486428Y-84104928D01*
X119486428Y-84104928D02*
X119529285Y-84062071D01*
X119529285Y-84062071D02*
X119615000Y-84019214D01*
X119615000Y-84019214D02*
X119829285Y-84019214D01*
X119829285Y-84019214D02*
X119915000Y-84062071D01*
X119915000Y-84062071D02*
X119957857Y-84104928D01*
X119957857Y-84104928D02*
X120000714Y-84190642D01*
X120000714Y-84190642D02*
X120000714Y-84404928D01*
X120000714Y-84404928D02*
X119957857Y-84490642D01*
X119957857Y-84490642D02*
X119915000Y-84533500D01*
X119915000Y-84533500D02*
X119829285Y-84576357D01*
X119829285Y-84576357D02*
X119615000Y-84576357D01*
X119615000Y-84576357D02*
X119529285Y-84533500D01*
X119529285Y-84533500D02*
X119486428Y-84490642D01*
X117343571Y-86259214D02*
X117257857Y-86216357D01*
X117257857Y-86216357D02*
X117129285Y-86216357D01*
X117129285Y-86216357D02*
X117000714Y-86259214D01*
X117000714Y-86259214D02*
X116914999Y-86344928D01*
X116914999Y-86344928D02*
X116872142Y-86430642D01*
X116872142Y-86430642D02*
X116829285Y-86602071D01*
X116829285Y-86602071D02*
X116829285Y-86730642D01*
X116829285Y-86730642D02*
X116872142Y-86902071D01*
X116872142Y-86902071D02*
X116914999Y-86987785D01*
X116914999Y-86987785D02*
X117000714Y-87073500D01*
X117000714Y-87073500D02*
X117129285Y-87116357D01*
X117129285Y-87116357D02*
X117214999Y-87116357D01*
X117214999Y-87116357D02*
X117343571Y-87073500D01*
X117343571Y-87073500D02*
X117386428Y-87030642D01*
X117386428Y-87030642D02*
X117386428Y-86730642D01*
X117386428Y-86730642D02*
X117214999Y-86730642D01*
X117772142Y-87116357D02*
X117772142Y-86216357D01*
X117772142Y-86216357D02*
X118114999Y-86216357D01*
X118114999Y-86216357D02*
X118200714Y-86259214D01*
X118200714Y-86259214D02*
X118243571Y-86302071D01*
X118243571Y-86302071D02*
X118286428Y-86387785D01*
X118286428Y-86387785D02*
X118286428Y-86516357D01*
X118286428Y-86516357D02*
X118243571Y-86602071D01*
X118243571Y-86602071D02*
X118200714Y-86644928D01*
X118200714Y-86644928D02*
X118114999Y-86687785D01*
X118114999Y-86687785D02*
X117772142Y-86687785D01*
X118629285Y-86302071D02*
X118672142Y-86259214D01*
X118672142Y-86259214D02*
X118757857Y-86216357D01*
X118757857Y-86216357D02*
X118972142Y-86216357D01*
X118972142Y-86216357D02*
X119057857Y-86259214D01*
X119057857Y-86259214D02*
X119100714Y-86302071D01*
X119100714Y-86302071D02*
X119143571Y-86387785D01*
X119143571Y-86387785D02*
X119143571Y-86473500D01*
X119143571Y-86473500D02*
X119100714Y-86602071D01*
X119100714Y-86602071D02*
X118586428Y-87116357D01*
X118586428Y-87116357D02*
X119143571Y-87116357D01*
X119915000Y-86516357D02*
X119915000Y-87116357D01*
X119700714Y-86173500D02*
X119486428Y-86816357D01*
X119486428Y-86816357D02*
X120043571Y-86816357D01*
X117343571Y-88799214D02*
X117257857Y-88756357D01*
X117257857Y-88756357D02*
X117129285Y-88756357D01*
X117129285Y-88756357D02*
X117000714Y-88799214D01*
X117000714Y-88799214D02*
X116914999Y-88884928D01*
X116914999Y-88884928D02*
X116872142Y-88970642D01*
X116872142Y-88970642D02*
X116829285Y-89142071D01*
X116829285Y-89142071D02*
X116829285Y-89270642D01*
X116829285Y-89270642D02*
X116872142Y-89442071D01*
X116872142Y-89442071D02*
X116914999Y-89527785D01*
X116914999Y-89527785D02*
X117000714Y-89613500D01*
X117000714Y-89613500D02*
X117129285Y-89656357D01*
X117129285Y-89656357D02*
X117214999Y-89656357D01*
X117214999Y-89656357D02*
X117343571Y-89613500D01*
X117343571Y-89613500D02*
X117386428Y-89570642D01*
X117386428Y-89570642D02*
X117386428Y-89270642D01*
X117386428Y-89270642D02*
X117214999Y-89270642D01*
X117772142Y-89656357D02*
X117772142Y-88756357D01*
X117772142Y-88756357D02*
X118114999Y-88756357D01*
X118114999Y-88756357D02*
X118200714Y-88799214D01*
X118200714Y-88799214D02*
X118243571Y-88842071D01*
X118243571Y-88842071D02*
X118286428Y-88927785D01*
X118286428Y-88927785D02*
X118286428Y-89056357D01*
X118286428Y-89056357D02*
X118243571Y-89142071D01*
X118243571Y-89142071D02*
X118200714Y-89184928D01*
X118200714Y-89184928D02*
X118114999Y-89227785D01*
X118114999Y-89227785D02*
X117772142Y-89227785D01*
X118629285Y-88842071D02*
X118672142Y-88799214D01*
X118672142Y-88799214D02*
X118757857Y-88756357D01*
X118757857Y-88756357D02*
X118972142Y-88756357D01*
X118972142Y-88756357D02*
X119057857Y-88799214D01*
X119057857Y-88799214D02*
X119100714Y-88842071D01*
X119100714Y-88842071D02*
X119143571Y-88927785D01*
X119143571Y-88927785D02*
X119143571Y-89013500D01*
X119143571Y-89013500D02*
X119100714Y-89142071D01*
X119100714Y-89142071D02*
X118586428Y-89656357D01*
X118586428Y-89656357D02*
X119143571Y-89656357D01*
X119443571Y-88756357D02*
X120000714Y-88756357D01*
X120000714Y-88756357D02*
X119700714Y-89099214D01*
X119700714Y-89099214D02*
X119829285Y-89099214D01*
X119829285Y-89099214D02*
X119915000Y-89142071D01*
X119915000Y-89142071D02*
X119957857Y-89184928D01*
X119957857Y-89184928D02*
X120000714Y-89270642D01*
X120000714Y-89270642D02*
X120000714Y-89484928D01*
X120000714Y-89484928D02*
X119957857Y-89570642D01*
X119957857Y-89570642D02*
X119915000Y-89613500D01*
X119915000Y-89613500D02*
X119829285Y-89656357D01*
X119829285Y-89656357D02*
X119572142Y-89656357D01*
X119572142Y-89656357D02*
X119486428Y-89613500D01*
X119486428Y-89613500D02*
X119443571Y-89570642D01*
X117343571Y-93879214D02*
X117257857Y-93836357D01*
X117257857Y-93836357D02*
X117129285Y-93836357D01*
X117129285Y-93836357D02*
X117000714Y-93879214D01*
X117000714Y-93879214D02*
X116914999Y-93964928D01*
X116914999Y-93964928D02*
X116872142Y-94050642D01*
X116872142Y-94050642D02*
X116829285Y-94222071D01*
X116829285Y-94222071D02*
X116829285Y-94350642D01*
X116829285Y-94350642D02*
X116872142Y-94522071D01*
X116872142Y-94522071D02*
X116914999Y-94607785D01*
X116914999Y-94607785D02*
X117000714Y-94693500D01*
X117000714Y-94693500D02*
X117129285Y-94736357D01*
X117129285Y-94736357D02*
X117214999Y-94736357D01*
X117214999Y-94736357D02*
X117343571Y-94693500D01*
X117343571Y-94693500D02*
X117386428Y-94650642D01*
X117386428Y-94650642D02*
X117386428Y-94350642D01*
X117386428Y-94350642D02*
X117214999Y-94350642D01*
X117772142Y-94736357D02*
X117772142Y-93836357D01*
X117772142Y-93836357D02*
X118114999Y-93836357D01*
X118114999Y-93836357D02*
X118200714Y-93879214D01*
X118200714Y-93879214D02*
X118243571Y-93922071D01*
X118243571Y-93922071D02*
X118286428Y-94007785D01*
X118286428Y-94007785D02*
X118286428Y-94136357D01*
X118286428Y-94136357D02*
X118243571Y-94222071D01*
X118243571Y-94222071D02*
X118200714Y-94264928D01*
X118200714Y-94264928D02*
X118114999Y-94307785D01*
X118114999Y-94307785D02*
X117772142Y-94307785D01*
X118629285Y-93922071D02*
X118672142Y-93879214D01*
X118672142Y-93879214D02*
X118757857Y-93836357D01*
X118757857Y-93836357D02*
X118972142Y-93836357D01*
X118972142Y-93836357D02*
X119057857Y-93879214D01*
X119057857Y-93879214D02*
X119100714Y-93922071D01*
X119100714Y-93922071D02*
X119143571Y-94007785D01*
X119143571Y-94007785D02*
X119143571Y-94093500D01*
X119143571Y-94093500D02*
X119100714Y-94222071D01*
X119100714Y-94222071D02*
X118586428Y-94736357D01*
X118586428Y-94736357D02*
X119143571Y-94736357D01*
X120000714Y-94736357D02*
X119486428Y-94736357D01*
X119743571Y-94736357D02*
X119743571Y-93836357D01*
X119743571Y-93836357D02*
X119657857Y-93964928D01*
X119657857Y-93964928D02*
X119572142Y-94050642D01*
X119572142Y-94050642D02*
X119486428Y-94093500D01*
X117343571Y-96419214D02*
X117257857Y-96376357D01*
X117257857Y-96376357D02*
X117129285Y-96376357D01*
X117129285Y-96376357D02*
X117000714Y-96419214D01*
X117000714Y-96419214D02*
X116914999Y-96504928D01*
X116914999Y-96504928D02*
X116872142Y-96590642D01*
X116872142Y-96590642D02*
X116829285Y-96762071D01*
X116829285Y-96762071D02*
X116829285Y-96890642D01*
X116829285Y-96890642D02*
X116872142Y-97062071D01*
X116872142Y-97062071D02*
X116914999Y-97147785D01*
X116914999Y-97147785D02*
X117000714Y-97233500D01*
X117000714Y-97233500D02*
X117129285Y-97276357D01*
X117129285Y-97276357D02*
X117214999Y-97276357D01*
X117214999Y-97276357D02*
X117343571Y-97233500D01*
X117343571Y-97233500D02*
X117386428Y-97190642D01*
X117386428Y-97190642D02*
X117386428Y-96890642D01*
X117386428Y-96890642D02*
X117214999Y-96890642D01*
X117772142Y-97276357D02*
X117772142Y-96376357D01*
X117772142Y-96376357D02*
X118114999Y-96376357D01*
X118114999Y-96376357D02*
X118200714Y-96419214D01*
X118200714Y-96419214D02*
X118243571Y-96462071D01*
X118243571Y-96462071D02*
X118286428Y-96547785D01*
X118286428Y-96547785D02*
X118286428Y-96676357D01*
X118286428Y-96676357D02*
X118243571Y-96762071D01*
X118243571Y-96762071D02*
X118200714Y-96804928D01*
X118200714Y-96804928D02*
X118114999Y-96847785D01*
X118114999Y-96847785D02*
X117772142Y-96847785D01*
X118629285Y-96462071D02*
X118672142Y-96419214D01*
X118672142Y-96419214D02*
X118757857Y-96376357D01*
X118757857Y-96376357D02*
X118972142Y-96376357D01*
X118972142Y-96376357D02*
X119057857Y-96419214D01*
X119057857Y-96419214D02*
X119100714Y-96462071D01*
X119100714Y-96462071D02*
X119143571Y-96547785D01*
X119143571Y-96547785D02*
X119143571Y-96633500D01*
X119143571Y-96633500D02*
X119100714Y-96762071D01*
X119100714Y-96762071D02*
X118586428Y-97276357D01*
X118586428Y-97276357D02*
X119143571Y-97276357D01*
X119700714Y-96376357D02*
X119786428Y-96376357D01*
X119786428Y-96376357D02*
X119872142Y-96419214D01*
X119872142Y-96419214D02*
X119915000Y-96462071D01*
X119915000Y-96462071D02*
X119957857Y-96547785D01*
X119957857Y-96547785D02*
X120000714Y-96719214D01*
X120000714Y-96719214D02*
X120000714Y-96933500D01*
X120000714Y-96933500D02*
X119957857Y-97104928D01*
X119957857Y-97104928D02*
X119915000Y-97190642D01*
X119915000Y-97190642D02*
X119872142Y-97233500D01*
X119872142Y-97233500D02*
X119786428Y-97276357D01*
X119786428Y-97276357D02*
X119700714Y-97276357D01*
X119700714Y-97276357D02*
X119615000Y-97233500D01*
X119615000Y-97233500D02*
X119572142Y-97190642D01*
X119572142Y-97190642D02*
X119529285Y-97104928D01*
X119529285Y-97104928D02*
X119486428Y-96933500D01*
X119486428Y-96933500D02*
X119486428Y-96719214D01*
X119486428Y-96719214D02*
X119529285Y-96547785D01*
X119529285Y-96547785D02*
X119572142Y-96462071D01*
X119572142Y-96462071D02*
X119615000Y-96419214D01*
X119615000Y-96419214D02*
X119700714Y-96376357D01*
X117343571Y-98959214D02*
X117257857Y-98916357D01*
X117257857Y-98916357D02*
X117129285Y-98916357D01*
X117129285Y-98916357D02*
X117000714Y-98959214D01*
X117000714Y-98959214D02*
X116914999Y-99044928D01*
X116914999Y-99044928D02*
X116872142Y-99130642D01*
X116872142Y-99130642D02*
X116829285Y-99302071D01*
X116829285Y-99302071D02*
X116829285Y-99430642D01*
X116829285Y-99430642D02*
X116872142Y-99602071D01*
X116872142Y-99602071D02*
X116914999Y-99687785D01*
X116914999Y-99687785D02*
X117000714Y-99773500D01*
X117000714Y-99773500D02*
X117129285Y-99816357D01*
X117129285Y-99816357D02*
X117214999Y-99816357D01*
X117214999Y-99816357D02*
X117343571Y-99773500D01*
X117343571Y-99773500D02*
X117386428Y-99730642D01*
X117386428Y-99730642D02*
X117386428Y-99430642D01*
X117386428Y-99430642D02*
X117214999Y-99430642D01*
X117772142Y-99816357D02*
X117772142Y-98916357D01*
X117772142Y-98916357D02*
X118114999Y-98916357D01*
X118114999Y-98916357D02*
X118200714Y-98959214D01*
X118200714Y-98959214D02*
X118243571Y-99002071D01*
X118243571Y-99002071D02*
X118286428Y-99087785D01*
X118286428Y-99087785D02*
X118286428Y-99216357D01*
X118286428Y-99216357D02*
X118243571Y-99302071D01*
X118243571Y-99302071D02*
X118200714Y-99344928D01*
X118200714Y-99344928D02*
X118114999Y-99387785D01*
X118114999Y-99387785D02*
X117772142Y-99387785D01*
X119143571Y-99816357D02*
X118629285Y-99816357D01*
X118886428Y-99816357D02*
X118886428Y-98916357D01*
X118886428Y-98916357D02*
X118800714Y-99044928D01*
X118800714Y-99044928D02*
X118714999Y-99130642D01*
X118714999Y-99130642D02*
X118629285Y-99173500D01*
X119572142Y-99816357D02*
X119743571Y-99816357D01*
X119743571Y-99816357D02*
X119829285Y-99773500D01*
X119829285Y-99773500D02*
X119872142Y-99730642D01*
X119872142Y-99730642D02*
X119957857Y-99602071D01*
X119957857Y-99602071D02*
X120000714Y-99430642D01*
X120000714Y-99430642D02*
X120000714Y-99087785D01*
X120000714Y-99087785D02*
X119957857Y-99002071D01*
X119957857Y-99002071D02*
X119915000Y-98959214D01*
X119915000Y-98959214D02*
X119829285Y-98916357D01*
X119829285Y-98916357D02*
X119657857Y-98916357D01*
X119657857Y-98916357D02*
X119572142Y-98959214D01*
X119572142Y-98959214D02*
X119529285Y-99002071D01*
X119529285Y-99002071D02*
X119486428Y-99087785D01*
X119486428Y-99087785D02*
X119486428Y-99302071D01*
X119486428Y-99302071D02*
X119529285Y-99387785D01*
X119529285Y-99387785D02*
X119572142Y-99430642D01*
X119572142Y-99430642D02*
X119657857Y-99473500D01*
X119657857Y-99473500D02*
X119829285Y-99473500D01*
X119829285Y-99473500D02*
X119915000Y-99430642D01*
X119915000Y-99430642D02*
X119957857Y-99387785D01*
X119957857Y-99387785D02*
X120000714Y-99302071D01*
X117343571Y-104039214D02*
X117257857Y-103996357D01*
X117257857Y-103996357D02*
X117129285Y-103996357D01*
X117129285Y-103996357D02*
X117000714Y-104039214D01*
X117000714Y-104039214D02*
X116914999Y-104124928D01*
X116914999Y-104124928D02*
X116872142Y-104210642D01*
X116872142Y-104210642D02*
X116829285Y-104382071D01*
X116829285Y-104382071D02*
X116829285Y-104510642D01*
X116829285Y-104510642D02*
X116872142Y-104682071D01*
X116872142Y-104682071D02*
X116914999Y-104767785D01*
X116914999Y-104767785D02*
X117000714Y-104853500D01*
X117000714Y-104853500D02*
X117129285Y-104896357D01*
X117129285Y-104896357D02*
X117214999Y-104896357D01*
X117214999Y-104896357D02*
X117343571Y-104853500D01*
X117343571Y-104853500D02*
X117386428Y-104810642D01*
X117386428Y-104810642D02*
X117386428Y-104510642D01*
X117386428Y-104510642D02*
X117214999Y-104510642D01*
X117772142Y-104896357D02*
X117772142Y-103996357D01*
X117772142Y-103996357D02*
X118114999Y-103996357D01*
X118114999Y-103996357D02*
X118200714Y-104039214D01*
X118200714Y-104039214D02*
X118243571Y-104082071D01*
X118243571Y-104082071D02*
X118286428Y-104167785D01*
X118286428Y-104167785D02*
X118286428Y-104296357D01*
X118286428Y-104296357D02*
X118243571Y-104382071D01*
X118243571Y-104382071D02*
X118200714Y-104424928D01*
X118200714Y-104424928D02*
X118114999Y-104467785D01*
X118114999Y-104467785D02*
X117772142Y-104467785D01*
X119143571Y-104896357D02*
X118629285Y-104896357D01*
X118886428Y-104896357D02*
X118886428Y-103996357D01*
X118886428Y-103996357D02*
X118800714Y-104124928D01*
X118800714Y-104124928D02*
X118714999Y-104210642D01*
X118714999Y-104210642D02*
X118629285Y-104253500D01*
X119443571Y-103996357D02*
X120043571Y-103996357D01*
X120043571Y-103996357D02*
X119657857Y-104896357D01*
X117343571Y-91339214D02*
X117257857Y-91296357D01*
X117257857Y-91296357D02*
X117129285Y-91296357D01*
X117129285Y-91296357D02*
X117000714Y-91339214D01*
X117000714Y-91339214D02*
X116914999Y-91424928D01*
X116914999Y-91424928D02*
X116872142Y-91510642D01*
X116872142Y-91510642D02*
X116829285Y-91682071D01*
X116829285Y-91682071D02*
X116829285Y-91810642D01*
X116829285Y-91810642D02*
X116872142Y-91982071D01*
X116872142Y-91982071D02*
X116914999Y-92067785D01*
X116914999Y-92067785D02*
X117000714Y-92153500D01*
X117000714Y-92153500D02*
X117129285Y-92196357D01*
X117129285Y-92196357D02*
X117214999Y-92196357D01*
X117214999Y-92196357D02*
X117343571Y-92153500D01*
X117343571Y-92153500D02*
X117386428Y-92110642D01*
X117386428Y-92110642D02*
X117386428Y-91810642D01*
X117386428Y-91810642D02*
X117214999Y-91810642D01*
X117772142Y-92196357D02*
X117772142Y-91296357D01*
X117772142Y-91296357D02*
X118114999Y-91296357D01*
X118114999Y-91296357D02*
X118200714Y-91339214D01*
X118200714Y-91339214D02*
X118243571Y-91382071D01*
X118243571Y-91382071D02*
X118286428Y-91467785D01*
X118286428Y-91467785D02*
X118286428Y-91596357D01*
X118286428Y-91596357D02*
X118243571Y-91682071D01*
X118243571Y-91682071D02*
X118200714Y-91724928D01*
X118200714Y-91724928D02*
X118114999Y-91767785D01*
X118114999Y-91767785D02*
X117772142Y-91767785D01*
X118629285Y-91382071D02*
X118672142Y-91339214D01*
X118672142Y-91339214D02*
X118757857Y-91296357D01*
X118757857Y-91296357D02*
X118972142Y-91296357D01*
X118972142Y-91296357D02*
X119057857Y-91339214D01*
X119057857Y-91339214D02*
X119100714Y-91382071D01*
X119100714Y-91382071D02*
X119143571Y-91467785D01*
X119143571Y-91467785D02*
X119143571Y-91553500D01*
X119143571Y-91553500D02*
X119100714Y-91682071D01*
X119100714Y-91682071D02*
X118586428Y-92196357D01*
X118586428Y-92196357D02*
X119143571Y-92196357D01*
X119486428Y-91382071D02*
X119529285Y-91339214D01*
X119529285Y-91339214D02*
X119615000Y-91296357D01*
X119615000Y-91296357D02*
X119829285Y-91296357D01*
X119829285Y-91296357D02*
X119915000Y-91339214D01*
X119915000Y-91339214D02*
X119957857Y-91382071D01*
X119957857Y-91382071D02*
X120000714Y-91467785D01*
X120000714Y-91467785D02*
X120000714Y-91553500D01*
X120000714Y-91553500D02*
X119957857Y-91682071D01*
X119957857Y-91682071D02*
X119443571Y-92196357D01*
X119443571Y-92196357D02*
X120000714Y-92196357D01*
X117343571Y-101499214D02*
X117257857Y-101456357D01*
X117257857Y-101456357D02*
X117129285Y-101456357D01*
X117129285Y-101456357D02*
X117000714Y-101499214D01*
X117000714Y-101499214D02*
X116914999Y-101584928D01*
X116914999Y-101584928D02*
X116872142Y-101670642D01*
X116872142Y-101670642D02*
X116829285Y-101842071D01*
X116829285Y-101842071D02*
X116829285Y-101970642D01*
X116829285Y-101970642D02*
X116872142Y-102142071D01*
X116872142Y-102142071D02*
X116914999Y-102227785D01*
X116914999Y-102227785D02*
X117000714Y-102313500D01*
X117000714Y-102313500D02*
X117129285Y-102356357D01*
X117129285Y-102356357D02*
X117214999Y-102356357D01*
X117214999Y-102356357D02*
X117343571Y-102313500D01*
X117343571Y-102313500D02*
X117386428Y-102270642D01*
X117386428Y-102270642D02*
X117386428Y-101970642D01*
X117386428Y-101970642D02*
X117214999Y-101970642D01*
X117772142Y-102356357D02*
X117772142Y-101456357D01*
X117772142Y-101456357D02*
X118114999Y-101456357D01*
X118114999Y-101456357D02*
X118200714Y-101499214D01*
X118200714Y-101499214D02*
X118243571Y-101542071D01*
X118243571Y-101542071D02*
X118286428Y-101627785D01*
X118286428Y-101627785D02*
X118286428Y-101756357D01*
X118286428Y-101756357D02*
X118243571Y-101842071D01*
X118243571Y-101842071D02*
X118200714Y-101884928D01*
X118200714Y-101884928D02*
X118114999Y-101927785D01*
X118114999Y-101927785D02*
X117772142Y-101927785D01*
X119143571Y-102356357D02*
X118629285Y-102356357D01*
X118886428Y-102356357D02*
X118886428Y-101456357D01*
X118886428Y-101456357D02*
X118800714Y-101584928D01*
X118800714Y-101584928D02*
X118714999Y-101670642D01*
X118714999Y-101670642D02*
X118629285Y-101713500D01*
X119657857Y-101842071D02*
X119572142Y-101799214D01*
X119572142Y-101799214D02*
X119529285Y-101756357D01*
X119529285Y-101756357D02*
X119486428Y-101670642D01*
X119486428Y-101670642D02*
X119486428Y-101627785D01*
X119486428Y-101627785D02*
X119529285Y-101542071D01*
X119529285Y-101542071D02*
X119572142Y-101499214D01*
X119572142Y-101499214D02*
X119657857Y-101456357D01*
X119657857Y-101456357D02*
X119829285Y-101456357D01*
X119829285Y-101456357D02*
X119915000Y-101499214D01*
X119915000Y-101499214D02*
X119957857Y-101542071D01*
X119957857Y-101542071D02*
X120000714Y-101627785D01*
X120000714Y-101627785D02*
X120000714Y-101670642D01*
X120000714Y-101670642D02*
X119957857Y-101756357D01*
X119957857Y-101756357D02*
X119915000Y-101799214D01*
X119915000Y-101799214D02*
X119829285Y-101842071D01*
X119829285Y-101842071D02*
X119657857Y-101842071D01*
X119657857Y-101842071D02*
X119572142Y-101884928D01*
X119572142Y-101884928D02*
X119529285Y-101927785D01*
X119529285Y-101927785D02*
X119486428Y-102013500D01*
X119486428Y-102013500D02*
X119486428Y-102184928D01*
X119486428Y-102184928D02*
X119529285Y-102270642D01*
X119529285Y-102270642D02*
X119572142Y-102313500D01*
X119572142Y-102313500D02*
X119657857Y-102356357D01*
X119657857Y-102356357D02*
X119829285Y-102356357D01*
X119829285Y-102356357D02*
X119915000Y-102313500D01*
X119915000Y-102313500D02*
X119957857Y-102270642D01*
X119957857Y-102270642D02*
X120000714Y-102184928D01*
X120000714Y-102184928D02*
X120000714Y-102013500D01*
X120000714Y-102013500D02*
X119957857Y-101927785D01*
X119957857Y-101927785D02*
X119915000Y-101884928D01*
X119915000Y-101884928D02*
X119829285Y-101842071D01*
X115934786Y-115013500D02*
X116063358Y-115056357D01*
X116063358Y-115056357D02*
X116277643Y-115056357D01*
X116277643Y-115056357D02*
X116363358Y-115013500D01*
X116363358Y-115013500D02*
X116406215Y-114970642D01*
X116406215Y-114970642D02*
X116449072Y-114884928D01*
X116449072Y-114884928D02*
X116449072Y-114799214D01*
X116449072Y-114799214D02*
X116406215Y-114713500D01*
X116406215Y-114713500D02*
X116363358Y-114670642D01*
X116363358Y-114670642D02*
X116277643Y-114627785D01*
X116277643Y-114627785D02*
X116106215Y-114584928D01*
X116106215Y-114584928D02*
X116020500Y-114542071D01*
X116020500Y-114542071D02*
X115977643Y-114499214D01*
X115977643Y-114499214D02*
X115934786Y-114413500D01*
X115934786Y-114413500D02*
X115934786Y-114327785D01*
X115934786Y-114327785D02*
X115977643Y-114242071D01*
X115977643Y-114242071D02*
X116020500Y-114199214D01*
X116020500Y-114199214D02*
X116106215Y-114156357D01*
X116106215Y-114156357D02*
X116320500Y-114156357D01*
X116320500Y-114156357D02*
X116449072Y-114199214D01*
X116749072Y-114156357D02*
X116963358Y-115056357D01*
X116963358Y-115056357D02*
X117134786Y-114413500D01*
X117134786Y-114413500D02*
X117306215Y-115056357D01*
X117306215Y-115056357D02*
X117520501Y-114156357D01*
X118377643Y-114970642D02*
X118334786Y-115013500D01*
X118334786Y-115013500D02*
X118206214Y-115056357D01*
X118206214Y-115056357D02*
X118120500Y-115056357D01*
X118120500Y-115056357D02*
X117991929Y-115013500D01*
X117991929Y-115013500D02*
X117906214Y-114927785D01*
X117906214Y-114927785D02*
X117863357Y-114842071D01*
X117863357Y-114842071D02*
X117820500Y-114670642D01*
X117820500Y-114670642D02*
X117820500Y-114542071D01*
X117820500Y-114542071D02*
X117863357Y-114370642D01*
X117863357Y-114370642D02*
X117906214Y-114284928D01*
X117906214Y-114284928D02*
X117991929Y-114199214D01*
X117991929Y-114199214D02*
X118120500Y-114156357D01*
X118120500Y-114156357D02*
X118206214Y-114156357D01*
X118206214Y-114156357D02*
X118334786Y-114199214D01*
X118334786Y-114199214D02*
X118377643Y-114242071D01*
X119191929Y-115056357D02*
X118763357Y-115056357D01*
X118763357Y-115056357D02*
X118763357Y-114156357D01*
X119491928Y-115056357D02*
X119491928Y-114156357D01*
X120006214Y-115056357D02*
X119620500Y-114542071D01*
X120006214Y-114156357D02*
X119491928Y-114670642D01*
X117193571Y-112473500D02*
X117322143Y-112516357D01*
X117322143Y-112516357D02*
X117536428Y-112516357D01*
X117536428Y-112516357D02*
X117622143Y-112473500D01*
X117622143Y-112473500D02*
X117665000Y-112430642D01*
X117665000Y-112430642D02*
X117707857Y-112344928D01*
X117707857Y-112344928D02*
X117707857Y-112259214D01*
X117707857Y-112259214D02*
X117665000Y-112173500D01*
X117665000Y-112173500D02*
X117622143Y-112130642D01*
X117622143Y-112130642D02*
X117536428Y-112087785D01*
X117536428Y-112087785D02*
X117365000Y-112044928D01*
X117365000Y-112044928D02*
X117279285Y-112002071D01*
X117279285Y-112002071D02*
X117236428Y-111959214D01*
X117236428Y-111959214D02*
X117193571Y-111873500D01*
X117193571Y-111873500D02*
X117193571Y-111787785D01*
X117193571Y-111787785D02*
X117236428Y-111702071D01*
X117236428Y-111702071D02*
X117279285Y-111659214D01*
X117279285Y-111659214D02*
X117365000Y-111616357D01*
X117365000Y-111616357D02*
X117579285Y-111616357D01*
X117579285Y-111616357D02*
X117707857Y-111659214D01*
X118007857Y-111616357D02*
X118222143Y-112516357D01*
X118222143Y-112516357D02*
X118393571Y-111873500D01*
X118393571Y-111873500D02*
X118565000Y-112516357D01*
X118565000Y-112516357D02*
X118779286Y-111616357D01*
X119122142Y-112516357D02*
X119122142Y-111616357D01*
X119122142Y-111616357D02*
X119336428Y-111616357D01*
X119336428Y-111616357D02*
X119464999Y-111659214D01*
X119464999Y-111659214D02*
X119550714Y-111744928D01*
X119550714Y-111744928D02*
X119593571Y-111830642D01*
X119593571Y-111830642D02*
X119636428Y-112002071D01*
X119636428Y-112002071D02*
X119636428Y-112130642D01*
X119636428Y-112130642D02*
X119593571Y-112302071D01*
X119593571Y-112302071D02*
X119550714Y-112387785D01*
X119550714Y-112387785D02*
X119464999Y-112473500D01*
X119464999Y-112473500D02*
X119336428Y-112516357D01*
X119336428Y-112516357D02*
X119122142Y-112516357D01*
X117343571Y-106579214D02*
X117257857Y-106536357D01*
X117257857Y-106536357D02*
X117129285Y-106536357D01*
X117129285Y-106536357D02*
X117000714Y-106579214D01*
X117000714Y-106579214D02*
X116914999Y-106664928D01*
X116914999Y-106664928D02*
X116872142Y-106750642D01*
X116872142Y-106750642D02*
X116829285Y-106922071D01*
X116829285Y-106922071D02*
X116829285Y-107050642D01*
X116829285Y-107050642D02*
X116872142Y-107222071D01*
X116872142Y-107222071D02*
X116914999Y-107307785D01*
X116914999Y-107307785D02*
X117000714Y-107393500D01*
X117000714Y-107393500D02*
X117129285Y-107436357D01*
X117129285Y-107436357D02*
X117214999Y-107436357D01*
X117214999Y-107436357D02*
X117343571Y-107393500D01*
X117343571Y-107393500D02*
X117386428Y-107350642D01*
X117386428Y-107350642D02*
X117386428Y-107050642D01*
X117386428Y-107050642D02*
X117214999Y-107050642D01*
X117772142Y-107436357D02*
X117772142Y-106536357D01*
X117772142Y-106536357D02*
X118114999Y-106536357D01*
X118114999Y-106536357D02*
X118200714Y-106579214D01*
X118200714Y-106579214D02*
X118243571Y-106622071D01*
X118243571Y-106622071D02*
X118286428Y-106707785D01*
X118286428Y-106707785D02*
X118286428Y-106836357D01*
X118286428Y-106836357D02*
X118243571Y-106922071D01*
X118243571Y-106922071D02*
X118200714Y-106964928D01*
X118200714Y-106964928D02*
X118114999Y-107007785D01*
X118114999Y-107007785D02*
X117772142Y-107007785D01*
X119143571Y-107436357D02*
X118629285Y-107436357D01*
X118886428Y-107436357D02*
X118886428Y-106536357D01*
X118886428Y-106536357D02*
X118800714Y-106664928D01*
X118800714Y-106664928D02*
X118714999Y-106750642D01*
X118714999Y-106750642D02*
X118629285Y-106793500D01*
X119915000Y-106536357D02*
X119743571Y-106536357D01*
X119743571Y-106536357D02*
X119657857Y-106579214D01*
X119657857Y-106579214D02*
X119615000Y-106622071D01*
X119615000Y-106622071D02*
X119529285Y-106750642D01*
X119529285Y-106750642D02*
X119486428Y-106922071D01*
X119486428Y-106922071D02*
X119486428Y-107264928D01*
X119486428Y-107264928D02*
X119529285Y-107350642D01*
X119529285Y-107350642D02*
X119572142Y-107393500D01*
X119572142Y-107393500D02*
X119657857Y-107436357D01*
X119657857Y-107436357D02*
X119829285Y-107436357D01*
X119829285Y-107436357D02*
X119915000Y-107393500D01*
X119915000Y-107393500D02*
X119957857Y-107350642D01*
X119957857Y-107350642D02*
X120000714Y-107264928D01*
X120000714Y-107264928D02*
X120000714Y-107050642D01*
X120000714Y-107050642D02*
X119957857Y-106964928D01*
X119957857Y-106964928D02*
X119915000Y-106922071D01*
X119915000Y-106922071D02*
X119829285Y-106879214D01*
X119829285Y-106879214D02*
X119657857Y-106879214D01*
X119657857Y-106879214D02*
X119572142Y-106922071D01*
X119572142Y-106922071D02*
X119529285Y-106964928D01*
X119529285Y-106964928D02*
X119486428Y-107050642D01*
X117750714Y-109976357D02*
X117450714Y-109547785D01*
X117236428Y-109976357D02*
X117236428Y-109076357D01*
X117236428Y-109076357D02*
X117579285Y-109076357D01*
X117579285Y-109076357D02*
X117665000Y-109119214D01*
X117665000Y-109119214D02*
X117707857Y-109162071D01*
X117707857Y-109162071D02*
X117750714Y-109247785D01*
X117750714Y-109247785D02*
X117750714Y-109376357D01*
X117750714Y-109376357D02*
X117707857Y-109462071D01*
X117707857Y-109462071D02*
X117665000Y-109504928D01*
X117665000Y-109504928D02*
X117579285Y-109547785D01*
X117579285Y-109547785D02*
X117236428Y-109547785D01*
X118136428Y-109076357D02*
X118136428Y-109804928D01*
X118136428Y-109804928D02*
X118179285Y-109890642D01*
X118179285Y-109890642D02*
X118222143Y-109933500D01*
X118222143Y-109933500D02*
X118307857Y-109976357D01*
X118307857Y-109976357D02*
X118479285Y-109976357D01*
X118479285Y-109976357D02*
X118565000Y-109933500D01*
X118565000Y-109933500D02*
X118607857Y-109890642D01*
X118607857Y-109890642D02*
X118650714Y-109804928D01*
X118650714Y-109804928D02*
X118650714Y-109076357D01*
X119079285Y-109976357D02*
X119079285Y-109076357D01*
X119079285Y-109076357D02*
X119593571Y-109976357D01*
X119593571Y-109976357D02*
X119593571Y-109076357D01*
X80899286Y-116739214D02*
X80813572Y-116696357D01*
X80813572Y-116696357D02*
X80685000Y-116696357D01*
X80685000Y-116696357D02*
X80556429Y-116739214D01*
X80556429Y-116739214D02*
X80470714Y-116824928D01*
X80470714Y-116824928D02*
X80427857Y-116910642D01*
X80427857Y-116910642D02*
X80385000Y-117082071D01*
X80385000Y-117082071D02*
X80385000Y-117210642D01*
X80385000Y-117210642D02*
X80427857Y-117382071D01*
X80427857Y-117382071D02*
X80470714Y-117467785D01*
X80470714Y-117467785D02*
X80556429Y-117553500D01*
X80556429Y-117553500D02*
X80685000Y-117596357D01*
X80685000Y-117596357D02*
X80770714Y-117596357D01*
X80770714Y-117596357D02*
X80899286Y-117553500D01*
X80899286Y-117553500D02*
X80942143Y-117510642D01*
X80942143Y-117510642D02*
X80942143Y-117210642D01*
X80942143Y-117210642D02*
X80770714Y-117210642D01*
X81327857Y-117596357D02*
X81327857Y-116696357D01*
X81327857Y-116696357D02*
X81842143Y-117596357D01*
X81842143Y-117596357D02*
X81842143Y-116696357D01*
X82270714Y-117596357D02*
X82270714Y-116696357D01*
X82270714Y-116696357D02*
X82485000Y-116696357D01*
X82485000Y-116696357D02*
X82613571Y-116739214D01*
X82613571Y-116739214D02*
X82699286Y-116824928D01*
X82699286Y-116824928D02*
X82742143Y-116910642D01*
X82742143Y-116910642D02*
X82785000Y-117082071D01*
X82785000Y-117082071D02*
X82785000Y-117210642D01*
X82785000Y-117210642D02*
X82742143Y-117382071D01*
X82742143Y-117382071D02*
X82699286Y-117467785D01*
X82699286Y-117467785D02*
X82613571Y-117553500D01*
X82613571Y-117553500D02*
X82485000Y-117596357D01*
X82485000Y-117596357D02*
X82270714Y-117596357D01*
X117729286Y-116739214D02*
X117643572Y-116696357D01*
X117643572Y-116696357D02*
X117515000Y-116696357D01*
X117515000Y-116696357D02*
X117386429Y-116739214D01*
X117386429Y-116739214D02*
X117300714Y-116824928D01*
X117300714Y-116824928D02*
X117257857Y-116910642D01*
X117257857Y-116910642D02*
X117215000Y-117082071D01*
X117215000Y-117082071D02*
X117215000Y-117210642D01*
X117215000Y-117210642D02*
X117257857Y-117382071D01*
X117257857Y-117382071D02*
X117300714Y-117467785D01*
X117300714Y-117467785D02*
X117386429Y-117553500D01*
X117386429Y-117553500D02*
X117515000Y-117596357D01*
X117515000Y-117596357D02*
X117600714Y-117596357D01*
X117600714Y-117596357D02*
X117729286Y-117553500D01*
X117729286Y-117553500D02*
X117772143Y-117510642D01*
X117772143Y-117510642D02*
X117772143Y-117210642D01*
X117772143Y-117210642D02*
X117600714Y-117210642D01*
X118157857Y-117596357D02*
X118157857Y-116696357D01*
X118157857Y-116696357D02*
X118672143Y-117596357D01*
X118672143Y-117596357D02*
X118672143Y-116696357D01*
X119100714Y-117596357D02*
X119100714Y-116696357D01*
X119100714Y-116696357D02*
X119315000Y-116696357D01*
X119315000Y-116696357D02*
X119443571Y-116739214D01*
X119443571Y-116739214D02*
X119529286Y-116824928D01*
X119529286Y-116824928D02*
X119572143Y-116910642D01*
X119572143Y-116910642D02*
X119615000Y-117082071D01*
X119615000Y-117082071D02*
X119615000Y-117210642D01*
X119615000Y-117210642D02*
X119572143Y-117382071D01*
X119572143Y-117382071D02*
X119529286Y-117467785D01*
X119529286Y-117467785D02*
X119443571Y-117553500D01*
X119443571Y-117553500D02*
X119315000Y-117596357D01*
X119315000Y-117596357D02*
X119100714Y-117596357D01*
X117343571Y-73559214D02*
X117257857Y-73516357D01*
X117257857Y-73516357D02*
X117129285Y-73516357D01*
X117129285Y-73516357D02*
X117000714Y-73559214D01*
X117000714Y-73559214D02*
X116914999Y-73644928D01*
X116914999Y-73644928D02*
X116872142Y-73730642D01*
X116872142Y-73730642D02*
X116829285Y-73902071D01*
X116829285Y-73902071D02*
X116829285Y-74030642D01*
X116829285Y-74030642D02*
X116872142Y-74202071D01*
X116872142Y-74202071D02*
X116914999Y-74287785D01*
X116914999Y-74287785D02*
X117000714Y-74373500D01*
X117000714Y-74373500D02*
X117129285Y-74416357D01*
X117129285Y-74416357D02*
X117214999Y-74416357D01*
X117214999Y-74416357D02*
X117343571Y-74373500D01*
X117343571Y-74373500D02*
X117386428Y-74330642D01*
X117386428Y-74330642D02*
X117386428Y-74030642D01*
X117386428Y-74030642D02*
X117214999Y-74030642D01*
X117772142Y-74416357D02*
X117772142Y-73516357D01*
X117772142Y-73516357D02*
X118114999Y-73516357D01*
X118114999Y-73516357D02*
X118200714Y-73559214D01*
X118200714Y-73559214D02*
X118243571Y-73602071D01*
X118243571Y-73602071D02*
X118286428Y-73687785D01*
X118286428Y-73687785D02*
X118286428Y-73816357D01*
X118286428Y-73816357D02*
X118243571Y-73902071D01*
X118243571Y-73902071D02*
X118200714Y-73944928D01*
X118200714Y-73944928D02*
X118114999Y-73987785D01*
X118114999Y-73987785D02*
X117772142Y-73987785D01*
X118629285Y-73602071D02*
X118672142Y-73559214D01*
X118672142Y-73559214D02*
X118757857Y-73516357D01*
X118757857Y-73516357D02*
X118972142Y-73516357D01*
X118972142Y-73516357D02*
X119057857Y-73559214D01*
X119057857Y-73559214D02*
X119100714Y-73602071D01*
X119100714Y-73602071D02*
X119143571Y-73687785D01*
X119143571Y-73687785D02*
X119143571Y-73773500D01*
X119143571Y-73773500D02*
X119100714Y-73902071D01*
X119100714Y-73902071D02*
X118586428Y-74416357D01*
X118586428Y-74416357D02*
X119143571Y-74416357D01*
X119572142Y-74416357D02*
X119743571Y-74416357D01*
X119743571Y-74416357D02*
X119829285Y-74373500D01*
X119829285Y-74373500D02*
X119872142Y-74330642D01*
X119872142Y-74330642D02*
X119957857Y-74202071D01*
X119957857Y-74202071D02*
X120000714Y-74030642D01*
X120000714Y-74030642D02*
X120000714Y-73687785D01*
X120000714Y-73687785D02*
X119957857Y-73602071D01*
X119957857Y-73602071D02*
X119915000Y-73559214D01*
X119915000Y-73559214D02*
X119829285Y-73516357D01*
X119829285Y-73516357D02*
X119657857Y-73516357D01*
X119657857Y-73516357D02*
X119572142Y-73559214D01*
X119572142Y-73559214D02*
X119529285Y-73602071D01*
X119529285Y-73602071D02*
X119486428Y-73687785D01*
X119486428Y-73687785D02*
X119486428Y-73902071D01*
X119486428Y-73902071D02*
X119529285Y-73987785D01*
X119529285Y-73987785D02*
X119572142Y-74030642D01*
X119572142Y-74030642D02*
X119657857Y-74073500D01*
X119657857Y-74073500D02*
X119829285Y-74073500D01*
X119829285Y-74073500D02*
X119915000Y-74030642D01*
X119915000Y-74030642D02*
X119957857Y-73987785D01*
X119957857Y-73987785D02*
X120000714Y-73902071D01*
D11*
X85297380Y-90256666D02*
X85297380Y-90447142D01*
X85297380Y-90447142D02*
X85249761Y-90542380D01*
X85249761Y-90542380D02*
X85154523Y-90637618D01*
X85154523Y-90637618D02*
X84964047Y-90685237D01*
X84964047Y-90685237D02*
X84630714Y-90685237D01*
X84630714Y-90685237D02*
X84440238Y-90637618D01*
X84440238Y-90637618D02*
X84345000Y-90542380D01*
X84345000Y-90542380D02*
X84297380Y-90447142D01*
X84297380Y-90447142D02*
X84297380Y-90256666D01*
X84297380Y-90256666D02*
X84345000Y-90161428D01*
X84345000Y-90161428D02*
X84440238Y-90066190D01*
X84440238Y-90066190D02*
X84630714Y-90018571D01*
X84630714Y-90018571D02*
X84964047Y-90018571D01*
X84964047Y-90018571D02*
X85154523Y-90066190D01*
X85154523Y-90066190D02*
X85249761Y-90161428D01*
X85249761Y-90161428D02*
X85297380Y-90256666D01*
X84964047Y-91542380D02*
X84297380Y-91542380D01*
X84964047Y-91113809D02*
X84440238Y-91113809D01*
X84440238Y-91113809D02*
X84345000Y-91161428D01*
X84345000Y-91161428D02*
X84297380Y-91256666D01*
X84297380Y-91256666D02*
X84297380Y-91399523D01*
X84297380Y-91399523D02*
X84345000Y-91494761D01*
X84345000Y-91494761D02*
X84392619Y-91542380D01*
X84964047Y-91875714D02*
X84964047Y-92256666D01*
X85297380Y-92018571D02*
X84440238Y-92018571D01*
X84440238Y-92018571D02*
X84345000Y-92066190D01*
X84345000Y-92066190D02*
X84297380Y-92161428D01*
X84297380Y-92161428D02*
X84297380Y-92256666D01*
X84345000Y-92970952D02*
X84297380Y-92875714D01*
X84297380Y-92875714D02*
X84297380Y-92685238D01*
X84297380Y-92685238D02*
X84345000Y-92590000D01*
X84345000Y-92590000D02*
X84440238Y-92542381D01*
X84440238Y-92542381D02*
X84821190Y-92542381D01*
X84821190Y-92542381D02*
X84916428Y-92590000D01*
X84916428Y-92590000D02*
X84964047Y-92685238D01*
X84964047Y-92685238D02*
X84964047Y-92875714D01*
X84964047Y-92875714D02*
X84916428Y-92970952D01*
X84916428Y-92970952D02*
X84821190Y-93018571D01*
X84821190Y-93018571D02*
X84725952Y-93018571D01*
X84725952Y-93018571D02*
X84630714Y-92542381D01*
X84297380Y-93447143D02*
X84964047Y-93447143D01*
X84773571Y-93447143D02*
X84868809Y-93494762D01*
X84868809Y-93494762D02*
X84916428Y-93542381D01*
X84916428Y-93542381D02*
X84964047Y-93637619D01*
X84964047Y-93637619D02*
X84964047Y-93732857D01*
X84297380Y-95399524D02*
X84773571Y-95066191D01*
X84297380Y-94828096D02*
X85297380Y-94828096D01*
X85297380Y-94828096D02*
X85297380Y-95209048D01*
X85297380Y-95209048D02*
X85249761Y-95304286D01*
X85249761Y-95304286D02*
X85202142Y-95351905D01*
X85202142Y-95351905D02*
X85106904Y-95399524D01*
X85106904Y-95399524D02*
X84964047Y-95399524D01*
X84964047Y-95399524D02*
X84868809Y-95351905D01*
X84868809Y-95351905D02*
X84821190Y-95304286D01*
X84821190Y-95304286D02*
X84773571Y-95209048D01*
X84773571Y-95209048D02*
X84773571Y-94828096D01*
X84297380Y-95970953D02*
X84345000Y-95875715D01*
X84345000Y-95875715D02*
X84392619Y-95828096D01*
X84392619Y-95828096D02*
X84487857Y-95780477D01*
X84487857Y-95780477D02*
X84773571Y-95780477D01*
X84773571Y-95780477D02*
X84868809Y-95828096D01*
X84868809Y-95828096D02*
X84916428Y-95875715D01*
X84916428Y-95875715D02*
X84964047Y-95970953D01*
X84964047Y-95970953D02*
X84964047Y-96113810D01*
X84964047Y-96113810D02*
X84916428Y-96209048D01*
X84916428Y-96209048D02*
X84868809Y-96256667D01*
X84868809Y-96256667D02*
X84773571Y-96304286D01*
X84773571Y-96304286D02*
X84487857Y-96304286D01*
X84487857Y-96304286D02*
X84392619Y-96256667D01*
X84392619Y-96256667D02*
X84345000Y-96209048D01*
X84345000Y-96209048D02*
X84297380Y-96113810D01*
X84297380Y-96113810D02*
X84297380Y-95970953D01*
X84964047Y-96637620D02*
X84297380Y-96828096D01*
X84297380Y-96828096D02*
X84773571Y-97018572D01*
X84773571Y-97018572D02*
X84297380Y-97209048D01*
X84297380Y-97209048D02*
X84964047Y-97399524D01*
X85249761Y-99066191D02*
X85297380Y-98970953D01*
X85297380Y-98970953D02*
X85297380Y-98828096D01*
X85297380Y-98828096D02*
X85249761Y-98685239D01*
X85249761Y-98685239D02*
X85154523Y-98590001D01*
X85154523Y-98590001D02*
X85059285Y-98542382D01*
X85059285Y-98542382D02*
X84868809Y-98494763D01*
X84868809Y-98494763D02*
X84725952Y-98494763D01*
X84725952Y-98494763D02*
X84535476Y-98542382D01*
X84535476Y-98542382D02*
X84440238Y-98590001D01*
X84440238Y-98590001D02*
X84345000Y-98685239D01*
X84345000Y-98685239D02*
X84297380Y-98828096D01*
X84297380Y-98828096D02*
X84297380Y-98923334D01*
X84297380Y-98923334D02*
X84345000Y-99066191D01*
X84345000Y-99066191D02*
X84392619Y-99113810D01*
X84392619Y-99113810D02*
X84725952Y-99113810D01*
X84725952Y-99113810D02*
X84725952Y-98923334D01*
X84297380Y-99542382D02*
X85297380Y-99542382D01*
X85297380Y-99542382D02*
X84297380Y-100113810D01*
X84297380Y-100113810D02*
X85297380Y-100113810D01*
X84297380Y-100590001D02*
X85297380Y-100590001D01*
X85297380Y-100590001D02*
X85297380Y-100828096D01*
X85297380Y-100828096D02*
X85249761Y-100970953D01*
X85249761Y-100970953D02*
X85154523Y-101066191D01*
X85154523Y-101066191D02*
X85059285Y-101113810D01*
X85059285Y-101113810D02*
X84868809Y-101161429D01*
X84868809Y-101161429D02*
X84725952Y-101161429D01*
X84725952Y-101161429D02*
X84535476Y-101113810D01*
X84535476Y-101113810D02*
X84440238Y-101066191D01*
X84440238Y-101066191D02*
X84345000Y-100970953D01*
X84345000Y-100970953D02*
X84297380Y-100828096D01*
X84297380Y-100828096D02*
X84297380Y-100590001D01*
X114702619Y-100923333D02*
X114702619Y-100732857D01*
X114702619Y-100732857D02*
X114750238Y-100637619D01*
X114750238Y-100637619D02*
X114845476Y-100542381D01*
X114845476Y-100542381D02*
X115035952Y-100494762D01*
X115035952Y-100494762D02*
X115369285Y-100494762D01*
X115369285Y-100494762D02*
X115559761Y-100542381D01*
X115559761Y-100542381D02*
X115655000Y-100637619D01*
X115655000Y-100637619D02*
X115702619Y-100732857D01*
X115702619Y-100732857D02*
X115702619Y-100923333D01*
X115702619Y-100923333D02*
X115655000Y-101018571D01*
X115655000Y-101018571D02*
X115559761Y-101113809D01*
X115559761Y-101113809D02*
X115369285Y-101161428D01*
X115369285Y-101161428D02*
X115035952Y-101161428D01*
X115035952Y-101161428D02*
X114845476Y-101113809D01*
X114845476Y-101113809D02*
X114750238Y-101018571D01*
X114750238Y-101018571D02*
X114702619Y-100923333D01*
X115035952Y-99637619D02*
X115702619Y-99637619D01*
X115035952Y-100066190D02*
X115559761Y-100066190D01*
X115559761Y-100066190D02*
X115655000Y-100018571D01*
X115655000Y-100018571D02*
X115702619Y-99923333D01*
X115702619Y-99923333D02*
X115702619Y-99780476D01*
X115702619Y-99780476D02*
X115655000Y-99685238D01*
X115655000Y-99685238D02*
X115607380Y-99637619D01*
X115035952Y-99304285D02*
X115035952Y-98923333D01*
X114702619Y-99161428D02*
X115559761Y-99161428D01*
X115559761Y-99161428D02*
X115655000Y-99113809D01*
X115655000Y-99113809D02*
X115702619Y-99018571D01*
X115702619Y-99018571D02*
X115702619Y-98923333D01*
X115655000Y-98209047D02*
X115702619Y-98304285D01*
X115702619Y-98304285D02*
X115702619Y-98494761D01*
X115702619Y-98494761D02*
X115655000Y-98589999D01*
X115655000Y-98589999D02*
X115559761Y-98637618D01*
X115559761Y-98637618D02*
X115178809Y-98637618D01*
X115178809Y-98637618D02*
X115083571Y-98589999D01*
X115083571Y-98589999D02*
X115035952Y-98494761D01*
X115035952Y-98494761D02*
X115035952Y-98304285D01*
X115035952Y-98304285D02*
X115083571Y-98209047D01*
X115083571Y-98209047D02*
X115178809Y-98161428D01*
X115178809Y-98161428D02*
X115274047Y-98161428D01*
X115274047Y-98161428D02*
X115369285Y-98637618D01*
X115702619Y-97732856D02*
X115035952Y-97732856D01*
X115226428Y-97732856D02*
X115131190Y-97685237D01*
X115131190Y-97685237D02*
X115083571Y-97637618D01*
X115083571Y-97637618D02*
X115035952Y-97542380D01*
X115035952Y-97542380D02*
X115035952Y-97447142D01*
X115702619Y-95780475D02*
X115226428Y-96113808D01*
X115702619Y-96351903D02*
X114702619Y-96351903D01*
X114702619Y-96351903D02*
X114702619Y-95970951D01*
X114702619Y-95970951D02*
X114750238Y-95875713D01*
X114750238Y-95875713D02*
X114797857Y-95828094D01*
X114797857Y-95828094D02*
X114893095Y-95780475D01*
X114893095Y-95780475D02*
X115035952Y-95780475D01*
X115035952Y-95780475D02*
X115131190Y-95828094D01*
X115131190Y-95828094D02*
X115178809Y-95875713D01*
X115178809Y-95875713D02*
X115226428Y-95970951D01*
X115226428Y-95970951D02*
X115226428Y-96351903D01*
X115702619Y-95209046D02*
X115655000Y-95304284D01*
X115655000Y-95304284D02*
X115607380Y-95351903D01*
X115607380Y-95351903D02*
X115512142Y-95399522D01*
X115512142Y-95399522D02*
X115226428Y-95399522D01*
X115226428Y-95399522D02*
X115131190Y-95351903D01*
X115131190Y-95351903D02*
X115083571Y-95304284D01*
X115083571Y-95304284D02*
X115035952Y-95209046D01*
X115035952Y-95209046D02*
X115035952Y-95066189D01*
X115035952Y-95066189D02*
X115083571Y-94970951D01*
X115083571Y-94970951D02*
X115131190Y-94923332D01*
X115131190Y-94923332D02*
X115226428Y-94875713D01*
X115226428Y-94875713D02*
X115512142Y-94875713D01*
X115512142Y-94875713D02*
X115607380Y-94923332D01*
X115607380Y-94923332D02*
X115655000Y-94970951D01*
X115655000Y-94970951D02*
X115702619Y-95066189D01*
X115702619Y-95066189D02*
X115702619Y-95209046D01*
X115035952Y-94542379D02*
X115702619Y-94351903D01*
X115702619Y-94351903D02*
X115226428Y-94161427D01*
X115226428Y-94161427D02*
X115702619Y-93970951D01*
X115702619Y-93970951D02*
X115035952Y-93780475D01*
X114750238Y-92113808D02*
X114702619Y-92209046D01*
X114702619Y-92209046D02*
X114702619Y-92351903D01*
X114702619Y-92351903D02*
X114750238Y-92494760D01*
X114750238Y-92494760D02*
X114845476Y-92589998D01*
X114845476Y-92589998D02*
X114940714Y-92637617D01*
X114940714Y-92637617D02*
X115131190Y-92685236D01*
X115131190Y-92685236D02*
X115274047Y-92685236D01*
X115274047Y-92685236D02*
X115464523Y-92637617D01*
X115464523Y-92637617D02*
X115559761Y-92589998D01*
X115559761Y-92589998D02*
X115655000Y-92494760D01*
X115655000Y-92494760D02*
X115702619Y-92351903D01*
X115702619Y-92351903D02*
X115702619Y-92256665D01*
X115702619Y-92256665D02*
X115655000Y-92113808D01*
X115655000Y-92113808D02*
X115607380Y-92066189D01*
X115607380Y-92066189D02*
X115274047Y-92066189D01*
X115274047Y-92066189D02*
X115274047Y-92256665D01*
X115702619Y-91637617D02*
X114702619Y-91637617D01*
X114702619Y-91637617D02*
X115702619Y-91066189D01*
X115702619Y-91066189D02*
X114702619Y-91066189D01*
X115702619Y-90589998D02*
X114702619Y-90589998D01*
X114702619Y-90589998D02*
X114702619Y-90351903D01*
X114702619Y-90351903D02*
X114750238Y-90209046D01*
X114750238Y-90209046D02*
X114845476Y-90113808D01*
X114845476Y-90113808D02*
X114940714Y-90066189D01*
X114940714Y-90066189D02*
X115131190Y-90018570D01*
X115131190Y-90018570D02*
X115274047Y-90018570D01*
X115274047Y-90018570D02*
X115464523Y-90066189D01*
X115464523Y-90066189D02*
X115559761Y-90113808D01*
X115559761Y-90113808D02*
X115655000Y-90209046D01*
X115655000Y-90209046D02*
X115702619Y-90351903D01*
X115702619Y-90351903D02*
X115702619Y-90589998D01*
X92714284Y-117362619D02*
X92380951Y-116886428D01*
X92142856Y-117362619D02*
X92142856Y-116362619D01*
X92142856Y-116362619D02*
X92523808Y-116362619D01*
X92523808Y-116362619D02*
X92619046Y-116410238D01*
X92619046Y-116410238D02*
X92666665Y-116457857D01*
X92666665Y-116457857D02*
X92714284Y-116553095D01*
X92714284Y-116553095D02*
X92714284Y-116695952D01*
X92714284Y-116695952D02*
X92666665Y-116791190D01*
X92666665Y-116791190D02*
X92619046Y-116838809D01*
X92619046Y-116838809D02*
X92523808Y-116886428D01*
X92523808Y-116886428D02*
X92142856Y-116886428D01*
X93571427Y-117362619D02*
X93571427Y-116838809D01*
X93571427Y-116838809D02*
X93523808Y-116743571D01*
X93523808Y-116743571D02*
X93428570Y-116695952D01*
X93428570Y-116695952D02*
X93238094Y-116695952D01*
X93238094Y-116695952D02*
X93142856Y-116743571D01*
X93571427Y-117315000D02*
X93476189Y-117362619D01*
X93476189Y-117362619D02*
X93238094Y-117362619D01*
X93238094Y-117362619D02*
X93142856Y-117315000D01*
X93142856Y-117315000D02*
X93095237Y-117219761D01*
X93095237Y-117219761D02*
X93095237Y-117124523D01*
X93095237Y-117124523D02*
X93142856Y-117029285D01*
X93142856Y-117029285D02*
X93238094Y-116981666D01*
X93238094Y-116981666D02*
X93476189Y-116981666D01*
X93476189Y-116981666D02*
X93571427Y-116934047D01*
X93999999Y-117315000D02*
X94095237Y-117362619D01*
X94095237Y-117362619D02*
X94285713Y-117362619D01*
X94285713Y-117362619D02*
X94380951Y-117315000D01*
X94380951Y-117315000D02*
X94428570Y-117219761D01*
X94428570Y-117219761D02*
X94428570Y-117172142D01*
X94428570Y-117172142D02*
X94380951Y-117076904D01*
X94380951Y-117076904D02*
X94285713Y-117029285D01*
X94285713Y-117029285D02*
X94142856Y-117029285D01*
X94142856Y-117029285D02*
X94047618Y-116981666D01*
X94047618Y-116981666D02*
X93999999Y-116886428D01*
X93999999Y-116886428D02*
X93999999Y-116838809D01*
X93999999Y-116838809D02*
X94047618Y-116743571D01*
X94047618Y-116743571D02*
X94142856Y-116695952D01*
X94142856Y-116695952D02*
X94285713Y-116695952D01*
X94285713Y-116695952D02*
X94380951Y-116743571D01*
X94857142Y-116695952D02*
X94857142Y-117695952D01*
X94857142Y-116743571D02*
X94952380Y-116695952D01*
X94952380Y-116695952D02*
X95142856Y-116695952D01*
X95142856Y-116695952D02*
X95238094Y-116743571D01*
X95238094Y-116743571D02*
X95285713Y-116791190D01*
X95285713Y-116791190D02*
X95333332Y-116886428D01*
X95333332Y-116886428D02*
X95333332Y-117172142D01*
X95333332Y-117172142D02*
X95285713Y-117267380D01*
X95285713Y-117267380D02*
X95238094Y-117315000D01*
X95238094Y-117315000D02*
X95142856Y-117362619D01*
X95142856Y-117362619D02*
X94952380Y-117362619D01*
X94952380Y-117362619D02*
X94857142Y-117315000D01*
X95761904Y-117362619D02*
X95761904Y-116362619D01*
X95761904Y-116743571D02*
X95857142Y-116695952D01*
X95857142Y-116695952D02*
X96047618Y-116695952D01*
X96047618Y-116695952D02*
X96142856Y-116743571D01*
X96142856Y-116743571D02*
X96190475Y-116791190D01*
X96190475Y-116791190D02*
X96238094Y-116886428D01*
X96238094Y-116886428D02*
X96238094Y-117172142D01*
X96238094Y-117172142D02*
X96190475Y-117267380D01*
X96190475Y-117267380D02*
X96142856Y-117315000D01*
X96142856Y-117315000D02*
X96047618Y-117362619D01*
X96047618Y-117362619D02*
X95857142Y-117362619D01*
X95857142Y-117362619D02*
X95761904Y-117315000D01*
X97047618Y-117315000D02*
X96952380Y-117362619D01*
X96952380Y-117362619D02*
X96761904Y-117362619D01*
X96761904Y-117362619D02*
X96666666Y-117315000D01*
X96666666Y-117315000D02*
X96619047Y-117219761D01*
X96619047Y-117219761D02*
X96619047Y-116838809D01*
X96619047Y-116838809D02*
X96666666Y-116743571D01*
X96666666Y-116743571D02*
X96761904Y-116695952D01*
X96761904Y-116695952D02*
X96952380Y-116695952D01*
X96952380Y-116695952D02*
X97047618Y-116743571D01*
X97047618Y-116743571D02*
X97095237Y-116838809D01*
X97095237Y-116838809D02*
X97095237Y-116934047D01*
X97095237Y-116934047D02*
X96619047Y-117029285D01*
X97523809Y-117362619D02*
X97523809Y-116695952D01*
X97523809Y-116886428D02*
X97571428Y-116791190D01*
X97571428Y-116791190D02*
X97619047Y-116743571D01*
X97619047Y-116743571D02*
X97714285Y-116695952D01*
X97714285Y-116695952D02*
X97809523Y-116695952D01*
X98142857Y-117362619D02*
X98142857Y-116695952D01*
X98142857Y-116886428D02*
X98190476Y-116791190D01*
X98190476Y-116791190D02*
X98238095Y-116743571D01*
X98238095Y-116743571D02*
X98333333Y-116695952D01*
X98333333Y-116695952D02*
X98428571Y-116695952D01*
X98666667Y-116695952D02*
X98904762Y-117362619D01*
X99142857Y-116695952D02*
X98904762Y-117362619D01*
X98904762Y-117362619D02*
X98809524Y-117600714D01*
X98809524Y-117600714D02*
X98761905Y-117648333D01*
X98761905Y-117648333D02*
X98666667Y-117695952D01*
X100285715Y-117362619D02*
X100285715Y-116362619D01*
X100285715Y-116362619D02*
X100666667Y-116362619D01*
X100666667Y-116362619D02*
X100761905Y-116410238D01*
X100761905Y-116410238D02*
X100809524Y-116457857D01*
X100809524Y-116457857D02*
X100857143Y-116553095D01*
X100857143Y-116553095D02*
X100857143Y-116695952D01*
X100857143Y-116695952D02*
X100809524Y-116791190D01*
X100809524Y-116791190D02*
X100761905Y-116838809D01*
X100761905Y-116838809D02*
X100666667Y-116886428D01*
X100666667Y-116886428D02*
X100285715Y-116886428D01*
X101285715Y-117362619D02*
X101285715Y-116695952D01*
X101285715Y-116362619D02*
X101238096Y-116410238D01*
X101238096Y-116410238D02*
X101285715Y-116457857D01*
X101285715Y-116457857D02*
X101333334Y-116410238D01*
X101333334Y-116410238D02*
X101285715Y-116362619D01*
X101285715Y-116362619D02*
X101285715Y-116457857D01*
X103095238Y-117362619D02*
X102761905Y-116886428D01*
X102523810Y-117362619D02*
X102523810Y-116362619D01*
X102523810Y-116362619D02*
X102904762Y-116362619D01*
X102904762Y-116362619D02*
X103000000Y-116410238D01*
X103000000Y-116410238D02*
X103047619Y-116457857D01*
X103047619Y-116457857D02*
X103095238Y-116553095D01*
X103095238Y-116553095D02*
X103095238Y-116695952D01*
X103095238Y-116695952D02*
X103047619Y-116791190D01*
X103047619Y-116791190D02*
X103000000Y-116838809D01*
X103000000Y-116838809D02*
X102904762Y-116886428D01*
X102904762Y-116886428D02*
X102523810Y-116886428D01*
X103523810Y-117362619D02*
X103523810Y-116362619D01*
X103523810Y-116362619D02*
X103904762Y-116362619D01*
X103904762Y-116362619D02*
X104000000Y-116410238D01*
X104000000Y-116410238D02*
X104047619Y-116457857D01*
X104047619Y-116457857D02*
X104095238Y-116553095D01*
X104095238Y-116553095D02*
X104095238Y-116695952D01*
X104095238Y-116695952D02*
X104047619Y-116791190D01*
X104047619Y-116791190D02*
X104000000Y-116838809D01*
X104000000Y-116838809D02*
X103904762Y-116886428D01*
X103904762Y-116886428D02*
X103523810Y-116886428D01*
X104476191Y-116457857D02*
X104523810Y-116410238D01*
X104523810Y-116410238D02*
X104619048Y-116362619D01*
X104619048Y-116362619D02*
X104857143Y-116362619D01*
X104857143Y-116362619D02*
X104952381Y-116410238D01*
X104952381Y-116410238D02*
X105000000Y-116457857D01*
X105000000Y-116457857D02*
X105047619Y-116553095D01*
X105047619Y-116553095D02*
X105047619Y-116648333D01*
X105047619Y-116648333D02*
X105000000Y-116791190D01*
X105000000Y-116791190D02*
X104428572Y-117362619D01*
X104428572Y-117362619D02*
X105047619Y-117362619D01*
X105666667Y-116362619D02*
X105761905Y-116362619D01*
X105761905Y-116362619D02*
X105857143Y-116410238D01*
X105857143Y-116410238D02*
X105904762Y-116457857D01*
X105904762Y-116457857D02*
X105952381Y-116553095D01*
X105952381Y-116553095D02*
X106000000Y-116743571D01*
X106000000Y-116743571D02*
X106000000Y-116981666D01*
X106000000Y-116981666D02*
X105952381Y-117172142D01*
X105952381Y-117172142D02*
X105904762Y-117267380D01*
X105904762Y-117267380D02*
X105857143Y-117315000D01*
X105857143Y-117315000D02*
X105761905Y-117362619D01*
X105761905Y-117362619D02*
X105666667Y-117362619D01*
X105666667Y-117362619D02*
X105571429Y-117315000D01*
X105571429Y-117315000D02*
X105523810Y-117267380D01*
X105523810Y-117267380D02*
X105476191Y-117172142D01*
X105476191Y-117172142D02*
X105428572Y-116981666D01*
X105428572Y-116981666D02*
X105428572Y-116743571D01*
X105428572Y-116743571D02*
X105476191Y-116553095D01*
X105476191Y-116553095D02*
X105523810Y-116457857D01*
X105523810Y-116457857D02*
X105571429Y-116410238D01*
X105571429Y-116410238D02*
X105666667Y-116362619D01*
X106857143Y-116695952D02*
X106857143Y-117362619D01*
X106619048Y-116315000D02*
X106380953Y-117029285D01*
X106380953Y-117029285D02*
X107000000Y-117029285D01*
X107571429Y-116362619D02*
X107666667Y-116362619D01*
X107666667Y-116362619D02*
X107761905Y-116410238D01*
X107761905Y-116410238D02*
X107809524Y-116457857D01*
X107809524Y-116457857D02*
X107857143Y-116553095D01*
X107857143Y-116553095D02*
X107904762Y-116743571D01*
X107904762Y-116743571D02*
X107904762Y-116981666D01*
X107904762Y-116981666D02*
X107857143Y-117172142D01*
X107857143Y-117172142D02*
X107809524Y-117267380D01*
X107809524Y-117267380D02*
X107761905Y-117315000D01*
X107761905Y-117315000D02*
X107666667Y-117362619D01*
X107666667Y-117362619D02*
X107571429Y-117362619D01*
X107571429Y-117362619D02*
X107476191Y-117315000D01*
X107476191Y-117315000D02*
X107428572Y-117267380D01*
X107428572Y-117267380D02*
X107380953Y-117172142D01*
X107380953Y-117172142D02*
X107333334Y-116981666D01*
X107333334Y-116981666D02*
X107333334Y-116743571D01*
X107333334Y-116743571D02*
X107380953Y-116553095D01*
X107380953Y-116553095D02*
X107428572Y-116457857D01*
X107428572Y-116457857D02*
X107476191Y-116410238D01*
X107476191Y-116410238D02*
X107571429Y-116362619D01*
X88380952Y-119262619D02*
X88380952Y-118262619D01*
X88380952Y-118262619D02*
X88714285Y-118976904D01*
X88714285Y-118976904D02*
X89047618Y-118262619D01*
X89047618Y-118262619D02*
X89047618Y-119262619D01*
X89523809Y-119262619D02*
X89523809Y-118595952D01*
X89523809Y-118262619D02*
X89476190Y-118310238D01*
X89476190Y-118310238D02*
X89523809Y-118357857D01*
X89523809Y-118357857D02*
X89571428Y-118310238D01*
X89571428Y-118310238D02*
X89523809Y-118262619D01*
X89523809Y-118262619D02*
X89523809Y-118357857D01*
X89999999Y-118595952D02*
X89999999Y-119262619D01*
X89999999Y-118691190D02*
X90047618Y-118643571D01*
X90047618Y-118643571D02*
X90142856Y-118595952D01*
X90142856Y-118595952D02*
X90285713Y-118595952D01*
X90285713Y-118595952D02*
X90380951Y-118643571D01*
X90380951Y-118643571D02*
X90428570Y-118738809D01*
X90428570Y-118738809D02*
X90428570Y-119262619D01*
X90904761Y-119262619D02*
X90904761Y-118595952D01*
X90904761Y-118262619D02*
X90857142Y-118310238D01*
X90857142Y-118310238D02*
X90904761Y-118357857D01*
X90904761Y-118357857D02*
X90952380Y-118310238D01*
X90952380Y-118310238D02*
X90904761Y-118262619D01*
X90904761Y-118262619D02*
X90904761Y-118357857D01*
X91380951Y-119262619D02*
X91380951Y-118595952D01*
X91380951Y-118691190D02*
X91428570Y-118643571D01*
X91428570Y-118643571D02*
X91523808Y-118595952D01*
X91523808Y-118595952D02*
X91666665Y-118595952D01*
X91666665Y-118595952D02*
X91761903Y-118643571D01*
X91761903Y-118643571D02*
X91809522Y-118738809D01*
X91809522Y-118738809D02*
X91809522Y-119262619D01*
X91809522Y-118738809D02*
X91857141Y-118643571D01*
X91857141Y-118643571D02*
X91952379Y-118595952D01*
X91952379Y-118595952D02*
X92095236Y-118595952D01*
X92095236Y-118595952D02*
X92190475Y-118643571D01*
X92190475Y-118643571D02*
X92238094Y-118738809D01*
X92238094Y-118738809D02*
X92238094Y-119262619D01*
X93142855Y-119262619D02*
X93142855Y-118738809D01*
X93142855Y-118738809D02*
X93095236Y-118643571D01*
X93095236Y-118643571D02*
X92999998Y-118595952D01*
X92999998Y-118595952D02*
X92809522Y-118595952D01*
X92809522Y-118595952D02*
X92714284Y-118643571D01*
X93142855Y-119215000D02*
X93047617Y-119262619D01*
X93047617Y-119262619D02*
X92809522Y-119262619D01*
X92809522Y-119262619D02*
X92714284Y-119215000D01*
X92714284Y-119215000D02*
X92666665Y-119119761D01*
X92666665Y-119119761D02*
X92666665Y-119024523D01*
X92666665Y-119024523D02*
X92714284Y-118929285D01*
X92714284Y-118929285D02*
X92809522Y-118881666D01*
X92809522Y-118881666D02*
X93047617Y-118881666D01*
X93047617Y-118881666D02*
X93142855Y-118834047D01*
X93761903Y-119262619D02*
X93666665Y-119215000D01*
X93666665Y-119215000D02*
X93619046Y-119119761D01*
X93619046Y-119119761D02*
X93619046Y-118262619D01*
X94904761Y-119262619D02*
X94904761Y-118262619D01*
X94904761Y-118262619D02*
X95142856Y-118262619D01*
X95142856Y-118262619D02*
X95285713Y-118310238D01*
X95285713Y-118310238D02*
X95380951Y-118405476D01*
X95380951Y-118405476D02*
X95428570Y-118500714D01*
X95428570Y-118500714D02*
X95476189Y-118691190D01*
X95476189Y-118691190D02*
X95476189Y-118834047D01*
X95476189Y-118834047D02*
X95428570Y-119024523D01*
X95428570Y-119024523D02*
X95380951Y-119119761D01*
X95380951Y-119119761D02*
X95285713Y-119215000D01*
X95285713Y-119215000D02*
X95142856Y-119262619D01*
X95142856Y-119262619D02*
X94904761Y-119262619D01*
X96285713Y-119215000D02*
X96190475Y-119262619D01*
X96190475Y-119262619D02*
X95999999Y-119262619D01*
X95999999Y-119262619D02*
X95904761Y-119215000D01*
X95904761Y-119215000D02*
X95857142Y-119119761D01*
X95857142Y-119119761D02*
X95857142Y-118738809D01*
X95857142Y-118738809D02*
X95904761Y-118643571D01*
X95904761Y-118643571D02*
X95999999Y-118595952D01*
X95999999Y-118595952D02*
X96190475Y-118595952D01*
X96190475Y-118595952D02*
X96285713Y-118643571D01*
X96285713Y-118643571D02*
X96333332Y-118738809D01*
X96333332Y-118738809D02*
X96333332Y-118834047D01*
X96333332Y-118834047D02*
X95857142Y-118929285D01*
X96714285Y-119215000D02*
X96809523Y-119262619D01*
X96809523Y-119262619D02*
X96999999Y-119262619D01*
X96999999Y-119262619D02*
X97095237Y-119215000D01*
X97095237Y-119215000D02*
X97142856Y-119119761D01*
X97142856Y-119119761D02*
X97142856Y-119072142D01*
X97142856Y-119072142D02*
X97095237Y-118976904D01*
X97095237Y-118976904D02*
X96999999Y-118929285D01*
X96999999Y-118929285D02*
X96857142Y-118929285D01*
X96857142Y-118929285D02*
X96761904Y-118881666D01*
X96761904Y-118881666D02*
X96714285Y-118786428D01*
X96714285Y-118786428D02*
X96714285Y-118738809D01*
X96714285Y-118738809D02*
X96761904Y-118643571D01*
X96761904Y-118643571D02*
X96857142Y-118595952D01*
X96857142Y-118595952D02*
X96999999Y-118595952D01*
X96999999Y-118595952D02*
X97095237Y-118643571D01*
X97571428Y-119262619D02*
X97571428Y-118595952D01*
X97571428Y-118262619D02*
X97523809Y-118310238D01*
X97523809Y-118310238D02*
X97571428Y-118357857D01*
X97571428Y-118357857D02*
X97619047Y-118310238D01*
X97619047Y-118310238D02*
X97571428Y-118262619D01*
X97571428Y-118262619D02*
X97571428Y-118357857D01*
X98476189Y-118595952D02*
X98476189Y-119405476D01*
X98476189Y-119405476D02*
X98428570Y-119500714D01*
X98428570Y-119500714D02*
X98380951Y-119548333D01*
X98380951Y-119548333D02*
X98285713Y-119595952D01*
X98285713Y-119595952D02*
X98142856Y-119595952D01*
X98142856Y-119595952D02*
X98047618Y-119548333D01*
X98476189Y-119215000D02*
X98380951Y-119262619D01*
X98380951Y-119262619D02*
X98190475Y-119262619D01*
X98190475Y-119262619D02*
X98095237Y-119215000D01*
X98095237Y-119215000D02*
X98047618Y-119167380D01*
X98047618Y-119167380D02*
X97999999Y-119072142D01*
X97999999Y-119072142D02*
X97999999Y-118786428D01*
X97999999Y-118786428D02*
X98047618Y-118691190D01*
X98047618Y-118691190D02*
X98095237Y-118643571D01*
X98095237Y-118643571D02*
X98190475Y-118595952D01*
X98190475Y-118595952D02*
X98380951Y-118595952D01*
X98380951Y-118595952D02*
X98476189Y-118643571D01*
X98952380Y-118595952D02*
X98952380Y-119262619D01*
X98952380Y-118691190D02*
X98999999Y-118643571D01*
X98999999Y-118643571D02*
X99095237Y-118595952D01*
X99095237Y-118595952D02*
X99238094Y-118595952D01*
X99238094Y-118595952D02*
X99333332Y-118643571D01*
X99333332Y-118643571D02*
X99380951Y-118738809D01*
X99380951Y-118738809D02*
X99380951Y-119262619D01*
X100619047Y-118738809D02*
X100952380Y-118738809D01*
X101095237Y-119262619D02*
X100619047Y-119262619D01*
X100619047Y-119262619D02*
X100619047Y-118262619D01*
X100619047Y-118262619D02*
X101095237Y-118262619D01*
X101428571Y-119262619D02*
X101952380Y-118595952D01*
X101428571Y-118595952D02*
X101952380Y-119262619D01*
X102761904Y-119262619D02*
X102761904Y-118738809D01*
X102761904Y-118738809D02*
X102714285Y-118643571D01*
X102714285Y-118643571D02*
X102619047Y-118595952D01*
X102619047Y-118595952D02*
X102428571Y-118595952D01*
X102428571Y-118595952D02*
X102333333Y-118643571D01*
X102761904Y-119215000D02*
X102666666Y-119262619D01*
X102666666Y-119262619D02*
X102428571Y-119262619D01*
X102428571Y-119262619D02*
X102333333Y-119215000D01*
X102333333Y-119215000D02*
X102285714Y-119119761D01*
X102285714Y-119119761D02*
X102285714Y-119024523D01*
X102285714Y-119024523D02*
X102333333Y-118929285D01*
X102333333Y-118929285D02*
X102428571Y-118881666D01*
X102428571Y-118881666D02*
X102666666Y-118881666D01*
X102666666Y-118881666D02*
X102761904Y-118834047D01*
X103238095Y-119262619D02*
X103238095Y-118595952D01*
X103238095Y-118691190D02*
X103285714Y-118643571D01*
X103285714Y-118643571D02*
X103380952Y-118595952D01*
X103380952Y-118595952D02*
X103523809Y-118595952D01*
X103523809Y-118595952D02*
X103619047Y-118643571D01*
X103619047Y-118643571D02*
X103666666Y-118738809D01*
X103666666Y-118738809D02*
X103666666Y-119262619D01*
X103666666Y-118738809D02*
X103714285Y-118643571D01*
X103714285Y-118643571D02*
X103809523Y-118595952D01*
X103809523Y-118595952D02*
X103952380Y-118595952D01*
X103952380Y-118595952D02*
X104047619Y-118643571D01*
X104047619Y-118643571D02*
X104095238Y-118738809D01*
X104095238Y-118738809D02*
X104095238Y-119262619D01*
X104571428Y-118595952D02*
X104571428Y-119595952D01*
X104571428Y-118643571D02*
X104666666Y-118595952D01*
X104666666Y-118595952D02*
X104857142Y-118595952D01*
X104857142Y-118595952D02*
X104952380Y-118643571D01*
X104952380Y-118643571D02*
X104999999Y-118691190D01*
X104999999Y-118691190D02*
X105047618Y-118786428D01*
X105047618Y-118786428D02*
X105047618Y-119072142D01*
X105047618Y-119072142D02*
X104999999Y-119167380D01*
X104999999Y-119167380D02*
X104952380Y-119215000D01*
X104952380Y-119215000D02*
X104857142Y-119262619D01*
X104857142Y-119262619D02*
X104666666Y-119262619D01*
X104666666Y-119262619D02*
X104571428Y-119215000D01*
X105619047Y-119262619D02*
X105523809Y-119215000D01*
X105523809Y-119215000D02*
X105476190Y-119119761D01*
X105476190Y-119119761D02*
X105476190Y-118262619D01*
X106380952Y-119215000D02*
X106285714Y-119262619D01*
X106285714Y-119262619D02*
X106095238Y-119262619D01*
X106095238Y-119262619D02*
X106000000Y-119215000D01*
X106000000Y-119215000D02*
X105952381Y-119119761D01*
X105952381Y-119119761D02*
X105952381Y-118738809D01*
X105952381Y-118738809D02*
X106000000Y-118643571D01*
X106000000Y-118643571D02*
X106095238Y-118595952D01*
X106095238Y-118595952D02*
X106285714Y-118595952D01*
X106285714Y-118595952D02*
X106380952Y-118643571D01*
X106380952Y-118643571D02*
X106428571Y-118738809D01*
X106428571Y-118738809D02*
X106428571Y-118834047D01*
X106428571Y-118834047D02*
X105952381Y-118929285D01*
X108952381Y-119262619D02*
X108619048Y-118786428D01*
X108380953Y-119262619D02*
X108380953Y-118262619D01*
X108380953Y-118262619D02*
X108761905Y-118262619D01*
X108761905Y-118262619D02*
X108857143Y-118310238D01*
X108857143Y-118310238D02*
X108904762Y-118357857D01*
X108904762Y-118357857D02*
X108952381Y-118453095D01*
X108952381Y-118453095D02*
X108952381Y-118595952D01*
X108952381Y-118595952D02*
X108904762Y-118691190D01*
X108904762Y-118691190D02*
X108857143Y-118738809D01*
X108857143Y-118738809D02*
X108761905Y-118786428D01*
X108761905Y-118786428D02*
X108380953Y-118786428D01*
X109380953Y-118738809D02*
X109714286Y-118738809D01*
X109857143Y-119262619D02*
X109380953Y-119262619D01*
X109380953Y-119262619D02*
X109380953Y-118262619D01*
X109380953Y-118262619D02*
X109857143Y-118262619D01*
X110142858Y-118262619D02*
X110476191Y-119262619D01*
X110476191Y-119262619D02*
X110809524Y-118262619D01*
X111666667Y-119262619D02*
X111095239Y-119262619D01*
X111380953Y-119262619D02*
X111380953Y-118262619D01*
X111380953Y-118262619D02*
X111285715Y-118405476D01*
X111285715Y-118405476D02*
X111190477Y-118500714D01*
X111190477Y-118500714D02*
X111095239Y-118548333D01*
X93885380Y-72460571D02*
X93075857Y-72460571D01*
X93075857Y-72460571D02*
X92980619Y-72508190D01*
X92980619Y-72508190D02*
X92933000Y-72555809D01*
X92933000Y-72555809D02*
X92885380Y-72651047D01*
X92885380Y-72651047D02*
X92885380Y-72841523D01*
X92885380Y-72841523D02*
X92933000Y-72936761D01*
X92933000Y-72936761D02*
X92980619Y-72984380D01*
X92980619Y-72984380D02*
X93075857Y-73031999D01*
X93075857Y-73031999D02*
X93885380Y-73031999D01*
X92933000Y-73460571D02*
X92885380Y-73603428D01*
X92885380Y-73603428D02*
X92885380Y-73841523D01*
X92885380Y-73841523D02*
X92933000Y-73936761D01*
X92933000Y-73936761D02*
X92980619Y-73984380D01*
X92980619Y-73984380D02*
X93075857Y-74031999D01*
X93075857Y-74031999D02*
X93171095Y-74031999D01*
X93171095Y-74031999D02*
X93266333Y-73984380D01*
X93266333Y-73984380D02*
X93313952Y-73936761D01*
X93313952Y-73936761D02*
X93361571Y-73841523D01*
X93361571Y-73841523D02*
X93409190Y-73651047D01*
X93409190Y-73651047D02*
X93456809Y-73555809D01*
X93456809Y-73555809D02*
X93504428Y-73508190D01*
X93504428Y-73508190D02*
X93599666Y-73460571D01*
X93599666Y-73460571D02*
X93694904Y-73460571D01*
X93694904Y-73460571D02*
X93790142Y-73508190D01*
X93790142Y-73508190D02*
X93837761Y-73555809D01*
X93837761Y-73555809D02*
X93885380Y-73651047D01*
X93885380Y-73651047D02*
X93885380Y-73889142D01*
X93885380Y-73889142D02*
X93837761Y-74031999D01*
X93409190Y-74793904D02*
X93361571Y-74936761D01*
X93361571Y-74936761D02*
X93313952Y-74984380D01*
X93313952Y-74984380D02*
X93218714Y-75031999D01*
X93218714Y-75031999D02*
X93075857Y-75031999D01*
X93075857Y-75031999D02*
X92980619Y-74984380D01*
X92980619Y-74984380D02*
X92933000Y-74936761D01*
X92933000Y-74936761D02*
X92885380Y-74841523D01*
X92885380Y-74841523D02*
X92885380Y-74460571D01*
X92885380Y-74460571D02*
X93885380Y-74460571D01*
X93885380Y-74460571D02*
X93885380Y-74793904D01*
X93885380Y-74793904D02*
X93837761Y-74889142D01*
X93837761Y-74889142D02*
X93790142Y-74936761D01*
X93790142Y-74936761D02*
X93694904Y-74984380D01*
X93694904Y-74984380D02*
X93599666Y-74984380D01*
X93599666Y-74984380D02*
X93504428Y-74936761D01*
X93504428Y-74936761D02*
X93456809Y-74889142D01*
X93456809Y-74889142D02*
X93409190Y-74793904D01*
X93409190Y-74793904D02*
X93409190Y-74460571D01*
X92790142Y-75222476D02*
X92790142Y-75984380D01*
X93409190Y-76555809D02*
X93361571Y-76698666D01*
X93361571Y-76698666D02*
X93313952Y-76746285D01*
X93313952Y-76746285D02*
X93218714Y-76793904D01*
X93218714Y-76793904D02*
X93075857Y-76793904D01*
X93075857Y-76793904D02*
X92980619Y-76746285D01*
X92980619Y-76746285D02*
X92933000Y-76698666D01*
X92933000Y-76698666D02*
X92885380Y-76603428D01*
X92885380Y-76603428D02*
X92885380Y-76222476D01*
X92885380Y-76222476D02*
X93885380Y-76222476D01*
X93885380Y-76222476D02*
X93885380Y-76555809D01*
X93885380Y-76555809D02*
X93837761Y-76651047D01*
X93837761Y-76651047D02*
X93790142Y-76698666D01*
X93790142Y-76698666D02*
X93694904Y-76746285D01*
X93694904Y-76746285D02*
X93599666Y-76746285D01*
X93599666Y-76746285D02*
X93504428Y-76698666D01*
X93504428Y-76698666D02*
X93456809Y-76651047D01*
X93456809Y-76651047D02*
X93409190Y-76555809D01*
X93409190Y-76555809D02*
X93409190Y-76222476D01*
X93885380Y-77412952D02*
X93885380Y-77603428D01*
X93885380Y-77603428D02*
X93837761Y-77698666D01*
X93837761Y-77698666D02*
X93742523Y-77793904D01*
X93742523Y-77793904D02*
X93552047Y-77841523D01*
X93552047Y-77841523D02*
X93218714Y-77841523D01*
X93218714Y-77841523D02*
X93028238Y-77793904D01*
X93028238Y-77793904D02*
X92933000Y-77698666D01*
X92933000Y-77698666D02*
X92885380Y-77603428D01*
X92885380Y-77603428D02*
X92885380Y-77412952D01*
X92885380Y-77412952D02*
X92933000Y-77317714D01*
X92933000Y-77317714D02*
X93028238Y-77222476D01*
X93028238Y-77222476D02*
X93218714Y-77174857D01*
X93218714Y-77174857D02*
X93552047Y-77174857D01*
X93552047Y-77174857D02*
X93742523Y-77222476D01*
X93742523Y-77222476D02*
X93837761Y-77317714D01*
X93837761Y-77317714D02*
X93885380Y-77412952D01*
X93885380Y-78460571D02*
X93885380Y-78651047D01*
X93885380Y-78651047D02*
X93837761Y-78746285D01*
X93837761Y-78746285D02*
X93742523Y-78841523D01*
X93742523Y-78841523D02*
X93552047Y-78889142D01*
X93552047Y-78889142D02*
X93218714Y-78889142D01*
X93218714Y-78889142D02*
X93028238Y-78841523D01*
X93028238Y-78841523D02*
X92933000Y-78746285D01*
X92933000Y-78746285D02*
X92885380Y-78651047D01*
X92885380Y-78651047D02*
X92885380Y-78460571D01*
X92885380Y-78460571D02*
X92933000Y-78365333D01*
X92933000Y-78365333D02*
X93028238Y-78270095D01*
X93028238Y-78270095D02*
X93218714Y-78222476D01*
X93218714Y-78222476D02*
X93552047Y-78222476D01*
X93552047Y-78222476D02*
X93742523Y-78270095D01*
X93742523Y-78270095D02*
X93837761Y-78365333D01*
X93837761Y-78365333D02*
X93885380Y-78460571D01*
X93885380Y-79174857D02*
X93885380Y-79746285D01*
X92885380Y-79460571D02*
X93885380Y-79460571D01*
X90338095Y-71210238D02*
X90242857Y-71162619D01*
X90242857Y-71162619D02*
X90100000Y-71162619D01*
X90100000Y-71162619D02*
X89957143Y-71210238D01*
X89957143Y-71210238D02*
X89861905Y-71305476D01*
X89861905Y-71305476D02*
X89814286Y-71400714D01*
X89814286Y-71400714D02*
X89766667Y-71591190D01*
X89766667Y-71591190D02*
X89766667Y-71734047D01*
X89766667Y-71734047D02*
X89814286Y-71924523D01*
X89814286Y-71924523D02*
X89861905Y-72019761D01*
X89861905Y-72019761D02*
X89957143Y-72115000D01*
X89957143Y-72115000D02*
X90100000Y-72162619D01*
X90100000Y-72162619D02*
X90195238Y-72162619D01*
X90195238Y-72162619D02*
X90338095Y-72115000D01*
X90338095Y-72115000D02*
X90385714Y-72067380D01*
X90385714Y-72067380D02*
X90385714Y-71734047D01*
X90385714Y-71734047D02*
X90195238Y-71734047D01*
X90814286Y-72162619D02*
X90814286Y-71162619D01*
X90814286Y-71162619D02*
X91385714Y-72162619D01*
X91385714Y-72162619D02*
X91385714Y-71162619D01*
X91861905Y-72162619D02*
X91861905Y-71162619D01*
X91861905Y-71162619D02*
X92100000Y-71162619D01*
X92100000Y-71162619D02*
X92242857Y-71210238D01*
X92242857Y-71210238D02*
X92338095Y-71305476D01*
X92338095Y-71305476D02*
X92385714Y-71400714D01*
X92385714Y-71400714D02*
X92433333Y-71591190D01*
X92433333Y-71591190D02*
X92433333Y-71734047D01*
X92433333Y-71734047D02*
X92385714Y-71924523D01*
X92385714Y-71924523D02*
X92338095Y-72019761D01*
X92338095Y-72019761D02*
X92242857Y-72115000D01*
X92242857Y-72115000D02*
X92100000Y-72162619D01*
X92100000Y-72162619D02*
X91861905Y-72162619D01*
D10*
X80942143Y-76099214D02*
X80856429Y-76056357D01*
X80856429Y-76056357D02*
X80727857Y-76056357D01*
X80727857Y-76056357D02*
X80599286Y-76099214D01*
X80599286Y-76099214D02*
X80513571Y-76184928D01*
X80513571Y-76184928D02*
X80470714Y-76270642D01*
X80470714Y-76270642D02*
X80427857Y-76442071D01*
X80427857Y-76442071D02*
X80427857Y-76570642D01*
X80427857Y-76570642D02*
X80470714Y-76742071D01*
X80470714Y-76742071D02*
X80513571Y-76827785D01*
X80513571Y-76827785D02*
X80599286Y-76913500D01*
X80599286Y-76913500D02*
X80727857Y-76956357D01*
X80727857Y-76956357D02*
X80813571Y-76956357D01*
X80813571Y-76956357D02*
X80942143Y-76913500D01*
X80942143Y-76913500D02*
X80985000Y-76870642D01*
X80985000Y-76870642D02*
X80985000Y-76570642D01*
X80985000Y-76570642D02*
X80813571Y-76570642D01*
X81370714Y-76956357D02*
X81370714Y-76056357D01*
X81370714Y-76056357D02*
X81713571Y-76056357D01*
X81713571Y-76056357D02*
X81799286Y-76099214D01*
X81799286Y-76099214D02*
X81842143Y-76142071D01*
X81842143Y-76142071D02*
X81885000Y-76227785D01*
X81885000Y-76227785D02*
X81885000Y-76356357D01*
X81885000Y-76356357D02*
X81842143Y-76442071D01*
X81842143Y-76442071D02*
X81799286Y-76484928D01*
X81799286Y-76484928D02*
X81713571Y-76527785D01*
X81713571Y-76527785D02*
X81370714Y-76527785D01*
X82442143Y-76056357D02*
X82527857Y-76056357D01*
X82527857Y-76056357D02*
X82613571Y-76099214D01*
X82613571Y-76099214D02*
X82656429Y-76142071D01*
X82656429Y-76142071D02*
X82699286Y-76227785D01*
X82699286Y-76227785D02*
X82742143Y-76399214D01*
X82742143Y-76399214D02*
X82742143Y-76613500D01*
X82742143Y-76613500D02*
X82699286Y-76784928D01*
X82699286Y-76784928D02*
X82656429Y-76870642D01*
X82656429Y-76870642D02*
X82613571Y-76913500D01*
X82613571Y-76913500D02*
X82527857Y-76956357D01*
X82527857Y-76956357D02*
X82442143Y-76956357D01*
X82442143Y-76956357D02*
X82356429Y-76913500D01*
X82356429Y-76913500D02*
X82313571Y-76870642D01*
X82313571Y-76870642D02*
X82270714Y-76784928D01*
X82270714Y-76784928D02*
X82227857Y-76613500D01*
X82227857Y-76613500D02*
X82227857Y-76399214D01*
X82227857Y-76399214D02*
X82270714Y-76227785D01*
X82270714Y-76227785D02*
X82313571Y-76142071D01*
X82313571Y-76142071D02*
X82356429Y-76099214D01*
X82356429Y-76099214D02*
X82442143Y-76056357D01*
X80470714Y-73516357D02*
X81027857Y-73516357D01*
X81027857Y-73516357D02*
X80727857Y-73859214D01*
X80727857Y-73859214D02*
X80856428Y-73859214D01*
X80856428Y-73859214D02*
X80942143Y-73902071D01*
X80942143Y-73902071D02*
X80985000Y-73944928D01*
X80985000Y-73944928D02*
X81027857Y-74030642D01*
X81027857Y-74030642D02*
X81027857Y-74244928D01*
X81027857Y-74244928D02*
X80985000Y-74330642D01*
X80985000Y-74330642D02*
X80942143Y-74373500D01*
X80942143Y-74373500D02*
X80856428Y-74416357D01*
X80856428Y-74416357D02*
X80599285Y-74416357D01*
X80599285Y-74416357D02*
X80513571Y-74373500D01*
X80513571Y-74373500D02*
X80470714Y-74330642D01*
X81285000Y-73516357D02*
X81585000Y-74416357D01*
X81585000Y-74416357D02*
X81885000Y-73516357D01*
X82099286Y-73516357D02*
X82656429Y-73516357D01*
X82656429Y-73516357D02*
X82356429Y-73859214D01*
X82356429Y-73859214D02*
X82485000Y-73859214D01*
X82485000Y-73859214D02*
X82570715Y-73902071D01*
X82570715Y-73902071D02*
X82613572Y-73944928D01*
X82613572Y-73944928D02*
X82656429Y-74030642D01*
X82656429Y-74030642D02*
X82656429Y-74244928D01*
X82656429Y-74244928D02*
X82613572Y-74330642D01*
X82613572Y-74330642D02*
X82570715Y-74373500D01*
X82570715Y-74373500D02*
X82485000Y-74416357D01*
X82485000Y-74416357D02*
X82227857Y-74416357D01*
X82227857Y-74416357D02*
X82142143Y-74373500D01*
X82142143Y-74373500D02*
X82099286Y-74330642D01*
D11*
X108382142Y-87687380D02*
X108334523Y-87735000D01*
X108334523Y-87735000D02*
X108191666Y-87782619D01*
X108191666Y-87782619D02*
X108096428Y-87782619D01*
X108096428Y-87782619D02*
X107953571Y-87735000D01*
X107953571Y-87735000D02*
X107858333Y-87639761D01*
X107858333Y-87639761D02*
X107810714Y-87544523D01*
X107810714Y-87544523D02*
X107763095Y-87354047D01*
X107763095Y-87354047D02*
X107763095Y-87211190D01*
X107763095Y-87211190D02*
X107810714Y-87020714D01*
X107810714Y-87020714D02*
X107858333Y-86925476D01*
X107858333Y-86925476D02*
X107953571Y-86830238D01*
X107953571Y-86830238D02*
X108096428Y-86782619D01*
X108096428Y-86782619D02*
X108191666Y-86782619D01*
X108191666Y-86782619D02*
X108334523Y-86830238D01*
X108334523Y-86830238D02*
X108382142Y-86877857D01*
X109334523Y-87782619D02*
X108763095Y-87782619D01*
X109048809Y-87782619D02*
X109048809Y-86782619D01*
X109048809Y-86782619D02*
X108953571Y-86925476D01*
X108953571Y-86925476D02*
X108858333Y-87020714D01*
X108858333Y-87020714D02*
X108763095Y-87068333D01*
X109667857Y-86782619D02*
X110334523Y-86782619D01*
X110334523Y-86782619D02*
X109905952Y-87782619D01*
X105031666Y-73742619D02*
X105031666Y-74456904D01*
X105031666Y-74456904D02*
X104984047Y-74599761D01*
X104984047Y-74599761D02*
X104888809Y-74695000D01*
X104888809Y-74695000D02*
X104745952Y-74742619D01*
X104745952Y-74742619D02*
X104650714Y-74742619D01*
X105412619Y-73742619D02*
X106031666Y-73742619D01*
X106031666Y-73742619D02*
X105698333Y-74123571D01*
X105698333Y-74123571D02*
X105841190Y-74123571D01*
X105841190Y-74123571D02*
X105936428Y-74171190D01*
X105936428Y-74171190D02*
X105984047Y-74218809D01*
X105984047Y-74218809D02*
X106031666Y-74314047D01*
X106031666Y-74314047D02*
X106031666Y-74552142D01*
X106031666Y-74552142D02*
X105984047Y-74647380D01*
X105984047Y-74647380D02*
X105936428Y-74695000D01*
X105936428Y-74695000D02*
X105841190Y-74742619D01*
X105841190Y-74742619D02*
X105555476Y-74742619D01*
X105555476Y-74742619D02*
X105460238Y-74695000D01*
X105460238Y-74695000D02*
X105412619Y-74647380D01*
X90776666Y-78332619D02*
X90776666Y-79046904D01*
X90776666Y-79046904D02*
X90729047Y-79189761D01*
X90729047Y-79189761D02*
X90633809Y-79285000D01*
X90633809Y-79285000D02*
X90490952Y-79332619D01*
X90490952Y-79332619D02*
X90395714Y-79332619D01*
X91205238Y-78427857D02*
X91252857Y-78380238D01*
X91252857Y-78380238D02*
X91348095Y-78332619D01*
X91348095Y-78332619D02*
X91586190Y-78332619D01*
X91586190Y-78332619D02*
X91681428Y-78380238D01*
X91681428Y-78380238D02*
X91729047Y-78427857D01*
X91729047Y-78427857D02*
X91776666Y-78523095D01*
X91776666Y-78523095D02*
X91776666Y-78618333D01*
X91776666Y-78618333D02*
X91729047Y-78761190D01*
X91729047Y-78761190D02*
X91157619Y-79332619D01*
X91157619Y-79332619D02*
X91776666Y-79332619D01*
X76806666Y-71132619D02*
X76806666Y-71846904D01*
X76806666Y-71846904D02*
X76759047Y-71989761D01*
X76759047Y-71989761D02*
X76663809Y-72085000D01*
X76663809Y-72085000D02*
X76520952Y-72132619D01*
X76520952Y-72132619D02*
X76425714Y-72132619D01*
X77806666Y-72132619D02*
X77235238Y-72132619D01*
X77520952Y-72132619D02*
X77520952Y-71132619D01*
X77520952Y-71132619D02*
X77425714Y-71275476D01*
X77425714Y-71275476D02*
X77330476Y-71370714D01*
X77330476Y-71370714D02*
X77235238Y-71418333D01*
X105447380Y-93724666D02*
X105495000Y-93772285D01*
X105495000Y-93772285D02*
X105542619Y-93915142D01*
X105542619Y-93915142D02*
X105542619Y-94010380D01*
X105542619Y-94010380D02*
X105495000Y-94153237D01*
X105495000Y-94153237D02*
X105399761Y-94248475D01*
X105399761Y-94248475D02*
X105304523Y-94296094D01*
X105304523Y-94296094D02*
X105114047Y-94343713D01*
X105114047Y-94343713D02*
X104971190Y-94343713D01*
X104971190Y-94343713D02*
X104780714Y-94296094D01*
X104780714Y-94296094D02*
X104685476Y-94248475D01*
X104685476Y-94248475D02*
X104590238Y-94153237D01*
X104590238Y-94153237D02*
X104542619Y-94010380D01*
X104542619Y-94010380D02*
X104542619Y-93915142D01*
X104542619Y-93915142D02*
X104590238Y-93772285D01*
X104590238Y-93772285D02*
X104637857Y-93724666D01*
X105542619Y-93248475D02*
X105542619Y-93057999D01*
X105542619Y-93057999D02*
X105495000Y-92962761D01*
X105495000Y-92962761D02*
X105447380Y-92915142D01*
X105447380Y-92915142D02*
X105304523Y-92819904D01*
X105304523Y-92819904D02*
X105114047Y-92772285D01*
X105114047Y-92772285D02*
X104733095Y-92772285D01*
X104733095Y-92772285D02*
X104637857Y-92819904D01*
X104637857Y-92819904D02*
X104590238Y-92867523D01*
X104590238Y-92867523D02*
X104542619Y-92962761D01*
X104542619Y-92962761D02*
X104542619Y-93153237D01*
X104542619Y-93153237D02*
X104590238Y-93248475D01*
X104590238Y-93248475D02*
X104637857Y-93296094D01*
X104637857Y-93296094D02*
X104733095Y-93343713D01*
X104733095Y-93343713D02*
X104971190Y-93343713D01*
X104971190Y-93343713D02*
X105066428Y-93296094D01*
X105066428Y-93296094D02*
X105114047Y-93248475D01*
X105114047Y-93248475D02*
X105161666Y-93153237D01*
X105161666Y-93153237D02*
X105161666Y-92962761D01*
X105161666Y-92962761D02*
X105114047Y-92867523D01*
X105114047Y-92867523D02*
X105066428Y-92819904D01*
X105066428Y-92819904D02*
X104971190Y-92772285D01*
X103923380Y-90898857D02*
X103971000Y-90946476D01*
X103971000Y-90946476D02*
X104018619Y-91089333D01*
X104018619Y-91089333D02*
X104018619Y-91184571D01*
X104018619Y-91184571D02*
X103971000Y-91327428D01*
X103971000Y-91327428D02*
X103875761Y-91422666D01*
X103875761Y-91422666D02*
X103780523Y-91470285D01*
X103780523Y-91470285D02*
X103590047Y-91517904D01*
X103590047Y-91517904D02*
X103447190Y-91517904D01*
X103447190Y-91517904D02*
X103256714Y-91470285D01*
X103256714Y-91470285D02*
X103161476Y-91422666D01*
X103161476Y-91422666D02*
X103066238Y-91327428D01*
X103066238Y-91327428D02*
X103018619Y-91184571D01*
X103018619Y-91184571D02*
X103018619Y-91089333D01*
X103018619Y-91089333D02*
X103066238Y-90946476D01*
X103066238Y-90946476D02*
X103113857Y-90898857D01*
X104018619Y-89946476D02*
X104018619Y-90517904D01*
X104018619Y-90232190D02*
X103018619Y-90232190D01*
X103018619Y-90232190D02*
X103161476Y-90327428D01*
X103161476Y-90327428D02*
X103256714Y-90422666D01*
X103256714Y-90422666D02*
X103304333Y-90517904D01*
X104018619Y-88994095D02*
X104018619Y-89565523D01*
X104018619Y-89279809D02*
X103018619Y-89279809D01*
X103018619Y-89279809D02*
X103161476Y-89375047D01*
X103161476Y-89375047D02*
X103256714Y-89470285D01*
X103256714Y-89470285D02*
X103304333Y-89565523D01*
X92872142Y-102727380D02*
X92824523Y-102775000D01*
X92824523Y-102775000D02*
X92681666Y-102822619D01*
X92681666Y-102822619D02*
X92586428Y-102822619D01*
X92586428Y-102822619D02*
X92443571Y-102775000D01*
X92443571Y-102775000D02*
X92348333Y-102679761D01*
X92348333Y-102679761D02*
X92300714Y-102584523D01*
X92300714Y-102584523D02*
X92253095Y-102394047D01*
X92253095Y-102394047D02*
X92253095Y-102251190D01*
X92253095Y-102251190D02*
X92300714Y-102060714D01*
X92300714Y-102060714D02*
X92348333Y-101965476D01*
X92348333Y-101965476D02*
X92443571Y-101870238D01*
X92443571Y-101870238D02*
X92586428Y-101822619D01*
X92586428Y-101822619D02*
X92681666Y-101822619D01*
X92681666Y-101822619D02*
X92824523Y-101870238D01*
X92824523Y-101870238D02*
X92872142Y-101917857D01*
X93824523Y-102822619D02*
X93253095Y-102822619D01*
X93538809Y-102822619D02*
X93538809Y-101822619D01*
X93538809Y-101822619D02*
X93443571Y-101965476D01*
X93443571Y-101965476D02*
X93348333Y-102060714D01*
X93348333Y-102060714D02*
X93253095Y-102108333D01*
X94681666Y-101822619D02*
X94491190Y-101822619D01*
X94491190Y-101822619D02*
X94395952Y-101870238D01*
X94395952Y-101870238D02*
X94348333Y-101917857D01*
X94348333Y-101917857D02*
X94253095Y-102060714D01*
X94253095Y-102060714D02*
X94205476Y-102251190D01*
X94205476Y-102251190D02*
X94205476Y-102632142D01*
X94205476Y-102632142D02*
X94253095Y-102727380D01*
X94253095Y-102727380D02*
X94300714Y-102775000D01*
X94300714Y-102775000D02*
X94395952Y-102822619D01*
X94395952Y-102822619D02*
X94586428Y-102822619D01*
X94586428Y-102822619D02*
X94681666Y-102775000D01*
X94681666Y-102775000D02*
X94729285Y-102727380D01*
X94729285Y-102727380D02*
X94776904Y-102632142D01*
X94776904Y-102632142D02*
X94776904Y-102394047D01*
X94776904Y-102394047D02*
X94729285Y-102298809D01*
X94729285Y-102298809D02*
X94681666Y-102251190D01*
X94681666Y-102251190D02*
X94586428Y-102203571D01*
X94586428Y-102203571D02*
X94395952Y-102203571D01*
X94395952Y-102203571D02*
X94300714Y-102251190D01*
X94300714Y-102251190D02*
X94253095Y-102298809D01*
X94253095Y-102298809D02*
X94205476Y-102394047D01*
X96277333Y-81987380D02*
X96229714Y-82035000D01*
X96229714Y-82035000D02*
X96086857Y-82082619D01*
X96086857Y-82082619D02*
X95991619Y-82082619D01*
X95991619Y-82082619D02*
X95848762Y-82035000D01*
X95848762Y-82035000D02*
X95753524Y-81939761D01*
X95753524Y-81939761D02*
X95705905Y-81844523D01*
X95705905Y-81844523D02*
X95658286Y-81654047D01*
X95658286Y-81654047D02*
X95658286Y-81511190D01*
X95658286Y-81511190D02*
X95705905Y-81320714D01*
X95705905Y-81320714D02*
X95753524Y-81225476D01*
X95753524Y-81225476D02*
X95848762Y-81130238D01*
X95848762Y-81130238D02*
X95991619Y-81082619D01*
X95991619Y-81082619D02*
X96086857Y-81082619D01*
X96086857Y-81082619D02*
X96229714Y-81130238D01*
X96229714Y-81130238D02*
X96277333Y-81177857D01*
X96610667Y-81082619D02*
X97229714Y-81082619D01*
X97229714Y-81082619D02*
X96896381Y-81463571D01*
X96896381Y-81463571D02*
X97039238Y-81463571D01*
X97039238Y-81463571D02*
X97134476Y-81511190D01*
X97134476Y-81511190D02*
X97182095Y-81558809D01*
X97182095Y-81558809D02*
X97229714Y-81654047D01*
X97229714Y-81654047D02*
X97229714Y-81892142D01*
X97229714Y-81892142D02*
X97182095Y-81987380D01*
X97182095Y-81987380D02*
X97134476Y-82035000D01*
X97134476Y-82035000D02*
X97039238Y-82082619D01*
X97039238Y-82082619D02*
X96753524Y-82082619D01*
X96753524Y-82082619D02*
X96658286Y-82035000D01*
X96658286Y-82035000D02*
X96610667Y-81987380D01*
X88778619Y-82294666D02*
X88302428Y-82627999D01*
X88778619Y-82866094D02*
X87778619Y-82866094D01*
X87778619Y-82866094D02*
X87778619Y-82485142D01*
X87778619Y-82485142D02*
X87826238Y-82389904D01*
X87826238Y-82389904D02*
X87873857Y-82342285D01*
X87873857Y-82342285D02*
X87969095Y-82294666D01*
X87969095Y-82294666D02*
X88111952Y-82294666D01*
X88111952Y-82294666D02*
X88207190Y-82342285D01*
X88207190Y-82342285D02*
X88254809Y-82389904D01*
X88254809Y-82389904D02*
X88302428Y-82485142D01*
X88302428Y-82485142D02*
X88302428Y-82866094D01*
X88778619Y-81342285D02*
X88778619Y-81913713D01*
X88778619Y-81627999D02*
X87778619Y-81627999D01*
X87778619Y-81627999D02*
X87921476Y-81723237D01*
X87921476Y-81723237D02*
X88016714Y-81818475D01*
X88016714Y-81818475D02*
X88064333Y-81913713D01*
X122526666Y-71132619D02*
X122526666Y-71846904D01*
X122526666Y-71846904D02*
X122479047Y-71989761D01*
X122479047Y-71989761D02*
X122383809Y-72085000D01*
X122383809Y-72085000D02*
X122240952Y-72132619D01*
X122240952Y-72132619D02*
X122145714Y-72132619D01*
X123431428Y-71465952D02*
X123431428Y-72132619D01*
X123193333Y-71085000D02*
X122955238Y-71799285D01*
X122955238Y-71799285D02*
X123574285Y-71799285D01*
X111962619Y-83611904D02*
X112772142Y-83611904D01*
X112772142Y-83611904D02*
X112867380Y-83564285D01*
X112867380Y-83564285D02*
X112915000Y-83516666D01*
X112915000Y-83516666D02*
X112962619Y-83421428D01*
X112962619Y-83421428D02*
X112962619Y-83230952D01*
X112962619Y-83230952D02*
X112915000Y-83135714D01*
X112915000Y-83135714D02*
X112867380Y-83088095D01*
X112867380Y-83088095D02*
X112772142Y-83040476D01*
X112772142Y-83040476D02*
X111962619Y-83040476D01*
X112962619Y-82040476D02*
X112962619Y-82611904D01*
X112962619Y-82326190D02*
X111962619Y-82326190D01*
X111962619Y-82326190D02*
X112105476Y-82421428D01*
X112105476Y-82421428D02*
X112200714Y-82516666D01*
X112200714Y-82516666D02*
X112248333Y-82611904D01*
X92288095Y-83177619D02*
X92288095Y-83987142D01*
X92288095Y-83987142D02*
X92335714Y-84082380D01*
X92335714Y-84082380D02*
X92383333Y-84130000D01*
X92383333Y-84130000D02*
X92478571Y-84177619D01*
X92478571Y-84177619D02*
X92669047Y-84177619D01*
X92669047Y-84177619D02*
X92764285Y-84130000D01*
X92764285Y-84130000D02*
X92811904Y-84082380D01*
X92811904Y-84082380D02*
X92859523Y-83987142D01*
X92859523Y-83987142D02*
X92859523Y-83177619D01*
X93288095Y-83272857D02*
X93335714Y-83225238D01*
X93335714Y-83225238D02*
X93430952Y-83177619D01*
X93430952Y-83177619D02*
X93669047Y-83177619D01*
X93669047Y-83177619D02*
X93764285Y-83225238D01*
X93764285Y-83225238D02*
X93811904Y-83272857D01*
X93811904Y-83272857D02*
X93859523Y-83368095D01*
X93859523Y-83368095D02*
X93859523Y-83463333D01*
X93859523Y-83463333D02*
X93811904Y-83606190D01*
X93811904Y-83606190D02*
X93240476Y-84177619D01*
X93240476Y-84177619D02*
X93859523Y-84177619D01*
X101897142Y-109927380D02*
X101849523Y-109975000D01*
X101849523Y-109975000D02*
X101706666Y-110022619D01*
X101706666Y-110022619D02*
X101611428Y-110022619D01*
X101611428Y-110022619D02*
X101468571Y-109975000D01*
X101468571Y-109975000D02*
X101373333Y-109879761D01*
X101373333Y-109879761D02*
X101325714Y-109784523D01*
X101325714Y-109784523D02*
X101278095Y-109594047D01*
X101278095Y-109594047D02*
X101278095Y-109451190D01*
X101278095Y-109451190D02*
X101325714Y-109260714D01*
X101325714Y-109260714D02*
X101373333Y-109165476D01*
X101373333Y-109165476D02*
X101468571Y-109070238D01*
X101468571Y-109070238D02*
X101611428Y-109022619D01*
X101611428Y-109022619D02*
X101706666Y-109022619D01*
X101706666Y-109022619D02*
X101849523Y-109070238D01*
X101849523Y-109070238D02*
X101897142Y-109117857D01*
X102849523Y-110022619D02*
X102278095Y-110022619D01*
X102563809Y-110022619D02*
X102563809Y-109022619D01*
X102563809Y-109022619D02*
X102468571Y-109165476D01*
X102468571Y-109165476D02*
X102373333Y-109260714D01*
X102373333Y-109260714D02*
X102278095Y-109308333D01*
X103706666Y-109355952D02*
X103706666Y-110022619D01*
X103468571Y-108975000D02*
X103230476Y-109689285D01*
X103230476Y-109689285D02*
X103849523Y-109689285D01*
X92842619Y-82294666D02*
X92366428Y-82627999D01*
X92842619Y-82866094D02*
X91842619Y-82866094D01*
X91842619Y-82866094D02*
X91842619Y-82485142D01*
X91842619Y-82485142D02*
X91890238Y-82389904D01*
X91890238Y-82389904D02*
X91937857Y-82342285D01*
X91937857Y-82342285D02*
X92033095Y-82294666D01*
X92033095Y-82294666D02*
X92175952Y-82294666D01*
X92175952Y-82294666D02*
X92271190Y-82342285D01*
X92271190Y-82342285D02*
X92318809Y-82389904D01*
X92318809Y-82389904D02*
X92366428Y-82485142D01*
X92366428Y-82485142D02*
X92366428Y-82866094D01*
X91937857Y-81913713D02*
X91890238Y-81866094D01*
X91890238Y-81866094D02*
X91842619Y-81770856D01*
X91842619Y-81770856D02*
X91842619Y-81532761D01*
X91842619Y-81532761D02*
X91890238Y-81437523D01*
X91890238Y-81437523D02*
X91937857Y-81389904D01*
X91937857Y-81389904D02*
X92033095Y-81342285D01*
X92033095Y-81342285D02*
X92128333Y-81342285D01*
X92128333Y-81342285D02*
X92271190Y-81389904D01*
X92271190Y-81389904D02*
X92842619Y-81961332D01*
X92842619Y-81961332D02*
X92842619Y-81342285D01*
X100367380Y-89882857D02*
X100415000Y-89930476D01*
X100415000Y-89930476D02*
X100462619Y-90073333D01*
X100462619Y-90073333D02*
X100462619Y-90168571D01*
X100462619Y-90168571D02*
X100415000Y-90311428D01*
X100415000Y-90311428D02*
X100319761Y-90406666D01*
X100319761Y-90406666D02*
X100224523Y-90454285D01*
X100224523Y-90454285D02*
X100034047Y-90501904D01*
X100034047Y-90501904D02*
X99891190Y-90501904D01*
X99891190Y-90501904D02*
X99700714Y-90454285D01*
X99700714Y-90454285D02*
X99605476Y-90406666D01*
X99605476Y-90406666D02*
X99510238Y-90311428D01*
X99510238Y-90311428D02*
X99462619Y-90168571D01*
X99462619Y-90168571D02*
X99462619Y-90073333D01*
X99462619Y-90073333D02*
X99510238Y-89930476D01*
X99510238Y-89930476D02*
X99557857Y-89882857D01*
X100462619Y-88930476D02*
X100462619Y-89501904D01*
X100462619Y-89216190D02*
X99462619Y-89216190D01*
X99462619Y-89216190D02*
X99605476Y-89311428D01*
X99605476Y-89311428D02*
X99700714Y-89406666D01*
X99700714Y-89406666D02*
X99748333Y-89501904D01*
X99462619Y-88311428D02*
X99462619Y-88216190D01*
X99462619Y-88216190D02*
X99510238Y-88120952D01*
X99510238Y-88120952D02*
X99557857Y-88073333D01*
X99557857Y-88073333D02*
X99653095Y-88025714D01*
X99653095Y-88025714D02*
X99843571Y-87978095D01*
X99843571Y-87978095D02*
X100081666Y-87978095D01*
X100081666Y-87978095D02*
X100272142Y-88025714D01*
X100272142Y-88025714D02*
X100367380Y-88073333D01*
X100367380Y-88073333D02*
X100415000Y-88120952D01*
X100415000Y-88120952D02*
X100462619Y-88216190D01*
X100462619Y-88216190D02*
X100462619Y-88311428D01*
X100462619Y-88311428D02*
X100415000Y-88406666D01*
X100415000Y-88406666D02*
X100367380Y-88454285D01*
X100367380Y-88454285D02*
X100272142Y-88501904D01*
X100272142Y-88501904D02*
X100081666Y-88549523D01*
X100081666Y-88549523D02*
X99843571Y-88549523D01*
X99843571Y-88549523D02*
X99653095Y-88501904D01*
X99653095Y-88501904D02*
X99557857Y-88454285D01*
X99557857Y-88454285D02*
X99510238Y-88406666D01*
X99510238Y-88406666D02*
X99462619Y-88311428D01*
X106437333Y-102815380D02*
X106389714Y-102863000D01*
X106389714Y-102863000D02*
X106246857Y-102910619D01*
X106246857Y-102910619D02*
X106151619Y-102910619D01*
X106151619Y-102910619D02*
X106008762Y-102863000D01*
X106008762Y-102863000D02*
X105913524Y-102767761D01*
X105913524Y-102767761D02*
X105865905Y-102672523D01*
X105865905Y-102672523D02*
X105818286Y-102482047D01*
X105818286Y-102482047D02*
X105818286Y-102339190D01*
X105818286Y-102339190D02*
X105865905Y-102148714D01*
X105865905Y-102148714D02*
X105913524Y-102053476D01*
X105913524Y-102053476D02*
X106008762Y-101958238D01*
X106008762Y-101958238D02*
X106151619Y-101910619D01*
X106151619Y-101910619D02*
X106246857Y-101910619D01*
X106246857Y-101910619D02*
X106389714Y-101958238D01*
X106389714Y-101958238D02*
X106437333Y-102005857D01*
X106770667Y-101910619D02*
X107437333Y-101910619D01*
X107437333Y-101910619D02*
X107008762Y-102910619D01*
X99859380Y-105408666D02*
X99907000Y-105456285D01*
X99907000Y-105456285D02*
X99954619Y-105599142D01*
X99954619Y-105599142D02*
X99954619Y-105694380D01*
X99954619Y-105694380D02*
X99907000Y-105837237D01*
X99907000Y-105837237D02*
X99811761Y-105932475D01*
X99811761Y-105932475D02*
X99716523Y-105980094D01*
X99716523Y-105980094D02*
X99526047Y-106027713D01*
X99526047Y-106027713D02*
X99383190Y-106027713D01*
X99383190Y-106027713D02*
X99192714Y-105980094D01*
X99192714Y-105980094D02*
X99097476Y-105932475D01*
X99097476Y-105932475D02*
X99002238Y-105837237D01*
X99002238Y-105837237D02*
X98954619Y-105694380D01*
X98954619Y-105694380D02*
X98954619Y-105599142D01*
X98954619Y-105599142D02*
X99002238Y-105456285D01*
X99002238Y-105456285D02*
X99049857Y-105408666D01*
X98954619Y-104551523D02*
X98954619Y-104741999D01*
X98954619Y-104741999D02*
X99002238Y-104837237D01*
X99002238Y-104837237D02*
X99049857Y-104884856D01*
X99049857Y-104884856D02*
X99192714Y-104980094D01*
X99192714Y-104980094D02*
X99383190Y-105027713D01*
X99383190Y-105027713D02*
X99764142Y-105027713D01*
X99764142Y-105027713D02*
X99859380Y-104980094D01*
X99859380Y-104980094D02*
X99907000Y-104932475D01*
X99907000Y-104932475D02*
X99954619Y-104837237D01*
X99954619Y-104837237D02*
X99954619Y-104646761D01*
X99954619Y-104646761D02*
X99907000Y-104551523D01*
X99907000Y-104551523D02*
X99859380Y-104503904D01*
X99859380Y-104503904D02*
X99764142Y-104456285D01*
X99764142Y-104456285D02*
X99526047Y-104456285D01*
X99526047Y-104456285D02*
X99430809Y-104503904D01*
X99430809Y-104503904D02*
X99383190Y-104551523D01*
X99383190Y-104551523D02*
X99335571Y-104646761D01*
X99335571Y-104646761D02*
X99335571Y-104837237D01*
X99335571Y-104837237D02*
X99383190Y-104932475D01*
X99383190Y-104932475D02*
X99430809Y-104980094D01*
X99430809Y-104980094D02*
X99526047Y-105027713D01*
X101478619Y-91692666D02*
X101002428Y-92025999D01*
X101478619Y-92264094D02*
X100478619Y-92264094D01*
X100478619Y-92264094D02*
X100478619Y-91883142D01*
X100478619Y-91883142D02*
X100526238Y-91787904D01*
X100526238Y-91787904D02*
X100573857Y-91740285D01*
X100573857Y-91740285D02*
X100669095Y-91692666D01*
X100669095Y-91692666D02*
X100811952Y-91692666D01*
X100811952Y-91692666D02*
X100907190Y-91740285D01*
X100907190Y-91740285D02*
X100954809Y-91787904D01*
X100954809Y-91787904D02*
X101002428Y-91883142D01*
X101002428Y-91883142D02*
X101002428Y-92264094D01*
X100478619Y-91359332D02*
X100478619Y-90740285D01*
X100478619Y-90740285D02*
X100859571Y-91073618D01*
X100859571Y-91073618D02*
X100859571Y-90930761D01*
X100859571Y-90930761D02*
X100907190Y-90835523D01*
X100907190Y-90835523D02*
X100954809Y-90787904D01*
X100954809Y-90787904D02*
X101050047Y-90740285D01*
X101050047Y-90740285D02*
X101288142Y-90740285D01*
X101288142Y-90740285D02*
X101383380Y-90787904D01*
X101383380Y-90787904D02*
X101431000Y-90835523D01*
X101431000Y-90835523D02*
X101478619Y-90930761D01*
X101478619Y-90930761D02*
X101478619Y-91216475D01*
X101478619Y-91216475D02*
X101431000Y-91311713D01*
X101431000Y-91311713D02*
X101383380Y-91359332D01*
X103161380Y-107154857D02*
X103209000Y-107202476D01*
X103209000Y-107202476D02*
X103256619Y-107345333D01*
X103256619Y-107345333D02*
X103256619Y-107440571D01*
X103256619Y-107440571D02*
X103209000Y-107583428D01*
X103209000Y-107583428D02*
X103113761Y-107678666D01*
X103113761Y-107678666D02*
X103018523Y-107726285D01*
X103018523Y-107726285D02*
X102828047Y-107773904D01*
X102828047Y-107773904D02*
X102685190Y-107773904D01*
X102685190Y-107773904D02*
X102494714Y-107726285D01*
X102494714Y-107726285D02*
X102399476Y-107678666D01*
X102399476Y-107678666D02*
X102304238Y-107583428D01*
X102304238Y-107583428D02*
X102256619Y-107440571D01*
X102256619Y-107440571D02*
X102256619Y-107345333D01*
X102256619Y-107345333D02*
X102304238Y-107202476D01*
X102304238Y-107202476D02*
X102351857Y-107154857D01*
X103256619Y-106202476D02*
X103256619Y-106773904D01*
X103256619Y-106488190D02*
X102256619Y-106488190D01*
X102256619Y-106488190D02*
X102399476Y-106583428D01*
X102399476Y-106583428D02*
X102494714Y-106678666D01*
X102494714Y-106678666D02*
X102542333Y-106773904D01*
X102351857Y-105821523D02*
X102304238Y-105773904D01*
X102304238Y-105773904D02*
X102256619Y-105678666D01*
X102256619Y-105678666D02*
X102256619Y-105440571D01*
X102256619Y-105440571D02*
X102304238Y-105345333D01*
X102304238Y-105345333D02*
X102351857Y-105297714D01*
X102351857Y-105297714D02*
X102447095Y-105250095D01*
X102447095Y-105250095D02*
X102542333Y-105250095D01*
X102542333Y-105250095D02*
X102685190Y-105297714D01*
X102685190Y-105297714D02*
X103256619Y-105869142D01*
X103256619Y-105869142D02*
X103256619Y-105250095D01*
X107770833Y-75187380D02*
X107723214Y-75235000D01*
X107723214Y-75235000D02*
X107580357Y-75282619D01*
X107580357Y-75282619D02*
X107485119Y-75282619D01*
X107485119Y-75282619D02*
X107342262Y-75235000D01*
X107342262Y-75235000D02*
X107247024Y-75139761D01*
X107247024Y-75139761D02*
X107199405Y-75044523D01*
X107199405Y-75044523D02*
X107151786Y-74854047D01*
X107151786Y-74854047D02*
X107151786Y-74711190D01*
X107151786Y-74711190D02*
X107199405Y-74520714D01*
X107199405Y-74520714D02*
X107247024Y-74425476D01*
X107247024Y-74425476D02*
X107342262Y-74330238D01*
X107342262Y-74330238D02*
X107485119Y-74282619D01*
X107485119Y-74282619D02*
X107580357Y-74282619D01*
X107580357Y-74282619D02*
X107723214Y-74330238D01*
X107723214Y-74330238D02*
X107770833Y-74377857D01*
X108151786Y-74377857D02*
X108199405Y-74330238D01*
X108199405Y-74330238D02*
X108294643Y-74282619D01*
X108294643Y-74282619D02*
X108532738Y-74282619D01*
X108532738Y-74282619D02*
X108627976Y-74330238D01*
X108627976Y-74330238D02*
X108675595Y-74377857D01*
X108675595Y-74377857D02*
X108723214Y-74473095D01*
X108723214Y-74473095D02*
X108723214Y-74568333D01*
X108723214Y-74568333D02*
X108675595Y-74711190D01*
X108675595Y-74711190D02*
X108104167Y-75282619D01*
X108104167Y-75282619D02*
X108723214Y-75282619D01*
X93229333Y-95957380D02*
X93181714Y-96005000D01*
X93181714Y-96005000D02*
X93038857Y-96052619D01*
X93038857Y-96052619D02*
X92943619Y-96052619D01*
X92943619Y-96052619D02*
X92800762Y-96005000D01*
X92800762Y-96005000D02*
X92705524Y-95909761D01*
X92705524Y-95909761D02*
X92657905Y-95814523D01*
X92657905Y-95814523D02*
X92610286Y-95624047D01*
X92610286Y-95624047D02*
X92610286Y-95481190D01*
X92610286Y-95481190D02*
X92657905Y-95290714D01*
X92657905Y-95290714D02*
X92705524Y-95195476D01*
X92705524Y-95195476D02*
X92800762Y-95100238D01*
X92800762Y-95100238D02*
X92943619Y-95052619D01*
X92943619Y-95052619D02*
X93038857Y-95052619D01*
X93038857Y-95052619D02*
X93181714Y-95100238D01*
X93181714Y-95100238D02*
X93229333Y-95147857D01*
X93800762Y-95481190D02*
X93705524Y-95433571D01*
X93705524Y-95433571D02*
X93657905Y-95385952D01*
X93657905Y-95385952D02*
X93610286Y-95290714D01*
X93610286Y-95290714D02*
X93610286Y-95243095D01*
X93610286Y-95243095D02*
X93657905Y-95147857D01*
X93657905Y-95147857D02*
X93705524Y-95100238D01*
X93705524Y-95100238D02*
X93800762Y-95052619D01*
X93800762Y-95052619D02*
X93991238Y-95052619D01*
X93991238Y-95052619D02*
X94086476Y-95100238D01*
X94086476Y-95100238D02*
X94134095Y-95147857D01*
X94134095Y-95147857D02*
X94181714Y-95243095D01*
X94181714Y-95243095D02*
X94181714Y-95290714D01*
X94181714Y-95290714D02*
X94134095Y-95385952D01*
X94134095Y-95385952D02*
X94086476Y-95433571D01*
X94086476Y-95433571D02*
X93991238Y-95481190D01*
X93991238Y-95481190D02*
X93800762Y-95481190D01*
X93800762Y-95481190D02*
X93705524Y-95528809D01*
X93705524Y-95528809D02*
X93657905Y-95576428D01*
X93657905Y-95576428D02*
X93610286Y-95671666D01*
X93610286Y-95671666D02*
X93610286Y-95862142D01*
X93610286Y-95862142D02*
X93657905Y-95957380D01*
X93657905Y-95957380D02*
X93705524Y-96005000D01*
X93705524Y-96005000D02*
X93800762Y-96052619D01*
X93800762Y-96052619D02*
X93991238Y-96052619D01*
X93991238Y-96052619D02*
X94086476Y-96005000D01*
X94086476Y-96005000D02*
X94134095Y-95957380D01*
X94134095Y-95957380D02*
X94181714Y-95862142D01*
X94181714Y-95862142D02*
X94181714Y-95671666D01*
X94181714Y-95671666D02*
X94134095Y-95576428D01*
X94134095Y-95576428D02*
X94086476Y-95528809D01*
X94086476Y-95528809D02*
X93991238Y-95481190D01*
X106318333Y-93807380D02*
X106270714Y-93855000D01*
X106270714Y-93855000D02*
X106127857Y-93902619D01*
X106127857Y-93902619D02*
X106032619Y-93902619D01*
X106032619Y-93902619D02*
X105889762Y-93855000D01*
X105889762Y-93855000D02*
X105794524Y-93759761D01*
X105794524Y-93759761D02*
X105746905Y-93664523D01*
X105746905Y-93664523D02*
X105699286Y-93474047D01*
X105699286Y-93474047D02*
X105699286Y-93331190D01*
X105699286Y-93331190D02*
X105746905Y-93140714D01*
X105746905Y-93140714D02*
X105794524Y-93045476D01*
X105794524Y-93045476D02*
X105889762Y-92950238D01*
X105889762Y-92950238D02*
X106032619Y-92902619D01*
X106032619Y-92902619D02*
X106127857Y-92902619D01*
X106127857Y-92902619D02*
X106270714Y-92950238D01*
X106270714Y-92950238D02*
X106318333Y-92997857D01*
X107175476Y-93235952D02*
X107175476Y-93902619D01*
X106937381Y-92855000D02*
X106699286Y-93569285D01*
X106699286Y-93569285D02*
X107318333Y-93569285D01*
X99238095Y-94642619D02*
X99238095Y-95452142D01*
X99238095Y-95452142D02*
X99285714Y-95547380D01*
X99285714Y-95547380D02*
X99333333Y-95595000D01*
X99333333Y-95595000D02*
X99428571Y-95642619D01*
X99428571Y-95642619D02*
X99619047Y-95642619D01*
X99619047Y-95642619D02*
X99714285Y-95595000D01*
X99714285Y-95595000D02*
X99761904Y-95547380D01*
X99761904Y-95547380D02*
X99809523Y-95452142D01*
X99809523Y-95452142D02*
X99809523Y-94642619D01*
X100190476Y-94642619D02*
X100809523Y-94642619D01*
X100809523Y-94642619D02*
X100476190Y-95023571D01*
X100476190Y-95023571D02*
X100619047Y-95023571D01*
X100619047Y-95023571D02*
X100714285Y-95071190D01*
X100714285Y-95071190D02*
X100761904Y-95118809D01*
X100761904Y-95118809D02*
X100809523Y-95214047D01*
X100809523Y-95214047D02*
X100809523Y-95452142D01*
X100809523Y-95452142D02*
X100761904Y-95547380D01*
X100761904Y-95547380D02*
X100714285Y-95595000D01*
X100714285Y-95595000D02*
X100619047Y-95642619D01*
X100619047Y-95642619D02*
X100333333Y-95642619D01*
X100333333Y-95642619D02*
X100238095Y-95595000D01*
X100238095Y-95595000D02*
X100190476Y-95547380D01*
X92499142Y-109673380D02*
X92451523Y-109721000D01*
X92451523Y-109721000D02*
X92308666Y-109768619D01*
X92308666Y-109768619D02*
X92213428Y-109768619D01*
X92213428Y-109768619D02*
X92070571Y-109721000D01*
X92070571Y-109721000D02*
X91975333Y-109625761D01*
X91975333Y-109625761D02*
X91927714Y-109530523D01*
X91927714Y-109530523D02*
X91880095Y-109340047D01*
X91880095Y-109340047D02*
X91880095Y-109197190D01*
X91880095Y-109197190D02*
X91927714Y-109006714D01*
X91927714Y-109006714D02*
X91975333Y-108911476D01*
X91975333Y-108911476D02*
X92070571Y-108816238D01*
X92070571Y-108816238D02*
X92213428Y-108768619D01*
X92213428Y-108768619D02*
X92308666Y-108768619D01*
X92308666Y-108768619D02*
X92451523Y-108816238D01*
X92451523Y-108816238D02*
X92499142Y-108863857D01*
X93451523Y-109768619D02*
X92880095Y-109768619D01*
X93165809Y-109768619D02*
X93165809Y-108768619D01*
X93165809Y-108768619D02*
X93070571Y-108911476D01*
X93070571Y-108911476D02*
X92975333Y-109006714D01*
X92975333Y-109006714D02*
X92880095Y-109054333D01*
X94356285Y-108768619D02*
X93880095Y-108768619D01*
X93880095Y-108768619D02*
X93832476Y-109244809D01*
X93832476Y-109244809D02*
X93880095Y-109197190D01*
X93880095Y-109197190D02*
X93975333Y-109149571D01*
X93975333Y-109149571D02*
X94213428Y-109149571D01*
X94213428Y-109149571D02*
X94308666Y-109197190D01*
X94308666Y-109197190D02*
X94356285Y-109244809D01*
X94356285Y-109244809D02*
X94403904Y-109340047D01*
X94403904Y-109340047D02*
X94403904Y-109578142D01*
X94403904Y-109578142D02*
X94356285Y-109673380D01*
X94356285Y-109673380D02*
X94308666Y-109721000D01*
X94308666Y-109721000D02*
X94213428Y-109768619D01*
X94213428Y-109768619D02*
X93975333Y-109768619D01*
X93975333Y-109768619D02*
X93880095Y-109721000D01*
X93880095Y-109721000D02*
X93832476Y-109673380D01*
X113208095Y-77256619D02*
X113208095Y-76256619D01*
X113208095Y-76732809D02*
X113779523Y-76732809D01*
X113779523Y-77256619D02*
X113779523Y-76256619D01*
X114208095Y-76351857D02*
X114255714Y-76304238D01*
X114255714Y-76304238D02*
X114350952Y-76256619D01*
X114350952Y-76256619D02*
X114589047Y-76256619D01*
X114589047Y-76256619D02*
X114684285Y-76304238D01*
X114684285Y-76304238D02*
X114731904Y-76351857D01*
X114731904Y-76351857D02*
X114779523Y-76447095D01*
X114779523Y-76447095D02*
X114779523Y-76542333D01*
X114779523Y-76542333D02*
X114731904Y-76685190D01*
X114731904Y-76685190D02*
X114160476Y-77256619D01*
X114160476Y-77256619D02*
X114779523Y-77256619D01*
X102748619Y-91946666D02*
X102272428Y-92279999D01*
X102748619Y-92518094D02*
X101748619Y-92518094D01*
X101748619Y-92518094D02*
X101748619Y-92137142D01*
X101748619Y-92137142D02*
X101796238Y-92041904D01*
X101796238Y-92041904D02*
X101843857Y-91994285D01*
X101843857Y-91994285D02*
X101939095Y-91946666D01*
X101939095Y-91946666D02*
X102081952Y-91946666D01*
X102081952Y-91946666D02*
X102177190Y-91994285D01*
X102177190Y-91994285D02*
X102224809Y-92041904D01*
X102224809Y-92041904D02*
X102272428Y-92137142D01*
X102272428Y-92137142D02*
X102272428Y-92518094D01*
X102081952Y-91089523D02*
X102748619Y-91089523D01*
X101701000Y-91327618D02*
X102415285Y-91565713D01*
X102415285Y-91565713D02*
X102415285Y-90946666D01*
X113208095Y-113942619D02*
X113208095Y-112942619D01*
X113208095Y-113418809D02*
X113779523Y-113418809D01*
X113779523Y-113942619D02*
X113779523Y-112942619D01*
X114684285Y-113275952D02*
X114684285Y-113942619D01*
X114446190Y-112895000D02*
X114208095Y-113609285D01*
X114208095Y-113609285D02*
X114827142Y-113609285D01*
X98081380Y-92930857D02*
X98129000Y-92978476D01*
X98129000Y-92978476D02*
X98176619Y-93121333D01*
X98176619Y-93121333D02*
X98176619Y-93216571D01*
X98176619Y-93216571D02*
X98129000Y-93359428D01*
X98129000Y-93359428D02*
X98033761Y-93454666D01*
X98033761Y-93454666D02*
X97938523Y-93502285D01*
X97938523Y-93502285D02*
X97748047Y-93549904D01*
X97748047Y-93549904D02*
X97605190Y-93549904D01*
X97605190Y-93549904D02*
X97414714Y-93502285D01*
X97414714Y-93502285D02*
X97319476Y-93454666D01*
X97319476Y-93454666D02*
X97224238Y-93359428D01*
X97224238Y-93359428D02*
X97176619Y-93216571D01*
X97176619Y-93216571D02*
X97176619Y-93121333D01*
X97176619Y-93121333D02*
X97224238Y-92978476D01*
X97224238Y-92978476D02*
X97271857Y-92930857D01*
X98176619Y-91978476D02*
X98176619Y-92549904D01*
X98176619Y-92264190D02*
X97176619Y-92264190D01*
X97176619Y-92264190D02*
X97319476Y-92359428D01*
X97319476Y-92359428D02*
X97414714Y-92454666D01*
X97414714Y-92454666D02*
X97462333Y-92549904D01*
X97176619Y-91645142D02*
X97176619Y-91026095D01*
X97176619Y-91026095D02*
X97557571Y-91359428D01*
X97557571Y-91359428D02*
X97557571Y-91216571D01*
X97557571Y-91216571D02*
X97605190Y-91121333D01*
X97605190Y-91121333D02*
X97652809Y-91073714D01*
X97652809Y-91073714D02*
X97748047Y-91026095D01*
X97748047Y-91026095D02*
X97986142Y-91026095D01*
X97986142Y-91026095D02*
X98081380Y-91073714D01*
X98081380Y-91073714D02*
X98129000Y-91121333D01*
X98129000Y-91121333D02*
X98176619Y-91216571D01*
X98176619Y-91216571D02*
X98176619Y-91502285D01*
X98176619Y-91502285D02*
X98129000Y-91597523D01*
X98129000Y-91597523D02*
X98081380Y-91645142D01*
X106318333Y-95207380D02*
X106270714Y-95255000D01*
X106270714Y-95255000D02*
X106127857Y-95302619D01*
X106127857Y-95302619D02*
X106032619Y-95302619D01*
X106032619Y-95302619D02*
X105889762Y-95255000D01*
X105889762Y-95255000D02*
X105794524Y-95159761D01*
X105794524Y-95159761D02*
X105746905Y-95064523D01*
X105746905Y-95064523D02*
X105699286Y-94874047D01*
X105699286Y-94874047D02*
X105699286Y-94731190D01*
X105699286Y-94731190D02*
X105746905Y-94540714D01*
X105746905Y-94540714D02*
X105794524Y-94445476D01*
X105794524Y-94445476D02*
X105889762Y-94350238D01*
X105889762Y-94350238D02*
X106032619Y-94302619D01*
X106032619Y-94302619D02*
X106127857Y-94302619D01*
X106127857Y-94302619D02*
X106270714Y-94350238D01*
X106270714Y-94350238D02*
X106318333Y-94397857D01*
X107223095Y-94302619D02*
X106746905Y-94302619D01*
X106746905Y-94302619D02*
X106699286Y-94778809D01*
X106699286Y-94778809D02*
X106746905Y-94731190D01*
X106746905Y-94731190D02*
X106842143Y-94683571D01*
X106842143Y-94683571D02*
X107080238Y-94683571D01*
X107080238Y-94683571D02*
X107175476Y-94731190D01*
X107175476Y-94731190D02*
X107223095Y-94778809D01*
X107223095Y-94778809D02*
X107270714Y-94874047D01*
X107270714Y-94874047D02*
X107270714Y-95112142D01*
X107270714Y-95112142D02*
X107223095Y-95207380D01*
X107223095Y-95207380D02*
X107175476Y-95255000D01*
X107175476Y-95255000D02*
X107080238Y-95302619D01*
X107080238Y-95302619D02*
X106842143Y-95302619D01*
X106842143Y-95302619D02*
X106746905Y-95255000D01*
X106746905Y-95255000D02*
X106699286Y-95207380D01*
X98430619Y-105408666D02*
X97954428Y-105741999D01*
X98430619Y-105980094D02*
X97430619Y-105980094D01*
X97430619Y-105980094D02*
X97430619Y-105599142D01*
X97430619Y-105599142D02*
X97478238Y-105503904D01*
X97478238Y-105503904D02*
X97525857Y-105456285D01*
X97525857Y-105456285D02*
X97621095Y-105408666D01*
X97621095Y-105408666D02*
X97763952Y-105408666D01*
X97763952Y-105408666D02*
X97859190Y-105456285D01*
X97859190Y-105456285D02*
X97906809Y-105503904D01*
X97906809Y-105503904D02*
X97954428Y-105599142D01*
X97954428Y-105599142D02*
X97954428Y-105980094D01*
X97430619Y-104503904D02*
X97430619Y-104980094D01*
X97430619Y-104980094D02*
X97906809Y-105027713D01*
X97906809Y-105027713D02*
X97859190Y-104980094D01*
X97859190Y-104980094D02*
X97811571Y-104884856D01*
X97811571Y-104884856D02*
X97811571Y-104646761D01*
X97811571Y-104646761D02*
X97859190Y-104551523D01*
X97859190Y-104551523D02*
X97906809Y-104503904D01*
X97906809Y-104503904D02*
X98002047Y-104456285D01*
X98002047Y-104456285D02*
X98240142Y-104456285D01*
X98240142Y-104456285D02*
X98335380Y-104503904D01*
X98335380Y-104503904D02*
X98383000Y-104551523D01*
X98383000Y-104551523D02*
X98430619Y-104646761D01*
X98430619Y-104646761D02*
X98430619Y-104884856D01*
X98430619Y-104884856D02*
X98383000Y-104980094D01*
X98383000Y-104980094D02*
X98335380Y-105027713D01*
X85268095Y-71922619D02*
X85268095Y-70922619D01*
X85268095Y-71398809D02*
X85839523Y-71398809D01*
X85839523Y-71922619D02*
X85839523Y-70922619D01*
X86839523Y-71922619D02*
X86268095Y-71922619D01*
X86553809Y-71922619D02*
X86553809Y-70922619D01*
X86553809Y-70922619D02*
X86458571Y-71065476D01*
X86458571Y-71065476D02*
X86363333Y-71160714D01*
X86363333Y-71160714D02*
X86268095Y-71208333D01*
X85268095Y-113942619D02*
X85268095Y-112942619D01*
X85268095Y-113418809D02*
X85839523Y-113418809D01*
X85839523Y-113942619D02*
X85839523Y-112942619D01*
X86220476Y-112942619D02*
X86839523Y-112942619D01*
X86839523Y-112942619D02*
X86506190Y-113323571D01*
X86506190Y-113323571D02*
X86649047Y-113323571D01*
X86649047Y-113323571D02*
X86744285Y-113371190D01*
X86744285Y-113371190D02*
X86791904Y-113418809D01*
X86791904Y-113418809D02*
X86839523Y-113514047D01*
X86839523Y-113514047D02*
X86839523Y-113752142D01*
X86839523Y-113752142D02*
X86791904Y-113847380D01*
X86791904Y-113847380D02*
X86744285Y-113895000D01*
X86744285Y-113895000D02*
X86649047Y-113942619D01*
X86649047Y-113942619D02*
X86363333Y-113942619D01*
X86363333Y-113942619D02*
X86268095Y-113895000D01*
X86268095Y-113895000D02*
X86220476Y-113847380D01*
X97364809Y-114118428D02*
X97364809Y-114594619D01*
X97031476Y-113594619D02*
X97364809Y-114118428D01*
X97364809Y-114118428D02*
X97698142Y-113594619D01*
X98555285Y-114594619D02*
X97983857Y-114594619D01*
X98269571Y-114594619D02*
X98269571Y-113594619D01*
X98269571Y-113594619D02*
X98174333Y-113737476D01*
X98174333Y-113737476D02*
X98079095Y-113832714D01*
X98079095Y-113832714D02*
X97983857Y-113880333D01*
X84948333Y-76687380D02*
X84900714Y-76735000D01*
X84900714Y-76735000D02*
X84757857Y-76782619D01*
X84757857Y-76782619D02*
X84662619Y-76782619D01*
X84662619Y-76782619D02*
X84519762Y-76735000D01*
X84519762Y-76735000D02*
X84424524Y-76639761D01*
X84424524Y-76639761D02*
X84376905Y-76544523D01*
X84376905Y-76544523D02*
X84329286Y-76354047D01*
X84329286Y-76354047D02*
X84329286Y-76211190D01*
X84329286Y-76211190D02*
X84376905Y-76020714D01*
X84376905Y-76020714D02*
X84424524Y-75925476D01*
X84424524Y-75925476D02*
X84519762Y-75830238D01*
X84519762Y-75830238D02*
X84662619Y-75782619D01*
X84662619Y-75782619D02*
X84757857Y-75782619D01*
X84757857Y-75782619D02*
X84900714Y-75830238D01*
X84900714Y-75830238D02*
X84948333Y-75877857D01*
X85900714Y-76782619D02*
X85329286Y-76782619D01*
X85615000Y-76782619D02*
X85615000Y-75782619D01*
X85615000Y-75782619D02*
X85519762Y-75925476D01*
X85519762Y-75925476D02*
X85424524Y-76020714D01*
X85424524Y-76020714D02*
X85329286Y-76068333D01*
D12*
X108763748Y-88265000D02*
X109286252Y-88265000D01*
X108763748Y-89735000D02*
X109286252Y-89735000D01*
X104175000Y-72880000D02*
X104175000Y-74430000D01*
X104175000Y-72880000D02*
X103875000Y-72880000D01*
X103875000Y-70080000D02*
X103875000Y-72880000D01*
X101725000Y-76130000D02*
X100925000Y-76130000D01*
X101325000Y-75680000D02*
X101725000Y-76130000D01*
X100925000Y-76130000D02*
X101325000Y-75680000D01*
X96175000Y-72880000D02*
X95875000Y-72880000D01*
X96175000Y-70080000D02*
X96175000Y-72880000D01*
X95875000Y-72880000D02*
X95875000Y-74430000D01*
X92440000Y-77870000D02*
X91110000Y-77870000D01*
X92440000Y-76540000D02*
X92440000Y-77870000D01*
X92440000Y-75270000D02*
X92440000Y-72670000D01*
X92440000Y-75270000D02*
X89780000Y-75270000D01*
X92440000Y-72670000D02*
X89780000Y-72670000D01*
X89780000Y-75270000D02*
X89780000Y-72670000D01*
X74540000Y-72670000D02*
X75870000Y-72670000D01*
X74540000Y-74000000D02*
X74540000Y-72670000D01*
X74540000Y-75270000D02*
X74540000Y-118510000D01*
X74540000Y-75270000D02*
X77140000Y-75270000D01*
X74540000Y-118510000D02*
X79740000Y-118510000D01*
X77140000Y-72670000D02*
X79740000Y-72670000D01*
X77140000Y-75270000D02*
X77140000Y-72670000D01*
X79740000Y-72670000D02*
X79740000Y-118510000D01*
X103640000Y-93622836D02*
X103640000Y-93407164D01*
X104360000Y-93622836D02*
X104360000Y-93407164D01*
X102640000Y-93622836D02*
X102640000Y-93407164D01*
X103360000Y-93622836D02*
X103360000Y-93407164D01*
X93622836Y-101560000D02*
X93407164Y-101560000D01*
X93622836Y-100840000D02*
X93407164Y-100840000D01*
X96292836Y-83190000D02*
X96077164Y-83190000D01*
X96292836Y-82470000D02*
X96077164Y-82470000D01*
X89860000Y-82207164D02*
X89860000Y-82422836D01*
X89140000Y-82207164D02*
X89140000Y-82422836D01*
X120260000Y-72670000D02*
X121590000Y-72670000D01*
X120260000Y-74000000D02*
X120260000Y-72670000D01*
X120260000Y-75270000D02*
X120260000Y-118510000D01*
X120260000Y-75270000D02*
X122860000Y-75270000D01*
X120260000Y-118510000D02*
X125460000Y-118510000D01*
X122860000Y-72670000D02*
X125460000Y-72670000D01*
X122860000Y-75270000D02*
X122860000Y-72670000D01*
X125460000Y-72670000D02*
X125460000Y-118510000D01*
X111410000Y-78750000D02*
X111410000Y-84760000D01*
X104590000Y-81000000D02*
X104590000Y-84760000D01*
X111410000Y-84760000D02*
X110150000Y-84760000D01*
X104590000Y-84760000D02*
X105850000Y-84760000D01*
X90325000Y-84550000D02*
X90325000Y-84810000D01*
X90325000Y-84810000D02*
X88650000Y-84810000D01*
X90325000Y-90000000D02*
X90325000Y-89740000D01*
X93050000Y-84550000D02*
X90325000Y-84550000D01*
X93050000Y-84550000D02*
X95775000Y-84550000D01*
X93050000Y-90000000D02*
X90325000Y-90000000D01*
X93050000Y-90000000D02*
X95775000Y-90000000D01*
X95775000Y-84550000D02*
X95775000Y-84810000D01*
X95775000Y-90000000D02*
X95775000Y-89740000D01*
X99377164Y-108640000D02*
X99592836Y-108640000D01*
X99377164Y-109360000D02*
X99592836Y-109360000D01*
X90640000Y-82422836D02*
X90640000Y-82207164D01*
X91360000Y-82422836D02*
X91360000Y-82207164D01*
X99640000Y-92622836D02*
X99640000Y-92407164D01*
X100360000Y-92622836D02*
X100360000Y-92407164D01*
X106377164Y-100840000D02*
X106592836Y-100840000D01*
X106377164Y-101560000D02*
X106592836Y-101560000D01*
X100741000Y-106377164D02*
X100741000Y-106592836D01*
X100021000Y-106377164D02*
X100021000Y-106592836D01*
X101360000Y-93407164D02*
X101360000Y-93622836D01*
X100640000Y-93407164D02*
X100640000Y-93622836D01*
X101860000Y-106377164D02*
X101860000Y-106592836D01*
X101140000Y-106377164D02*
X101140000Y-106592836D01*
X107676248Y-75765000D02*
X108198752Y-75765000D01*
X107676248Y-77235000D02*
X108198752Y-77235000D01*
X93622836Y-97360000D02*
X93407164Y-97360000D01*
X93622836Y-96640000D02*
X93407164Y-96640000D01*
X106377164Y-94240000D02*
X106592836Y-94240000D01*
X106377164Y-94960000D02*
X106592836Y-94960000D01*
X96390000Y-103610000D02*
X96390000Y-102960000D01*
X97040000Y-96390000D02*
X96390000Y-96390000D01*
X97040000Y-103610000D02*
X96390000Y-103610000D01*
X102960000Y-96390000D02*
X103610000Y-96390000D01*
X102960000Y-103610000D02*
X103610000Y-103610000D01*
X103610000Y-96390000D02*
X103610000Y-97040000D01*
X103610000Y-103610000D02*
X103610000Y-102960000D01*
X96622836Y-109360000D02*
X96407164Y-109360000D01*
X96622836Y-108640000D02*
X96407164Y-108640000D01*
X102360000Y-93407164D02*
X102360000Y-93622836D01*
X101640000Y-93407164D02*
X101640000Y-93622836D01*
X98640000Y-92622836D02*
X98640000Y-92407164D01*
X99360000Y-92622836D02*
X99360000Y-92407164D01*
X106377164Y-95640000D02*
X106592836Y-95640000D01*
X106377164Y-96360000D02*
X106592836Y-96360000D01*
X99060000Y-107007164D02*
X99060000Y-107222836D01*
X98340000Y-107007164D02*
X98340000Y-107222836D01*
X91141000Y-110566000D02*
X91141000Y-111816000D01*
X91141000Y-114416000D02*
X91141000Y-115666000D01*
X91141000Y-115666000D02*
X103741000Y-115666000D01*
X103741000Y-110566000D02*
X91141000Y-110566000D01*
X84853748Y-77265000D02*
X85376252Y-77265000D01*
X84853748Y-78735000D02*
X85376252Y-78735000D01*
%LPC*%
D13*
X108075000Y-89000000D03*
X109975000Y-89000000D03*
D14*
X101300000Y-74525000D03*
X100650000Y-74525000D03*
X100000000Y-74525000D03*
X99350000Y-74525000D03*
X98700000Y-74525000D03*
D15*
X102987500Y-73400000D03*
D16*
X102900000Y-74730000D03*
D17*
X102725000Y-72125000D03*
D18*
X102725000Y-71700000D03*
D19*
X102425000Y-74730000D03*
D20*
X100962500Y-71450000D03*
X99037500Y-71450000D03*
D19*
X97575000Y-74730000D03*
D17*
X97275000Y-72125000D03*
D18*
X97275000Y-71700000D03*
D16*
X97100000Y-74730000D03*
D15*
X97012500Y-73400000D03*
D21*
X91110000Y-76540000D03*
D22*
X91110000Y-74000000D03*
D23*
X75870000Y-74000000D03*
D22*
X78410000Y-74000000D03*
X75870000Y-76540000D03*
X78410000Y-76540000D03*
X75870000Y-79080000D03*
X78410000Y-79080000D03*
X75870000Y-81620000D03*
X78410000Y-81620000D03*
X75870000Y-84160000D03*
X78410000Y-84160000D03*
X75870000Y-86700000D03*
X78410000Y-86700000D03*
X75870000Y-89240000D03*
X78410000Y-89240000D03*
X75870000Y-91780000D03*
X78410000Y-91780000D03*
X75870000Y-94320000D03*
X78410000Y-94320000D03*
X75870000Y-96860000D03*
X78410000Y-96860000D03*
X75870000Y-99400000D03*
X78410000Y-99400000D03*
X75870000Y-101940000D03*
X78410000Y-101940000D03*
X75870000Y-104480000D03*
X78410000Y-104480000D03*
X75870000Y-107020000D03*
X78410000Y-107020000D03*
X75870000Y-109560000D03*
X78410000Y-109560000D03*
X75870000Y-112100000D03*
X78410000Y-112100000D03*
X75870000Y-114640000D03*
X78410000Y-114640000D03*
X75870000Y-117180000D03*
X78410000Y-117180000D03*
D24*
X104000000Y-93995000D03*
X104000000Y-93035000D03*
X103000000Y-93995000D03*
X103000000Y-93035000D03*
D25*
X93995000Y-101200000D03*
X93035000Y-101200000D03*
X96665000Y-82830000D03*
X95705000Y-82830000D03*
D26*
X89500000Y-81835000D03*
X89500000Y-82795000D03*
D23*
X121590000Y-74000000D03*
D22*
X124130000Y-74000000D03*
X121590000Y-76540000D03*
X124130000Y-76540000D03*
X121590000Y-79080000D03*
X124130000Y-79080000D03*
X121590000Y-81620000D03*
X124130000Y-81620000D03*
X121590000Y-84160000D03*
X124130000Y-84160000D03*
X121590000Y-86700000D03*
X124130000Y-86700000D03*
X121590000Y-89240000D03*
X124130000Y-89240000D03*
X121590000Y-91780000D03*
X124130000Y-91780000D03*
X121590000Y-94320000D03*
X124130000Y-94320000D03*
X121590000Y-96860000D03*
X124130000Y-96860000D03*
X121590000Y-99400000D03*
X124130000Y-99400000D03*
X121590000Y-101940000D03*
X124130000Y-101940000D03*
X121590000Y-104480000D03*
X124130000Y-104480000D03*
X121590000Y-107020000D03*
X124130000Y-107020000D03*
X121590000Y-109560000D03*
X124130000Y-109560000D03*
X121590000Y-112100000D03*
X124130000Y-112100000D03*
X121590000Y-114640000D03*
X124130000Y-114640000D03*
X121590000Y-117180000D03*
X124130000Y-117180000D03*
D27*
X110300000Y-79700000D03*
X108000000Y-79700000D03*
D28*
X108000000Y-86000000D03*
D27*
X105700000Y-79700000D03*
D29*
X89450000Y-85370000D03*
X89450000Y-86640000D03*
X89450000Y-87910000D03*
X89450000Y-89180000D03*
X96650000Y-89180000D03*
X96650000Y-87910000D03*
X96650000Y-86640000D03*
X96650000Y-85370000D03*
D30*
X99005000Y-109000000D03*
X99965000Y-109000000D03*
D24*
X91000000Y-82795000D03*
X91000000Y-81835000D03*
X100000000Y-92995000D03*
X100000000Y-92035000D03*
D30*
X106005000Y-101200000D03*
X106965000Y-101200000D03*
D26*
X100381000Y-106005000D03*
X100381000Y-106965000D03*
X101000000Y-93035000D03*
X101000000Y-93995000D03*
X101500000Y-106005000D03*
X101500000Y-106965000D03*
D13*
X106987500Y-76500000D03*
X108887500Y-76500000D03*
D25*
X93995000Y-97000000D03*
X93035000Y-97000000D03*
D30*
X106005000Y-94600000D03*
X106965000Y-94600000D03*
D31*
X96562500Y-97400000D03*
X96562500Y-97800000D03*
X96562500Y-98200000D03*
X96562500Y-98600000D03*
X96562500Y-99000000D03*
X96562500Y-99400000D03*
X96562500Y-99800000D03*
X96562500Y-100200000D03*
X96562500Y-100600000D03*
X96562500Y-101000000D03*
X96562500Y-101400000D03*
X96562500Y-101800000D03*
X96562500Y-102200000D03*
X96562500Y-102600000D03*
D32*
X97400000Y-103437500D03*
X97800000Y-103437500D03*
X98200000Y-103437500D03*
X98600000Y-103437500D03*
X99000000Y-103437500D03*
X99400000Y-103437500D03*
X99800000Y-103437500D03*
X100200000Y-103437500D03*
X100600000Y-103437500D03*
X101000000Y-103437500D03*
X101400000Y-103437500D03*
X101800000Y-103437500D03*
X102200000Y-103437500D03*
X102600000Y-103437500D03*
D31*
X103437500Y-102600000D03*
X103437500Y-102200000D03*
X103437500Y-101800000D03*
X103437500Y-101400000D03*
X103437500Y-101000000D03*
X103437500Y-100600000D03*
X103437500Y-100200000D03*
X103437500Y-99800000D03*
X103437500Y-99400000D03*
X103437500Y-99000000D03*
X103437500Y-98600000D03*
X103437500Y-98200000D03*
X103437500Y-97800000D03*
X103437500Y-97400000D03*
D32*
X102600000Y-96562500D03*
X102200000Y-96562500D03*
X101800000Y-96562500D03*
X101400000Y-96562500D03*
X101000000Y-96562500D03*
X100600000Y-96562500D03*
X100200000Y-96562500D03*
X99800000Y-96562500D03*
X99400000Y-96562500D03*
X99000000Y-96562500D03*
X98600000Y-96562500D03*
X98200000Y-96562500D03*
X97800000Y-96562500D03*
X97400000Y-96562500D03*
D33*
X100000000Y-100000000D03*
D25*
X96995000Y-109000000D03*
X96035000Y-109000000D03*
D34*
X113970000Y-74000000D03*
D26*
X102000000Y-93035000D03*
X102000000Y-93995000D03*
D34*
X113970000Y-117180000D03*
D24*
X99000000Y-92995000D03*
X99000000Y-92035000D03*
D30*
X106005000Y-96000000D03*
X106965000Y-96000000D03*
D26*
X98700000Y-106635000D03*
X98700000Y-107595000D03*
D34*
X86030000Y-74000000D03*
X86030000Y-117180000D03*
D35*
X93341000Y-113116000D03*
X102341000Y-113116000D03*
D13*
X84165000Y-78000000D03*
X86065000Y-78000000D03*
M02*
