M48
; DRILL file {KiCad 7.0.1-0} date 2023 April 02, Sunday 19:03:57
; FORMAT={-:-/ absolute / metric / decimal}
; #@! TF.CreationDate,2023-04-02T19:03:57+10:00
; #@! TF.GenerationSoftware,Kicad,Pcbnew,7.0.1-0
; #@! TF.FileFunction,Plated,1,2,PTH
FMAT,2
METRIC
; #@! TA.AperFunction,Plated,PTH,ViaDrill
T1C0.350
; #@! TA.AperFunction,Plated,PTH,ComponentDrill
T2C0.350
; #@! TA.AperFunction,Plated,PTH,ComponentDrill
T3C0.650
; #@! TA.AperFunction,Plated,PTH,ComponentDrill
T4C0.700
; #@! TA.AperFunction,Plated,PTH,ComponentDrill
T5C1.000
%
G90
G05
T1
X86.19Y-79.4
X90.09Y-111.4
X90.09Y-114.7
X90.8Y-89.2
X92.0Y-97.0
X92.0Y-101.2
X94.7Y-82.8
X95.174Y-109.0
X95.4Y-73.3
X96.8Y-111.4
X97.079Y-106.829
X97.89Y-112.9
X98.7Y-76.0
X98.79Y-111.4
X99.0Y-91.2
X99.555Y-106.956
X99.8Y-95.2
X100.0Y-91.2
X100.381Y-107.782
X100.6Y-102.1
X100.7Y-97.9
X100.762Y-108.989
X100.8Y-105.2
X101.5Y-107.782
X103.0Y-92.2
X104.0Y-92.2
X104.6Y-73.3
X105.49Y-111.4
X105.49Y-115.1
X108.0Y-94.6
X108.0Y-95.6
X108.0Y-101.305
X110.0Y-78.0
X111.5Y-89.0
T2
X98.725Y-98.725
X98.725Y-100.0
X98.725Y-101.275
X100.0Y-98.725
X100.0Y-100.0
X100.0Y-101.275
X101.275Y-98.725
X101.275Y-100.0
X101.275Y-101.275
T5
X75.87Y-74.0
X75.87Y-76.54
X75.87Y-79.08
X75.87Y-81.62
X75.87Y-84.16
X75.87Y-86.7
X75.87Y-89.24
X75.87Y-91.78
X75.87Y-94.32
X75.87Y-96.86
X75.87Y-99.4
X75.87Y-101.94
X75.87Y-104.48
X75.87Y-107.02
X75.87Y-109.56
X75.87Y-112.1
X75.87Y-114.64
X75.87Y-117.18
X78.41Y-74.0
X78.41Y-76.54
X78.41Y-79.08
X78.41Y-81.62
X78.41Y-84.16
X78.41Y-86.7
X78.41Y-89.24
X78.41Y-91.78
X78.41Y-94.32
X78.41Y-96.86
X78.41Y-99.4
X78.41Y-101.94
X78.41Y-104.48
X78.41Y-107.02
X78.41Y-109.56
X78.41Y-112.1
X78.41Y-114.64
X78.41Y-117.18
X91.11Y-74.0
X91.11Y-76.54
X121.59Y-74.0
X121.59Y-76.54
X121.59Y-79.08
X121.59Y-81.62
X121.59Y-84.16
X121.59Y-86.7
X121.59Y-89.24
X121.59Y-91.78
X121.59Y-94.32
X121.59Y-96.86
X121.59Y-99.4
X121.59Y-101.94
X121.59Y-104.48
X121.59Y-107.02
X121.59Y-109.56
X121.59Y-112.1
X121.59Y-114.64
X121.59Y-117.18
X124.13Y-74.0
X124.13Y-76.54
X124.13Y-79.08
X124.13Y-81.62
X124.13Y-84.16
X124.13Y-86.7
X124.13Y-89.24
X124.13Y-91.78
X124.13Y-94.32
X124.13Y-96.86
X124.13Y-99.4
X124.13Y-101.94
X124.13Y-104.48
X124.13Y-107.02
X124.13Y-109.56
X124.13Y-112.1
X124.13Y-114.64
X124.13Y-117.18
T3
X97.575Y-74.53G85X97.575Y-74.93
G05
X102.425Y-74.53G85X102.425Y-74.93
G05
T4
X97.275Y-71.45G85X97.275Y-71.95
G05
X102.725Y-71.45G85X102.725Y-71.95
G05
T0
M30
